<?xml version="1.0" encoding="UTF-8" standalone="no"?>
<!-- Created with Inkscape (http://www.inkscape.org/) -->

<svg
   width="123.88918mm"
   height="47.275127mm"
   viewBox="0 0 123.88918 47.275127"
   version="1.1"
   id="svg304"
   inkscape:version="1.2.2 (b0a8486541, 2022-12-01)"
   sodipodi:docname="all.svg"
   xml:space="preserve"
   xmlns:inkscape="http://www.inkscape.org/namespaces/inkscape"
   xmlns:sodipodi="http://sodipodi.sourceforge.net/DTD/sodipodi-0.dtd"
   xmlns="http://www.w3.org/2000/svg"
   xmlns:svg="http://www.w3.org/2000/svg"><sodipodi:namedview
     id="namedview306"
     pagecolor="#ffffff"
     bordercolor="#666666"
     borderopacity="1.0"
     inkscape:showpageshadow="2"
     inkscape:pageopacity="0.0"
     inkscape:pagecheckerboard="0"
     inkscape:deskcolor="#d1d1d1"
     inkscape:document-units="mm"
     showgrid="false"
     inkscape:zoom="4.685563"
     inkscape:cx="188.34449"
     inkscape:cy="92.945073"
     inkscape:window-width="1920"
     inkscape:window-height="1039"
     inkscape:window-x="0"
     inkscape:window-y="0"
     inkscape:window-maximized="1"
     inkscape:current-layer="layer1" /><defs
     id="defs301" /><g
     inkscape:label="Layer 1"
     inkscape:groupmode="layer"
     id="layer1"
     transform="translate(18.048759,-54.618266)"><g
       id="g1985"
       transform="matrix(0.87435001,0,0,0.87435001,3.2784346,17.058026)"><path
         style="fill:#bd8b35;stroke:none;stroke-width:0.0421857"
         d="m 89.232442,42.982557 c -1.093043,0.0704 -2.915033,0.514345 -3.328044,1.707938 -0.164942,0.475893 0.09329,0.905099 0.374613,1.265572 0.608731,0.780931 1.885284,1.184156 2.866519,0.914675 0.166219,-0.04558 0.252701,-0.336937 0.07337,-0.425177 -0.181817,-0.08957 -0.461925,-0.0077 -0.661464,-0.04518 -0.757245,-0.141859 -2.0342,-0.494483 -1.815262,-1.498956 0.08854,-0.405861 0.633643,-0.702656 0.97155,-0.875584 0.9863,-0.504828 2.02744,-0.661375 3.121745,-0.454963 1.473553,0.277889 3.084626,1.054963 3.974312,2.300819 0.29826,0.417262 0.51298,0.999376 0.699863,1.4765 0.04724,0.121243 0.07426,0.510702 0.259862,0.486572 0.226127,-0.02935 0.0869,-0.626542 0.08615,-0.781871 -0.0044,-0.761165 -0.688039,-1.696734 -1.188363,-2.234186 -1.478186,-1.588945 -3.361777,-1.969715 -5.434791,-1.836152 m -53.702454,5.673395 c -0.891305,-0.518254 -1.807373,-1.07502 -2.742082,-1.513626 -0.286274,-0.134358 -0.599627,-0.159083 -0.8859,-0.286269 -0.444471,-0.197489 -0.920375,-0.61195 -1.392135,-0.71296 -0.376543,-0.08061 -0.891884,0.456923 -0.999297,0.782605 -0.09432,0.286021 0.560485,0.437001 0.746194,0.509478 0.876525,0.342125 1.730547,0.751581 2.573324,1.173522 2.32469,1.163865 4.526908,2.495121 6.346461,4.373188 0.807408,0.833379 1.464579,1.500421 1.837543,2.634712 0.369117,1.122562 -0.761835,2.435594 -1.430029,3.252058 -0.195824,0.239278 -1.08104,0.729391 -0.816631,1.08662 0.201067,0.271676 0.619203,-0.166677 0.753323,-0.331241 0.557647,-0.684253 1.061298,-1.434487 1.510122,-2.19345 0.164735,-0.278636 0.383718,-0.613929 0.466026,-0.928087 0.359892,-1.373906 -0.388619,-2.69027 -1.114091,-3.796718 -0.382871,-0.583935 -0.957363,-0.92311 -1.477978,-1.356103 -0.622902,-0.518083 -1.198153,-1.10898 -1.839043,-1.60019 -0.401648,-0.307831 -1.373434,-0.566134 -1.535807,-1.093539 M 63.246081,46.18656 c -0.688766,0.06032 -1.573744,0.07921 -2.193661,0.419871 -0.249909,0.137328 -0.669901,0.672035 -0.210128,0.842718 0.187684,0.06965 0.374151,-0.05724 0.54762,-0.110486 0.43654,-0.134031 0.893118,-0.35605 1.349948,-0.404984 0.347741,-0.03725 0.672472,0.06479 1.012459,0.113696 0.772337,0.111036 1.511934,0.220166 2.235831,0.529768 0.850472,0.363767 1.68744,1.087127 2.362407,1.707974 0.213041,0.1957 0.675828,0.762551 1.003173,0.702942 0.274212,-0.05003 0.09745,-0.446241 0.0074,-0.572757 -0.338739,-0.474251 -0.764406,-0.880543 -1.221266,-1.243846 -0.426929,-0.339723 -0.788024,-0.742891 -1.265575,-1.01617 -0.677507,-0.38773 -1.414061,-0.495306 -2.151475,-0.681625 -0.462491,-0.116845 -0.993013,-0.329441 -1.476493,-0.2871 m -9.829288,2.131912 c -0.423631,0.571575 -1.159144,1.539696 -0.936938,2.320218 0.118835,0.417386 0.585692,0.485177 0.936938,0.633418 0.864509,0.364822 1.89448,1.140451 2.868628,0.835868 0.688307,-0.215147 0.261852,-0.964493 0.484964,-1.425288 0.117202,-0.242145 0.457263,-0.297917 0.696238,-0.341071 0.705686,-0.127361 1.595091,0.742343 2.042802,1.17888 0.136659,0.133229 0.437044,0.231854 0.541366,-0.0023 0.07279,-0.163341 -0.0104,-0.371318 -0.0104,-0.54217 0,-0.217552 0.119727,-0.5153 -0.02659,-0.707666 -0.148959,-0.195827 -0.478384,-0.210844 -0.691723,-0.299518 -0.837548,-0.348159 -1.76838,-0.503234 -2.573279,-0.01114 -0.412624,0.252271 -0.494173,1.118091 -0.970494,1.238153 -0.41763,0.105303 -1.205252,-0.292727 -1.560703,-0.485727 -0.885898,-0.481088 -0.807986,-1.667731 -0.04219,-2.208046 0.224049,-0.15807 0.555791,-0.02679 0.788113,-0.219366 0.202079,-0.167562 0.0713,-0.481634 -0.113933,-0.596845 -0.372874,-0.231935 -1.085273,-0.112002 -1.517877,-0.182831 -1.361844,-0.223037 -2.918535,-0.660672 -4.302946,-0.436623 -0.551082,0.08919 -1.093785,0.235311 -1.645075,0.322468 -0.15441,0.02442 -0.346343,0.141785 -0.243879,0.327023 0.07591,0.137194 0.276396,0.143731 0.412461,0.130867 0.431251,-0.04088 0.88024,-0.102668 1.307748,-0.177518 0.624521,-0.109343 1.283757,0.06449 1.898356,0.167519 0.880462,0.147653 1.794537,0.258178 2.657708,0.481508 m 59.566302,5.27322 -0.0422,-0.464042 c -0.64165,0 -1.84815,-0.08407 -2.30375,-0.598406 -0.19321,-0.218479 -0.29066,-0.682522 -0.20967,-0.962468 0.0919,-0.315803 0.3434,-0.785498 0.12908,-1.09683 -0.64039,-0.931208 -1.65496,-1.586269 -2.63578,-2.087771 -1.05127,-0.537491 -1.88696,-0.919819 -3.07955,-0.955003 -0.95004,-0.02805 -1.83003,-0.011 -2.56955,0.692562 -0.2721,0.259233 -0.23328,0.808238 0.24933,0.677928 0.87409,-0.235988 1.72538,-0.658563 2.6577,-0.688304 0.97154,-0.03096 1.59842,0.44679 2.40458,0.878392 0.8045,0.430802 1.7292,0.799463 2.30294,1.56661 0.44167,0.590643 -0.76189,0.919988 -0.73742,1.47646 0.0438,1.012711 1.04452,1.662962 1.9781,1.68511 0.27125,0.0065 0.49651,-0.147102 0.75933,-0.164103 0.37672,-0.02439 0.71506,0.152755 1.09685,0.03987 M 90.202344,49.583966 c -0.482603,0.212279 -0.792242,0.661092 -1.11623,1.054646 -0.130867,0.158575 -0.337491,0.306773 -0.406682,0.506229 -0.06715,0.193969 0.107546,0.482772 0.266205,0.59001 0.196151,0.132456 0.394011,-0.02545 0.581726,-0.09708 0.372933,-0.142334 1.049162,-0.606208 1.434321,-0.584736 0.216844,0.01218 0.393595,0.270116 0.590594,0.353812 0.24679,0.104783 0.392765,-0.01903 0.632796,-0.01911 0.19786,-8.5e-5 0.342972,0.105467 0.548422,0.03771 0.287699,-0.09493 0.423111,-0.388364 0.586376,-0.617939 0.108882,-0.153262 0.296983,-0.257544 0.382619,-0.423671 0.160307,-0.310572 -0.249316,-0.739391 -0.50496,-0.860083 -0.326943,-0.154569 -0.877045,0.02809 -1.139016,0.24282 -0.139186,0.114201 -0.350978,0.445735 -0.55389,0.300743 -0.272948,-0.195235 -0.612964,-0.765756 -0.550116,-1.116151 0.03803,-0.210675 0.174242,-0.418355 0.228223,-0.632787 0.05526,-0.219493 0.277167,-0.480158 0.139185,-0.70737 -0.181817,-0.299475 -0.712934,0.175747 -0.852566,0.331622 -0.409623,0.456703 -0.401186,1.079112 -0.267036,1.641321 m -58.638203,-0.337485 0.210932,0.8859 c -0.392794,0.07293 -1.566644,-0.07167 -1.073242,-0.715513 0.372117,-0.485642 0.926807,-0.378659 1.1998,-0.929731 -1.17125,-0.438606 -2.962789,1.32826 -1.602428,2.19387 0.20202,0.12858 0.408273,0.103729 0.632143,0.140062 0.491218,0.0797 1.213689,0.282097 1.58539,-0.184266 0.245571,-0.308125 0.213086,-1.210267 -0.160085,-1.431321 -0.209462,-0.124109 -0.571285,-6.77e-4 -0.79251,0.04101 m 15.524356,-0.698002 c -0.765875,0.100576 -1.835625,0.652781 -2.241031,1.331424 -0.167305,0.28003 -0.536851,1.340453 0.08972,1.366017 0.161452,0.0065 0.537876,-0.08007 0.668729,-0.174564 0.19679,-0.142127 0.252657,-0.455353 0.435277,-0.631014 0.460797,-0.443331 1.263303,-0.837263 1.571545,-1.406432 0.202658,-0.374273 -0.222398,-0.525087 -0.52424,-0.485431 m 1.940544,1.330792 c -0.758835,0.756727 -1.629671,1.473423 -2.61551,1.892031 -0.247221,0.105005 -0.803977,0.240712 -0.621447,0.636795 0.169117,0.366889 0.793356,0.150982 1.085482,0.09499 1.009977,-0.193633 2.118825,-0.27948 3.121746,0.02422 1.428454,0.432533 3.064287,1.18078 4.1342,2.245549 0.284462,0.283109 0.541962,0.588281 0.836554,0.860927 0.07532,0.06965 0.236867,0.271633 0.359594,0.187896 0.161066,-0.109849 -0.140522,-0.457126 -0.209803,-0.542636 -0.401989,-0.496442 -0.828071,-1.008239 -1.323835,-1.414742 -0.447204,-0.36668 -0.989419,-0.591824 -1.476449,-0.897671 -0.728722,-0.457546 -1.40458,-0.952089 -2.278075,-1.141756 -0.498808,-0.108333 -1.049162,-0.288046 -1.56088,-0.298086 -0.116607,-0.0023 -0.475517,0.122043 -0.55175,0.0107 -0.06031,-0.08821 0.07234,-0.194223 0.130867,-0.239361 0.214304,-0.165032 0.49927,-0.33023 0.75833,-0.406419 0.0104,0.140017 -0.0014,0.452822 0.115715,0.547234 0.222948,0.17853 1.065175,-0.05202 1.276449,-0.194308 0.274285,-0.18473 0.502982,-0.525803 0.843712,-0.563855 -0.0074,-0.1614 0.03401,-0.44797 -0.173335,-0.502727 -0.213383,-0.0564 -0.451186,0.237421 -0.62819,0.322384 -0.330703,0.158787 -0.816202,0.280619 -1.181204,0.22253 0.292765,-0.193084 0.619799,-0.318081 0.885899,-0.550694 0.140671,-0.12289 0.279024,-0.248895 0.421819,-0.36921 0.262684,-0.221221 0.460411,-0.928086 -0.08452,-0.975967 -0.564481,-0.04965 -1.015949,0.342001 -1.560702,0.399626 -0.289229,0.03059 -0.598615,-0.235903 -0.885855,-0.09863 -0.338455,0.161698 -0.657497,0.710322 -0.251306,0.972803 0.379678,0.245309 1.001198,-0.304624 1.432465,-0.221645 m 48.049575,0.632786 c -0.02614,0.332088 -0.365759,0.787904 -0.262402,1.096788 0.124481,0.371531 0.535337,0.387054 0.852997,0.349594 0.677092,-0.0799 1.182881,-0.25552 1.813988,-0.518294 0.04381,0.169755 0.05824,0.598447 0.26155,0.660377 0.14633,0.04459 0.284769,-0.189668 0.360709,-0.280704 0.20503,-0.245185 0.7142,-0.653417 0.4805,-1.008031 -0.2219,-0.336853 -0.603679,-0.260328 -0.891819,-0.09512 -0.442954,0.253958 -0.856797,0.48446 -1.349961,0.626838 -0.13666,0.03944 -0.357307,0.15693 -0.499478,0.108972 -0.214304,-0.07243 0.0014,-0.3644 0.05987,-0.476362 0.160293,-0.310444 0.767361,-0.854556 0.739093,-1.18116 -0.0202,-0.235395 -0.24722,-0.373258 -0.468254,-0.307406 -0.597352,0.177813 -1.159278,0.390259 -1.729625,0.64485 -0.02911,-0.228139 0.246374,-0.429029 0.162833,-0.630972 -0.09284,-0.225187 -0.430286,-0.311708 -0.626883,-0.187303 -0.41974,0.265642 -0.807438,0.842786 -1.156738,1.204487 -0.150162,0.155581 -0.348438,0.372752 -0.102492,0.55276 0.305435,0.223457 0.704096,-0.105333 0.967746,-0.247208 0.356891,-0.191945 0.985884,-0.294752 1.388332,-0.312091 m -16.452441,0.674969 c -0.222324,0.755589 -1.053813,1.334885 -1.645253,1.792852 -1.391705,1.077427 -2.752615,1.98982 -4.387322,2.655722 -0.589316,0.240079 -1.199324,0.448307 -1.770951,0.731374 -0.174226,0.08614 -0.38642,0.33951 -0.305004,0.551073 0.05645,0.147148 0.224851,0.135591 0.346359,0.08745 0.44927,-0.177645 0.955922,-0.267332 1.39212,-0.459023 1.205668,-0.529938 2.714662,-0.923404 4.049831,-0.796214 0.80533,0.07669 1.546947,0.372499 2.32022,0.583429 -0.135026,0.283741 -0.455613,0.492856 -0.67455,0.717157 -0.275891,0.283151 -0.482604,0.618613 -0.726438,0.928086 -0.121063,0.153431 -0.468268,0.405744 -0.349716,0.626502 0.128192,0.239276 0.597769,-0.06117 0.780433,-0.119043 0.599878,-0.190173 1.185421,-0.212151 1.813983,-0.212151 0.253951,0 0.655568,0.105124 0.885913,0.0246 0.272504,-0.09534 0.726854,-0.687924 0.970258,-0.631227 0.912057,0.212364 1.662127,1.254816 2.242591,1.914391 0.975767,1.109189 2.186501,2.311399 2.661498,3.754532 0.238784,0.725425 0.2004,1.484051 0.2004,2.235843 0.478802,-0.144487 0.262804,-1.071811 0.215151,-1.434315 -0.192378,-1.462073 -0.77412,-2.600878 -1.568055,-3.83515 -0.126114,-0.195531 -0.340432,-0.329217 -0.487238,-0.509981 -0.656414,-0.806044 -1.337708,-1.525734 -2.167517,-2.156958 -1.346147,-1.023933 -2.800283,-1.85668 -4.429493,-2.33262 -0.491055,-0.143389 -1.044528,-0.325379 -1.560881,-0.331284 -0.418477,-0.0048 -0.850886,0.09694 -1.265576,0.138235 0.209669,-0.537236 1.077847,-0.92678 1.56088,-1.188541 0.815445,-0.441897 1.709365,-1.111806 2.362408,-1.764463 0.188561,-0.188443 0.707022,-0.427089 0.76947,-0.675773 0.05852,-0.233457 -0.08184,-0.463834 -0.229069,-0.631986 -0.514258,-0.588913 -1.097693,-0.319176 -1.763791,-0.09985 -0.206297,0.06787 -0.399077,0.24822 -0.631102,0.158745 -0.554752,-0.214009 -0.267467,-1.473676 -1.140711,-1.182594 -0.10502,0.03493 -0.201216,0.08298 -0.295289,0.141071 -0.40077,0.247716 -1.039463,0.688558 -1.126792,1.193563 -0.160293,0.929732 1.351212,0.764448 1.843945,0.58094 0.738678,-0.275092 1.309025,-0.447759 2.109288,-0.454383 m 3.712341,-1.394576 c -0.827685,0.298844 -0.767347,1.085735 -0.20713,1.64537 0.384743,0.384143 1.133536,0.369928 1.641451,0.430718 0.197845,0.02366 0.438307,0.07378 0.624773,-0.02822 0.211349,-0.1153 0.03253,-0.40414 -0.119429,-0.483364 -0.234549,-0.12246 -0.478384,0.04316 -0.716321,0.01722 -0.749209,-0.08175 -0.862696,-0.751791 -0.903204,-1.326109 -0.01336,-0.181399 -0.129975,-0.324324 -0.320185,-0.255603 m -42.945086,0.0868 c -0.299522,0.07036 -0.912607,0.466953 -0.754913,0.842069 0.07768,0.184985 0.273781,0.301882 0.417422,0.430674 0.402494,0.360858 1.034145,0.904168 1.560881,1.056375 0.244294,0.07057 1.000262,3.78e-4 0.834592,-0.429073 -0.07724,-0.200339 -0.382499,-0.337106 -0.539303,-0.472395 -0.559251,-0.482564 -1.154792,-0.744072 -1.518679,-1.42765 m 27.378558,0.8859 c 0.0312,0.164693 0.233286,0.689821 0.134579,0.818277 -0.239629,0.31091 -1.140293,-0.05143 -1.082064,-0.438605 0.112596,-0.749893 1.112427,-0.515426 1.284975,-1.181202 -0.790578,-0.146895 -1.213273,0.05519 -1.726253,0.674973 -0.162834,0.196797 -0.40034,0.438816 -0.367423,0.717157 0.120172,1.018408 1.677709,1.302275 2.473324,0.970063 0.528592,-0.220844 0.564451,-1.285654 0.117349,-1.619428 -0.189422,-0.141191 -0.630255,-0.0104 -0.834428,0.05877 m 38.43124,0.970272 c 8.5e-4,0.09884 0.006,0.19667 0.0103,0.295343 0.0438,0.78744 0.7817,-0.220716 0.9382,-0.418145 0.11348,-0.143301 0.38052,-0.270286 0.40414,-0.467798 0.0442,-0.374315 -0.84877,-0.700663 -1.13816,-0.665564 -0.25439,0.03089 -0.42609,0.532046 -0.59862,0.703784 -0.27464,0.273068 -0.6193,0.273617 -0.96649,0.383638 0.0164,-0.202324 0.0752,-0.393508 0.12107,-0.590602 0.10888,-0.468008 -0.4033,-0.521879 -0.75217,-0.364062 -0.25015,0.113308 -0.19912,0.364231 -0.30965,0.574358 -0.108,0.204728 -0.33158,0.291927 -0.53576,0.371698 -0.0994,0.03893 -0.25648,0.117826 -0.35941,0.04792 -0.20123,-0.136764 0.14305,-0.387055 0.23285,-0.468306 0.22527,-0.203883 1.28666,-0.754238 0.94497,-1.160614 -0.18392,-0.218184 -0.54123,0.06926 -0.73235,0.14841 -0.22992,0.09518 -0.40289,0.303276 -0.59229,0.460374 -0.37503,0.310741 -1.04662,0.594905 -1.07995,1.149562 -0.0133,0.209833 0.12194,0.33639 0.27842,0.451598 0.52269,0.384271 0.9302,0.05544 1.43432,-0.209535 0.11943,-0.06278 0.2797,-0.213714 0.42185,-0.198483 0.47419,0.05079 0.78214,0.691044 1.34995,0.57748 0.39527,-0.07905 0.59313,-0.461554 0.92809,-0.62106 m -43.197591,-1.74425 c -0.571789,0.178108 -1.093964,1.170952 -0.505597,1.590193 0.577909,0.411776 1.063111,-0.137061 1.642965,-0.122756 0.232813,0.0057 0.331535,0.267289 0.591396,0.136809 0.359431,-0.18026 0.523527,-1.580237 -0.08349,-1.538685 -0.5799,0.03971 -0.542302,1.27089 -1.223226,1.091178 -0.625324,-0.16499 -0.05942,-0.625615 0.02481,-0.888938 0.08378,-0.262016 -0.271241,-0.322511 -0.446864,-0.267796 m 26.323916,0.189794 c 0.169577,-0.0024 0.461926,0.263704 0.343804,0.439998 -0.116012,0.173299 -0.64713,0.346639 -0.849209,0.348244 -0.214288,0.0017 -0.217244,-0.179247 -0.127004,-0.330441 0.09997,-0.167268 0.424389,-0.45489 0.63238,-0.457801 m 1.813983,0.921674 -0.04218,-0.04219 c -4.32e-4,-0.137907 -0.07843,-0.287832 -0.04931,-0.421815 0.04649,-0.209283 0.51087,-0.591865 0.692687,-0.319051 0.128639,0.19338 -0.440832,0.706654 -0.60114,0.783052 M 78.052768,50.469872 c 0.06804,0.107442 0.133244,0.215487 0.172117,0.337487 0.22696,0.707667 -1.09977,0.556893 -0.644603,-0.03486 0.0502,-0.06483 0.112595,-0.119221 0.178875,-0.166592 0.0924,-0.06615 0.186037,-0.104114 0.293611,-0.13605 m -5.020101,0.07201 c -0.484296,0.157818 -0.586376,0.696361 -0.291087,1.066963 0.421017,0.528418 1.179509,0.972129 1.851952,1.056966 0.154395,0.01949 0.391486,0.151616 0.539138,0.07699 0.191532,-0.09682 0.196582,-0.388237 0.07546,-0.535505 -0.167052,-0.202113 -0.451395,-0.263999 -0.655151,-0.419666 -0.435768,-0.332634 -0.726854,-0.675562 -1.04493,-1.101174 -0.107991,-0.14474 -0.305005,-0.200131 -0.475444,-0.144577 M 61.558076,52.7057 c -0.55579,-0.277793 -1.283698,0.621101 -1.729595,0.940321 -0.167825,0.120142 -0.445244,0.247546 -0.558004,0.423375 -0.08675,0.135205 -0.01694,0.333141 0.07011,0.449658 0.365329,0.489398 1.041692,0.68898 1.584752,0.894635 1.137798,0.430926 2.274454,0.256362 3.459237,0.204474 0.825991,-0.03616 1.645669,0.01725 2.446764,-0.227086 0.678769,-0.207047 1.329271,-0.38039 1.940543,-0.758458 0.278429,-0.172035 0.584682,-0.364654 0.426498,-0.743229 -0.06075,-0.14486 -0.232427,-0.213037 -0.372918,-0.127866 -0.198692,0.120825 -0.32188,0.415782 -0.517615,0.567103 -0.334951,0.259146 -0.897292,0.415403 -1.307763,0.516058 -0.329885,0.08091 -0.632364,0.246027 -0.970272,0.296609 -1.220477,0.182621 -2.376829,0.02219 -3.585796,-0.148748 -0.667836,-0.09441 -1.564356,-0.224597 -2.004147,-0.822537 -0.268346,-0.364866 0.548496,-0.561072 0.780774,-0.522471 1.198612,0.1992 3.324403,1.011698 4.007644,-0.519983 0.08854,-0.199159 0.392318,-0.571911 0.310054,-0.795286 -0.0814,-0.221895 -0.732541,-0.153977 -0.869351,-0.01712 -0.106802,0.106935 -0.06223,0.298295 -0.10041,0.43274 -0.06625,0.232656 -0.208913,0.453161 -0.395617,0.604566 -0.626289,0.507746 -1.375646,0.211394 -2.024292,-0.131283 -0.214467,-0.11331 -0.578501,-0.246112 -0.590608,-0.515467 m 21.008509,4.598248 v 0.04219 c -0.48134,0.338457 -1.565099,0.290448 -2.151475,0.295302 0.06744,-0.204559 0.293196,-0.302896 0.464036,-0.420847 0.184773,-0.127435 0.404573,-0.366341 0.632795,-0.400765 0.299939,-0.04521 0.819247,0.316479 1.054644,0.484125 m 24.045907,5.695077 c 0.17085,0.443669 0.28518,0.968248 0.40163,1.434315 0.0659,0.261594 0.0974,0.55314 0.31975,0.735804 0.2607,0.213883 0.61379,0.202618 0.92386,0.276654 -0.18518,0.224429 -0.50579,0.239278 -0.69353,0.468473 -0.15523,0.189414 -0.12404,0.536898 -0.32526,0.67316 -0.26661,0.180849 -0.7374,0.199328 -1.04831,0.268384 -0.41933,0.09311 -0.80955,0.288215 -1.22338,0.381656 -0.59482,0.134446 -1.43558,-0.210845 -1.93253,0.247587 -0.39612,0.365161 -0.42398,1.074262 -0.65179,1.54653 -0.6893,1.428622 -2.06793,2.679809 -1.031,4.302947 0.12358,0.193128 0.15524,0.535212 0.36954,0.641056 0.71968,0.355753 1.19765,-0.18992 1.85364,-0.345754 -0.0401,0.318122 0.0991,0.5045 0.11973,0.801528 0.0263,0.377521 -0.24298,0.908724 0.001,1.253382 0.22146,0.311247 0.67453,0.462736 1.01708,0.589336 0.55855,0.206583 1.0846,0.381738 1.55708,0.762675 0.50411,0.406546 0.73995,1.277344 1.39594,1.499156 0.29149,0.09858 0.68298,0.0173 0.97027,-0.06138 0.19153,-0.05248 0.38009,-0.128668 0.54842,-0.234215 0.56781,-0.355879 1.37905,-1.174746 1.59715,-1.826224 0.17676,-0.529008 0.0346,-1.64769 0.63912,-1.938728 0.22947,-0.110442 0.41932,0.139081 0.59017,0.250582 0.2067,0.134864 0.44379,0.167308 0.62856,0.346007 0.17424,0.169125 0.20883,0.437721 0.37588,0.599546 0.25059,0.241977 0.71632,-0.105675 0.85806,-0.312681 0.14721,-0.21536 0.20461,-0.50467 0.2413,-0.758712 0.21261,-1.478146 -1.0057,-2.242763 -2.31472,-2.457152 -0.37125,-0.06084 -1.34193,0.03386 -1.55961,-0.336601 -0.0974,-0.166085 0.0164,-0.423543 0.0848,-0.581107 0.2236,-0.513401 0.70788,-0.852491 0.95004,-1.349944 0.14854,-0.304456 0.10888,-0.686447 0.18729,-1.01246 0.48134,0.25358 0.8454,0.0095 1.30776,0.160307 0.19702,0.06429 0.27041,0.229068 0.43283,0.334321 0.29191,0.189457 0.82598,0.344701 1.17023,0.243074 1.61698,-0.477711 1.09515,-2.659601 0.20923,-3.518165 -0.7686,-0.745 -1.91439,-0.873794 -2.90912,-1.058441 0.10005,-0.313355 0.36533,-0.545714 0.56317,-0.801529 0.40542,-0.523778 0.82474,-1.049583 1.29301,-1.518688 0.56487,-0.565753 1.27781,-1.1696 1.3841,-2.024917 0.0949,-0.761832 -0.42058,-1.042535 -0.96227,-1.461778 -0.32059,-0.24822 -0.65471,-0.624769 -1.05462,-0.734917 -0.87579,-0.241176 -2.03336,0.672737 -2.49233,1.35298 -0.189,0.279777 -0.11142,0.612665 0.25649,0.697204 0.34592,0.07952 0.8551,-0.227297 0.98081,0.315256 0.0637,0.273954 -0.19912,0.651348 -0.3164,0.885899 -0.33241,0.664848 -0.69227,1.314805 -1.15673,1.898359 -0.14975,0.188529 -0.40287,0.536604 -0.64418,0.605957 -0.14602,0.04197 -0.16705,-0.124315 -0.19026,-0.226327 -0.0819,-0.364105 -0.29149,-0.692985 -0.36573,-1.0546 -0.12568,-0.61026 0.53659,-1.295019 0.70365,-1.856175 0.12492,-0.419369 0.0291,-0.739938 -0.4455,-0.757656 -0.53491,-0.01999 -0.88548,0.64966 -1.26556,0.955339 -0.41089,0.33006 -0.9302,0.251131 -1.34952,0.506314 -0.39823,0.242609 -0.58258,0.72572 -1.01289,0.92256 -0.28644,0.131029 -0.69353,0.285765 -1.01245,0.212995 -0.48936,-0.111585 -0.85004,-0.520276 -1.39213,-0.59811 -0.50371,-0.07231 -1.06098,0.07733 -1.2217,0.614733 -0.33749,1.131211 0.95845,1.593945 1.44023,2.404588 0.22653,0.381865 0.20206,0.914923 0.5847,1.196008 0.32143,0.236197 0.85086,0.278173 1.1795,0.05083 0.97153,-0.672272 0.61212,-1.757119 0.86565,-2.723342 0.0869,-0.332425 0.3337,-0.645104 0.56866,-0.885902 M 63.076112,59.413287 c -0.22733,0.389457 -0.720524,-0.0071 -0.908507,0.464084 -0.487876,1.223258 -0.0104,2.656479 -0.345883,3.923233 -0.07532,0.284332 -0.187387,0.513401 -0.433079,0.690286 -0.187847,0.135249 -0.490832,0.187515 -0.596715,0.410972 -0.257914,0.54424 -0.189912,1.379138 -0.715429,1.787877 -0.323053,0.251257 -1.275781,0.40549 -1.640811,0.213965 -0.632989,-0.332129 -1.041692,-1.088477 -1.81336,-0.431518 -0.495378,0.421773 -0.211557,1.431954 -0.211557,2.011037 0,0.368874 0.05436,0.677209 -0.33749,0.843716 0,-0.40085 0.05823,-0.955171 -0.168523,-1.307 -0.205911,-0.319514 -0.779185,-0.420126 -1.013973,-0.08281 -0.465579,0.66873 -0.216502,1.64727 -0.350072,2.402269 -0.104427,0.590518 -0.499775,1.142179 -0.654513,1.729616 -0.0967,0.366763 -0.188561,0.854599 0.164022,1.117332 0.240076,0.17891 0.771744,0.157185 0.997901,-0.03865 0.229528,-0.198738 0.260337,-0.434766 0.603309,-0.445904 0,0.771579 -0.235278,1.402508 -0.509356,2.109289 -0.139928,0.36073 -0.265819,0.983391 -0.09582,1.34931 0.223499,0.481383 0.922144,0.415996 1.187027,0.04279 0.53391,-0.752298 0.671342,-1.663174 0.912591,-2.531102 0.229293,-0.824733 0.568463,-1.631662 0.839896,-2.446775 0.137551,-0.413083 0.173958,-0.857468 0.308629,-1.265403 0.03951,-0.119682 0.148959,-0.290196 0.298958,-0.26206 0.201485,0.03783 0.03134,0.40781 -6.69e-4,0.515005 -0.149256,0.498003 -0.367867,1.039963 -0.367867,1.560874 0,0.538416 0.143493,1.11923 -0.03164,1.645244 -0.164438,0.494164 -0.692226,0.828064 -0.899074,1.307759 -0.09313,0.2162 -0.03951,0.528122 -0.03951,0.759343 0,0.670965 0.003,1.824449 0.533153,2.334855 0.321923,0.310107 1.043428,0.0107 1.310955,-0.239446 0.525473,-0.491254 0.978798,-1.015116 1.572942,-1.432207 0.854393,-0.599797 1.802398,-0.887082 2.136799,-1.97096 0.124033,-0.4022 0.04456,-0.810938 -0.137403,-1.181201 -0.127153,-0.258853 -0.386837,-0.623844 -0.17849,-0.914462 0.24642,-0.343688 0.628784,0.582544 0.67773,0.745719 0.202435,0.674759 -0.02569,1.364076 -0.299152,1.982731 -0.232069,0.524959 -0.665103,1.039497 -0.785498,1.603056 -0.05987,0.279778 0.01797,0.56276 0.02036,0.843717 0.648822,0.08736 1.20693,0.152712 1.720638,-0.356047 0.245602,-0.243202 0.51537,-1.245831 1.01975,-1.061732 0.164661,0.06007 0.254129,0.267794 0.34128,0.405321 0.243002,0.38233 0.426498,0.787861 0.648392,1.181201 0.341709,0.604606 0.716737,1.089785 1.247439,1.538261 0.138739,0.117365 0.248468,0.31091 0.42271,0.376846 0.260709,0.09838 0.646699,0.03215 0.927654,0.06762 0.141711,-0.379756 0.304158,-0.855865 0.192795,-1.265572 -0.07175,-0.263239 -0.353103,-0.502053 -0.514243,-0.717159 -0.312601,-0.416679 -0.587659,-0.876081 -0.804488,-1.349954 -0.157352,-0.343392 -0.339599,-0.733104 -0.437892,-1.09683 -0.06373,-0.234385 -0.03164,-0.497327 -0.147651,-0.717158 -0.174228,-0.330018 -0.630256,-0.561998 -0.721803,-0.928087 -0.104575,-0.416584 -0.03372,-0.886829 -0.01515,-1.307759 0.03327,-0.759681 0.02109,-1.573485 -0.124926,-2.320216 -0.09582,-0.489313 -0.261125,-1.05494 -0.67559,-1.374454 -0.775427,-0.597942 -0.862073,0.458558 -0.969648,0.910411 -0.460381,-0.351745 -0.666455,-0.801529 -0.796639,-1.349945 -0.03506,-0.147446 -0.141414,-0.372247 -0.05065,-0.51433 0.257797,-0.403718 1.051406,-0.489566 1.480043,-0.555122 0.435352,-0.0666 0.754705,0.572208 1.223389,0.596254 0.25101,0.01292 0.465729,-0.158873 0.631103,-0.328964 0.545466,-0.561577 0.433241,-1.3761 0.1172,-2.024285 -0.308376,-0.632406 -1.1483,-0.941416 -1.803021,-0.597982 -0.305971,0.160474 -0.488678,0.473957 -0.801527,0.626501 -0.279394,0.136214 -1.177993,0.585285 -1.305949,0.05522 -0.06134,-0.254254 0.204144,-0.55504 0.378503,-0.702647 0.500191,-0.423587 1.387308,-0.415867 1.78643,-0.943779 0.286778,-0.379503 0.569843,-1.240937 0.136957,-1.613943 -0.285337,-0.245774 -0.741456,-0.194392 -0.929644,-0.578535 -0.135323,-0.276148 -0.0044,-0.593174 -0.02808,-0.885269 -0.05496,-0.683705 -0.542629,-0.985205 -1.177282,-1.012457 m -5.062289,2.132826 c -0.867419,0.100307 -0.479869,0.878392 -0.790651,1.367958 -0.203579,0.320739 -0.654201,0.277118 -0.850961,0.55854 -0.244682,0.349847 -0.233378,1.326531 0.16971,1.564711 0.465937,0.275349 1.054689,0.195785 1.51409,0.491592 0.346387,0.223037 0.581532,1.008028 1.012501,0.963606 0.738247,-0.0761 1.022916,-0.742933 1.114552,-1.384155 0.143346,-1.003769 -0.357366,-2.672301 -1.241154,-3.214093 -0.262893,-0.161149 -0.603756,-0.385663 -0.928087,-0.348159 m -22.316263,2.796875 c -0.351899,0.140774 -0.62975,0.482184 -0.970271,0.660249 -0.507915,0.265602 -1.215235,0.414221 -1.771797,0.562631 -0.760023,0.202661 -1.828288,0.124836 -2.432266,0.710239 -0.257798,0.249867 -0.19798,0.876115 0.07175,1.092612 0.356386,0.286103 1.109189,0.252145 0.705685,0.945762 -0.433034,0.744284 -1.313406,0.904844 -1.930887,1.406474 -0.510989,0.41515 -0.781531,1.078986 -1.307851,1.481901 -0.241057,0.18452 -0.556637,0.183804 -0.799802,0.348456 -0.467734,0.316645 -0.708153,1.170949 -0.519413,1.698903 0.09582,0.267754 0.365032,0.480076 0.55992,0.674974 0.490773,0.49083 1.196087,0.972422 1.514476,1.603058 0.332039,0.657591 0.414926,1.428156 0.797306,2.067103 0.163636,0.273406 0.306773,0.545503 0.641218,0.620552 0.787534,0.176673 1.309872,-0.189752 1.261656,-1.042412 -0.01336,-0.248136 -0.11022,-1.037642 0.341456,-0.979299 0.781368,0.100855 1.47979,0.956014 2.028672,1.427356 0.220796,0.189666 0.51065,0.256236 0.737654,0.433122 0.47733,0.371993 1.309277,0.759427 1.916256,0.472142 0.36852,-0.174439 0.597085,-0.570731 0.928085,-0.803048 0.222829,-0.156383 0.487371,-0.222742 0.717152,-0.368662 0.593387,-0.376803 1.155164,-0.820134 1.687425,-1.278439 0.331668,-0.285597 0.718268,-0.547656 0.998584,-0.885944 0.324419,-0.391442 0.507826,-0.860631 0.900411,-1.205289 0.649789,-0.570479 1.606231,-0.769383 1.790915,-1.747671 0.05006,-0.265223 -0.06922,-0.591824 -0.147354,-0.843715 -0.32289,-1.041988 -1.257095,-1.76868 -2.27698,-2.105493 -0.352241,-0.116339 -0.767108,0.002 -1.09683,-0.147949 -0.521417,-0.237042 -0.787132,-0.826124 -1.2662,-1.071687 -0.264765,-0.13571 -0.804824,-0.07172 -1.096192,-0.04252 -0.596223,0.05966 -1.119364,0.34259 -1.506039,0.794318 -0.218358,0.255096 -0.381533,0.659024 -0.68826,0.819414 -0.265596,0.138874 -0.427004,-0.10808 -0.674343,-0.146598 -0.184684,-0.02877 -0.390417,0.07901 -0.548408,0.161826 -0.559103,0.292979 -1.25044,1.458023 -1.682493,0.38874 -0.207516,-0.51361 0.885557,-0.985628 1.218442,-1.149308 1.122945,-0.552085 2.319285,-0.929479 3.417051,-1.49751 0.391353,-0.202493 0.950396,-0.363136 1.122009,-0.812413 0.196553,-0.514456 -0.152286,-0.80364 -0.489228,-1.138974 -0.547785,-0.545125 -1.258283,-1.460176 -2.151474,-1.102904 m 46.573068,0.86949 c -0.515506,0.09745 -0.713782,0.552591 -0.610841,1.034902 0.167483,0.785245 0.929347,1.397108 0.563172,2.27803 -0.177182,0.425106 -0.812503,0.757361 -1.260079,0.79208 -0.505805,0.03923 -1.152936,-0.120988 -1.39677,0.515678 -0.262402,0.685985 0.282634,1.683972 0.806161,2.086972 0.196583,0.151195 0.762726,0.21886 0.793519,0.488217 0.04589,0.401778 -0.325667,0.940108 -0.526899,1.263716 -0.603265,0.967952 -1.390871,1.795721 -2.008888,2.742074 -0.241308,0.369505 -0.555596,1.347752 0.223588,1.298775 0.645021,-0.04054 1.328426,-0.586637 1.85617,-0.916992 0.523944,-0.327869 1.140696,-0.53829 1.645254,-0.878983 0.661033,-0.446452 1.203128,-1.134166 1.657047,-1.78083 0.333688,-0.475265 0.634904,-0.972508 0.922604,-1.476502 0.167898,-0.293952 0.314273,-0.6489 0.585113,-0.863584 0.878739,-0.697755 3.239021,-0.520783 3.154232,-2.173791 -0.0514,-1.00689 -0.906144,-1.703039 -1.847316,-1.872373 -0.334952,-0.06028 -0.848778,0.08154 -1.121296,-0.174185 -0.174227,-0.163258 -0.208822,-0.518674 -0.285173,-0.737702 -0.153135,-0.436032 -0.362804,-0.89923 -0.650503,-1.26376 -0.355212,-0.449869 -1.031442,-0.308883 -1.52881,-0.327655 -0.326097,-0.01233 -0.640816,-0.09634 -0.970285,-0.0341 m 29.487856,2.342661 -0.54841,1.012458 c -0.20712,-0.09483 -0.36828,-0.258431 -0.59059,-0.328163 -0.3569,-0.111913 -0.86228,0.0011 -1.05464,-0.388996 0.71208,-0.315591 1.43895,-0.585916 2.19364,-0.295299 m -8.18403,5.906007 c 0,-0.685182 -0.0805,-1.438239 0.08,-2.109289 0.29909,-1.249753 1.4423,-2.128439 2.61971,-2.531019 0.41215,-0.140938 0.83909,-0.280282 1.26559,-0.370897 0.1169,-0.02484 0.332,-0.09689 0.43662,-0.0078 0.1873,0.159083 -0.25228,0.381107 -0.35226,0.426457 -0.56907,0.257839 -1.31408,0.265644 -1.38453,1.048991 -0.065,0.721755 1.42418,0.272141 1.6001,0.971916 0.0431,0.170306 -0.15439,0.495937 -0.19995,0.673328 -0.28012,1.087465 -1.25124,1.559651 -2.33583,1.592091 -0.37546,0.01129 -0.71548,-0.153724 -1.09683,-0.06817 -0.26028,0.0584 -0.40879,0.256995 -0.63279,0.374439 M 60.081426,69.682894 c 0.689659,-0.186249 0.718461,0.646794 0.08379,0.799337 -0.462817,0.111245 -0.447725,-0.701085 -0.08379,-0.799337 m -20.460674,1.512818 c 0.631222,-0.091 1.141082,0.387983 0.774952,0.999802 -0.510024,0.852322 -1.392729,1.546911 -2.1249,2.200663 -0.248305,0.221686 -0.609118,0.61435 -0.970093,0.618865 -0.547546,0.0068 -0.209669,-0.818825 -0.06134,-1.047726 0.146167,-0.225776 0.361748,-0.396293 0.491589,-0.632787 0.464466,-0.846076 0.758552,-1.975727 1.889875,-2.138817 m -3.881085,0.294752 c 0.797441,-0.09403 0.648066,0.725089 0.455433,1.211278 -0.228979,0.578031 -0.656532,1.433432 -1.137754,1.838499 -0.143344,0.12078 -0.336421,0.139304 -0.498882,0.224893 -0.168019,0.08855 -0.351826,0.298001 -0.548408,0.306606 -0.40949,0.01793 -1.117672,-0.664383 -0.802031,-1.086115 0.10071,-0.134535 0.289897,-0.100148 0.37427,0.03012 0.168017,0.259443 0.277494,0.760441 0.719263,0.496063 0.507498,-0.303695 0.681428,-0.952344 0.931709,-1.429761 0.121954,-0.232569 0.381949,-0.375198 0.225742,-0.669361 -0.166413,-0.313397 -0.896743,0.09572 -0.806339,-0.426455 0.06521,-0.376466 0.781828,-0.459783 1.086997,-0.495769 m -5.484153,0.339724 c 0.709399,-0.07348 1.326627,0.916105 0.807692,1.486035 -0.127006,0.139468 -0.459402,0.156509 -0.638946,0.174185 -1.015028,0.100058 -1.286581,-1.54442 -0.168746,-1.66022 M 60.46061,72.2377 c 0.08556,0.350691 -0.20034,0.693788 -0.548422,0.717158 0.003,-0.386127 0.161749,-0.624181 0.548422,-0.717158 m 25.606749,1.116445 c -0.442111,0.07973 -0.865652,0.409835 -0.735722,0.908473 0.08437,0.324702 0.386006,0.553138 0.589763,0.801528 0.386421,0.471553 0.844975,0.996174 1.154614,1.518687 0.215997,0.36495 0.167051,0.925261 0.470377,1.215584 0.24847,0.237673 0.826423,0.554193 1.178664,0.500155 1.51911,-0.233077 1.894569,-2.068538 1.252504,-3.234426 -0.535767,-0.972213 -1.638079,-1.344629 -2.644624,-1.575597 -0.412164,-0.09462 -0.839925,-0.211224 -1.265576,-0.134402 m -25.142713,0.781914 c -0.07739,0.68805 -0.758582,0.01836 0,0 m 47.037134,0.51851 c 0.529,-0.05585 0.33411,0.934583 -0.16876,0.98238 -0.25774,0.02451 -1.07614,-0.33622 -0.88293,-0.687586 0.12819,-0.233034 0.81164,-0.269484 1.05169,-0.294794 m -74.415696,9.973686 c -0.90858,0.01967 -0.851942,1.355259 0.04219,1.347665 0.861938,-0.0075 0.848747,-1.366903 -0.04219,-1.347665 m 2.109289,0.687037 0.04219,0.253114 c 0.206625,-0.01646 0.477835,-0.135843 0.673155,-0.03459 0.220929,0.11475 0.277465,0.399077 0.293329,0.625193 0.03743,0.53365 0.04589,1.067299 0.04589,1.603059 v 4.176391 c 0,0.366594 -0.192928,1.250808 0.02645,1.546951 0.193331,0.261138 0.688336,0.443798 0.985958,0.547994 1.164507,0.406677 2.32646,0.188151 3.246671,-0.636583 1.137443,-1.019208 1.342225,-2.944988 0.7053,-4.284808 -0.742941,-1.562983 -2.987805,-1.80977 -3.825412,-0.168743 h -0.04219 v -4.302948 c -0.666782,-0.09508 -1.536742,0.437887 -2.151475,0.674972 M 76.15356,84.61805 c -0.885052,0.159336 -0.630671,1.493714 0.253119,1.35028 0.863959,-0.14006 0.613811,-1.506369 -0.253119,-1.35028 m 28.09574,4.2e-4 c -0.90953,0.149338 -0.63996,1.525776 0.25312,1.357454 0.85046,-0.160305 0.61168,-1.499451 -0.25312,-1.357454 m -80.827941,0.44371 -0.08437,2.067104 0.295289,0.04219 c 0.0089,-0.202492 0.04842,-0.398235 0.112895,-0.590601 0.400234,-1.195122 1.752872,-0.970271 2.755808,-0.970271 0,2.44129 0.214334,4.998167 -0.04947,7.424693 -0.04293,0.39528 -0.311347,0.698168 -0.709844,0.752586 -0.106209,0.01442 -0.568402,9.97e-4 -0.540995,0.175497 0.03492,0.221475 0.71629,0.126976 0.878485,0.12656 h 2.278035 c 0.268239,0 0.647738,0.09657 0.67498,-0.253116 -0.421388,-0.003 -0.982807,-0.02152 -1.18248,-0.46404 -0.303177,-0.67202 -0.125222,-1.683211 -0.125222,-2.404587 V 85.61061 c 0.95518,0 2.261798,-0.224008 2.746124,0.843713 0.101011,0.222742 0.134135,0.4767 0.164705,0.71716 h 0.253104 l -0.08437,-2.109291 h -7.382524 m 33.664265,0 c 0.05436,0.325677 0.510024,0.204182 0.75934,0.288973 0.341189,0.116015 0.482424,0.434937 0.53036,0.765673 0.226365,1.562561 -0.0517,3.231429 0.05645,4.809178 0.03831,0.560226 0.02436,1.116235 0.251514,1.645244 0.944112,2.199561 4.822168,2.308401 6.167557,0.464043 0.508211,-0.696486 0.545333,-1.660431 0.545333,-2.488959 v -3.163933 c 0,-0.707034 -0.140522,-1.785301 0.717153,-2.048541 0.194904,-0.05991 0.38896,-0.06073 0.590608,-0.06073 v -0.21093 h -3.206118 v 0.21093 c 0.351617,8.44e-4 0.780224,0.0059 1.050085,0.261972 0.242273,0.229913 0.257157,0.60579 0.257678,0.919228 v 1.856174 c 0,1.848581 0.488083,4.574623 -1.813984,5.224284 -0.363902,0.102926 -0.720154,0.137523 -1.096846,0.133303 -2.499036,-0.02996 -2.235847,-3.016702 -2.235847,-4.766992 v -1.139015 c 0,-0.642911 -0.187477,-1.895406 0.425666,-2.314731 0.24847,-0.169587 0.592244,-0.174228 0.882096,-0.174228 v -0.21093 h -3.881085 m -7.804369,3.332676 0.970271,0.04219 v 3.290489 c 0,0.559805 -0.06105,1.291728 0.167305,1.813988 0.588663,1.346145 2.325801,0.373346 2.574776,-0.674971 -0.465388,0.0055 -0.648898,0.679191 -1.181157,0.47501 -0.47721,-0.183086 -0.421907,-0.825996 -0.421907,-1.234354 v -3.670189 h 1.434318 V 87.973001 H 51.77033 c -0.124331,-4.21e-4 -0.298721,0.02192 -0.378489,-0.09787 -0.190685,-0.285598 -9.95e-4,-1.07869 -9.95e-4,-1.420816 0,-0.124867 0.04559,-0.385156 -0.067,-0.474589 -0.177777,-0.140909 -0.328964,0.374608 -0.3728,0.474589 -0.204901,0.466996 -0.525426,0.918384 -0.91017,1.25334 -0.249805,0.217679 -0.651674,0.361531 -0.759339,0.687205 m 57.330453,0.04219 h 0.97028 c 0.0257,1.123408 0,2.251034 0,3.374862 0,0.547994 -0.0755,1.218324 0.16032,1.729615 0.5716,1.239837 2.42104,0.483024 2.53959,-0.674971 -0.46111,0.0346 -0.71549,0.775795 -1.2618,0.421435 -0.30669,-0.199118 -0.31512,-0.642911 -0.33747,-0.969851 -0.0611,-0.891386 -0.004,-1.806394 -0.004,-2.699889 0,-0.250161 -0.11809,-0.927665 0.0674,-1.113703 0.21346,-0.213039 1.07361,-0.0675 1.36681,-0.0675 V 87.97301 l -1.4343,-0.04219 c 0.12537,-0.456026 0.0427,-1.080798 0.0421,-1.560872 0,-0.11686 0.0287,-0.479231 -0.19531,-0.394015 -0.14557,0.05569 -0.19955,0.307956 -0.25187,0.436201 -0.13799,0.336643 -0.33284,0.653879 -0.57203,0.928086 -0.26704,0.305847 -1.06013,0.707455 -1.09009,1.096831 m -9.154328,3.543604 v 1.603057 c 0,0.131625 -0.05823,0.458143 0.06744,0.545468 0.133689,0.09278 0.492303,-0.130779 0.691856,-0.08609 1.311551,0.292348 3.135672,0.31724 3.362632,-1.429679 0.20503,-1.577326 -1.56637,-1.967543 -2.603292,-2.599065 -0.465313,-0.283488 -1.002757,-0.862277 -0.574151,-1.408583 0.610856,-0.777062 1.740593,-0.367017 2.155693,0.379672 0.16495,0.296988 0.17213,0.855527 0.56994,0.885901 v -2.067107 c -0.24846,-0.01263 -0.34382,0.198273 -0.57289,0.214303 -0.34971,0.02447 -0.712519,-0.205024 -1.072374,-0.213882 -0.442522,-0.01055 -0.879568,0.01218 -1.265558,0.258177 -0.79184,0.505386 -1.095567,1.778552 -0.455196,2.525661 0.698184,0.814185 2.001719,0.885058 2.636198,1.771803 0.38474,0.538289 0.097,1.263042 -0.535759,1.437272 -0.72096,0.198695 -1.500976,-0.319772 -1.841409,-0.931043 -0.161155,-0.288973 -0.178029,-0.855949 -0.563188,-0.885901 m -65.38824,-3.206135 c 0.284921,-0.09069 0.612459,-0.184773 0.797738,0.127406 0.185784,0.313019 0.130273,0.789295 0.130273,1.138173 v 2.320217 c 0,0.41806 0.09417,0.986302 -0.257546,1.295946 -0.142601,0.125727 -0.583389,0.07846 -0.640504,0.235397 -0.09655,0.265352 0.435396,0.198276 0.560559,0.198276 h 1.729626 c 0.142304,0 0.491455,0.06288 0.588603,-0.06747 0.06551,-0.08779 0.003,-0.186886 -0.08854,-0.21431 -0.537951,-0.16115 -0.74851,-0.272098 -0.791499,-0.899401 -0.115419,-1.684477 -0.0044,-3.41578 -0.0044,-5.104476 -0.555078,4.21e-4 -1.093622,0.294034 -1.603053,0.497791 -0.245957,0.09828 -0.566099,0.153978 -0.421863,0.472482 m 16.157153,2.910816 c -0.405539,1.407741 -1.938225,1.879376 -3.036751,0.915431 -0.681086,-0.597772 -0.886536,-1.48283 -0.886536,-2.349747 h 4.17639 c -9.95e-4,-2.037571 -2.242725,-3.202321 -3.923272,-1.993278 -2.100346,1.510674 -1.537454,5.933432 1.392136,6.000508 0.96259,0.02193 1.730278,-0.572043 2.180498,-1.391712 0.164899,-0.300363 0.572592,-1.014145 0.09759,-1.181202 m 25.648932,2.404593 0.04219,-0.253115 c -0.342972,-0.101249 -0.677937,-0.02233 -0.858477,-0.421861 -0.165372,-0.367017 -0.06967,-0.913321 -0.06967,-1.307759 0,-1.003179 0.161155,-2.193237 -0.128193,-3.163932 -0.24214,-0.811654 -0.92302,-1.272322 -1.770103,-1.119609 -0.250579,0.04514 -0.499894,0.156086 -0.717154,0.286862 -0.38348,0.229912 -0.661896,0.560227 -0.970286,0.874933 v -1.181201 c -0.57877,4.21e-4 -1.115369,0.286018 -1.645238,0.497791 -0.12864,0.05147 -0.479647,0.12445 -0.474582,0.305847 0.0074,0.244256 0.348037,0.08733 0.474582,0.081 0.197859,-0.0096 0.348883,0.118538 0.421448,0.296566 0.252687,0.619708 0.08482,1.576482 0.08482,2.235847 0,0.617599 0.239616,1.916918 -0.220215,2.399102 -0.174642,0.182246 -0.369547,0.115596 -0.57161,0.211774 -0.112596,0.05401 -0.122697,0.178873 -0.003,0.232446 0.179707,0.07973 0.474581,0.02531 0.668223,0.02531 h 1.560865 c 0.144236,0 0.628993,0.07932 0.655136,-0.130362 0.02956,-0.232866 -0.39823,-0.15145 -0.528577,-0.192366 -0.242571,-0.07635 -0.371656,-0.283493 -0.417645,-0.520999 -0.168314,-0.862699 -0.0044,-1.823269 -0.0044,-2.699888 0,-0.307957 -0.097,-0.81756 0.04353,-1.096831 0.255213,-0.507916 1.093459,-0.905727 1.643976,-0.835699 0.467423,0.05906 0.661048,0.510026 0.733613,0.920072 0.15692,0.888009 0.06789,1.843095 0.06789,2.742074 0,0.384735 0.0612,0.876619 -0.142157,1.222543 -0.149761,0.256072 -0.8281,0.247212 -0.850456,0.426504 -0.0312,0.247625 0.514659,0.164945 0.655136,0.164945 h 2.32022 m 0.801526,-5.568526 0.08437,0.253116 c 0.246359,-0.05105 0.579215,-0.178869 0.774104,0.05188 0.229916,0.272099 0.196167,0.835279 0.196167,1.171499 0,1.024272 0.202924,2.297438 -0.05689,3.29049 -0.12953,0.494845 -0.427329,0.360687 -0.773257,0.531546 -0.07456,0.03717 -0.105912,0.132457 -0.05362,0.202492 0.09611,0.129084 0.41763,0.06239 0.558538,0.06198 0.557275,-9.96e-4 1.117923,0.0051 1.675199,0.0051 0.139186,4.18e-4 0.586376,0.07126 0.612951,-0.133734 0.02704,-0.207126 -0.365745,-0.161992 -0.486391,-0.22316 -0.252703,-0.128252 -0.345929,-0.3898 -0.372504,-0.65557 -0.172548,-1.720756 -0.0074,-3.543182 -0.0074,-5.27322 -0.704914,0.0021 -1.519526,0.421435 -2.151475,0.717158 m 16.283711,3.163932 c -0.159892,0.337485 -0.297829,0.688471 -0.561078,0.963102 -0.914166,0.952975 -2.313878,0.387264 -2.936542,-0.58343 -0.357307,-0.556852 -0.417229,-1.172342 -0.467852,-1.813989 h 4.21859 c -0.1021,-0.548813 -0.110124,-1.034374 -0.437111,-1.518667 -0.894752,-1.325475 -2.938222,-1.171075 -3.946476,-0.08437 -1.40014,1.509407 -1.032704,5.201502 1.346162,5.555862 1.036922,0.154401 1.93209,-0.195745 2.527348,-1.084171 0.202911,-0.302894 0.764821,-1.222965 0.256906,-1.434317 m 1.012458,-3.163932 0.08437,0.253116 c 0.294888,-0.07804 0.642494,-0.187728 0.843312,0.128237 0.180123,0.28391 0.127004,0.772001 0.127004,1.095143 v 2.404588 c 0,0.34508 0.07011,0.789296 -0.127004,1.095142 -0.197014,0.305849 -0.564452,0.296989 -0.885484,0.296989 0.0044,0.115167 -0.001,0.243829 0.132799,0.281795 0.263665,0.07423 0.688899,-0.008 0.963958,-0.02491 0.43957,-0.0283 0.871132,0.03756 1.307747,0.03838 0.157782,4.19e-4 0.695644,0.0856 0.765683,-0.09706 0.03253,-0.0852 -0.0202,-0.159882 -0.100411,-0.184773 -0.402033,-0.126544 -0.733196,-0.123603 -0.893074,-0.604096 -0.126558,-0.379671 -0.06744,-0.828949 -0.06744,-1.223387 0,-0.685518 -0.03758,-1.382849 0.0014,-2.067101 0.01901,-0.327784 0.533658,-1.245323 0.926392,-1.184155 0.443372,0.06919 1.156737,0.914164 1.442758,0.003 0.20756,-0.662315 -0.506652,-1.0268 -1.063081,-0.90615 -0.58385,0.126558 -1.026792,0.732766 -1.265576,1.243638 h -0.04219 v -1.265573 c -0.721818,0.0021 -1.487485,0.459402 -2.151475,0.717156 m 10.799554,0 0.0844,0.253116 c 0.27675,-0.06328 0.60283,-0.207977 0.80111,0.08901 0.20038,0.29994 0.12701,0.793091 0.12701,1.134375 v 2.320216 c 0,0.342549 0.0688,0.77453 -0.0691,1.096829 -0.15569,0.363228 -0.4708,0.379681 -0.81672,0.379681 0.0133,0.401604 0.41004,0.295295 0.71716,0.295295 h 2.19365 v -0.295316 c -0.9053,0 -0.89433,-0.704088 -0.92639,-1.434324 -0.0663,-1.51236 -10e-4,-3.042016 -10e-4,-4.556062 -0.68428,0.0059 -1.4955,0.430295 -2.10931,0.717158 M 78.517317,87.97247 c 0.02495,0.321878 0.279278,0.261553 0.506238,0.403296 0.216843,0.135843 0.363217,0.339595 0.473318,0.566976 0.632365,1.306917 1.155475,2.701578 1.695031,4.049835 0.145125,0.362797 0.270408,0.798576 0.470793,1.132688 0.07887,0.132054 0.25606,0.170433 0.377137,0.06537 0.270839,-0.234978 0.411733,-0.908685 0.544205,-1.240265 0.445481,-1.113704 0.893489,-2.226985 1.357524,-3.332676 0.280539,-0.668643 0.418907,-1.198497 1.156737,-1.434314 l -0.04219,-0.210929 h -1.982729 c 0.03283,0.419748 0.636583,0.135412 0.696061,0.5906 0.04337,0.335377 -0.269979,0.833592 -0.39232,1.139015 -0.365757,0.914167 -0.845822,1.833816 -1.105267,2.784262 h -0.08437 c -0.242572,-0.886323 -0.711672,-1.769693 -1.072365,-2.615518 -0.152718,-0.357736 -0.439154,-0.823466 -0.399493,-1.223387 0.04768,-0.477964 0.647962,-0.284754 0.712504,-0.674972 h -2.910815 m 32.103384,0.0422 c 0.0768,0.278003 0.30332,0.23877 0.50453,0.397389 0.19827,0.156086 0.35227,0.401609 0.4822,0.615068 0.64079,1.052957 1.09346,2.260736 1.6195,3.374862 0.18648,0.394858 0.63574,0.999801 0.65389,1.434313 0.007,0.180558 -0.11395,0.385581 -0.18098,0.54841 -0.18942,0.459405 -0.34551,1.017951 -0.75893,1.332232 -0.48303,0.367014 -1.09302,-0.289817 -1.6444,-0.0051 -0.51382,0.264923 -0.28854,0.96057 0.12567,1.18626 0.83487,0.454768 1.80176,-0.392327 2.22151,-1.036923 0.41173,-0.632787 0.63785,-1.411113 0.9171,-2.109291 0.53451,-1.336019 1.04832,-2.685961 1.61657,-4.007641 0.18478,-0.429874 0.30331,-0.968586 0.6484,-1.303119 0.0949,-0.09196 0.52227,-0.21093 0.47079,-0.373344 -0.0468,-0.147652 -0.35985,-0.09534 -0.47459,-0.09534 h -1.47651 v 0.253116 c 0.69649,0.0059 0.61508,0.505806 0.41934,1.012456 -0.39951,1.033973 -0.75766,2.201676 -1.30524,3.163933 -0.35224,-0.845823 -0.7817,-1.66929 -1.19174,-2.48896 -0.16833,-0.337064 -0.49865,-0.834855 -0.47923,-1.223386 0.0257,-0.526479 0.71082,-0.300363 0.74289,-0.717159 h -1.89837 l -1.01244,0.0422 M 47.088806,89.870794 H 44.30455 c 0.05704,-1.307759 1.803229,-2.318107 2.593021,-0.928087 0.152508,0.268302 0.188694,0.624772 0.191235,0.928087 m 42.734168,0 h -2.784249 c 0.02317,-1.112861 1.286654,-2.132491 2.277602,-1.293837 0.400756,0.339595 0.445052,0.806591 0.506653,1.293837 M 38.86259,88.787899 c 0.787012,-0.131623 1.457598,0.323566 1.770029,1.040724 0.529306,1.215371 0.314111,3.652444 -1.305994,3.904715 -0.46252,0.07215 -1.388214,-0.247632 -1.536698,-0.742471 -0.183095,-0.610007 0.01797,-1.509405 0.01797,-2.149786 0,-0.379251 -0.1377,-1.093877 0.04338,-1.43052 0.162491,-0.302471 0.683448,-0.568241 1.011283,-0.622662 z"
         id="path323"
         sodipodi:nodetypes="cccccccccccccccccccccssssccccscsccsccscccccccsccsccccsssscsccscscssccsccccccccscscccccsccccccccscccccccscccccccccscccccsccccccccscccsccsccccscccccccscccccccsccsscccccccccccccsccccccccccscccsccccccscsscccccccscccscccccccccccccccccccccccccccccccccccccccsssccsccscccccscccccccccccccssscccccscccscccccscssscccccscccccccccccccsccccccccccsscccccccccccccsccccccccccccscscccsccscscccccccccscsscscscccsscccccssccsccsccsccccccccccccccccccccccccccsccccscccccccccccsscsccssscccccccccccccccscscsscscscssscscsccccccsccccssccccccsccccccccccccssccccccsccsccccccccccccsccccscccscccccccccccccccccsccccccccsssccccccccccccsccccccccccsccsccccccccccccsscccccscsccssccccccscccscccccsccccccsccccsccccccccccsccccccccsccccccccsssccsscscccccccccccccccscccccccccscccsscccscccsccsccccscccccccccccccccccccccccssccccccccscccccccccccssccsccccccccccccccccccccccccccccccccccccssscccccccccccccccccscccscss" /><g
         id="g648"
         transform="matrix(0.45984659,0,0,0.45984659,-24.392055,50.605804)"><g
           id="g630"><path
             d="m 87.9938,44 c 0,24.3003 -19.6997,44 -44,44 C 19.6997,87.9938 0,68.3003 0,44 0,19.6997 19.6997,0 44,0 68.2941,0 87.9938,19.6997 87.9938,44 Z"
             fill="#d7ac28"
             id="path2" /><path
             d="M 43.9753,7.6062 6.63086,64.3213 c 1.94328,3.5699 4.38324,6.8356 7.29504,9.7474 3.9052,3.9052 8.4561,6.9722 13.516,9.1142 1.8191,0.7698 3.6817,1.4031 5.5753,1.9122 h 21.9534 c 1.8936,-0.5029 3.7562,-1.1424 5.5753,-1.9122 5.0662,-2.142 9.6108,-5.209 13.516,-9.1142 2.8994,-2.8994 5.3394,-6.1588 7.2764,-9.7163 z"
             fill="#ffffff"
             id="path4" /><path
             d="M 45.3397,3.51454 49.4,4.53895 45.3397,5.56336 43.98,7.60597 42.6141,5.56336 38.5537,4.53895 42.6141,3.51454 43.98,1.47192 Z"
             fill="#ffffff"
             id="path6" /><path
             d="m 44,1.47143 c 5.7429,0 11.312,1.12374 16.552,3.3402 5.0662,2.14195 9.6108,5.20897 13.516,9.11417 3.9052,3.9052 6.9722,8.456 9.1142,13.516 2.2164,5.24 3.3402,10.8091 3.3402,16.552 0,5.7429 -1.1238,11.312 -3.3402,16.552 -2.142,5.0662 -5.209,9.6108 -9.1142,13.516 -3.9052,3.9052 -8.456,6.9722 -13.516,9.1141 -5.24,2.2165 -10.8091,3.3403 -16.552,3.3403 -5.7429,0 -11.312,-1.1238 -16.552,-3.3403 -5.0662,-2.1419 -9.6108,-5.2089 -13.516,-9.1141 -3.9052,-3.9052 -6.97222,-8.456 -9.11416,-13.516 -2.21646,-5.24 -3.3402,-10.8091 -3.3402,-16.552 0,-5.7429 1.12374,-11.312 3.3402,-16.552 C 6.95978,22.3756 10.0268,17.831 13.932,13.9258 17.8372,10.0206 22.388,6.95358 27.448,4.81163 32.688,2.59517 38.2571,1.47143 44,1.47143 Z M 44,0 C 19.6997,0 0,19.6997 0,44 0,68.3003 19.6997,88 44,88 68.3003,88 88,68.3003 88,44 87.9938,19.6997 68.3003,0 44,0 Z"
             fill="#f1d693"
             id="path8" /><path
             d="m 73.0246,44.0003 c 0,16.0305 -12.9945,29.025 -29.025,29.025 -16.0305,0 -29.025,-12.9945 -29.025,-29.025 0,-16.0305 12.9945,-29.025 29.025,-29.025 16.0305,-0.0062 29.025,12.9945 29.025,29.025 z"
             fill="#2c2e81"
             id="path10" /><path
             d="m 43.9996,15.7883 c 7.5372,0 14.6211,2.9366 19.9481,8.2636 5.3269,5.3269 8.2635,12.4109 8.2635,19.948 -0.0062,7.531 -2.9366,14.615 -8.2635,19.9481 -5.3332,5.3269 -12.4171,8.2574 -19.9481,8.2574 -7.5372,0 -14.6212,-2.9305 -19.9481,-8.2636 -5.3331,-5.3269 -8.2636,-12.4109 -8.2636,-19.9419 0,-7.5371 2.9367,-14.6211 8.2636,-19.948 5.3269,-5.3332 12.4109,-8.2636 19.9481,-8.2636 z m 0,-0.8195 c -16.0305,0 -29.025,12.9944 -29.025,29.0249 0,16.0305 12.9945,29.025 29.025,29.025 16.0305,0 29.025,-12.9945 29.025,-29.025 0,-16.0242 -12.9945,-29.0249 -29.025,-29.0249 z"
             fill="#f1d693"
             id="path12" /><path
             d="m 56.9454,20.4453 c 0.4532,0.4222 0.3042,1.2852 0.1366,1.8005 -0.2297,0.6829 -0.7513,1.0865 -1.4032,1.3534 -0.7946,0.3229 -1.6576,0.4471 -2.4585,0.7326 -0.7947,0.2794 -0.7078,0.8817 -0.7823,1.6019 l 6.2334,-1.1859 c -0.0249,0.447 0.0372,0.8382 -0.3974,1.0865 -0.3104,0.1801 -0.7078,0.2422 -1.0554,0.3353 -1.0617,0.3042 -2.1296,0.5091 -3.2285,0.6395 -1.1237,0.1365 -2.2537,0.2235 -3.3774,0.3663 -0.2918,0.0372 -0.8071,0.0248 -1.0431,0.2483 -0.1862,0.1738 -0.1986,0.5029 -0.2483,0.7326 2.8311,0.4532 5.9292,-0.3663 8.5243,1.1734 h -8.04 c 0.1179,0.9375 0.4842,1.8191 1.0492,2.5704 0.2794,0.3663 0.6271,0.8505 1.0182,1.1051 0.2546,0.1676 0.3974,0.0931 0.6519,-0.0435 1.6887,-0.894 3.2471,-1.8501 5.2462,-1.459 -1.4838,0.9934 -2.9677,1.9868 -4.4515,2.9863 2.291,0.9934 4.5819,1.9868 6.8729,2.9801 -2.6573,1.012 -4.9358,-0.596 -7.3261,-1.5397 -0.5464,2.2413 -0.298,4.6999 0.9375,6.6804 1.1858,1.8874 3.2595,2.7318 5.3393,3.2471 -0.2918,0.447 -0.5339,0.714 -1.0616,0.8506 -0.8568,0.2235 -1.7757,0.149 -2.6014,-0.1615 -1.3038,-0.4904 -2.6387,-1.5956 -3.4271,-2.7441 -0.4036,-0.5836 -0.7078,-1.2355 -0.9872,-1.8874 -0.2856,-0.683 -0.6271,-1.3908 -0.7699,-2.1172 -0.3166,-1.6204 0.267,-3.0856 0.5091,-4.6564 0.1118,-0.7139 -0.5153,-1.0678 -0.9312,-1.5459 -0.416,-0.4843 -0.7513,-1.0927 -1.2914,-1.459 -0.4905,-0.3415 -1.0741,-0.1428 -1.6329,-0.1676 -0.6022,-0.0249 -1.31,-0.2608 -1.3596,0.5525 -0.0311,0.4905 -0.1801,0.9624 0.3228,1.2045 0.5774,0.2732 1.2541,0.2111 1.8315,0.4718 1.3411,0.6023 1.0058,2.3903 -0.1862,2.9305 -0.565,0.2545 -1.7446,0.2669 -1.9185,0.9809 -0.0869,0.3477 0.0186,0.7264 0.0311,1.0803 0.0062,0.149 -0.0932,0.5464 0.0062,0.6581 0.1179,0.1428 0.5339,0.0745 0.6891,0.0745 0.4346,0 0.863,-0.0434 1.2976,-0.0807 0.8568,-0.0745 1.7632,-0.1242 2.5331,0.3415 -0.8071,0.565 -1.3721,1.0678 -2.3965,1.0741 -1.0989,0.0124 -2.204,0.031 -3.303,0.0558 -1.6949,0.0311 -4.1348,0.1987 -5.2524,-1.3658 -0.8816,-1.2418 -0.6581,-2.9056 -0.5277,-4.3212 0.1428,-1.577 0.416,-3.5389 1.9867,-4.3398 0.9748,-0.4967 2.1234,-0.4222 3.185,-0.4656 1.3162,-0.0497 2.6324,-0.1242 3.9487,-0.1801 -0.0497,-0.2421 -0.0373,-0.5587 -0.1925,-0.7636 -0.1552,-0.1987 -0.0248,-0.0807 -0.2546,-0.149 -0.7512,-0.2235 -1.7322,-0.0186 -2.5082,-0.0186 h -5.6374 c -0.5215,0 -1.5583,-0.2732 -1.6887,0.4035 -0.0559,0.2732 -0.0124,0.5898 -0.0311,0.8754 -0.0372,0.4657 -0.0745,0.9313 -0.1055,1.3969 -0.1118,1.726 -0.1863,3.452 -0.4036,5.1718 -0.2173,1.7011 -0.6084,3.334 -1.223,4.9296 -0.5278,1.372 -1.1052,2.8807 -2.1296,3.9672 -0.4904,0.5153 -1.3659,0.9499 -1.9681,0.3353 -0.4656,-0.4781 0.0249,-1.13 0.267,-1.5956 0.8381,-1.6142 1.6018,-3.3092 2.0364,-5.0786 0.0745,-0.3167 0.2856,-0.832 0.2297,-1.1672 -0.0435,-0.2732 -0.2732,-0.3415 -0.5401,-0.385 -0.8196,-0.149 -1.577,0.3353 -2.0861,0.9375 -0.5153,0.6147 -0.8754,1.3597 -1.4776,1.8999 -0.7761,0.7015 -1.4901,0.5215 -2.3345,0.0745 1.1114,-1.5956 2.3841,-3.1105 2.8001,-5.0476 0.1676,-0.7761 0.4656,-1.3162 1.3597,-1.2355 0.18,0.0186 0.3663,0.0559 0.5339,0.1242 0.2608,0.1055 0.2608,0.1055 0.3104,0.3663 0.0932,0.5029 0,1.1113 0,1.6266 0.3353,-0.0186 0.6706,-0.0372 1.0058,-0.0559 0.1801,-0.0124 0.5402,0.0373 0.7016,-0.0434 0.2483,-0.1304 0.267,-0.565 0.2794,-0.8258 0.0558,-1.2913 0.1738,-2.5765 0.2731,-3.8679 -0.5153,0 -1.0306,-0.1055 -1.5459,-0.1055 -0.596,0 -0.8195,0.1428 -1.0803,0.6767 -0.5712,1.1734 -1.4528,2.0302 -2.8559,1.6391 0.5463,-1.4653 1.2045,-2.9118 1.2293,-4.5012 0.0062,-0.5402 -0.2235,-1.1424 -0.1552,-1.6701 0.0869,-0.6644 0.9747,-0.5153 1.3969,-0.2235 0.894,0.6208 0.18,2.2723 1.1113,2.7255 0.3539,0.1738 1.0679,0.1614 1.428,0.0186 0.5215,-0.1986 0.5463,-0.8754 0.4346,-1.3472 -0.2546,-1.0493 -1.757,-2.2972 -0.4905,-3.2843 0.4595,-0.3601 1.0555,-0.3726 1.4963,0.0124 0.5029,0.4346 0.6022,1.1051 1.012,1.5894 0.3166,0.3725 1.0306,0.2048 1.4652,0.2048 h 2.8559 2.4897 c 0.9002,0 1.8873,0.1366 2.7752,0 0.7636,-0.1179 0.5712,-0.9623 0.4904,-1.5645 -0.0807,-0.6022 -0.149,-1.3162 0.3601,-1.7632 0.8568,-0.7513 1.9433,0.1552 1.875,1.1299 h 1.4466 c -0.0497,-0.3725 0,-0.7636 -0.1242,-1.1237 -0.1365,-0.3912 -0.4097,-0.4284 -0.7884,-0.5153 -0.8754,-0.1863 -1.8067,-0.1366 -2.6635,-0.3974 -0.9189,-0.2856 -1.4342,-0.9623 -1.5459,-1.906 -0.087,-0.7326 0.0558,-1.0679 0.7947,-1.279 0.2793,-0.0807 0.5774,-0.1738 0.776,0.0745 0.2049,0.2546 0.2111,0.7823 0.3229,1.0865 0.3601,1.0058 1.1051,1.1176 2.0674,1.1983 0.2422,0.0186 0.5712,0.1366 0.8071,0.0496 0.3663,-0.1303 0.4036,-0.6456 0.3974,-0.9685 -0.0124,-0.7761 -0.5712,-1.8129 -0.0311,-2.5145 0.4657,-0.6084 1.3659,-0.4532 1.6018,0.2546 0.3415,1.0306 -0.1862,2.1482 0.0435,3.1974 0.894,-0.2235 2.2475,-0.118 2.7752,-1.0617 0.2359,-0.4284 0.1056,-0.9685 0.3353,-1.3969 0.3166,-0.5712 0.8816,-0.2918 1.3845,-0.3042 z m -9.7909,15.3289 c -1.8812,-1.2727 -4.1473,-0.7016 -6.2582,-0.9002 -0.0311,0.5649 -0.0621,1.1299 -0.0869,1.6949 2.1295,-0.1925 4.377,0.2794 6.3451,-0.7947 z m -3.6755,4.1349 c 0,-0.4967 -0.0186,-0.9996 0.0063,-1.5025 0.0186,-0.329 0.0807,-0.5587 -0.2608,-0.6705 -0.3973,-0.1304 -1.0865,0.0062 -1.5087,0.0062 -0.2049,0 -0.6705,-0.0869 -0.8381,0.0869 -0.1801,0.1801 -0.0621,0.6644 0,0.8692 0.0931,0.3353 0.2856,0.6147 0.5712,0.8071 0.5773,0.3912 1.3596,0.4036 2.0301,0.4036 z M 43.4542,32.105 c -1.2541,-0.0994 -2.3096,0.3973 -2.4151,1.757 0.627,-0.0559 1.7322,0.149 2.2661,-0.2422 0.3353,-0.2421 0.149,-1.1485 0.149,-1.5148 z M 38.6364,19.1291 c -1.8315,0.0621 -1.2666,1.8998 -1.1859,3.1167 0.0373,0.6519 0.0373,1.3162 -0.745,1.2665 -0.7947,-0.0496 -1.7818,0.0062 -2.2909,-0.7326 -0.3229,-0.4656 -0.2794,-1.2852 -0.8444,-1.5708 -0.4408,-0.2235 -0.8816,0.1304 -1.13,0.4843 -0.7636,1.0803 -0.0869,2.142 1.0369,2.5207 1.1237,0.3787 2.4275,0.1614 3.5202,0.6022 0.6395,0.2608 0.4346,0.8568 0.5402,1.4156 0.1117,0.6084 0.6208,1.0058 1.2541,0.7512 0.9002,-0.3601 0.0434,-1.7632 0.894,-2.2475 1.012,-0.5774 2.3158,-0.5712 3.3775,-1.0803 0.714,-0.3415 1.2106,-0.9561 1.1175,-1.7818 -0.0745,-0.6706 -0.7761,-1.4839 -1.5211,-1.1486 -0.7015,0.3104 -0.4532,1.3348 -0.7574,1.9122 -0.4595,0.863 -1.5335,0.6519 -2.3282,0.8195 -0.149,-0.9064 0.6891,-4.3832 -0.9375,-4.3273 z"
             fill="#c4892d"
             id="path14" /><path
             d="m 58.6757,62.353 c -0.0931,0.7077 -0.3352,1.2479 -1.1175,1.2789 -0.8071,0.0311 -1.2107,-0.3663 -1.1983,-1.1361 0.0373,-1.8502 0.1428,-3.5017 -0.3725,-5.3208 -0.8878,-3.1229 -3.0856,-6.4258 -6.4134,-7.2516 0,3.1602 -0.0435,6.3141 -0.0062,9.4743 0.0372,3.0235 0.3415,6.0099 0.5091,9.0272 0.0497,0.9375 -0.5029,1.6763 -1.5708,1.3286 -0.9251,-0.3042 -0.7264,-1.9867 -0.8071,-2.7441 -0.3228,-2.9801 -0.3539,-5.923 -0.3601,-8.9155 -0.0062,-1.4218 -0.0124,-2.8435 -0.0062,-4.2715 0,-0.7636 0,-1.5211 0,-2.2847 0,-0.6333 0.1304,-1.4528 -0.0559,-2.0675 -0.0931,-0.3166 0.0497,-0.2049 -0.2111,-0.3725 -0.1738,-0.1118 -0.5091,-0.0869 -0.7201,-0.1118 -0.3601,-0.0434 -0.7202,-0.0745 -1.0803,-0.0807 -0.7823,-0.0186 -1.5708,0.0435 -2.3407,0.1987 -0.1365,0.0248 -0.4284,0.0435 -0.5401,0.1242 -0.2546,0.1862 -0.1242,0.0869 -0.1987,0.4159 -0.0931,0.3974 -0.0372,0.8941 -0.0559,1.2976 -0.031,0.8009 -0.062,1.6018 -0.0869,2.4027 -0.1117,3.1726 -0.1552,6.4011 -0.7015,9.5364 -0.2608,1.5024 -0.7823,2.9863 -0.9748,4.4888 -0.1304,1.0057 -0.5401,2.4648 -1.8936,1.9991 -0.7574,-0.2607 -0.6333,-0.8257 -0.4843,-1.4528 0.1987,-0.8071 0.3788,-1.6204 0.5464,-2.4399 0.3415,-1.6888 0.6208,-3.3899 0.8195,-5.0973 0.3974,-3.3526 0.3663,-6.6928 0.3663,-10.064 -2.3096,1.0306 -4.1225,3.0049 -5.1717,5.3145 -0.4967,1.0927 -0.8009,2.2661 -0.9189,3.4582 -0.062,0.5836 -0.0745,1.1734 -0.0558,1.7632 0.0186,0.6022 0.2918,1.4466 0.0745,2.0053 -0.4222,1.0679 -1.9557,0.714 -2.2041,-0.2731 -0.2794,-1.1176 -0.1986,-2.4586 -0.0869,-3.5948 0.2173,-2.2413 0.9561,-4.4267 2.2103,-6.3017 1.2603,-1.8936 3.0111,-3.4209 5.0289,-4.4701 1.0554,-0.5464 2.173,-0.9561 3.3216,-1.2417 0.447,-0.1118 1.4093,-0.118 1.7383,-0.4284 0.2794,-0.2608 0.2856,-0.7388 0.2794,-1.0803 -0.0062,-0.6457 -0.3973,-1.6577 0.2049,-2.142 0.5774,-0.4718 1.875,-0.3104 2.1233,0.4471 0.236,0.7264 -0.2111,1.5459 -0.031,2.2971 0.1738,0.7202 0.4656,0.4843 1.0741,0.5774 0.6457,0.0931 1.2976,0.3104 1.9433,0.447 0.8878,0.1925 1.5707,0.7389 2.3282,1.2231 0.8071,0.5153 1.6452,1.0058 2.4337,1.5522 1.2479,0.8567 2.2475,2.353 2.9987,3.6568 1.5398,2.6821 2.0613,5.7739 1.6639,8.8286 z"
             fill="#c4892d"
             id="path16" /><path
             d="m 62.7178,68.8902 c 0.8505,-0.8195 1.6825,-1.6266 2.5206,-2.4337 2.26,2.3406 4.5137,4.675 6.7674,7.0094 -0.1242,0.118 -0.2297,0.2483 -0.3601,0.3477 -0.2918,0.2173 -0.5712,0.4532 -0.8879,0.6208 -0.9809,0.5029 -1.9246,0.4098 -2.8062,-0.2545 -0.3104,-0.2359 -0.6022,-0.4967 -0.8754,-0.7823 -1.4218,-1.4652 -2.8373,-2.9366 -4.2591,-4.4019 -0.031,-0.031 -0.0621,-0.062 -0.0993,-0.1055 z m 10.598,3.1726 c 0.6829,-0.9375 0.7015,-2.0551 0.0434,-3.0112 -0.2359,-0.3477 -0.5091,-0.6705 -0.7947,-0.9747 -1.4093,-1.4714 -2.8249,-2.9367 -4.2404,-4.4019 -0.031,-0.031 -0.0683,-0.0621 -0.1056,-0.0993 -0.8443,0.8133 -1.6763,1.6204 -2.5144,2.4275 2.2599,2.3406 4.5136,4.6751 6.8046,7.0405 0.2731,-0.329 0.5587,-0.6395 0.8071,-0.9809 z"
             fill="#bba720"
             id="path18" /><path
             d="m 56.9386,75.0682 c -0.2359,0.2918 -0.4532,0.565 -0.6829,0.8568 -0.0808,-0.1863 -0.1615,-0.3477 -0.2236,-0.5153 -0.0124,-0.0249 0.0187,-0.0745 0.0373,-0.1056 0.5526,-0.7512 1.1113,-1.4962 1.6639,-2.2475 0.2173,-0.2918 0.4346,-0.5836 0.6457,-0.8754 0.0248,-0.031 0.0497,-0.0621 0.0807,-0.1055 0.9934,2.2289 1.9743,4.4391 2.9677,6.6556 -0.7947,0.3538 -1.577,0.7015 -2.3841,1.0616 -0.7016,-1.5645 -1.3969,-3.1353 -2.1047,-4.7247 z"
             fill="#bba720"
             id="path20" /><path
             d="m 49.0483,82.5364 c 0,-0.0124 0,-0.0186 0,-0.0186 0.298,-0.3725 0.3353,-0.7947 0.2546,-1.2541 -0.1056,-0.596 -0.1739,-1.1921 -0.2608,-1.7943 -0.0186,-0.1242 -0.0435,-0.2545 -0.0745,-0.3725 -0.1242,-0.416 -0.3291,-0.5588 -0.7637,-0.5464 -0.1552,0.0063 -0.3104,0.0311 -0.4718,0.0435 -0.0248,-0.1614 -0.0435,-0.329 -0.0683,-0.5029 0.118,-0.0248 0.2359,-0.0497 0.3539,-0.0683 0.5836,-0.1117 1.1734,-0.18 1.7632,-0.0745 0.6954,0.1242 1.2541,0.447 1.577,1.1051 0.5836,1.1859 0.1738,2.471 -0.981,3.1229 -0.3973,0.2173 -0.8319,0.3415 -1.3286,0.3601 z m 1.8377,-5.5007 c -0.0931,-0.6457 -0.18,-1.2728 -0.2669,-1.9061 -1.4218,0.1987 -2.8373,0.3974 -4.2529,0.5961 0.1366,0.9933 0.2794,1.9743 0.416,2.949 0.1987,-0.0248 0.3911,-0.0559 0.596,-0.0807 -0.0497,-0.3477 -0.0993,-0.6891 -0.149,-1.043 1.2293,-0.1739 2.44,-0.3477 3.6568,-0.5153 z m -1.8749,4.3894 c -0.087,-0.6022 -0.6706,-1.0306 -1.279,-0.9437 -0.6519,0.0931 -1.0803,0.6457 -0.9934,1.2728 0.0932,0.627 0.6457,1.0306 1.2914,0.9375 0.6395,-0.0932 1.0741,-0.6519 0.981,-1.2666 z"
             fill="#bba720"
             id="path22" /><path
             d="m 39.7585,75.3965 c 0.3352,0.0497 0.6333,0.1366 0.9126,0.2918 0.5836,0.3229 0.9251,0.8382 1.1486,1.4466 0.2732,0.7512 0.2608,1.5211 0.1242,2.2972 -0.118,0.6457 -0.3228,1.2665 -0.7264,1.7942 -0.5029,0.6581 -1.1486,1.1052 -1.9867,1.2107 -0.2856,0.0373 -0.714,-0.0124 -0.8941,-0.0931 0.0062,-0.0062 0.0124,-0.0187 0.0187,-0.0249 0.3476,-0.18 0.4966,-0.478 0.5463,-0.8505 0.2732,-1.9743 0.5526,-3.9487 0.832,-5.923 0.0124,-0.0434 0.0186,-0.0931 0.0248,-0.149 z m -0.4594,-0.0559 c -0.0187,-0.0062 -0.0249,-0.0124 -0.0373,-0.0124 -0.3911,-0.0186 -0.7761,-0.0186 -1.1672,0.0497 -0.5464,0.0931 -0.9934,0.3477 -1.31,0.8071 -0.298,0.4284 -0.416,0.9127 -0.4222,1.4218 -0.0124,0.5773 0.1552,1.0927 0.5712,1.5024 0.4781,0.4595 1.0927,0.6271 1.726,0.7823 0.2173,-1.5335 0.4284,-3.0422 0.6395,-4.5509 z m -2.0427,6.9164 c 0.6395,0.0931 1.2169,-0.3415 1.3038,-0.9686 0.0807,-0.6146 -0.3539,-1.192 -0.9685,-1.2727 -0.6519,-0.0932 -1.2231,0.3228 -1.31,0.9561 -0.0869,0.6333 0.3415,1.1982 0.9747,1.2852 z"
             fill="#bba720"
             id="path24" /><path
             d="m 29.5725,74.4035 c -0.3787,0.0248 -0.7264,0.0434 -1.0989,0.0683 0.0869,-0.1863 0.1552,-0.3601 0.2359,-0.5215 0.0124,-0.0249 0.0807,-0.0311 0.1242,-0.0373 0.925,-0.0869 1.8501,-0.18 2.7752,-0.267 0.3973,-0.0372 0.7885,-0.0745 1.1982,-0.1179 -0.9933,2.2288 -1.9743,4.4391 -2.9615,6.6618 -0.7884,-0.3539 -1.5769,-0.7016 -2.3778,-1.0555 0.7015,-1.5708 1.3969,-3.1415 2.1047,-4.7309 z"
             fill="#bba720"
             id="path26" /><path
             d="m 17.0922,74.354 c -0.8443,-0.8133 -1.6701,-1.6142 -2.5082,-2.4214 2.2289,-2.3095 4.4515,-4.6067 6.6804,-6.9163 0.8381,0.8071 1.6701,1.6142 2.5082,2.4214 -2.2288,2.3033 -4.4515,4.6067 -6.6804,6.9163 z m -0.5153,-7.8228 c 1.5522,-0.5463 3.0608,-1.0803 4.5881,-1.6204 -0.5339,-0.5153 -1.0492,-1.012 -1.5645,-1.5087 -1.0058,1.043 -1.9992,2.0737 -3.0236,3.1291 z m 6.0658,5.4263 c 0.0186,-0.0186 0.0372,-0.0311 0.0497,-0.0435 0.8878,-0.9251 1.7818,-1.8439 2.6696,-2.7628 0.0807,-0.0807 0.0621,-0.1242 -0.0124,-0.1987 -0.4594,-0.4346 -0.9126,-0.8816 -1.3721,-1.3162 -0.0248,-0.0248 -0.0559,-0.0496 -0.1055,-0.0869 -0.4284,1.4776 -0.8506,2.9367 -1.2728,4.3957 0.0249,0.0062 0.0373,0.0124 0.0435,0.0124 z"
             fill="#bba720"
             id="path28" /><path
             d="m 71.2188,24.0707 c -0.5588,-2.024 -1.3845,-3.6072 -2.8621,-5.1841 2.7255,0.6394 2.4213,2.949 3.247,4.8364 1.13,-1.1237 2.142,-2.1233 3.2409,-3.2098 -0.3104,-0.3911 -0.596,-0.7637 -0.9375,-1.192 -0.7202,0.6829 -1.3845,1.3224 -2.204,2.0984 0.0186,-1.4217 -0.6023,-2.384 -1.4466,-3.396 0.6581,-0.2546 1.2231,-0.4719 1.8377,-0.7016 -0.031,-0.1242 -0.0807,-0.298 -0.1428,-0.5215 0.2608,-0.0435 0.4905,-0.0807 0.7264,-0.1242 1.1424,1.3907 2.2599,2.7504 3.3402,4.0666 -2.1419,1.757 -4.2156,3.4582 -6.3203,5.1841 -0.3849,-1.0057 -0.7699,-1.9991 -1.1796,-3.0732 0.8754,0.3912 1.6949,0.7637 2.7007,1.2169 z m -0.0559,-6.1278 c 0.7513,0.8009 1.0306,1.6142 0.8071,3.0546 0.6209,-1.0617 0.981,-1.6701 1.3349,-2.2848 -0.5091,-0.8071 -1.2355,-0.714 -2.142,-0.7698 z m -0.1862,6.3016 c -0.4905,-0.2111 -0.863,-0.3725 -1.3721,-0.5898 0.18,0.6022 0.3042,1.0182 0.4408,1.4901 0.2918,-0.2732 0.5401,-0.5215 0.9313,-0.9003 z M 60.6643,13.0691 c -0.267,-1.0368 -0.5154,-2.0115 -0.7575,-2.9614 0.3166,-0.087 0.6519,-0.18009 1.9185,-0.53397 C 59.6461,9.52406 59.019,7.90984 57.5538,8.36306 57.5165,8.37548 57.5041,8.4624 57.4731,8.51827 c 0.1117,0.15522 0.2173,0.29181 0.3166,0.42218 -0.5277,0.40977 -1.043,0.81953 -1.6142,1.26655 1.2851,0.4532 2.0426,1.4466 2.8187,2.6014 -0.1366,-1.4528 -0.6519,-2.4648 -2.8684,-3.06083 1.2914,-0.04346 1.8564,-0.23593 2.0923,-0.03725 1.2789,1.07408 1.7446,2.58898 2.0674,4.17218 -0.3539,0.1366 -0.627,0.2421 -0.7512,0.2918 -0.2173,0.863 -0.3973,1.5894 -0.6084,2.4275 -0.4781,-0.7823 -0.8568,-1.3969 -1.2542,-2.0426 0.149,-0.1056 0.3415,-0.2421 0.3912,-0.2794 0.2669,-0.4346 0.447,-0.7264 0.6146,-0.9996 -1.2479,-1.2293 -2.6572,-1.0865 -4.2342,-0.478 0.0807,0.4718 0.1552,0.9064 0.2421,1.4217 0.3291,-0.1366 0.5402,-0.2297 0.7699,-0.329 -0.0497,-0.3539 -0.0869,-0.6581 -0.1614,-1.1983 0.4408,0.0187 0.8754,-0.0807 1.1547,0.0807 0.4409,0.2608 1.0803,0.6768 1.1114,1.0617 0.0745,1.0182 -1.0306,0.1738 -1.3038,0.5588 0.894,0.9064 1.757,1.7756 2.6386,2.6696 0.4967,-0.8754 1.0368,-1.8253 1.5708,-2.769 0.6643,-1.2355 1.3348,-2.4648 2.0115,-3.7189 -0.3725,-0.4594 -0.7884,-0.3849 -1.1113,-0.0869 -0.2607,0.9685 -0.478,1.7694 -0.7015,2.5765 z M 78.756,23.3629 c 2.2971,2.0178 1.5211,3.8617 1.4217,5.5939 -1.5024,0.596 -1.4528,-0.8878 -2.1916,-1.4155 -0.2483,0.0993 -0.565,0.2173 -0.9561,0.3725 0.8071,0.6891 1.4963,1.4093 1.012,2.4089 -0.3477,0.7202 -1.1796,0.9375 -1.9122,0.6643 -1.1424,-0.416 -0.4657,-1.3783 -0.4843,-2.1419 -1.0617,-0.5402 -1.7632,-1.3659 -1.5149,-2.6076 0.0559,-0.2856 0.7637,-0.6581 1.1362,-0.6271 1.0989,0.1056 1.4093,0.981 1.5273,2.3531 0.3911,-0.5154 0.6084,-0.801 0.8754,-1.161 -0.2422,-0.5091 -0.4657,-0.9872 -0.832,-1.7571 1.8378,0.6706 1.7881,2.5642 3.0671,3.5203 0.211,-1.6763 -0.2298,-3.1043 -1.1486,-5.2028 z m -4.0356,2.5269 c -0.5339,0.9002 -0.1242,1.4342 0.2173,1.9122 0.1863,0.2608 0.6022,0.3539 0.9189,0.5278 0.478,-0.7637 0.1987,-1.2976 -0.149,-1.7446 -0.2173,-0.2856 -0.6085,-0.4409 -0.9872,-0.6954 z m 1.5708,2.6573 c -0.5091,0.5339 -0.4657,1.1485 -0.1552,1.7073 0.1055,0.1863 0.6332,0.3415 0.8195,0.2421 0.2359,-0.1303 0.4594,-0.5463 0.4346,-0.8195 -0.0497,-0.6084 -0.3477,-1.0927 -1.0989,-1.1299 z m 5.6808,15.8131 c 0.2111,0.1801 0.4284,0.3601 0.6519,0.5464 -0.0435,0.267 -0.0807,0.4967 -0.118,0.7326 -1.4962,-0.2235 -2.949,-0.447 -4.5012,-0.6767 0.714,-0.8071 1.3535,-1.5273 2.0489,-2.322 -1.31,-0.683 -1.1238,-1.6888 -0.6271,-2.6759 0.1366,-0.2732 0.7016,-0.5898 0.9375,-0.5029 1.2169,0.4222 0.9872,1.49 0.8754,2.5455 0.9747,-0.1738 1.0741,-0.9065 1.2169,-1.7012 0.2793,0.1428 0.4904,0.2546 0.7264,0.3726 -0.1242,1.0057 -0.236,1.9432 -0.3539,2.918 -0.5774,-0.1428 -0.8009,-0.4594 -0.7078,-1.0368 -0.3477,-0.0249 -0.6519,-0.0497 -0.9437,-0.0745 -0.7202,0.6891 -1.4342,1.3658 -2.3282,2.2226 0.9996,-0.031 1.7694,-0.0559 2.7752,-0.0869 -0.0434,0.0186 0.1304,-0.1056 0.3477,-0.2608 z m -1.9992,-4.4267 c -0.6394,0.5464 -0.7077,1.2231 -0.3973,2.0364 0.1863,0.0559 0.3911,0.118 0.565,0.1739 0.7078,-0.7699 0.6333,-1.8688 -0.1677,-2.2103 z M 79.6003,35.153 c -1.4093,-0.4409 -1.9557,-1.5149 -1.7508,-2.558 0.4284,-2.1792 1.4901,-1.1299 2.2537,-0.1614 0.3353,0.4284 0.3725,1.0927 0.565,1.726 1.0058,-1.0865 0.0621,-2.0799 -0.0683,-3.3961 1.6205,1.31 1.4031,3.1664 2.3717,4.6875 -0.4657,-0.0373 -0.683,-0.0621 -0.9189,-0.0807 -0.1366,-0.3663 -0.2607,-0.6954 -0.5774,-1.5273 -1.3348,2.6883 -3.5637,3.6382 -6.1713,4.2466 1.5708,-0.9127 3.3713,-1.2417 4.2963,-2.9366 z m 0.149,0.0931 c 0.0994,-1.6267 -0.0186,-2.5952 -1.4652,-3.6569 0.0807,1.0617 0.0186,1.6826 0.2111,2.2165 0.149,0.416 0.6085,0.7264 1.2541,1.4404 z M 69.4183,14.2053 c -0.7947,1.3411 -1.5025,2.5331 -2.2847,3.8493 -0.8817,-1.8439 -2.2537,-2.9801 -4.2405,-3.7748 0.6643,-0.565 1.2417,-1.0492 1.8502,-1.5645 -0.1118,-0.1118 -0.2484,-0.2546 -0.7264,-0.7389 2.3654,0.1553 3.6692,1.6515 5.4014,2.2289 z m -1.2293,0.4656 c -1.043,-0.9002 -2.1357,-1.6142 -3.5761,-1.2479 -0.3601,0.0932 -0.6705,0.4098 -1.2355,0.7761 2.1482,0.2856 3.2595,1.3286 3.8058,3.3278 0.385,-1.0927 0.6768,-1.9247 1.0058,-2.856 z m 14.2114,33.1227 c 0.0186,-0.236 0.0559,-0.6395 0.0931,-1.0431 -0.2359,-0.18 -0.4222,-0.3228 -0.4097,-0.3166 -2.6573,0.0807 -5.0786,0.1614 -7.6676,0.2421 2.738,0.385 5.3331,0.7451 7.9842,1.1176 z M 60.9188,8.5369 c 1.4404,0.50289 2.7318,1.3038 4.2591,0.62706 C 63.6382,9.86553 62.6013,7.4504 60.9188,8.5369 Z M 84.6727,47.061 c -0.6084,-1.397 0.596,-2.7815 -1.1424,-3.9549 0.7078,1.3721 -0.2173,2.7194 1.1424,3.9549 z m -1.192,-3.9238 c 1.2169,-0.4905 1.8563,-1.2666 1.2976,-2.7815 -0.4781,1.0306 -0.8879,1.906 -1.2976,2.7815 z M 60.3166,7.46903 c -0.3415,-0.65811 -0.981,-0.83816 -1.8998,-0.7947 0.8629,0.70778 1.7384,1.19205 2.2599,2.173 C 60.5649,8.38789 60.5277,7.885 60.3166,7.46903 Z M 83.6421,37.804 c -0.1863,-0.5091 -0.3166,-0.863 -0.5836,-1.5708 -0.298,0.5961 -0.4532,0.9003 -0.6519,1.2976 0.4656,0.1056 0.7823,0.1739 1.2355,0.2732 z M 70.4117,14.7951 c -0.6333,0.4595 -0.1614,0.7637 0.031,1.1672 0.3167,-0.1676 0.596,-0.3228 1.012,-0.5401 -0.4284,-0.267 -0.7388,-0.4532 -1.043,-0.6271 z m 7.2143,7.8104 c -0.478,-0.3291 -0.5339,-1.1114 -1.3162,-0.6954 0.0497,0.298 0.0931,0.5712 0.149,0.9313 0.4098,-0.0807 0.7202,-0.1428 1.1672,-0.2359 z m -58.944,4.9917 c -2.2226,-0.0435 -3.4519,1.0864 -3.9114,3.4457 -0.8257,-1.5087 1.1052,-2.3965 0.4098,-3.7127 -0.4035,0.7574 -0.7574,1.4093 -1.3162,2.4586 -0.0062,-1.5832 1.3348,-2.4586 0.5401,-3.7003 -0.9002,-0.4595 -1.8439,-0.9499 -2.9739,-1.5273 0.0559,0.4904 0.0994,0.894 0.1366,1.2106 0.8568,0.1242 1.5522,0.2235 2.4276,0.3477 -0.7202,0.5836 -1.2355,0.9996 -1.6887,1.3659 -0.534,-0.3104 -1.0431,-0.6084 -1.5274,-0.8878 -1.2727,1.2789 -1.03057,2.7131 -0.298,4.079 0.3539,0.6581 0.9748,0.1242 1.5522,-0.0248 -0.1118,-0.2732 -0.2111,-0.5029 -0.3105,-0.7327 -0.4656,0.0125 -0.8754,0.0249 -1.3348,0.0435 -0.1738,-1.1051 0.2049,-1.8501 1.0493,-2.3903 0.9312,0.2856 0.3787,1.1486 0.7201,1.6639 0.6023,-0.8816 1.1859,-1.7384 1.993,-2.9242 -0.1304,1.6763 -1.4094,2.5641 -1.1238,3.7686 0.8072,0.4718 1.4528,0.8505 2.173,1.2727 0.5091,-1.906 1.6888,-3.098 3.483,-3.7561 z m 6.1279,-12.0943 c -1.4963,-0.7761 -2.5952,-0.2421 -3.8555,0.8381 0.1179,-0.6953 0.1862,-1.0989 0.2483,-1.4528 1.8191,-0.7822 3.5948,-0.6519 5.4635,-0.4594 -0.9561,-1.192 -1.8563,-2.3158 -2.7938,-3.4892 -0.1614,0.1366 -0.3539,0.3042 -0.5464,0.4781 0.0249,0.298 0.0497,0.5587 0.0559,0.6022 0.7326,0.5339 1.3162,0.9561 2.2351,1.6266 -1.4031,-0.0931 -2.3406,-0.1552 -3.2471,-0.2173 0.0559,-0.3476 0.118,-0.7326 0.2732,-1.6514 -1.0865,1.459 -2.7007,1.757 -2.9118,3.4581 0.3414,-0.0931 0.5339,-0.149 0.6891,-0.1924 0.1987,0.6394 0.385,1.2168 0.6147,1.9432 1.0616,-0.9312 2.2847,-1.3596 3.7748,-1.4838 z M 9.52442,48.1537 C 8.77319,47.8494 8.02816,47.5452 7.23347,47.2286 7.16517,47.39 7.08446,47.5825 6.86716,48.0916 5.92967,46.0552 6.63744,44.1988 6.37048,42.4294 7.88536,42.4853 9.2885,42.5349 10.8096,42.597 9.67963,44.3044 8.99669,46.0986 9.52442,48.1537 Z M 7.16517,43.2862 C 7.14655,45.068 6.87337,46.825 9.25745,47.7439 8.30754,45.7385 8.93461,44.2857 10.2694,42.8143 9.07741,42.9944 8.15854,43.1309 7.16517,43.2862 Z M 14.6154,35.1405 C 10.226,34.4824 8.04679,36.2332 8.54347,39.8342 6.58157,38.9278 7.54389,37.1397 7.15275,35.7738 6.99754,35.6807 6.81749,35.5751 6.38289,35.3206 c 0.42219,1.7198 -0.42839,3.3526 0.60223,4.9854 0.14901,-0.3787 0.21109,-0.5525 0.23593,-0.6146 0.63327,0.2173 1.19204,0.4098 1.98053,0.6767 -0.76366,-4.3832 2.30962,-4.675 5.41382,-5.2276 z M 16.3166,22.7917 C 14.9383,21.0533 16.2855,19.9544 16.9995,18.75 16.894,18.4768 16.8008,18.2347 16.627,17.7876 c -0.6084,1.5273 -2.0985,2.3655 -2.2351,4.1349 0.3725,-0.18 0.5402,-0.2607 0.714,-0.3414 0.4656,0.6643 0.9065,1.3038 1.3783,1.9743 0.9127,-1.9557 2.3344,-3.2781 4.3832,-3.9424 -2.4089,-0.2918 -3.812,0.9064 -4.5508,3.1787 z m -6.35758,4.1225 c -0.50289,-1.6515 1.13618,-3.1726 0,-4.7557 0.60848,1.5397 -1.57076,2.7628 -0.35389,4.4453 -1.07408,0.4905 -2.11091,0.9933 -1.71356,2.6076 0.64569,-0.9065 1.04304,-1.9309 2.06745,-2.2972 z M 5.53853,44.9501 c -1.06787,0.925 -1.44038,1.906 -0.49668,3.1973 0.05587,-1.2168 0.03725,-2.3095 0.97474,-3.1104 -1.38451,-0.863 -0.19247,-2.8187 -1.9619,-3.8493 0.9437,1.3472 -0.29801,3.0422 1.48384,3.7624 z M 7.89778,34.3148 C 8.07162,34.0292 8.22062,33.7933 8.40067,33.5015 8.0592,33.309 7.76119,33.1414 7.37005,32.9179 c 0.01242,0.4842 0.02484,0.8133 0.03726,1.2044 0.14279,0.0559 0.31042,0.1242 0.49047,0.1925 z M 25.9647,9.6296 c -0.3912,0.27939 -0.714,0.5091 -1.2976,0.9251 0.5712,0.1552 0.8878,0.2421 1.341,0.3663 -0.0186,-0.5153 -0.031,-0.8506 -0.0434,-1.2914 z M 9.52442,48.1537 9.54305,48.1661 Z"
             fill="#ffffff"
             id="path30" /></g></g></g></g></svg>
