<?xml version="1.0" encoding="UTF-8" standalone="no"?>
<!-- Created with Inkscape (http://www.inkscape.org/) -->

<svg
   width="301.13535mm"
   height="104.64099mm"
   viewBox="0 0 301.13535 104.64099"
   version="1.1"
   id="svg5"
   xml:space="preserve"
   sodipodi:docname="all_new.svg"
   inkscape:version="1.2.2 (b0a8486541, 2022-12-01)"
   xmlns:inkscape="http://www.inkscape.org/namespaces/inkscape"
   xmlns:sodipodi="http://sodipodi.sourceforge.net/DTD/sodipodi-0.dtd"
   xmlns="http://www.w3.org/2000/svg"
   xmlns:svg="http://www.w3.org/2000/svg"><sodipodi:namedview
     id="namedview7"
     pagecolor="#ffffff"
     bordercolor="#666666"
     borderopacity="1.0"
     inkscape:showpageshadow="2"
     inkscape:pageopacity="0.0"
     inkscape:pagecheckerboard="0"
     inkscape:deskcolor="#d1d1d1"
     inkscape:document-units="mm"
     showgrid="false"
     inkscape:zoom="0.52913967"
     inkscape:cx="487.58393"
     inkscape:cy="91.658219"
     inkscape:window-width="1920"
     inkscape:window-height="1039"
     inkscape:window-x="0"
     inkscape:window-y="0"
     inkscape:window-maximized="1"
     inkscape:current-layer="g2230" /><defs
     id="defs2" /><g
     inkscape:label="Layer 1"
     inkscape:groupmode="layer"
     id="layer1"
     transform="translate(222.12458,131.19452)"><g
       id="g2230"
       transform="translate(-94.977947,-80.30771)"><g
         id="g2548"><g
           style="opacity:1;fill:none"
           id="g177"
           transform="matrix(1.1542285,0,0,1.1542285,-127.14663,-50.886812)"><g
             id="g630"><path
               d="m 87.9938,44 c 0,24.3003 -19.6997,44 -44,44 C 19.6997,87.9938 0,68.3003 0,44 0,19.6997 19.6997,0 44,0 68.2941,0 87.9938,19.6997 87.9938,44 Z"
               fill="#d7ac28"
               id="path2" /><path
               d="M 43.9753,7.6062 6.63086,64.3213 c 1.94328,3.5699 4.38324,6.8356 7.29504,9.7474 3.9052,3.9052 8.4561,6.9722 13.516,9.1142 1.8191,0.7698 3.6817,1.4031 5.5753,1.9122 h 21.9534 c 1.8936,-0.5029 3.7562,-1.1424 5.5753,-1.9122 5.0662,-2.142 9.6108,-5.209 13.516,-9.1142 2.8994,-2.8994 5.3394,-6.1588 7.2764,-9.7163 z"
               fill="#ffffff"
               id="path4" /><path
               d="M 45.3397,3.51454 49.4,4.53895 45.3397,5.56336 43.98,7.60597 42.6141,5.56336 38.5537,4.53895 42.6141,3.51454 43.98,1.47192 Z"
               fill="#ffffff"
               id="path6" /><path
               d="m 44,1.47143 c 5.7429,0 11.312,1.12374 16.552,3.3402 5.0662,2.14195 9.6108,5.20897 13.516,9.11417 3.9052,3.9052 6.9722,8.456 9.1142,13.516 2.2164,5.24 3.3402,10.8091 3.3402,16.552 0,5.7429 -1.1238,11.312 -3.3402,16.552 -2.142,5.0662 -5.209,9.6108 -9.1142,13.516 -3.9052,3.9052 -8.456,6.9722 -13.516,9.1141 -5.24,2.2165 -10.8091,3.3403 -16.552,3.3403 -5.7429,0 -11.312,-1.1238 -16.552,-3.3403 -5.0662,-2.1419 -9.6108,-5.2089 -13.516,-9.1141 -3.9052,-3.9052 -6.97222,-8.456 -9.11416,-13.516 -2.21646,-5.24 -3.3402,-10.8091 -3.3402,-16.552 0,-5.7429 1.12374,-11.312 3.3402,-16.552 C 6.95978,22.3756 10.0268,17.831 13.932,13.9258 17.8372,10.0206 22.388,6.95358 27.448,4.81163 32.688,2.59517 38.2571,1.47143 44,1.47143 Z M 44,0 C 19.6997,0 0,19.6997 0,44 0,68.3003 19.6997,88 44,88 68.3003,88 88,68.3003 88,44 87.9938,19.6997 68.3003,0 44,0 Z"
               fill="#f1d693"
               id="path8" /><path
               d="m 73.0246,44.0003 c 0,16.0305 -12.9945,29.025 -29.025,29.025 -16.0305,0 -29.025,-12.9945 -29.025,-29.025 0,-16.0305 12.9945,-29.025 29.025,-29.025 16.0305,-0.0062 29.025,12.9945 29.025,29.025 z"
               fill="#2c2e81"
               id="path10" /><path
               d="m 43.9996,15.7883 c 7.5372,0 14.6211,2.9366 19.9481,8.2636 5.3269,5.3269 8.2635,12.4109 8.2635,19.948 -0.0062,7.531 -2.9366,14.615 -8.2635,19.9481 -5.3332,5.3269 -12.4171,8.2574 -19.9481,8.2574 -7.5372,0 -14.6212,-2.9305 -19.9481,-8.2636 -5.3331,-5.3269 -8.2636,-12.4109 -8.2636,-19.9419 0,-7.5371 2.9367,-14.6211 8.2636,-19.948 5.3269,-5.3332 12.4109,-8.2636 19.9481,-8.2636 z m 0,-0.8195 c -16.0305,0 -29.025,12.9944 -29.025,29.0249 0,16.0305 12.9945,29.025 29.025,29.025 16.0305,0 29.025,-12.9945 29.025,-29.025 0,-16.0242 -12.9945,-29.0249 -29.025,-29.0249 z"
               fill="#f1d693"
               id="path12" /><path
               d="m 56.9454,20.4453 c 0.4532,0.4222 0.3042,1.2852 0.1366,1.8005 -0.2297,0.6829 -0.7513,1.0865 -1.4032,1.3534 -0.7946,0.3229 -1.6576,0.4471 -2.4585,0.7326 -0.7947,0.2794 -0.7078,0.8817 -0.7823,1.6019 l 6.2334,-1.1859 c -0.0249,0.447 0.0372,0.8382 -0.3974,1.0865 -0.3104,0.1801 -0.7078,0.2422 -1.0554,0.3353 -1.0617,0.3042 -2.1296,0.5091 -3.2285,0.6395 -1.1237,0.1365 -2.2537,0.2235 -3.3774,0.3663 -0.2918,0.0372 -0.8071,0.0248 -1.0431,0.2483 -0.1862,0.1738 -0.1986,0.5029 -0.2483,0.7326 2.8311,0.4532 5.9292,-0.3663 8.5243,1.1734 h -8.04 c 0.1179,0.9375 0.4842,1.8191 1.0492,2.5704 0.2794,0.3663 0.6271,0.8505 1.0182,1.1051 0.2546,0.1676 0.3974,0.0931 0.6519,-0.0435 1.6887,-0.894 3.2471,-1.8501 5.2462,-1.459 -1.4838,0.9934 -2.9677,1.9868 -4.4515,2.9863 2.291,0.9934 4.5819,1.9868 6.8729,2.9801 -2.6573,1.012 -4.9358,-0.596 -7.3261,-1.5397 -0.5464,2.2413 -0.298,4.6999 0.9375,6.6804 1.1858,1.8874 3.2595,2.7318 5.3393,3.2471 -0.2918,0.447 -0.5339,0.714 -1.0616,0.8506 -0.8568,0.2235 -1.7757,0.149 -2.6014,-0.1615 -1.3038,-0.4904 -2.6387,-1.5956 -3.4271,-2.7441 -0.4036,-0.5836 -0.7078,-1.2355 -0.9872,-1.8874 -0.2856,-0.683 -0.6271,-1.3908 -0.7699,-2.1172 -0.3166,-1.6204 0.267,-3.0856 0.5091,-4.6564 0.1118,-0.7139 -0.5153,-1.0678 -0.9312,-1.5459 -0.416,-0.4843 -0.7513,-1.0927 -1.2914,-1.459 -0.4905,-0.3415 -1.0741,-0.1428 -1.6329,-0.1676 -0.6022,-0.0249 -1.31,-0.2608 -1.3596,0.5525 -0.0311,0.4905 -0.1801,0.9624 0.3228,1.2045 0.5774,0.2732 1.2541,0.2111 1.8315,0.4718 1.3411,0.6023 1.0058,2.3903 -0.1862,2.9305 -0.565,0.2545 -1.7446,0.2669 -1.9185,0.9809 -0.0869,0.3477 0.0186,0.7264 0.0311,1.0803 0.0062,0.149 -0.0932,0.5464 0.0062,0.6581 0.1179,0.1428 0.5339,0.0745 0.6891,0.0745 0.4346,0 0.863,-0.0434 1.2976,-0.0807 0.8568,-0.0745 1.7632,-0.1242 2.5331,0.3415 -0.8071,0.565 -1.3721,1.0678 -2.3965,1.0741 -1.0989,0.0124 -2.204,0.031 -3.303,0.0558 -1.6949,0.0311 -4.1348,0.1987 -5.2524,-1.3658 -0.8816,-1.2418 -0.6581,-2.9056 -0.5277,-4.3212 0.1428,-1.577 0.416,-3.5389 1.9867,-4.3398 0.9748,-0.4967 2.1234,-0.4222 3.185,-0.4656 1.3162,-0.0497 2.6324,-0.1242 3.9487,-0.1801 -0.0497,-0.2421 -0.0373,-0.5587 -0.1925,-0.7636 -0.1552,-0.1987 -0.0248,-0.0807 -0.2546,-0.149 -0.7512,-0.2235 -1.7322,-0.0186 -2.5082,-0.0186 h -5.6374 c -0.5215,0 -1.5583,-0.2732 -1.6887,0.4035 -0.0559,0.2732 -0.0124,0.5898 -0.0311,0.8754 -0.0372,0.4657 -0.0745,0.9313 -0.1055,1.3969 -0.1118,1.726 -0.1863,3.452 -0.4036,5.1718 -0.2173,1.7011 -0.6084,3.334 -1.223,4.9296 -0.5278,1.372 -1.1052,2.8807 -2.1296,3.9672 -0.4904,0.5153 -1.3659,0.9499 -1.9681,0.3353 -0.4656,-0.4781 0.0249,-1.13 0.267,-1.5956 0.8381,-1.6142 1.6018,-3.3092 2.0364,-5.0786 0.0745,-0.3167 0.2856,-0.832 0.2297,-1.1672 -0.0435,-0.2732 -0.2732,-0.3415 -0.5401,-0.385 -0.8196,-0.149 -1.577,0.3353 -2.0861,0.9375 -0.5153,0.6147 -0.8754,1.3597 -1.4776,1.8999 -0.7761,0.7015 -1.4901,0.5215 -2.3345,0.0745 1.1114,-1.5956 2.3841,-3.1105 2.8001,-5.0476 0.1676,-0.7761 0.4656,-1.3162 1.3597,-1.2355 0.18,0.0186 0.3663,0.0559 0.5339,0.1242 0.2608,0.1055 0.2608,0.1055 0.3104,0.3663 0.0932,0.5029 0,1.1113 0,1.6266 0.3353,-0.0186 0.6706,-0.0372 1.0058,-0.0559 0.1801,-0.0124 0.5402,0.0373 0.7016,-0.0434 0.2483,-0.1304 0.267,-0.565 0.2794,-0.8258 0.0558,-1.2913 0.1738,-2.5765 0.2731,-3.8679 -0.5153,0 -1.0306,-0.1055 -1.5459,-0.1055 -0.596,0 -0.8195,0.1428 -1.0803,0.6767 -0.5712,1.1734 -1.4528,2.0302 -2.8559,1.6391 0.5463,-1.4653 1.2045,-2.9118 1.2293,-4.5012 0.0062,-0.5402 -0.2235,-1.1424 -0.1552,-1.6701 0.0869,-0.6644 0.9747,-0.5153 1.3969,-0.2235 0.894,0.6208 0.18,2.2723 1.1113,2.7255 0.3539,0.1738 1.0679,0.1614 1.428,0.0186 0.5215,-0.1986 0.5463,-0.8754 0.4346,-1.3472 -0.2546,-1.0493 -1.757,-2.2972 -0.4905,-3.2843 0.4595,-0.3601 1.0555,-0.3726 1.4963,0.0124 0.5029,0.4346 0.6022,1.1051 1.012,1.5894 0.3166,0.3725 1.0306,0.2048 1.4652,0.2048 h 2.8559 2.4897 c 0.9002,0 1.8873,0.1366 2.7752,0 0.7636,-0.1179 0.5712,-0.9623 0.4904,-1.5645 -0.0807,-0.6022 -0.149,-1.3162 0.3601,-1.7632 0.8568,-0.7513 1.9433,0.1552 1.875,1.1299 h 1.4466 c -0.0497,-0.3725 0,-0.7636 -0.1242,-1.1237 -0.1365,-0.3912 -0.4097,-0.4284 -0.7884,-0.5153 -0.8754,-0.1863 -1.8067,-0.1366 -2.6635,-0.3974 -0.9189,-0.2856 -1.4342,-0.9623 -1.5459,-1.906 -0.087,-0.7326 0.0558,-1.0679 0.7947,-1.279 0.2793,-0.0807 0.5774,-0.1738 0.776,0.0745 0.2049,0.2546 0.2111,0.7823 0.3229,1.0865 0.3601,1.0058 1.1051,1.1176 2.0674,1.1983 0.2422,0.0186 0.5712,0.1366 0.8071,0.0496 0.3663,-0.1303 0.4036,-0.6456 0.3974,-0.9685 -0.0124,-0.7761 -0.5712,-1.8129 -0.0311,-2.5145 0.4657,-0.6084 1.3659,-0.4532 1.6018,0.2546 0.3415,1.0306 -0.1862,2.1482 0.0435,3.1974 0.894,-0.2235 2.2475,-0.118 2.7752,-1.0617 0.2359,-0.4284 0.1056,-0.9685 0.3353,-1.3969 0.3166,-0.5712 0.8816,-0.2918 1.3845,-0.3042 z m -9.7909,15.3289 c -1.8812,-1.2727 -4.1473,-0.7016 -6.2582,-0.9002 -0.0311,0.5649 -0.0621,1.1299 -0.0869,1.6949 2.1295,-0.1925 4.377,0.2794 6.3451,-0.7947 z m -3.6755,4.1349 c 0,-0.4967 -0.0186,-0.9996 0.0063,-1.5025 0.0186,-0.329 0.0807,-0.5587 -0.2608,-0.6705 -0.3973,-0.1304 -1.0865,0.0062 -1.5087,0.0062 -0.2049,0 -0.6705,-0.0869 -0.8381,0.0869 -0.1801,0.1801 -0.0621,0.6644 0,0.8692 0.0931,0.3353 0.2856,0.6147 0.5712,0.8071 0.5773,0.3912 1.3596,0.4036 2.0301,0.4036 z M 43.4542,32.105 c -1.2541,-0.0994 -2.3096,0.3973 -2.4151,1.757 0.627,-0.0559 1.7322,0.149 2.2661,-0.2422 0.3353,-0.2421 0.149,-1.1485 0.149,-1.5148 z M 38.6364,19.1291 c -1.8315,0.0621 -1.2666,1.8998 -1.1859,3.1167 0.0373,0.6519 0.0373,1.3162 -0.745,1.2665 -0.7947,-0.0496 -1.7818,0.0062 -2.2909,-0.7326 -0.3229,-0.4656 -0.2794,-1.2852 -0.8444,-1.5708 -0.4408,-0.2235 -0.8816,0.1304 -1.13,0.4843 -0.7636,1.0803 -0.0869,2.142 1.0369,2.5207 1.1237,0.3787 2.4275,0.1614 3.5202,0.6022 0.6395,0.2608 0.4346,0.8568 0.5402,1.4156 0.1117,0.6084 0.6208,1.0058 1.2541,0.7512 0.9002,-0.3601 0.0434,-1.7632 0.894,-2.2475 1.012,-0.5774 2.3158,-0.5712 3.3775,-1.0803 0.714,-0.3415 1.2106,-0.9561 1.1175,-1.7818 -0.0745,-0.6706 -0.7761,-1.4839 -1.5211,-1.1486 -0.7015,0.3104 -0.4532,1.3348 -0.7574,1.9122 -0.4595,0.863 -1.5335,0.6519 -2.3282,0.8195 -0.149,-0.9064 0.6891,-4.3832 -0.9375,-4.3273 z"
               fill="#c4892d"
               id="path14" /><path
               d="m 58.6757,62.353 c -0.0931,0.7077 -0.3352,1.2479 -1.1175,1.2789 -0.8071,0.0311 -1.2107,-0.3663 -1.1983,-1.1361 0.0373,-1.8502 0.1428,-3.5017 -0.3725,-5.3208 -0.8878,-3.1229 -3.0856,-6.4258 -6.4134,-7.2516 0,3.1602 -0.0435,6.3141 -0.0062,9.4743 0.0372,3.0235 0.3415,6.0099 0.5091,9.0272 0.0497,0.9375 -0.5029,1.6763 -1.5708,1.3286 -0.9251,-0.3042 -0.7264,-1.9867 -0.8071,-2.7441 -0.3228,-2.9801 -0.3539,-5.923 -0.3601,-8.9155 -0.0062,-1.4218 -0.0124,-2.8435 -0.0062,-4.2715 0,-0.7636 0,-1.5211 0,-2.2847 0,-0.6333 0.1304,-1.4528 -0.0559,-2.0675 -0.0931,-0.3166 0.0497,-0.2049 -0.2111,-0.3725 -0.1738,-0.1118 -0.5091,-0.0869 -0.7201,-0.1118 -0.3601,-0.0434 -0.7202,-0.0745 -1.0803,-0.0807 -0.7823,-0.0186 -1.5708,0.0435 -2.3407,0.1987 -0.1365,0.0248 -0.4284,0.0435 -0.5401,0.1242 -0.2546,0.1862 -0.1242,0.0869 -0.1987,0.4159 -0.0931,0.3974 -0.0372,0.8941 -0.0559,1.2976 -0.031,0.8009 -0.062,1.6018 -0.0869,2.4027 -0.1117,3.1726 -0.1552,6.4011 -0.7015,9.5364 -0.2608,1.5024 -0.7823,2.9863 -0.9748,4.4888 -0.1304,1.0057 -0.5401,2.4648 -1.8936,1.9991 -0.7574,-0.2607 -0.6333,-0.8257 -0.4843,-1.4528 0.1987,-0.8071 0.3788,-1.6204 0.5464,-2.4399 0.3415,-1.6888 0.6208,-3.3899 0.8195,-5.0973 0.3974,-3.3526 0.3663,-6.6928 0.3663,-10.064 -2.3096,1.0306 -4.1225,3.0049 -5.1717,5.3145 -0.4967,1.0927 -0.8009,2.2661 -0.9189,3.4582 -0.062,0.5836 -0.0745,1.1734 -0.0558,1.7632 0.0186,0.6022 0.2918,1.4466 0.0745,2.0053 -0.4222,1.0679 -1.9557,0.714 -2.2041,-0.2731 -0.2794,-1.1176 -0.1986,-2.4586 -0.0869,-3.5948 0.2173,-2.2413 0.9561,-4.4267 2.2103,-6.3017 1.2603,-1.8936 3.0111,-3.4209 5.0289,-4.4701 1.0554,-0.5464 2.173,-0.9561 3.3216,-1.2417 0.447,-0.1118 1.4093,-0.118 1.7383,-0.4284 0.2794,-0.2608 0.2856,-0.7388 0.2794,-1.0803 -0.0062,-0.6457 -0.3973,-1.6577 0.2049,-2.142 0.5774,-0.4718 1.875,-0.3104 2.1233,0.4471 0.236,0.7264 -0.2111,1.5459 -0.031,2.2971 0.1738,0.7202 0.4656,0.4843 1.0741,0.5774 0.6457,0.0931 1.2976,0.3104 1.9433,0.447 0.8878,0.1925 1.5707,0.7389 2.3282,1.2231 0.8071,0.5153 1.6452,1.0058 2.4337,1.5522 1.2479,0.8567 2.2475,2.353 2.9987,3.6568 1.5398,2.6821 2.0613,5.7739 1.6639,8.8286 z"
               fill="#c4892d"
               id="path16" /><path
               d="m 62.7178,68.8902 c 0.8505,-0.8195 1.6825,-1.6266 2.5206,-2.4337 2.26,2.3406 4.5137,4.675 6.7674,7.0094 -0.1242,0.118 -0.2297,0.2483 -0.3601,0.3477 -0.2918,0.2173 -0.5712,0.4532 -0.8879,0.6208 -0.9809,0.5029 -1.9246,0.4098 -2.8062,-0.2545 -0.3104,-0.2359 -0.6022,-0.4967 -0.8754,-0.7823 -1.4218,-1.4652 -2.8373,-2.9366 -4.2591,-4.4019 -0.031,-0.031 -0.0621,-0.062 -0.0993,-0.1055 z m 10.598,3.1726 c 0.6829,-0.9375 0.7015,-2.0551 0.0434,-3.0112 -0.2359,-0.3477 -0.5091,-0.6705 -0.7947,-0.9747 -1.4093,-1.4714 -2.8249,-2.9367 -4.2404,-4.4019 -0.031,-0.031 -0.0683,-0.0621 -0.1056,-0.0993 -0.8443,0.8133 -1.6763,1.6204 -2.5144,2.4275 2.2599,2.3406 4.5136,4.6751 6.8046,7.0405 0.2731,-0.329 0.5587,-0.6395 0.8071,-0.9809 z"
               fill="#bba720"
               id="path18" /><path
               d="m 56.9386,75.0682 c -0.2359,0.2918 -0.4532,0.565 -0.6829,0.8568 -0.0808,-0.1863 -0.1615,-0.3477 -0.2236,-0.5153 -0.0124,-0.0249 0.0187,-0.0745 0.0373,-0.1056 0.5526,-0.7512 1.1113,-1.4962 1.6639,-2.2475 0.2173,-0.2918 0.4346,-0.5836 0.6457,-0.8754 0.0248,-0.031 0.0497,-0.0621 0.0807,-0.1055 0.9934,2.2289 1.9743,4.4391 2.9677,6.6556 -0.7947,0.3538 -1.577,0.7015 -2.3841,1.0616 -0.7016,-1.5645 -1.3969,-3.1353 -2.1047,-4.7247 z"
               fill="#bba720"
               id="path20" /><path
               d="m 49.0483,82.5364 c 0,-0.0124 0,-0.0186 0,-0.0186 0.298,-0.3725 0.3353,-0.7947 0.2546,-1.2541 -0.1056,-0.596 -0.1739,-1.1921 -0.2608,-1.7943 -0.0186,-0.1242 -0.0435,-0.2545 -0.0745,-0.3725 -0.1242,-0.416 -0.3291,-0.5588 -0.7637,-0.5464 -0.1552,0.0063 -0.3104,0.0311 -0.4718,0.0435 -0.0248,-0.1614 -0.0435,-0.329 -0.0683,-0.5029 0.118,-0.0248 0.2359,-0.0497 0.3539,-0.0683 0.5836,-0.1117 1.1734,-0.18 1.7632,-0.0745 0.6954,0.1242 1.2541,0.447 1.577,1.1051 0.5836,1.1859 0.1738,2.471 -0.981,3.1229 -0.3973,0.2173 -0.8319,0.3415 -1.3286,0.3601 z m 1.8377,-5.5007 c -0.0931,-0.6457 -0.18,-1.2728 -0.2669,-1.9061 -1.4218,0.1987 -2.8373,0.3974 -4.2529,0.5961 0.1366,0.9933 0.2794,1.9743 0.416,2.949 0.1987,-0.0248 0.3911,-0.0559 0.596,-0.0807 -0.0497,-0.3477 -0.0993,-0.6891 -0.149,-1.043 1.2293,-0.1739 2.44,-0.3477 3.6568,-0.5153 z m -1.8749,4.3894 c -0.087,-0.6022 -0.6706,-1.0306 -1.279,-0.9437 -0.6519,0.0931 -1.0803,0.6457 -0.9934,1.2728 0.0932,0.627 0.6457,1.0306 1.2914,0.9375 0.6395,-0.0932 1.0741,-0.6519 0.981,-1.2666 z"
               fill="#bba720"
               id="path22" /><path
               d="m 39.7585,75.3965 c 0.3352,0.0497 0.6333,0.1366 0.9126,0.2918 0.5836,0.3229 0.9251,0.8382 1.1486,1.4466 0.2732,0.7512 0.2608,1.5211 0.1242,2.2972 -0.118,0.6457 -0.3228,1.2665 -0.7264,1.7942 -0.5029,0.6581 -1.1486,1.1052 -1.9867,1.2107 -0.2856,0.0373 -0.714,-0.0124 -0.8941,-0.0931 0.0062,-0.0062 0.0124,-0.0187 0.0187,-0.0249 0.3476,-0.18 0.4966,-0.478 0.5463,-0.8505 0.2732,-1.9743 0.5526,-3.9487 0.832,-5.923 0.0124,-0.0434 0.0186,-0.0931 0.0248,-0.149 z m -0.4594,-0.0559 c -0.0187,-0.0062 -0.0249,-0.0124 -0.0373,-0.0124 -0.3911,-0.0186 -0.7761,-0.0186 -1.1672,0.0497 -0.5464,0.0931 -0.9934,0.3477 -1.31,0.8071 -0.298,0.4284 -0.416,0.9127 -0.4222,1.4218 -0.0124,0.5773 0.1552,1.0927 0.5712,1.5024 0.4781,0.4595 1.0927,0.6271 1.726,0.7823 0.2173,-1.5335 0.4284,-3.0422 0.6395,-4.5509 z m -2.0427,6.9164 c 0.6395,0.0931 1.2169,-0.3415 1.3038,-0.9686 0.0807,-0.6146 -0.3539,-1.192 -0.9685,-1.2727 -0.6519,-0.0932 -1.2231,0.3228 -1.31,0.9561 -0.0869,0.6333 0.3415,1.1982 0.9747,1.2852 z"
               fill="#bba720"
               id="path24" /><path
               d="m 29.5725,74.4035 c -0.3787,0.0248 -0.7264,0.0434 -1.0989,0.0683 0.0869,-0.1863 0.1552,-0.3601 0.2359,-0.5215 0.0124,-0.0249 0.0807,-0.0311 0.1242,-0.0373 0.925,-0.0869 1.8501,-0.18 2.7752,-0.267 0.3973,-0.0372 0.7885,-0.0745 1.1982,-0.1179 -0.9933,2.2288 -1.9743,4.4391 -2.9615,6.6618 -0.7884,-0.3539 -1.5769,-0.7016 -2.3778,-1.0555 0.7015,-1.5708 1.3969,-3.1415 2.1047,-4.7309 z"
               fill="#bba720"
               id="path26" /><path
               d="m 17.0922,74.354 c -0.8443,-0.8133 -1.6701,-1.6142 -2.5082,-2.4214 2.2289,-2.3095 4.4515,-4.6067 6.6804,-6.9163 0.8381,0.8071 1.6701,1.6142 2.5082,2.4214 -2.2288,2.3033 -4.4515,4.6067 -6.6804,6.9163 z m -0.5153,-7.8228 c 1.5522,-0.5463 3.0608,-1.0803 4.5881,-1.6204 -0.5339,-0.5153 -1.0492,-1.012 -1.5645,-1.5087 -1.0058,1.043 -1.9992,2.0737 -3.0236,3.1291 z m 6.0658,5.4263 c 0.0186,-0.0186 0.0372,-0.0311 0.0497,-0.0435 0.8878,-0.9251 1.7818,-1.8439 2.6696,-2.7628 0.0807,-0.0807 0.0621,-0.1242 -0.0124,-0.1987 -0.4594,-0.4346 -0.9126,-0.8816 -1.3721,-1.3162 -0.0248,-0.0248 -0.0559,-0.0496 -0.1055,-0.0869 -0.4284,1.4776 -0.8506,2.9367 -1.2728,4.3957 0.0249,0.0062 0.0373,0.0124 0.0435,0.0124 z"
               fill="#bba720"
               id="path28" /><path
               d="m 71.2188,24.0707 c -0.5588,-2.024 -1.3845,-3.6072 -2.8621,-5.1841 2.7255,0.6394 2.4213,2.949 3.247,4.8364 1.13,-1.1237 2.142,-2.1233 3.2409,-3.2098 -0.3104,-0.3911 -0.596,-0.7637 -0.9375,-1.192 -0.7202,0.6829 -1.3845,1.3224 -2.204,2.0984 0.0186,-1.4217 -0.6023,-2.384 -1.4466,-3.396 0.6581,-0.2546 1.2231,-0.4719 1.8377,-0.7016 -0.031,-0.1242 -0.0807,-0.298 -0.1428,-0.5215 0.2608,-0.0435 0.4905,-0.0807 0.7264,-0.1242 1.1424,1.3907 2.2599,2.7504 3.3402,4.0666 -2.1419,1.757 -4.2156,3.4582 -6.3203,5.1841 -0.3849,-1.0057 -0.7699,-1.9991 -1.1796,-3.0732 0.8754,0.3912 1.6949,0.7637 2.7007,1.2169 z m -0.0559,-6.1278 c 0.7513,0.8009 1.0306,1.6142 0.8071,3.0546 0.6209,-1.0617 0.981,-1.6701 1.3349,-2.2848 -0.5091,-0.8071 -1.2355,-0.714 -2.142,-0.7698 z m -0.1862,6.3016 c -0.4905,-0.2111 -0.863,-0.3725 -1.3721,-0.5898 0.18,0.6022 0.3042,1.0182 0.4408,1.4901 0.2918,-0.2732 0.5401,-0.5215 0.9313,-0.9003 z M 60.6643,13.0691 c -0.267,-1.0368 -0.5154,-2.0115 -0.7575,-2.9614 0.3166,-0.087 0.6519,-0.18009 1.9185,-0.53397 C 59.6461,9.52406 59.019,7.90984 57.5538,8.36306 57.5165,8.37548 57.5041,8.4624 57.4731,8.51827 c 0.1117,0.15522 0.2173,0.29181 0.3166,0.42218 -0.5277,0.40977 -1.043,0.81953 -1.6142,1.26655 1.2851,0.4532 2.0426,1.4466 2.8187,2.6014 -0.1366,-1.4528 -0.6519,-2.4648 -2.8684,-3.06083 1.2914,-0.04346 1.8564,-0.23593 2.0923,-0.03725 1.2789,1.07408 1.7446,2.58898 2.0674,4.17218 -0.3539,0.1366 -0.627,0.2421 -0.7512,0.2918 -0.2173,0.863 -0.3973,1.5894 -0.6084,2.4275 -0.4781,-0.7823 -0.8568,-1.3969 -1.2542,-2.0426 0.149,-0.1056 0.3415,-0.2421 0.3912,-0.2794 0.2669,-0.4346 0.447,-0.7264 0.6146,-0.9996 -1.2479,-1.2293 -2.6572,-1.0865 -4.2342,-0.478 0.0807,0.4718 0.1552,0.9064 0.2421,1.4217 0.3291,-0.1366 0.5402,-0.2297 0.7699,-0.329 -0.0497,-0.3539 -0.0869,-0.6581 -0.1614,-1.1983 0.4408,0.0187 0.8754,-0.0807 1.1547,0.0807 0.4409,0.2608 1.0803,0.6768 1.1114,1.0617 0.0745,1.0182 -1.0306,0.1738 -1.3038,0.5588 0.894,0.9064 1.757,1.7756 2.6386,2.6696 0.4967,-0.8754 1.0368,-1.8253 1.5708,-2.769 0.6643,-1.2355 1.3348,-2.4648 2.0115,-3.7189 -0.3725,-0.4594 -0.7884,-0.3849 -1.1113,-0.0869 -0.2607,0.9685 -0.478,1.7694 -0.7015,2.5765 z M 78.756,23.3629 c 2.2971,2.0178 1.5211,3.8617 1.4217,5.5939 -1.5024,0.596 -1.4528,-0.8878 -2.1916,-1.4155 -0.2483,0.0993 -0.565,0.2173 -0.9561,0.3725 0.8071,0.6891 1.4963,1.4093 1.012,2.4089 -0.3477,0.7202 -1.1796,0.9375 -1.9122,0.6643 -1.1424,-0.416 -0.4657,-1.3783 -0.4843,-2.1419 -1.0617,-0.5402 -1.7632,-1.3659 -1.5149,-2.6076 0.0559,-0.2856 0.7637,-0.6581 1.1362,-0.6271 1.0989,0.1056 1.4093,0.981 1.5273,2.3531 0.3911,-0.5154 0.6084,-0.801 0.8754,-1.161 -0.2422,-0.5091 -0.4657,-0.9872 -0.832,-1.7571 1.8378,0.6706 1.7881,2.5642 3.0671,3.5203 0.211,-1.6763 -0.2298,-3.1043 -1.1486,-5.2028 z m -4.0356,2.5269 c -0.5339,0.9002 -0.1242,1.4342 0.2173,1.9122 0.1863,0.2608 0.6022,0.3539 0.9189,0.5278 0.478,-0.7637 0.1987,-1.2976 -0.149,-1.7446 -0.2173,-0.2856 -0.6085,-0.4409 -0.9872,-0.6954 z m 1.5708,2.6573 c -0.5091,0.5339 -0.4657,1.1485 -0.1552,1.7073 0.1055,0.1863 0.6332,0.3415 0.8195,0.2421 0.2359,-0.1303 0.4594,-0.5463 0.4346,-0.8195 -0.0497,-0.6084 -0.3477,-1.0927 -1.0989,-1.1299 z m 5.6808,15.8131 c 0.2111,0.1801 0.4284,0.3601 0.6519,0.5464 -0.0435,0.267 -0.0807,0.4967 -0.118,0.7326 -1.4962,-0.2235 -2.949,-0.447 -4.5012,-0.6767 0.714,-0.8071 1.3535,-1.5273 2.0489,-2.322 -1.31,-0.683 -1.1238,-1.6888 -0.6271,-2.6759 0.1366,-0.2732 0.7016,-0.5898 0.9375,-0.5029 1.2169,0.4222 0.9872,1.49 0.8754,2.5455 0.9747,-0.1738 1.0741,-0.9065 1.2169,-1.7012 0.2793,0.1428 0.4904,0.2546 0.7264,0.3726 -0.1242,1.0057 -0.236,1.9432 -0.3539,2.918 -0.5774,-0.1428 -0.8009,-0.4594 -0.7078,-1.0368 -0.3477,-0.0249 -0.6519,-0.0497 -0.9437,-0.0745 -0.7202,0.6891 -1.4342,1.3658 -2.3282,2.2226 0.9996,-0.031 1.7694,-0.0559 2.7752,-0.0869 -0.0434,0.0186 0.1304,-0.1056 0.3477,-0.2608 z m -1.9992,-4.4267 c -0.6394,0.5464 -0.7077,1.2231 -0.3973,2.0364 0.1863,0.0559 0.3911,0.118 0.565,0.1739 0.7078,-0.7699 0.6333,-1.8688 -0.1677,-2.2103 z M 79.6003,35.153 c -1.4093,-0.4409 -1.9557,-1.5149 -1.7508,-2.558 0.4284,-2.1792 1.4901,-1.1299 2.2537,-0.1614 0.3353,0.4284 0.3725,1.0927 0.565,1.726 1.0058,-1.0865 0.0621,-2.0799 -0.0683,-3.3961 1.6205,1.31 1.4031,3.1664 2.3717,4.6875 -0.4657,-0.0373 -0.683,-0.0621 -0.9189,-0.0807 -0.1366,-0.3663 -0.2607,-0.6954 -0.5774,-1.5273 -1.3348,2.6883 -3.5637,3.6382 -6.1713,4.2466 1.5708,-0.9127 3.3713,-1.2417 4.2963,-2.9366 z m 0.149,0.0931 c 0.0994,-1.6267 -0.0186,-2.5952 -1.4652,-3.6569 0.0807,1.0617 0.0186,1.6826 0.2111,2.2165 0.149,0.416 0.6085,0.7264 1.2541,1.4404 z M 69.4183,14.2053 c -0.7947,1.3411 -1.5025,2.5331 -2.2847,3.8493 -0.8817,-1.8439 -2.2537,-2.9801 -4.2405,-3.7748 0.6643,-0.565 1.2417,-1.0492 1.8502,-1.5645 -0.1118,-0.1118 -0.2484,-0.2546 -0.7264,-0.7389 2.3654,0.1553 3.6692,1.6515 5.4014,2.2289 z m -1.2293,0.4656 c -1.043,-0.9002 -2.1357,-1.6142 -3.5761,-1.2479 -0.3601,0.0932 -0.6705,0.4098 -1.2355,0.7761 2.1482,0.2856 3.2595,1.3286 3.8058,3.3278 0.385,-1.0927 0.6768,-1.9247 1.0058,-2.856 z m 14.2114,33.1227 c 0.0186,-0.236 0.0559,-0.6395 0.0931,-1.0431 -0.2359,-0.18 -0.4222,-0.3228 -0.4097,-0.3166 -2.6573,0.0807 -5.0786,0.1614 -7.6676,0.2421 2.738,0.385 5.3331,0.7451 7.9842,1.1176 z M 60.9188,8.5369 c 1.4404,0.50289 2.7318,1.3038 4.2591,0.62706 C 63.6382,9.86553 62.6013,7.4504 60.9188,8.5369 Z M 84.6727,47.061 c -0.6084,-1.397 0.596,-2.7815 -1.1424,-3.9549 0.7078,1.3721 -0.2173,2.7194 1.1424,3.9549 z m -1.192,-3.9238 c 1.2169,-0.4905 1.8563,-1.2666 1.2976,-2.7815 -0.4781,1.0306 -0.8879,1.906 -1.2976,2.7815 z M 60.3166,7.46903 c -0.3415,-0.65811 -0.981,-0.83816 -1.8998,-0.7947 0.8629,0.70778 1.7384,1.19205 2.2599,2.173 C 60.5649,8.38789 60.5277,7.885 60.3166,7.46903 Z M 83.6421,37.804 c -0.1863,-0.5091 -0.3166,-0.863 -0.5836,-1.5708 -0.298,0.5961 -0.4532,0.9003 -0.6519,1.2976 0.4656,0.1056 0.7823,0.1739 1.2355,0.2732 z M 70.4117,14.7951 c -0.6333,0.4595 -0.1614,0.7637 0.031,1.1672 0.3167,-0.1676 0.596,-0.3228 1.012,-0.5401 -0.4284,-0.267 -0.7388,-0.4532 -1.043,-0.6271 z m 7.2143,7.8104 c -0.478,-0.3291 -0.5339,-1.1114 -1.3162,-0.6954 0.0497,0.298 0.0931,0.5712 0.149,0.9313 0.4098,-0.0807 0.7202,-0.1428 1.1672,-0.2359 z m -58.944,4.9917 c -2.2226,-0.0435 -3.4519,1.0864 -3.9114,3.4457 -0.8257,-1.5087 1.1052,-2.3965 0.4098,-3.7127 -0.4035,0.7574 -0.7574,1.4093 -1.3162,2.4586 -0.0062,-1.5832 1.3348,-2.4586 0.5401,-3.7003 -0.9002,-0.4595 -1.8439,-0.9499 -2.9739,-1.5273 0.0559,0.4904 0.0994,0.894 0.1366,1.2106 0.8568,0.1242 1.5522,0.2235 2.4276,0.3477 -0.7202,0.5836 -1.2355,0.9996 -1.6887,1.3659 -0.534,-0.3104 -1.0431,-0.6084 -1.5274,-0.8878 -1.2727,1.2789 -1.03057,2.7131 -0.298,4.079 0.3539,0.6581 0.9748,0.1242 1.5522,-0.0248 -0.1118,-0.2732 -0.2111,-0.5029 -0.3105,-0.7327 -0.4656,0.0125 -0.8754,0.0249 -1.3348,0.0435 -0.1738,-1.1051 0.2049,-1.8501 1.0493,-2.3903 0.9312,0.2856 0.3787,1.1486 0.7201,1.6639 0.6023,-0.8816 1.1859,-1.7384 1.993,-2.9242 -0.1304,1.6763 -1.4094,2.5641 -1.1238,3.7686 0.8072,0.4718 1.4528,0.8505 2.173,1.2727 0.5091,-1.906 1.6888,-3.098 3.483,-3.7561 z m 6.1279,-12.0943 c -1.4963,-0.7761 -2.5952,-0.2421 -3.8555,0.8381 0.1179,-0.6953 0.1862,-1.0989 0.2483,-1.4528 1.8191,-0.7822 3.5948,-0.6519 5.4635,-0.4594 -0.9561,-1.192 -1.8563,-2.3158 -2.7938,-3.4892 -0.1614,0.1366 -0.3539,0.3042 -0.5464,0.4781 0.0249,0.298 0.0497,0.5587 0.0559,0.6022 0.7326,0.5339 1.3162,0.9561 2.2351,1.6266 -1.4031,-0.0931 -2.3406,-0.1552 -3.2471,-0.2173 0.0559,-0.3476 0.118,-0.7326 0.2732,-1.6514 -1.0865,1.459 -2.7007,1.757 -2.9118,3.4581 0.3414,-0.0931 0.5339,-0.149 0.6891,-0.1924 0.1987,0.6394 0.385,1.2168 0.6147,1.9432 1.0616,-0.9312 2.2847,-1.3596 3.7748,-1.4838 z M 9.52442,48.1537 C 8.77319,47.8494 8.02816,47.5452 7.23347,47.2286 7.16517,47.39 7.08446,47.5825 6.86716,48.0916 5.92967,46.0552 6.63744,44.1988 6.37048,42.4294 7.88536,42.4853 9.2885,42.5349 10.8096,42.597 9.67963,44.3044 8.99669,46.0986 9.52442,48.1537 Z M 7.16517,43.2862 C 7.14655,45.068 6.87337,46.825 9.25745,47.7439 8.30754,45.7385 8.93461,44.2857 10.2694,42.8143 9.07741,42.9944 8.15854,43.1309 7.16517,43.2862 Z M 14.6154,35.1405 C 10.226,34.4824 8.04679,36.2332 8.54347,39.8342 6.58157,38.9278 7.54389,37.1397 7.15275,35.7738 6.99754,35.6807 6.81749,35.5751 6.38289,35.3206 c 0.42219,1.7198 -0.42839,3.3526 0.60223,4.9854 0.14901,-0.3787 0.21109,-0.5525 0.23593,-0.6146 0.63327,0.2173 1.19204,0.4098 1.98053,0.6767 -0.76366,-4.3832 2.30962,-4.675 5.41382,-5.2276 z M 16.3166,22.7917 C 14.9383,21.0533 16.2855,19.9544 16.9995,18.75 16.894,18.4768 16.8008,18.2347 16.627,17.7876 c -0.6084,1.5273 -2.0985,2.3655 -2.2351,4.1349 0.3725,-0.18 0.5402,-0.2607 0.714,-0.3414 0.4656,0.6643 0.9065,1.3038 1.3783,1.9743 0.9127,-1.9557 2.3344,-3.2781 4.3832,-3.9424 -2.4089,-0.2918 -3.812,0.9064 -4.5508,3.1787 z m -6.35758,4.1225 c -0.50289,-1.6515 1.13618,-3.1726 0,-4.7557 0.60848,1.5397 -1.57076,2.7628 -0.35389,4.4453 -1.07408,0.4905 -2.11091,0.9933 -1.71356,2.6076 0.64569,-0.9065 1.04304,-1.9309 2.06745,-2.2972 z M 5.53853,44.9501 c -1.06787,0.925 -1.44038,1.906 -0.49668,3.1973 0.05587,-1.2168 0.03725,-2.3095 0.97474,-3.1104 -1.38451,-0.863 -0.19247,-2.8187 -1.9619,-3.8493 0.9437,1.3472 -0.29801,3.0422 1.48384,3.7624 z M 7.89778,34.3148 C 8.07162,34.0292 8.22062,33.7933 8.40067,33.5015 8.0592,33.309 7.76119,33.1414 7.37005,32.9179 c 0.01242,0.4842 0.02484,0.8133 0.03726,1.2044 0.14279,0.0559 0.31042,0.1242 0.49047,0.1925 z M 25.9647,9.6296 c -0.3912,0.27939 -0.714,0.5091 -1.2976,0.9251 0.5712,0.1552 0.8878,0.2421 1.341,0.3663 -0.0186,-0.5153 -0.031,-0.8506 -0.0434,-1.2914 z M 9.52442,48.1537 9.54305,48.1661 Z"
               fill="#ffffff"
               id="path30" /></g></g><path
           style="fill:#bd8b35;stroke:none;stroke-width:0.0887482"
           d="m 150.7822,-38.69207 c 0.35943,0.933362 0.59995,2.036956 0.8449,3.017458 0.13836,0.550337 0.20503,1.163689 0.67269,1.547958 0.54848,0.449954 1.29129,0.426261 1.9436,0.582013 -0.3896,0.472136 -1.06409,0.50339 -1.45903,0.985544 -0.32658,0.3985 -0.26091,1.129517 -0.68425,1.416188 -0.56087,0.380452 -1.55132,0.419323 -2.20539,0.564606 -0.88216,0.195809 -1.7031,0.606328 -2.57372,0.802912 -1.25137,0.282844 -3.02012,-0.443562 -4.06559,0.520854 -0.83335,0.768214 -0.89193,2.259991 -1.37116,3.253526 -1.45014,3.005487 -4.35046,5.63769 -2.16901,9.052375 0.26002,0.406308 0.32658,1.125966 0.77744,1.348628 1.51404,0.748434 2.51958,-0.399533 3.89961,-0.727372 -0.0842,0.669238 0.20859,1.061335 0.25205,1.686218 0.0551,0.794204 -0.51119,1.911731 0.005,2.636825 0.46591,0.654779 1.41908,0.97347 2.1397,1.239806 1.17505,0.434606 2.28173,0.8030936 3.27573,1.6044942 1.06053,0.8552675 1.55664,2.6872165 2.9367,3.1538695 0.61325,0.207332 1.43683,0.03655 2.04121,-0.129139 0.40292,-0.110489 0.79963,-0.27069 1.15374,-0.492749 1.19455,-0.748672 2.90118,-2.4713695 3.36002,-3.8419287 0.37185,-1.112914 0.0729,-3.466342 1.34455,-4.078623 0.4828,-0.232345 0.88216,0.292605 1.2416,0.52717 0.43485,0.283724 0.93363,0.351973 1.32235,0.727917 0.36653,0.355782 0.43931,0.920857 0.79076,1.261298 0.52716,0.509056 1.50695,-0.222326 1.80514,-0.657811 0.30973,-0.453065 0.43043,-1.0617 0.50764,-1.596141 0.44729,-3.109679 -2.11576,-4.718241 -4.86965,-5.169266 -0.78098,-0.128097 -2.8231,0.07129 -3.28103,-0.708129 -0.20503,-0.349389 0.0346,-0.891027 0.17841,-1.222513 0.47036,-1.080052 1.48918,-1.793433 1.99862,-2.839944 0.31239,-0.640501 0.22896,-1.444121 0.39404,-2.129972 1.01262,0.533467 1.77852,0.02096 2.75122,0.337236 0.41445,0.135216 0.56887,0.481897 0.91055,0.703323 0.61415,0.398577 1.73771,0.725172 2.46189,0.511391 3.40173,-1.00499 2.30392,-5.595182 0.4402,-7.401373 -1.61701,-1.567317 -4.02743,-1.838256 -6.12012,-2.226726 0.21033,-0.659219 0.76857,-1.148044 1.1848,-1.686219 0.85288,-1.101909 1.73504,-2.208066 2.72014,-3.194951 1.18834,-1.190216 2.68821,-2.460566 2.91187,-4.259942 0.19956,-1.602706 -0.88484,-2.193244 -2.02438,-3.07523 -0.6745,-0.522202 -1.37738,-1.314378 -2.21871,-1.546093 -1.84243,-0.507379 -4.2777,1.41528 -5.24327,2.846358 -0.39761,0.588567 -0.2343,1.288885 0.53958,1.466743 0.72774,0.167302 1.79894,-0.478174 2.0634,0.663209 0.13396,0.576346 -0.41888,1.370284 -0.6656,1.863721 -0.69934,1.398695 -1.45638,2.76605 -2.4335,3.993692 -0.31505,0.396624 -0.84754,1.128894 -1.3552,1.274809 -0.30706,0.08823 -0.35144,-0.26156 -0.40024,-0.476154 -0.17212,-0.765994 -0.61326,-1.457884 -0.76946,-2.218633 -0.26447,-1.283823 1.12889,-2.724404 1.48034,-3.904946 0.26269,-0.882232 0.0612,-1.556637 -0.93719,-1.59392 -1.12535,-0.04221 -1.86284,1.366724 -2.66247,2.009808 -0.86442,0.694358 -1.9569,0.528319 -2.83906,1.065153 -0.8378,0.510394 -1.22564,1.526744 -2.13087,1.94085 -0.6026,0.275657 -1.45904,0.601199 -2.12997,0.448098 -1.02948,-0.234747 -1.78828,-1.09455 -2.9287,-1.258284 -1.05967,-0.1522 -2.23204,0.162691 -2.57017,1.293241 -0.70999,2.37981 2.01637,3.353288 3.02989,5.058683 0.47658,0.803353 0.42511,1.924803 1.23006,2.516117 0.67625,0.49691 1.79004,0.585217 2.4814,0.106918 2.0439,-1.414293 1.28776,-3.696543 1.82113,-5.729268 0.18281,-0.699334 0.70202,-1.357145 1.19633,-1.863722 M 59.194082,-46.23574 c -0.478259,0.819325 -1.515828,-0.01465 -1.911287,0.97632 -1.026382,2.573447 -0.0215,5.588589 -0.727659,8.253529 -0.158481,0.598175 -0.394205,1.080081 -0.91108,1.452217 -0.395199,0.284528 -1.032603,0.39449 -1.255365,0.864588 -0.542597,1.144942 -0.399539,2.90137 -1.505084,3.761269 -0.679638,0.528567 -2.683938,0.853037 -3.451872,0.450127 -1.331673,-0.698731 -2.191483,-2.289895 -3.814867,-0.907823 -1.04218,0.887306 -0.445072,3.012483 -0.445072,4.230737 0,0.776032 0.114463,1.424685 -0.709999,1.774984 0,-0.843287 0.122419,-2.009454 -0.354556,-2.74961 -0.433179,-0.672185 -1.639192,-0.883861 -2.133142,-0.174212 -0.979461,1.406848 -0.455478,3.465451 -0.736455,5.053793 -0.219724,1.242293 -1.0514,2.402881 -1.376945,3.638695 -0.203337,0.771573 -0.396703,1.797884 0.345066,2.350604 0.50506,0.376365 1.623568,0.330671 2.099357,-0.08135 0.482858,-0.418088 0.547671,-0.914645 1.269185,-0.938081 0,1.623213 -0.494963,2.950548 -1.071557,4.437436 -0.294277,0.758894 -0.559205,2.068822 -0.201678,2.838626 0.470184,1.0127206 1.939969,0.875151 2.497217,0.08995 1.123213,-1.582658 1.41235,-3.498916 1.91988,-5.324828 0.482376,-1.735042 1.195924,-3.432618 1.766916,-5.147439 0.289426,-0.869009 0.366004,-1.803893 0.649286,-2.662097 0.08304,-0.251791 0.313374,-0.610501 0.628956,-0.551305 0.423862,0.07961 0.06607,0.857918 -0.0019,1.08343 -0.314,1.047699 -0.773895,2.187838 -0.773895,3.283719 0,1.132694 0.301732,2.354584 -0.06645,3.461211 -0.345933,1.039594 -1.456281,1.742036 -1.891418,2.751199 -0.196018,0.454834 -0.08323,1.111047 -0.08323,1.597471 0,1.411548 0.0058,3.8382077 1.121612,4.9119727 0.677246,0.652387 2.19512,0.02259 2.757961,-0.503723 1.105458,-1.0334885 2.059148,-2.1355697 3.309083,-3.0130277 1.797423,-1.261815 3.791798,-1.866201 4.495297,-4.146421 0.261012,-0.846138 0.09365,-1.706036 -0.28905,-2.484986 -0.267571,-0.544558 -0.813814,-1.312398 -0.375494,-1.923807 0.518379,-0.723028 1.3228,1.225535 1.425756,1.568818 0.425888,1.419538 -0.05391,2.869698 -0.629322,4.171206 -0.48822,1.104378 -1.399224,2.186842 -1.652502,3.372437 -0.125795,0.5885842 0.0379,1.1839182 0.04273,1.7749822 1.364947,0.1838475 2.539085,0.3212745 3.619785,-0.749036 0.516692,-0.5116486 1.084231,-2.6209302 2.145324,-2.2336272 0.346378,0.126404 0.534631,0.563362 0.717985,0.852693 0.511184,0.804339 0.89725,1.6574702 1.36406,2.4849577 0.718863,1.271939 1.507833,2.292651 2.624305,3.236158 0.291962,0.246881 0.52272,0.65406 0.889264,0.792778 0.548471,0.20692 1.36052,0.06775 1.951582,0.142345 0.298193,-0.798931 0.639873,-1.800534 0.405576,-2.662461 -0.150948,-0.553791 -0.742829,-1.056205 -1.081848,-1.508734 -0.657619,-0.8765595 -1.236268,-1.8430307 -1.69244,-2.8399447 -0.331023,-0.722425 -0.714417,-1.542284 -0.921208,-2.307475 -0.133964,-0.493073 -0.06674,-1.046263 -0.310634,-1.508734 -0.366515,-0.694271 -1.325906,-1.182302 -1.51848,-1.952467 -0.220101,-0.876397 -0.07099,-1.865673 -0.03183,-2.751209 0.06992,-1.598188 0.04436,-3.310235 -0.262711,-4.881188 -0.201466,-1.029392 -0.549338,-2.21934 -1.421291,-2.891525 -1.631294,-1.25792 -1.813605,0.964693 -2.039907,1.9153 -0.968505,-0.740004 -1.402051,-1.686237 -1.675929,-2.839964 -0.07359,-0.310184 -0.297392,-0.783123 -0.106497,-1.082033 0.542337,-0.849325 2.211901,-1.029929 3.113655,-1.167834 0.915883,-0.140049 1.587729,1.203786 2.573719,1.254378 0.528053,0.02718 0.979789,-0.334231 1.32769,-0.69207 1.147519,-1.181431 0.911437,-2.894988 0.24671,-4.258601 -0.648737,-1.330437 -2.415731,-1.980516 -3.793109,-1.258025 -0.643712,0.337608 -1.02807,0.997104 -1.686239,1.318006 -0.587773,0.286575 -2.478208,1.231315 -2.747381,0.116144 -0.129142,-0.534893 0.429457,-1.167671 0.796261,-1.478198 1.052279,-0.891134 2.918582,-0.874884 3.758245,-1.985493 0.6033,-0.798385 1.198798,-2.610632 0.28823,-3.395344 -0.600292,-0.517036 -1.559847,-0.40895 -1.955749,-1.217106 -0.2847,-0.58094 -0.01052,-1.247881 -0.05912,-1.862381 -0.115726,-1.43835 -1.141577,-2.072631 -2.476722,-2.129971 m -10.649857,4.486938 c -1.824822,0.211054 -1.009503,1.847941 -1.663322,2.877878 -0.4283,0.67475 -1.3763,0.582999 -1.790238,1.175021 -0.514733,0.735992 -0.49094,2.79071 0.357045,3.291794 0.980223,0.579266 2.218816,0.411886 3.185285,1.034186 0.72872,0.469208 1.223392,2.12064 2.130056,2.027185 1.553094,-0.160172 2.151978,-1.562944 2.344746,-2.911916 0.301655,-2.111693 -0.7518,-5.621891 -2.611073,-6.761695 -0.553081,-0.339007 -1.270188,-0.811333 -1.952499,-0.732453 m -46.9480721,5.883968 c -0.74032986,0.296164 -1.32482887,1.014397 -2.04122487,1.389011 -1.06852413,0.558758 -2.55657113,0.87142 -3.72744213,1.183642 -1.598884,0.426346 -3.846274,0.262614 -5.116896,1.494169 -0.542347,0.525676 -0.416493,1.843138 0.150945,2.298594 0.749744,0.601888 2.333465,0.530442 1.484586,1.989663 -0.91101,1.565797 -2.7630949,1.903568 -4.0621239,2.958876 -1.075005,0.873371 -1.644147,2.269922 -2.751392,3.117582 -0.507106,0.388165 -1.171018,0.386661 -1.682569,0.733046 -0.984026,0.666166 -1.48981,2.463409 -1.092724,3.574092 0.201468,0.563295 0.767941,1.009957 1.177921,1.419978 1.032491,1.032598 2.516277,2.04576 3.186066,3.372464 0.698552,1.383405 0.872928,3.0044822 1.677352,4.3486707 0.34425,0.575179 0.645384,1.147603 1.3489859,1.305517 1.656764,0.371676 2.755645,-0.399207 2.654197,-2.1929855 -0.02956,-0.522041 -0.231796,-2.1829742 0.718348,-2.0602282 1.643809,0.212202 3.113128,2.0112322 4.267836,3.0028167 0.464512,0.399015 1.074294,0.539055 1.55186613,0.91119 1.004186,0.782578 2.75440587,1.597653 4.03130987,0.993268 0.775305,-0.366979 1.25614,-1.200685 1.952478,-1.689433 0.468778,-0.328987 1.0253153,-0.468587 1.5087253,-0.775564 1.248339,-0.7927025 2.430202,-1.7253657 3.5499478,-2.6895327 0.697754,-0.600835 1.511041,-1.152129 2.100765,-1.863808 0.682492,-0.823495 1.06836,-1.810553 1.894267,-2.535637 1.367002,-1.20015 3.379106,-1.618601 3.767643,-3.676686 0.105235,-0.557955 -0.145704,-1.245059 -0.310011,-1.774975 -0.679275,-2.192085 -2.644624,-3.720858 -4.790202,-4.429436 -0.741046,-0.244775 -1.613807,0.0048 -2.307475,-0.311254 -1.0969418,-0.498682 -1.6559408,-1.737961 -2.6637818,-2.254565 -0.556998,-0.285513 -1.693165,-0.150949 -2.3061343,-0.08957 -1.254293,0.12558 -2.354881,0.72073 -3.16833,1.671041 -0.459371,0.536673 -0.802654,1.386436 -1.447939,1.723855 -0.55875987,0.292173 -0.89832087,-0.227351 -1.41864887,-0.308404 -0.388528,-0.06058 -0.82136213,0.16625 -1.15372413,0.340461 -1.1762,0.616346 -2.630617,3.067324 -3.539566,0.817812 -0.43656,-1.080522 1.863014,-2.07353 2.563321,-2.417877 2.36240113,-1.161459 4.879217,-1.955387 7.188643,-3.150397 0.823324,-0.425991 1.9994253,-0.763955 2.3604513,-1.709135 0.413475,-1.082273 -0.320375,-1.690668 -1.0292203,-2.396107 -1.152398,-1.146808 -2.647112,-3.071889 -4.526182,-2.320258 m 97.9786051,1.829203 c -1.08451,0.205035 -1.50163,1.162522 -1.28509,2.177187 0.35234,1.651959 1.955145,2.93917 1.18479,4.792432 -0.37274,0.894321 -1.70929,1.593299 -2.65092,1.666343 -1.064084,0.08258 -2.425481,-0.254518 -2.93846,1.084856 -0.552012,1.443144 0.594611,3.542676 1.695989,4.390488 0.413562,0.318087 1.604581,0.460442 1.669351,1.027106 0.0967,0.845227 -0.68512,1.977769 -1.108448,2.658537 -1.269118,2.036343 -2.926056,3.777777 -4.226231,5.768676 -0.507635,0.7773522 -1.168833,2.8353527 0.470379,2.7323177 1.356972,-0.08527 2.794696,-1.2341395 3.904944,-1.9291275 1.102256,-0.6897722 2.399756,-1.1324532 3.461204,-1.8491842 1.390667,-0.939211 2.531077,-2.386002 3.486017,-3.746439 0.70201,-0.999842 1.33567,-2.045923 1.94094,-3.106214 0.35323,-0.618377 0.66116,-1.365125 1.23095,-1.816755 1.84864,-1.467901 6.81413,-1.095622 6.63574,-4.573149 -0.10818,-2.118258 -1.90633,-3.582771 -3.88632,-3.939022 -0.70467,-0.126833 -1.78563,0.171494 -2.35893,-0.366432 -0.36654,-0.343456 -0.43931,-1.091162 -0.59994,-1.551969 -0.32216,-0.917286 -0.76325,-1.891749 -1.3685,-2.658642 -0.74727,-0.946407 -2.16991,-0.649802 -3.21624,-0.689305 -0.68604,-0.02603 -1.34811,-0.202729 -2.041225,-0.07178 m 62.035365,4.928414 -1.15375,2.129972 c -0.43575,-0.199581 -0.77476,-0.543687 -1.24248,-0.690368 -0.75082,-0.235455 -1.814,0.0019 -2.2187,-0.818367 1.49806,-0.663935 3.02722,-1.232636 4.61493,-0.621237 m -17.21727,12.424811 c 0,-1.441443 -0.16939,-3.025708 0.16856,-4.437427 0.62922,-2.629188 3.0343,-4.477733 5.5113,-5.324665 0.86705,-0.296498 1.76521,-0.589647 2.66245,-0.78027 0.24582,-0.05215 0.69845,-0.203772 0.91855,-0.01674 0.39405,0.33468 -0.53074,0.801755 -0.74106,0.897171 -1.19721,0.542424 -2.76452,0.558835 -2.91275,2.206823 -0.13668,1.518399 2.99618,0.57251 3.36626,2.044679 0.0905,0.358288 -0.32482,1.043334 -0.42067,1.416522 -0.5893,2.287761 -2.63229,3.281115 -4.91402,3.349374 -0.78987,0.02364 -1.50518,-0.323389 -2.30747,-0.143397 -0.54758,0.122852 -0.85998,0.540653 -1.33124,0.787734 m -91.498528,-7.948445 c 1.450881,-0.391821 1.511488,1.360684 0.176323,1.681606 -0.973674,0.234018 -0.941915,-1.474927 -0.176323,-1.681606 m -43.0444682,3.182702 c 1.3279402,-0.191398 2.4005572,0.816224 1.6303052,2.103349 -1.072972,1.79308 -2.9299368,3.25433 -4.4702688,4.629667 -0.522366,0.466374 -1.2814423,1.292445 -2.0408513,1.301938 -1.151881,0.01473 -0.441093,-1.722601 -0.12914,-2.204153 0.30761,-0.474998 0.761019,-0.833707 1.034186,-1.331241 0.9771243,-1.77994 1.5958063,-4.156458 3.9758549,-4.49956 m -8.1648959,0.620089 c 1.677624,-0.197905 1.363374,1.525423 0.958138,2.54825 -0.481716,1.216034 -1.381193,3.015583 -2.39355187,3.867759 -0.301743,0.254087 -0.707754,0.293035 -1.049536,0.473102 -0.35347613,0.186365 -0.74016313,0.626931 -1.15372613,0.645028 -0.861486,0.0377 -2.351307,-1.397691 -1.687289,-2.284919 0.211849,-0.283016 0.609875,-0.21069 0.787382,0.06324 0.353475,0.545801 0.583792,1.599787 1.513155,1.043602 1.06764813,-0.638912 1.43356313,-2.00351 1.96009213,-3.007868 0.25649801,-0.489286 0.80353487,-0.789344 0.47490297,-1.408189 -0.35009896,-0.659304 -1.88652597,0.201465 -1.69634397,-0.897142 0.13711,-0.792013 1.64477397,-0.967297 2.28677687,-1.043 m -11.537317,0.71472 c 1.492402,-0.154517 2.790891,1.927262 1.699174,3.126254 -0.26713,0.293397 -0.966472,0.329264 -1.344186,0.366432 -2.1353789,0.210527 -2.7066589,-3.249087 -0.354988,-3.492686 m 63.5440911,0.857306 c 0.179881,0.737755 -0.421462,1.459556 -1.15373,1.508715 0.0058,-0.812329 0.340262,-1.313116 1.15373,-1.508715 m 53.870472,2.348737 c -0.93009,0.167705 -1.82114,0.862195 -1.54779,1.911205 0.17758,0.683075 0.81207,1.16367 1.24072,1.686228 0.81294,0.992023 1.77761,2.095713 2.42905,3.194952 0.45439,0.7677442 0.35143,1.9465237 0.98954,2.5572827 0.52272,0.500012 1.73859,1.16591 2.47964,1.052215 3.19584,-0.490336 3.9857,-4.3517217 2.63495,-6.8044497 -1.12712,-2.04533 -3.44613,-2.828778 -5.56366,-3.314685 -0.86708,-0.198958 -1.76699,-0.444366 -2.66245,-0.282748 m -52.894233,1.644954 c -0.162696,1.447481 -1.595879,0.03857 0,0 m 98.954803,1.090806 c 1.11291,-0.117407 0.7029,1.966152 -0.35499,2.066698 -0.54227,0.05158 -2.264,-0.707333 -1.85751,-1.446514 0.26979,-0.490251 1.70751,-0.56694 2.2125,-0.620184"
           id="path2448"
           sodipodi:nodetypes="cccccccccccccccccssccssccccccccccccccccccscscscsccscccscsccccccccssssssscscscsscscscscccsscsccssssccscsscccccccccccccccscscccssscccccccscssccsccssscccsccscscscccsssscsccscscssccscsccccccsccscssccccccscccccccsccccsscccccssccsccssccccccccsscssssccsccccccccccscsccccscc" /><path
           style="fill:#bd8b35;stroke:none;stroke-width:0.0960237"
           d="m 119.92778,2.3336814 c -2.488,0.160369 -6.63529,1.1707614 -7.57537,3.8876595 -0.37545,1.0832459 0.2123,2.0602173 0.85268,2.88073 1.38562,1.7775761 4.29137,2.6954161 6.52487,2.0820231 0.37837,-0.103657 0.57519,-0.766948 0.16717,-0.967809 -0.41383,-0.20392 -1.05148,-0.01818 -1.50564,-0.102755 -1.72367,-0.3229173 -4.63031,-1.1255473 -4.13193,-3.4119701 0.2016,-0.9238361 1.44227,-1.5993995 2.21146,-1.9930361 2.24502,-1.1490985 4.61491,-1.5054269 7.10579,-1.0355893 3.35411,0.6325295 7.0213,2.4013227 9.04649,5.2371927 0.67886,0.9497845 1.16764,2.2748088 1.59303,3.3608508 0.10752,0.275984 0.169,1.162476 0.59151,1.107557 0.51467,-0.06691 0.1978,-1.426168 0.196,-1.779721 -0.009,-1.7325973 -1.56617,-3.8621614 -2.70504,-5.0855252 -3.3647,-3.6167927 -7.65221,-4.4835391 -12.37084,-4.1795151 M -2.3112753,15.247754 c -2.0288164,-1.179675 -4.1139888,-2.446994 -6.2416066,-3.445367 -0.6516148,-0.305831 -1.364903,-0.362106 -2.0165171,-0.651609 -1.011704,-0.449537 -2.09498,-1.3929423 -3.168807,-1.6228743 -0.857127,-0.1835037 -2.030148,1.0400593 -2.274632,1.7814033 -0.21458,0.651044 1.275786,0.994718 1.698484,1.159665 1.995187,0.77878 3.939123,1.710801 5.8574878,2.67121 5.2915243,2.649237 10.3043056,5.679483 14.4460337,9.954401 1.8378137,1.896955 3.3336861,3.415306 4.1826455,5.997214 0.840201,2.555219 -1.7341097,5.543969 -3.2550465,7.402418 -0.4457514,0.544639 -2.4607203,1.660254 -1.8588514,2.473397 0.457653,0.61841 1.4094546,-0.379394 1.7147178,-0.753981 1.2693366,-1.557523 2.4157847,-3.265209 3.4373991,-4.992789 0.374969,-0.634234 0.873432,-1.397451 1.060775,-2.112527 C 12.089997,29.980967 10.38623,26.984619 8.73489,24.466105 7.8633663,23.136928 6.555716,22.364888 5.3706659,21.379295 3.9527805,20.200007 2.6433853,18.855003 1.1845734,17.736888 0.27033298,17.036189 -1.9416797,16.448241 -2.3112753,15.247754 M 60.77684,9.6268257 c -1.567803,0.137233 -3.582206,0.18033 -4.993288,0.9557173 -0.568846,0.312598 -1.524863,1.529721 -0.478293,1.918231 0.42721,0.158559 0.851651,-0.130199 1.246491,-0.251483 0.993678,-0.305085 2.03294,-0.810464 3.072793,-0.92184 0.791521,-0.08484 1.530713,0.147447 2.30459,0.258773 1.758021,0.252751 3.441498,0.501159 5.089289,1.205892 1.935847,0.828016 3.840985,2.474549 5.377376,3.887748 0.484921,0.445441 1.538311,1.735718 2.283472,1.600048 0.624144,-0.11386 0.221836,-1.015762 0.01595,-1.303722 -0.771072,-1.079501 -1.739978,-2.004334 -2.779917,-2.831285 -0.971761,-0.77329 -1.793729,-1.690994 -2.880737,-2.31305 C 67.492418,10.949308 65.815831,10.704417 64.137309,10.280319 63.084591,10.014335 61.876992,9.5304377 60.776462,9.6268257 M 38.402729,14.479543 c -0.964275,1.301028 -2.638464,3.504706 -2.132704,5.281341 0.270498,0.950084 1.333193,1.104392 2.132704,1.441826 1.967835,0.830424 4.31228,2.595927 6.529674,1.902618 1.566732,-0.48972 0.596019,-2.195407 1.103886,-3.244275 0.266867,-0.551192 1.04081,-0.678122 1.584793,-0.776367 1.606292,-0.289884 3.630793,1.689747 4.649898,2.683415 0.31102,0.303227 0.994807,0.527741 1.232271,-0.0043 0.16581,-0.37182 -0.02271,-0.84522 -0.02271,-1.234118 0,-0.495214 0.27233,-1.172933 -0.06061,-1.610807 -0.339061,-0.445741 -1.088919,-0.479928 -1.57452,-0.681782 -1.906478,-0.792496 -4.025244,-1.145466 -5.857395,-0.02513 -0.939228,0.574219 -1.124852,2.545023 -2.209043,2.818303 -0.950649,0.239701 -2.743446,-0.666311 -3.552543,-1.105611 -2.016516,-1.095057 -1.839161,-3.796147 -0.09596,-5.026022 0.509976,-0.359794 1.265115,-0.06106 1.79392,-0.499315 0.459968,-0.381416 0.162189,-1.096315 -0.259351,-1.358576 -0.848756,-0.527923 -2.470334,-0.254932 -3.455068,-0.416158 -3.099859,-0.5077 -6.643258,-1.503837 -9.79451,-0.99386 -1.254367,0.203012 -2.489697,0.535635 -3.744561,0.734018 -0.351457,0.05563 -0.788352,0.322735 -0.55513,0.744392 0.172625,0.312255 0.629159,0.327133 0.938853,0.297847 0.981647,-0.093 2.003633,-0.233723 2.976752,-0.404076 1.421541,-0.248876 2.922131,0.146757 4.321102,0.381328 2.004133,0.336094 4.084795,0.587668 6.049546,1.096017 m 135.586687,12.003075 -0.0961,-1.056281 c -1.46057,0 -4.20683,-0.19144 -5.24388,-1.362109 -0.43981,-0.497303 -0.66161,-1.553583 -0.47726,-2.190785 0.20937,-0.718852 0.78166,-1.787991 0.29385,-2.496656 -1.45765,-2.119622 -3.76705,-3.610713 -5.99959,-4.752232 -2.39298,-1.223454 -4.29519,-2.093731 -7.00983,-2.17382 -2.16246,-0.06394 -4.16553,-0.02496 -5.84884,1.576436 -0.61937,0.590076 -0.53102,1.83973 0.5675,1.543126 1.98961,-0.537173 3.9274,-1.499051 6.04954,-1.566732 2.21145,-0.07054 3.63837,1.016986 5.47341,1.999412 1.83119,0.980609 3.93601,1.819762 5.24199,3.565964 1.00539,1.344445 -1.73423,2.094118 -1.67853,3.360779 0.0998,2.305151 2.37755,3.785278 4.50262,3.835686 0.61741,0.01585 1.1302,-0.334847 1.72841,-0.373549 0.85748,-0.05554 1.6276,0.347708 2.49666,0.09073 m -51.8532,-9.122379 c -1.09853,0.483185 -1.80334,1.504784 -2.54081,2.4006 -0.29769,0.360957 -0.76819,0.698294 -0.92568,1.152292 -0.15265,0.441523 0.24488,1.098904 0.60591,1.342995 0.44653,0.301518 0.89684,-0.0579 1.32419,-0.220929 0.84885,-0.323985 2.38812,-1.379881 3.26482,-1.330995 0.49359,0.02767 0.89592,0.614847 1.34435,0.805362 0.56173,0.238531 0.89398,-0.0433 1.44034,-0.04359 0.45039,-1.79e-4 0.78068,0.240058 1.24833,0.08601 0.6549,-0.216166 0.96316,-0.883995 1.33478,-1.40657 0.24773,-0.348841 0.67601,-0.586213 0.87091,-0.964364 0.3649,-0.70694 -0.56749,-1.683027 -1.14941,-1.957745 -0.74419,-0.351834 -1.99634,0.06393 -2.59267,0.552723 -0.3169,0.259937 -0.79892,1.014576 -1.26078,0.684542 -0.62129,-0.444402 -1.39527,-1.743026 -1.25217,-2.540603 0.0866,-0.479541 0.39657,-0.952282 0.51946,-1.440366 0.12595,-0.499623 0.6309,-1.092963 0.31691,-1.610156 -0.41382,-0.681666 -1.62279,0.400042 -1.94064,0.754848 -0.93241,1.039582 -0.91322,2.456316 -0.60784,3.736048 m -133.474139,-0.768208 0.480127,2.016514 c -0.894086,0.166039 -3.566052,-0.163091 -2.442954,-1.628658 0.847028,-1.105459 2.109654,-0.861934 2.731033,-2.116304 -2.666021,-0.998364 -6.743959,3.023438 -3.647492,4.993768 0.459852,0.29268 0.929319,0.23611 1.438915,0.318795 1.118115,0.18146 2.762627,0.642107 3.6087106,-0.419433 0.5589694,-0.701359 0.4850213,-2.754849 -0.3644047,-3.25802 -0.4767759,-0.2825 -1.3003719,-0.0018 -1.8039349,0.09346 m 35.336982,-1.588913 c -1.743327,0.228918 -4.178314,1.485863 -5.101099,3.030624 -0.380852,0.637415 -1.222026,3.051176 0.204143,3.109358 0.367487,0.01584 1.224314,-0.182146 1.522185,-0.397335 0.447942,-0.323503 0.575078,-1.036503 0.990768,-1.436337 1.048884,-1.009116 2.875566,-1.905802 3.577211,-3.201355 0.461308,-0.851954 -0.50623,-1.195238 -1.193298,-1.104955 m 4.417114,3.02917 c -1.727277,1.722503 -3.7095,3.353859 -5.953502,4.306698 -0.562713,0.239013 -1.830035,0.547929 -1.414553,1.449486 0.384978,0.835148 1.805857,0.343676 2.470812,0.216175 2.298941,-0.440758 4.822934,-0.636148 7.105822,0.05508 3.251482,0.984552 6.975027,2.687728 9.410415,5.111401 0.647478,0.644424 1.233608,1.339066 1.904163,1.959671 0.17126,0.158553 0.539171,0.618297 0.81851,0.427691 0.366623,-0.250065 -0.319965,-1.04054 -0.47754,-1.235178 -0.914975,-1.130014 -1.884831,-2.294997 -3.013308,-3.220298 -1.017942,-0.834647 -2.252168,-1.347119 -3.36075,-2.043307 -1.658738,-1.041468 -3.197142,-2.167177 -5.185441,-2.598901 -1.135396,-0.246582 -2.388127,-0.655648 -3.552898,-0.678513 -0.265324,-0.0043 -1.082387,0.277795 -1.255909,0.02451 -0.137455,-0.200742 0.164674,-0.442088 0.297967,-0.544816 0.487814,-0.375657 1.136452,-0.751692 1.726144,-0.925101 0.02515,0.318693 -0.0043,1.030714 0.263308,1.245612 0.507479,0.406389 2.424603,-0.118413 2.905503,-0.44228 0.624344,-0.420496 1.144903,-1.196861 1.920471,-1.283462 -0.01818,-0.367402 0.07732,-1.01969 -0.394541,-1.144336 -0.485712,-0.128385 -1.026998,0.540441 -1.429915,0.733812 -0.752729,0.361456 -1.857874,0.638783 -2.688679,0.506538 0.666403,-0.439508 1.410788,-0.724022 2.016518,-1.253507 0.320034,-0.279703 0.635096,-0.566534 0.960149,-0.8404 0.597946,-0.503544 1.047993,-2.112534 -0.192359,-2.221529 -1.284895,-0.112956 -2.312544,0.778481 -3.552513,0.909654 -0.65835,0.06964 -1.362587,-0.536974 -2.016424,-0.224558 -0.770406,0.368051 -1.496618,1.616839 -0.572014,2.21431 0.864215,0.558382 2.278953,-0.693395 3.260599,-0.504513 m 109.372008,1.440387 c -0.0595,0.755906 -0.83256,1.793452 -0.59726,2.496552 0.28323,0.845683 1.21853,0.881005 1.9416,0.795739 1.54121,-0.181922 2.69252,-0.581616 4.12907,-1.17974 0.0998,0.386382 0.13245,1.362202 0.59534,1.503154 0.33319,0.101618 0.64816,-0.43172 0.821,-0.638932 0.46671,-0.55812 1.62569,-1.487347 1.09372,-2.294518 -0.50509,-0.766751 -1.37411,-0.59257 -2.02995,-0.216622 -1.00826,0.578069 -1.95025,1.102755 -3.07277,1.426828 -0.31114,0.08981 -0.81336,0.357205 -1.13696,0.248038 -0.48777,-0.16491 0.005,-0.829476 0.13632,-1.084313 0.36489,-0.706641 1.74668,-1.945155 1.68235,-2.688591 -0.046,-0.535813 -0.56271,-0.849615 -1.06586,-0.699729 -1.35971,0.404735 -2.63876,0.888317 -3.93703,1.46784 -0.0659,-0.519303 0.56081,-0.976569 0.37068,-1.436238 -0.21121,-0.512593 -0.97948,-0.709546 -1.42696,-0.426353 -0.95542,0.604665 -1.83792,1.918365 -2.63297,2.741691 -0.34185,0.354128 -0.79317,0.84846 -0.23336,1.258204 0.69525,0.508648 1.60266,-0.239782 2.20281,-0.562695 0.81237,-0.436917 2.24409,-0.670946 3.16016,-0.710405 m -37.44953,1.5364 c -0.506092,1.719891 -2.398737,3.038493 -3.744989,4.080938 -3.167866,2.452481 -6.265602,4.529288 -9.986565,6.045025 -1.341452,0.546482 -2.729968,1.020467 -4.031105,1.664773 -0.396588,0.195981 -0.879584,0.77281 -0.694262,1.254387 0.128615,0.334924 0.511821,0.308608 0.788368,0.199161 1.022665,-0.404372 2.17591,-0.608514 3.168816,-1.044839 2.744369,-1.206263 6.179171,-2.101899 9.218357,-1.812374 1.833102,0.174658 3.521211,0.847891 5.28138,1.328019 -0.30732,0.645852 -1.037092,1.121856 -1.535463,1.6324 -0.628032,0.644509 -1.098526,1.408116 -1.65356,2.112559 -0.275589,0.349222 -1.065866,0.923551 -0.796045,1.426055 0.291936,0.544627 1.360661,-0.139286 1.776439,-0.270994 1.365457,-0.432867 2.698349,-0.482898 4.129119,-0.482898 0.57804,0 1.49222,0.239276 2.01651,0.05589 0.62029,-0.21708 1.6545,-1.565861 2.20855,-1.436801 2.07605,0.483369 3.78339,2.856222 5.10465,4.357574 2.22105,2.524762 4.97697,5.261295 6.05821,8.546199 0.54349,1.651213 0.4561,3.378033 0.4561,5.08928 1.08987,-0.328872 0.59823,-2.439702 0.48976,-3.264826 -0.43789,-3.328031 -1.76207,-5.920213 -3.56926,-8.729686 -0.28712,-0.445078 -0.77491,-0.749366 -1.10907,-1.16084 -1.49415,-1.834738 -3.04494,-3.472916 -4.93376,-4.909727 -3.06413,-2.330712 -6.37409,-4.226236 -10.082578,-5.309574 -1.117733,-0.326388 -2.37758,-0.740647 -3.552919,-0.754096 -0.952569,-0.01128 -1.936826,0.220707 -2.880726,0.314688 0.477228,-1.222868 2.453408,-2.109567 3.552888,-2.705403 1.856162,-1.005853 3.890963,-2.530713 5.377415,-4.016315 0.42923,-0.428955 1.60937,-0.972163 1.75146,-1.538223 0.13339,-0.531395 -0.1862,-1.055795 -0.5214,-1.438552 -1.17056,-1.340491 -2.49855,-0.726511 -4.014801,-0.227279 -0.469572,0.154468 -0.908398,0.565012 -1.43653,0.361338 -1.262727,-0.487139 -0.608807,-3.354419 -2.596497,-2.691854 -0.239105,0.07942 -0.458042,0.188952 -0.672172,0.3211 -0.912242,0.563872 -2.366071,1.567327 -2.564829,2.716825 -0.364884,2.116279 3.075671,1.740061 4.197226,1.322356 1.681396,-0.626172 2.979664,-1.019194 4.801283,-1.034281 m 8.45015,-3.174367 c -1.88401,0.680239 -1.7467,2.471382 -0.47148,3.745235 0.87574,0.874396 2.58016,0.842037 3.73632,0.980415 0.45031,0.05373 0.99768,0.167859 1.42213,-0.06421 0.48107,-0.262446 0.0739,-0.919931 -0.27176,-1.10026 -0.53393,-0.278755 -1.08894,0.09822 -1.63051,0.03925 -1.70539,-0.185998 -1.96372,-1.711252 -2.05588,-3.018543 -0.0289,-0.412891 -0.29572,-0.738233 -0.72882,-0.581791 m -97.752979,0.197598 c -0.681779,0.160142 -2.0773052,1.062876 -1.7183454,1.916728 0.17693,0.421067 0.6231857,0.687158 0.9501464,0.980318 0.916184,0.821389 2.35394,2.058094 3.55292,2.404553 0.556076,0.160594 2.276825,8.62e-4 1.899739,-0.976664 -0.176014,-0.456012 -0.870663,-0.767334 -1.227578,-1.075281 -1.272992,-1.098424 -2.628566,-1.69369 -3.456882,-3.249649 m 62.319918,2.016487 c 0.07099,0.374888 0.531032,1.570207 0.306331,1.86259 -0.545435,0.707716 -2.595538,-0.117037 -2.463029,-0.998366 0.256389,-1.706912 2.532163,-1.173211 2.924896,-2.688677 -1.799501,-0.334348 -2.761669,0.125664 -3.929318,1.536385 -0.370662,0.447967 -0.911265,0.998861 -0.836366,1.632422 0.27367,2.318132 3.818876,2.964274 5.629908,2.208098 1.203194,-0.502704 1.284813,-2.926443 0.266958,-3.68621 -0.431162,-0.321398 -1.434608,-0.0236 -1.89938,0.133834 m 87.478361,2.208567 c 0.002,0.225016 0.0135,0.447674 0.0249,0.672279 0.0998,1.792382 1.77932,-0.502407 2.13557,-0.951802 0.25832,-0.3262 0.86615,-0.615229 0.91989,-1.064831 0.10073,-0.852012 -1.93197,-1.59486 -2.59072,-1.514968 -0.579,0.07037 -0.96983,1.211063 -1.36258,1.601984 -0.62513,0.621559 -1.40964,0.622806 -2.19991,0.873251 0.0376,-0.460537 0.17101,-0.895734 0.27557,-1.344355 0.24775,-1.065309 -0.91798,-1.187926 -1.71209,-0.828692 -0.56944,0.257921 -0.45325,0.829082 -0.70483,1.307367 -0.2458,0.466031 -0.75476,0.664501 -1.21952,0.84608 -0.22659,0.08872 -0.58383,0.2682 -0.81812,0.109105 -0.45804,-0.311304 0.3255,-0.881028 0.53004,-1.065962 0.51277,-0.464094 2.92877,-1.716835 2.15095,-2.641836 -0.41864,-0.496629 -1.23198,0.157643 -1.66698,0.337811 -0.52334,0.216627 -0.91704,0.690335 -1.34818,1.047927 -0.85368,0.7073 -2.38238,1.35413 -2.45824,2.61667 -0.03,0.477614 0.27754,0.765681 0.63376,1.027945 1.18973,0.874669 2.11734,0.126116 3.26484,-0.476954 0.27174,-0.142905 0.63667,-0.486463 0.96026,-0.451802 1.0793,0.115681 1.78027,1.572971 3.07276,1.314477 0.89978,-0.179878 1.35011,-1.050605 2.11255,-1.413666 M 62.504097,18.28798 c -1.301525,0.405414 -2.490113,2.665364 -1.150861,3.619652 1.315457,0.937288 2.419913,-0.311985 3.73978,-0.27943 0.529947,0.01364 0.754642,0.608406 1.346171,0.311394 0.818133,-0.410316 1.191646,-3.596973 -0.190081,-3.502389 -1.319968,0.09027 -1.234407,2.892832 -2.784332,2.483763 -1.423381,-0.375535 -0.135199,-1.424031 0.05646,-2.023434 0.19054,-0.596405 -0.617425,-0.734088 -1.017165,-0.609556 m 59.919341,0.432023 c 0.38599,-0.0043 1.05144,0.600259 0.78256,1.001538 -0.26408,0.394458 -1.47301,0.789029 -1.93296,0.792678 -0.48778,0.0043 -0.49452,-0.408026 -0.28905,-0.75217 0.22759,-0.38073 0.966,-1.035429 1.43945,-1.042046 m 4.129,2.097943 -0.096,-0.09595 c -9.1e-4,-0.313908 -0.17854,-0.655168 -0.11231,-0.960139 0.10571,-0.476394 1.16287,-1.347241 1.57673,-0.726241 0.2929,0.440178 -1.00345,1.608515 -1.36835,1.782396 M 94.480456,19.377655 c 0.154688,0.244567 0.303414,0.490497 0.391766,0.768197 0.516602,1.610815 -2.503358,1.267618 -1.467275,-0.0794 0.11433,-0.147671 0.256395,-0.27138 0.407159,-0.37922 0.210287,-0.150611 0.423484,-0.236965 0.66835,-0.309665 m -11.426923,0.164001 c -1.102365,0.359229 -1.334729,1.585089 -0.662564,2.428647 0.958329,1.202804 2.684842,2.212792 4.215465,2.405911 0.351446,0.04451 0.891124,0.3451 1.227192,0.175335 0.435968,-0.220478 0.447491,-0.883723 0.171937,-1.218931 -0.38026,-0.460058 -1.027468,-0.600937 -1.491263,-0.955274 -0.991933,-0.757142 -1.654501,-1.537727 -2.378515,-2.506513 -0.245838,-0.329468 -0.694258,-0.455541 -1.082204,-0.329091 m -26.118685,4.925383 c -1.265115,-0.632309 -2.92202,1.41378 -3.936989,2.140391 -0.381977,0.27349 -1.013449,0.563483 -1.270132,0.963707 -0.197346,0.307757 -0.03854,0.758311 0.159462,1.023525 0.831582,1.113976 2.371145,1.568276 3.607252,2.036404 2.589892,0.980877 5.177174,0.583544 7.874017,0.46543 1.880155,-0.08229 3.745915,0.03923 5.569421,-0.516894 1.545031,-0.471313 3.025723,-0.865862 4.417121,-1.726447 0.633762,-0.391574 1.330895,-0.830038 0.970804,-1.691749 -0.138362,-0.329761 -0.529076,-0.48493 -0.848835,-0.29106 -0.452282,0.275029 -0.732681,0.946421 -1.178225,1.290864 -0.762444,0.589867 -2.042443,0.94556 -2.976773,1.174661 -0.750893,0.184183 -1.439395,0.560017 -2.208547,0.675152 -2.778102,0.415689 -5.410228,0.05059 -8.162107,-0.338578 -1.520142,-0.214805 -3.560859,-0.511233 -4.56193,-1.87228 -0.610803,-0.830506 1.248518,-1.277134 1.777235,-1.189266 2.728329,0.453437 7.567099,2.302865 9.122318,-1.183597 0.201648,-0.453338 0.893032,-1.301816 0.705783,-1.810253 -0.185323,-0.505084 -1.667452,-0.350503 -1.978863,-0.03899 -0.243226,0.243406 -0.141542,0.678992 -0.228441,0.985004 -0.150616,0.529585 -0.475524,1.031514 -0.900518,1.376135 -1.425575,1.155768 -3.131263,0.481196 -4.607746,-0.298831 -0.48818,-0.257904 -1.316787,-0.5602 -1.344355,-1.17332 m 47.820192,10.466665 v 0.09598 c -1.0956,0.77043 -3.56249,0.661147 -4.897272,0.672185 0.153572,-0.465641 0.667412,-0.68947 1.056282,-0.957946 0.42062,-0.290093 0.92089,-0.833874 1.44037,-0.912235 0.68274,-0.102981 1.86481,0.720385 2.40062,1.101976"
           id="path2450"
           sodipodi:nodetypes="cccccccccccsccccssscsssssssscsssccsscscsccccssccsccscssscssscscscssccscccccccsscsscsccccccccsccscccccccssccccccssssccscccsccscssssccscscscccsccccsccscsccccccccssccccccsccccccsccccscccccscccsccccccccsssccccccscccccccccccsccscccccsccccccccscccccccccccccsssccsccscccccccccccccccccccscccccccsscsscccccsccsscccccscccccsc" /></g></g></g></svg>
