<?xml version="1.0" encoding="UTF-8" standalone="no"?>
<!-- Created with Inkscape (http://www.inkscape.org/) -->

<svg
   width="94.29158mm"
   height="12.464537mm"
   viewBox="0 0 94.29158 12.464537"
   version="1.1"
   id="svg3050"
   inkscape:version="1.2.2 (b0a8486541, 2022-12-01)"
   sodipodi:docname="drawing-3.svg"
   xmlns:inkscape="http://www.inkscape.org/namespaces/inkscape"
   xmlns:sodipodi="http://sodipodi.sourceforge.net/DTD/sodipodi-0.dtd"
   xmlns="http://www.w3.org/2000/svg"
   xmlns:svg="http://www.w3.org/2000/svg">
  <sodipodi:namedview
     id="namedview3052"
     pagecolor="#ffffff"
     bordercolor="#666666"
     borderopacity="1.0"
     inkscape:showpageshadow="2"
     inkscape:pageopacity="0.0"
     inkscape:pagecheckerboard="0"
     inkscape:deskcolor="#d1d1d1"
     inkscape:document-units="mm"
     showgrid="false"
     inkscape:zoom="0.7483165"
     inkscape:cx="-150.33746"
     inkscape:cy="222.49944"
     inkscape:window-width="1920"
     inkscape:window-height="1039"
     inkscape:window-x="0"
     inkscape:window-y="0"
     inkscape:window-maximized="1"
     inkscape:current-layer="layer1" />
  <defs
     id="defs3047" />
  <g
     inkscape:label="Layer 1"
     inkscape:groupmode="layer"
     id="layer1"
     transform="translate(-126.45778,-89.939162)">
    <path
       style="fill:#bd8b35;stroke:none;stroke-width:0.0423333"
       d="m 136.70251,89.961837 c -0.91177,0.0197 -0.85492,1.36 0.0423,1.35238 0.86496,-0.008 0.85171,-1.37169 -0.0423,-1.35238 m 2.11667,0.68944 0.0423,0.254 c 0.20735,-0.0165 0.47951,-0.13632 0.67551,-0.0347 0.2217,0.11514 0.27843,0.40047 0.29435,0.627381 0.0376,0.53551 0.0461,1.07103 0.0461,1.60866 v 4.190999 c 0,0.36788 -0.19359,1.25519 0.0266,1.55237 0.19401,0.26205 0.69075,0.44535 0.98941,0.54991 1.16857,0.4081 2.3346,0.18881 3.25802,-0.63881 1.14143,-1.02278 1.34692,-2.955289 0.70777,-4.299799 -0.74554,-1.56845 -2.99826,-1.8161 -3.83879,-0.16933 h -0.0423 v -4.318001 c -0.66912,-0.0954 -1.54212,0.43942 -2.159,0.67733 m 40.64,-0.69968 c -0.88816,0.15989 -0.63289,1.498931 0.254,1.355 0.86698,-0.14055 0.61595,-1.51164 -0.254,-1.355 m 28.194,4.2e-4 c -0.91271,0.14986 -0.6422,1.531111 0.254,1.3622 0.85344,-0.16087 0.61383,-1.5047 -0.254,-1.3622 m -81.11067,0.44526 -0.0847,2.074331 0.29634,0.0423 c 0.009,-0.2032 0.0486,-0.39962 0.11321,-0.59266 0.40164,-1.199311 1.75901,-0.973671 2.76546,-0.973671 0,2.449831 0.21508,5.015651 -0.0497,7.45067 -0.0431,0.39666 -0.31244,0.70061 -0.71232,0.75522 -0.10665,0.0144 -0.57039,0.001 -0.54289,0.17611 0.035,0.22225 0.71879,0.12742 0.88155,0.127 h 2.28601 c 0.26916,0 0.64999,0.0969 0.67733,-0.254 -0.42286,-0.003 -0.98624,-0.0216 -1.1866,-0.46567 -0.30425,-0.67437 -0.12573,-1.6891 -0.12573,-2.412999 v -5.376331 c 0.95851,0 2.2697,-0.22479 2.75573,0.846671 0.10135,0.22352 0.13462,0.47836 0.16527,0.71966 h 0.254 l -0.0847,-2.116661 h -7.40834 m 33.78201,0 c 0.0546,0.32681 0.51181,0.20489 0.762,0.28998 0.34239,0.11642 0.48412,0.43646 0.53222,0.768351 0.22716,1.56803 -0.0518,3.24273 0.0567,4.826 0.0385,0.562189 0.0245,1.120139 0.25239,1.650999 0.94742,2.207263 4.83904,2.316483 6.18913,0.46567 0.50999,-0.69893 0.54725,-1.66624 0.54725,-2.497669 v -3.175 c 0,-0.70951 -0.14097,-1.791551 0.71966,-2.055711 0.19558,-0.0601 0.39032,-0.061 0.59267,-0.061 v -0.21166 h -3.21733 v 0.21166 c 0.35285,8.5e-4 0.78295,0.006 1.05376,0.26289 0.24312,0.23072 0.25806,0.607911 0.25857,0.922451 v 1.86266 c 0,1.85505 0.4898,4.590629 -1.82033,5.242559 -0.36517,0.1033 -0.72267,0.13801 -1.10067,0.13378 -2.50778,-0.0301 -2.24367,-3.027259 -2.24367,-4.783669 v -1.143 c 0,-0.64516 -0.18813,-1.902041 0.42715,-2.322831 0.24934,-0.17018 0.59432,-0.17484 0.88519,-0.17484 v -0.21166 h -3.89467 m -7.83167,3.344331 0.97367,0.0423 v 3.301999 c 0,0.56176 -0.0613,1.29625 0.16789,1.82033 0.59072,1.350863 2.33393,0.37466 2.58378,-0.67733 -0.46702,0.005 -0.65117,0.68157 -1.18529,0.47667 -0.47888,-0.18372 -0.42338,-0.82888 -0.42338,-1.23867 v -3.682999 h 1.43933 v -0.46567 h -1.05833 c -0.12471,-4.2e-4 -0.29976,0.022 -0.37981,-0.0982 -0.19135,-0.28659 -0.001,-1.08246 -0.001,-1.42578 0,-0.12531 0.0458,-0.38651 -0.0672,-0.476251 -0.1784,-0.1414 -0.33012,0.375921 -0.3741,0.476251 -0.20562,0.46863 -0.52727,0.92159 -0.91335,1.25772 -0.25069,0.21844 -0.65396,0.3628 -0.762,0.68961 m 57.531,0.0423 h 0.97367 c 0.0258,1.12734 0,2.25891 0,3.386669 0,0.54991 -0.0758,1.22258 0.16087,1.73566 0.57361,1.244183 2.42951,0.48472 2.54846,-0.67733 -0.4627,0.0347 -0.71797,0.77851 -1.26619,0.42291 -0.30776,-0.19981 -0.31623,-0.64516 -0.33866,-0.97324 -0.0614,-0.89451 -0.004,-1.812719 -0.004,-2.709339 0,-0.25103 -0.11854,-0.93091 0.0677,-1.1176 0.21421,-0.21378 1.07738,-0.0677 1.3716,-0.0677 v -0.46566 l -1.43933,-0.0423 c 0.12573,-0.45763 0.0428,-1.08458 0.0423,-1.56634 0,-0.11726 0.0288,-0.480901 -0.196,-0.395391 -0.14605,0.0559 -0.20024,0.309031 -0.25273,0.437731 -0.13843,0.33782 -0.33401,0.65616 -0.57404,0.93133 -0.26797,0.30692 -1.06384,0.70993 -1.0939,1.10067 m -9.18633,3.555999 v 1.60866 c 0,0.13209 -0.0584,0.45975 0.0677,0.54738 0.1342,0.0931 0.49403,-0.13123 0.69427,-0.0864 1.31614,0.29337 3.14664,0.31835 3.37439,-1.43468 0.20574,-1.582849 -1.57184,-1.974429 -2.61239,-2.608159 -0.46694,-0.28448 -1.00626,-0.86529 -0.57616,-1.41351 0.61299,-0.77978 1.74668,-0.3683 2.16324,0.381 0.16552,0.29803 0.17272,0.85852 0.57192,0.889 v -2.07433 c -0.24934,-0.0127 -0.34502,0.19896 -0.57489,0.21505 -0.35094,0.0246 -0.71501,-0.20574 -1.07611,-0.21463 -0.44408,-0.0106 -0.88265,0.0123 -1.27,0.25908 -0.7946,0.50715 -1.0994,1.78477 -0.45678,2.5345 0.70062,0.817029 2.00872,0.888149 2.64541,1.777999 0.38608,0.54017 0.0974,1.26746 -0.53763,1.4423 -0.72348,0.19939 -1.50622,-0.32089 -1.84785,-0.9343 -0.16171,-0.28999 -0.17865,-0.85895 -0.56515,-0.889 m -65.61667,-3.217339 c 0.28592,-0.091 0.6146,-0.18542 0.80053,0.12785 0.18643,0.31411 0.13081,0.79206 0.13081,1.14215 v 2.328339 c 0,0.41952 0.0945,0.98975 -0.25845,1.30048 -0.14304,0.12616 -0.58543,0.0787 -0.64274,0.23622 -0.0969,0.26628 0.43692,0.19897 0.56252,0.19897 h 1.73567 c 0.14279,0 0.49318,0.0631 0.59067,-0.0677 0.0657,-0.0881 0.003,-0.18754 -0.0889,-0.21506 -0.53983,-0.16172 -0.75112,-0.27305 -0.79426,-0.90255 -0.11586,-1.690369 -0.004,-3.427729 -0.004,-5.122329 -0.55702,4.2e-4 -1.09745,0.29506 -1.60866,0.49953 -0.24681,0.0986 -0.56807,0.15452 -0.42334,0.47413 m 16.21367,2.920999 c -0.40695,1.41267 -1.945,1.88595 -3.04736,0.91864 -0.68348,-0.59987 -0.88964,-1.488019 -0.88964,-2.357969 h 4.191 c -0.001,-2.0447 -2.25057,-3.21352 -3.937,-2.00025 -2.10769,1.51596 -1.54284,5.954189 1.397,6.021499 0.96596,0.022 1.73634,-0.57405 2.18813,-1.39658 0.16548,-0.30142 0.57459,-1.0177 0.0979,-1.18534 m 25.73867,2.41301 0.0423,-0.254 c -0.34417,-0.1016 -0.6803,-0.0224 -0.86148,-0.42334 -0.16595,-0.3683 -0.0699,-0.91652 -0.0699,-1.31233 0,-1.006689 0.16171,-2.200909 -0.1287,-3.174999 -0.24299,-0.8145 -0.92625,-1.27678 -1.7763,-1.12353 -0.25146,0.0453 -0.50165,0.15663 -0.71967,0.28787 -0.38481,0.23071 -0.66421,0.56218 -0.97367,0.87799 v -1.18533 c -0.58081,4.2e-4 -1.11929,0.28702 -1.651,0.49953 -0.12911,0.0517 -0.48133,0.12488 -0.47625,0.30692 0.007,0.24511 0.34925,0.0876 0.47625,0.0813 0.19855,-0.01 0.3501,0.11895 0.42291,0.2976 0.25358,0.62188 0.0851,1.582 0.0851,2.24367 0,0.619759 0.24046,1.923619 -0.22098,2.407489 -0.17526,0.18289 -0.37084,0.116 -0.57361,0.21252 -0.11303,0.0542 -0.12319,0.1795 -0.003,0.23326 0.18034,0.08 0.47625,0.0254 0.67056,0.0254 h 1.56634 c 0.14478,0 0.63119,0.0796 0.65743,-0.13081 0.0296,-0.23368 -0.39962,-0.15198 -0.53043,-0.19304 -0.24342,-0.0766 -0.37296,-0.28449 -0.4191,-0.52282 -0.16891,-0.86572 -0.004,-1.82965 -0.004,-2.709339 0,-0.30903 -0.0974,-0.82042 0.0436,-1.10066 0.25611,-0.5097 1.09728,-0.9089 1.64973,-0.83863 0.46905,0.0593 0.66336,0.51181 0.73617,0.92329 0.15748,0.89112 0.0682,1.849549 0.0682,2.751669 0,0.38608 0.0614,0.87969 -0.14266,1.22682 -0.15029,0.25697 -0.83101,0.24808 -0.85344,0.428 -0.0313,0.24849 0.51646,0.16552 0.65743,0.16552 h 2.32834 m 0.80433,-5.588009 0.0847,0.254 c 0.24722,-0.0512 0.58123,-0.17949 0.77681,0.0521 0.23072,0.27305 0.19685,0.8382 0.19685,1.1756 0,1.02785 0.20363,2.305469 -0.0571,3.301999 -0.12996,0.49658 -0.42883,0.36195 -0.77597,0.53341 -0.0749,0.0373 -0.10625,0.13292 -0.0538,0.2032 0.0965,0.12954 0.4191,0.0626 0.56049,0.0622 0.55923,-0.001 1.12184,0.005 1.68106,0.005 0.1397,4.2e-4 0.58843,0.0715 0.6151,-0.1342 0.0271,-0.20785 -0.36703,-0.16256 -0.4881,-0.22394 -0.25358,-0.1287 -0.34713,-0.39117 -0.3738,-0.65787 -0.17315,-1.72677 -0.007,-3.555569 -0.007,-5.291659 -0.70739,0.002 -1.52485,0.42291 -2.159,0.71966 m 16.34067,3.174999 c -0.16045,0.33867 -0.29888,0.69088 -0.56304,0.96647 -0.91736,0.95631 -2.32198,0.38862 -2.94682,-0.58547 -0.35856,-0.5588 -0.41868,-1.176439 -0.46948,-1.820329 h 4.23334 c -0.10245,-0.55076 -0.11049,-1.03801 -0.43858,-1.524 -0.89789,-1.33011 -2.94851,-1.17517 -3.96028,-0.0847 -1.40504,1.51469 -1.03632,5.219699 1.35086,5.575299 1.04055,0.15494 1.93886,-0.19643 2.53619,-1.08797 0.20362,-0.30395 0.7675,-1.22724 0.25781,-1.43933 m 1.016,-3.174999 0.0847,0.254 c 0.29591,-0.0783 0.64474,-0.18838 0.84625,0.12869 0.18076,0.28491 0.12742,0.7747 0.12742,1.09898 v 2.412999 c 0,0.34628 0.0703,0.79205 -0.12742,1.09897 -0.1977,0.30692 -0.56642,0.29803 -0.88858,0.29803 0.004,0.11557 -0.001,0.24468 0.13335,0.28278 0.26458,0.0745 0.6913,-0.008 0.96732,-0.025 0.44111,-0.0284 0.87418,0.0377 1.31233,0.0385 0.15833,4.2e-4 0.69808,0.0859 0.76835,-0.0974 0.0326,-0.0855 -0.0203,-0.16044 -0.10075,-0.18542 -0.40344,-0.127 -0.73576,-0.12403 -0.8962,-0.60621 -0.127,-0.381 -0.0677,-0.83185 -0.0677,-1.22767 0,-0.687909 -0.0377,-1.387679 0.002,-2.074329 0.019,-0.32893 0.53552,-1.24968 0.92964,-1.1883 0.44492,0.0694 1.16078,0.91737 1.4478,0.003 0.20828,-0.66463 -0.50842,-1.03039 -1.0668,-0.90932 -0.58589,0.127 -1.03039,0.73533 -1.27,1.24799 h -0.0423 v -1.27 c -0.72433,0.002 -1.49268,0.46101 -2.159,0.71967 m 10.83733,0 0.0847,0.254 c 0.2777,-0.0635 0.60494,-0.20871 0.80391,0.0893 0.20108,0.30099 0.12742,0.79586 0.12742,1.13834 v 2.328329 c 0,0.34375 0.069,0.77724 -0.0694,1.10067 -0.15621,0.3645 -0.47244,0.38101 -0.81957,0.38101 0.0131,0.40301 0.41148,0.29633 0.71967,0.29633 h 2.20133 v -0.29633 c -0.90847,0 -0.89747,-0.70655 -0.92964,-1.43934 -0.0665,-1.517649 -0.002,-3.052659 -0.002,-4.571999 -0.68665,0.006 -1.50072,0.4318 -2.11667,0.71966 m -24.34167,-0.55033 c 0.025,0.323 0.28025,0.26247 0.508,0.40471 0.2176,0.13631 0.36449,0.34078 0.47498,0.56896 0.63458,1.31148 1.15951,2.711019 1.70096,4.063999 0.14562,0.36406 0.27135,0.80137 0.47244,1.13665 0.0792,0.13251 0.25696,0.17103 0.37846,0.0656 0.27178,-0.2358 0.41317,-0.91187 0.5461,-1.24461 0.44704,-1.1176 0.89662,-2.234769 1.36228,-3.344329 0.28152,-0.67098 0.42037,-1.20269 1.16078,-1.43933 l -0.0423,-0.21167 h -1.98967 c 0.033,0.42122 0.63881,0.13589 0.6985,0.59267 0.0436,0.33655 -0.27093,0.8365 -0.3937,1.143 -0.36703,0.91736 -0.84878,1.840229 -1.10913,2.793999 h -0.0847 c -0.24341,-0.88943 -0.71416,-1.775889 -1.07611,-2.624669 -0.15325,-0.35899 -0.44069,-0.82635 -0.4009,-1.22767 0.0478,-0.47963 0.65024,-0.28575 0.71501,-0.67733 h -2.921 m 32.21567,0.0423 c 0.0771,0.27898 0.30438,0.23961 0.50631,0.39878 0.19896,0.15663 0.35348,0.40301 0.48387,0.61722 0.64304,1.05664 1.09728,2.26864 1.62517,3.386669 0.18712,0.39624 0.63797,1.0033 0.65617,1.43933 0.008,0.18119 -0.1143,0.38693 -0.18161,0.55033 -0.19008,0.461013 -0.34671,1.021513 -0.76158,1.336893 -0.48471,0.3683 -1.09685,-0.29083 -1.65015,-0.005 -0.51562,0.26585 -0.28956,0.96393 0.12615,1.19041 0.83778,0.45636 1.80806,-0.3937 2.22928,-1.04055 0.41317,-0.635 0.64008,-1.416053 0.92032,-2.116673 0.53637,-1.34069 1.05199,-2.695359 1.62222,-4.021659 0.18542,-0.43138 0.30437,-0.97198 0.65066,-1.30768 0.0953,-0.0923 0.52409,-0.21167 0.47244,-0.37465 -0.047,-0.14817 -0.3611,-0.0957 -0.47625,-0.0957 h -1.48167 v 0.254 c 0.69893,0.006 0.61722,0.50758 0.4208,1.016 -0.4009,1.03759 -0.76031,2.209379 -1.3098,3.174999 -0.35348,-0.84878 -0.78443,-1.675129 -1.19591,-2.497669 -0.16891,-0.33824 -0.50038,-0.83777 -0.48091,-1.22766 0.0258,-0.52832 0.71332,-0.30142 0.74549,-0.71967 h -1.905 l -1.016,0.0423 m -63.754,1.86267 h -2.794 c 0.0572,-1.31234 1.80954,-2.32622 2.6021,-0.93134 0.15304,0.26924 0.18936,0.62696 0.1919,0.93134 m 42.88367,0 h -2.794 c 0.0233,-1.11676 1.29116,-2.13995 2.28557,-1.29837 0.40217,0.34079 0.44662,0.80942 0.50843,1.29837 m -51.13867,-1.0867 c 0.78977,-0.13208 1.4627,0.3247 1.77622,1.04436 0.53116,1.21963 0.31522,3.665219 -1.31055,3.918379 -0.46415,0.0724 -1.39307,-0.2485 -1.54208,-0.74507 -0.18373,-0.61214 0.0181,-1.51469 0.0181,-2.157309 0,-0.38057 -0.13814,-1.0977 0.0435,-1.43552 0.16306,-0.30353 0.68584,-0.57023 1.01481,-0.62484 z"
       id="path2452"
       sodipodi:nodetypes="cccccccssccccccccccccsccccccccccscsscccccccscsccsscccccccsccssccccccsccsscccccsccccccsccccsccccccccccsccccccccsccccccccssscsssccsccccccccccccccscccccccccscccsscccscccsccsccccsccccccccccccccccccsccccssscccccccssccscccccccssccsccccccccccsccccccccccccccccscccccccccssccsccccccccccccccccccscc" />
  </g>
</svg>
