<?xml version="1.0" encoding="UTF-8" standalone="no"?>
<!-- Created with Inkscape (http://www.inkscape.org/) -->

<svg
   width="83.7733mm"
   height="22.693951mm"
   viewBox="0 0 83.7733 22.693951"
   version="1.1"
   id="svg2123"
   inkscape:version="1.2.2 (b0a8486541, 2022-12-01)"
   sodipodi:docname="drawing.svg"
   xmlns:inkscape="http://www.inkscape.org/namespaces/inkscape"
   xmlns:sodipodi="http://sodipodi.sourceforge.net/DTD/sodipodi-0.dtd"
   xmlns="http://www.w3.org/2000/svg"
   xmlns:svg="http://www.w3.org/2000/svg">
  <sodipodi:namedview
     id="namedview2125"
     pagecolor="#ffffff"
     bordercolor="#666666"
     borderopacity="1.0"
     inkscape:showpageshadow="2"
     inkscape:pageopacity="0.0"
     inkscape:pagecheckerboard="0"
     inkscape:deskcolor="#d1d1d1"
     inkscape:document-units="mm"
     showgrid="false"
     inkscape:zoom="0.7483165"
     inkscape:cx="400.23172"
     inkscape:cy="-165.03712"
     inkscape:window-width="1920"
     inkscape:window-height="1039"
     inkscape:window-x="0"
     inkscape:window-y="0"
     inkscape:window-maximized="1"
     inkscape:current-layer="layer1" />
  <defs
     id="defs2120" />
  <g
     inkscape:label="Layer 1"
     inkscape:groupmode="layer"
     id="layer1"
     transform="translate(-100.13309,-109.36568)">
    <path
       style="fill:#bd8b35;stroke:none;stroke-width:0.0423333"
       d="m 160.07306,109.39039 c -1.09686,0.0707 -2.92523,0.51614 -3.33968,1.71391 -0.16552,0.47756 0.0936,0.90827 0.37592,1.27 0.61087,0.78366 1.89188,1.1883 2.87655,0.91788 0.1668,-0.0457 0.25358,-0.33812 0.0737,-0.42667 -0.18245,-0.0899 -0.46355,-0.008 -0.66378,-0.0453 -0.75989,-0.14236 -2.04132,-0.49621 -1.82161,-1.5042 0.0889,-0.40728 0.63585,-0.70511 0.97494,-0.87865 0.98975,-0.50659 2.03454,-0.66368 3.13267,-0.45655 1.4787,0.27886 3.09541,1.05865 3.98822,2.30887 0.2993,0.41872 0.51477,1.00287 0.70231,1.48166 0.0474,0.12167 0.0745,0.51249 0.26077,0.48828 0.22691,-0.0295 0.0872,-0.62874 0.0864,-0.78461 -0.004,-0.76383 -0.69045,-1.70267 -1.19253,-2.242 -1.48336,-1.5945 -3.37354,-1.97661 -5.4538,-1.84258 m -53.89033,5.69325 c -0.89442,-0.52007 -1.81369,-1.07878 -2.75167,-1.51892 -0.28727,-0.13483 -0.60173,-0.15964 -0.889,-0.28727 -0.44602,-0.19818 -0.92359,-0.61409 -1.397,-0.71546 -0.37787,-0.0809 -0.89501,0.45852 -1.00279,0.78535 -0.0946,0.28702 0.56244,0.43853 0.74879,0.51125 0.8796,0.34333 1.7366,0.75422 2.58233,1.17763 2.33282,1.16794 4.54275,2.50385 6.36867,4.38849 0.81022,0.83629 1.46969,1.50567 1.84396,2.64393 0.37041,1.12649 -0.7645,2.44411 -1.43502,3.26343 -0.19651,0.24011 -1.08483,0.73194 -0.81949,1.09042 0.20176,0.27263 0.62137,-0.16726 0.75595,-0.3324 0.5596,-0.68665 1.06502,-1.4395 1.51541,-2.20112 0.16531,-0.27961 0.38506,-0.61608 0.46765,-0.93133 0.36115,-1.37872 -0.38997,-2.69969 -1.11798,-3.81 -0.38422,-0.58598 -0.96071,-0.92634 -1.48315,-1.36085 -0.62509,-0.5199 -1.20235,-1.11286 -1.84548,-1.60579 -0.40305,-0.30891 -1.37824,-0.56811 -1.54118,-1.09736 m 27.813,-2.47804 c -0.69118,0.0605 -1.57925,0.0795 -2.20134,0.42134 -0.25078,0.13781 -0.67225,0.67439 -0.21086,0.84567 0.18834,0.0699 0.37546,-0.0574 0.54953,-0.11087 0.43807,-0.1345 0.89624,-0.3573 1.35467,-0.4064 0.34895,-0.0374 0.67483,0.065 1.016,0.11408 0.77504,0.11143 1.51722,0.22094 2.24366,0.53163 0.85344,0.36504 1.69334,1.09093 2.37067,1.71395 0.21378,0.19638 0.67818,0.76521 1.00669,0.7054 0.27516,-0.0502 0.0978,-0.44781 0.007,-0.57476 -0.33993,-0.47591 -0.76708,-0.88363 -1.22555,-1.2482 -0.42841,-0.34091 -0.79078,-0.74549 -1.27,-1.01973 -0.67987,-0.38908 -1.41901,-0.49704 -2.159,-0.68401 -0.4641,-0.11726 -0.99648,-0.33059 -1.48166,-0.2881 m -9.86367,2.13937 c -0.42511,0.57357 -1.16319,1.54508 -0.94022,2.32833 0.11925,0.41885 0.58775,0.48688 0.94022,0.63564 0.86754,0.3661 1.90111,1.14444 2.87867,0.83879 0.69071,-0.2159 0.26276,-0.96787 0.48666,-1.43027 0.11765,-0.243 0.45885,-0.29896 0.69867,-0.34227 0.70815,-0.1278 1.60067,0.74494 2.04995,1.18301 0.13712,0.13368 0.43857,0.23266 0.54326,-0.002 0.0731,-0.16392 -0.01,-0.37262 -0.01,-0.54407 0,-0.21832 0.12006,-0.5171 -0.0267,-0.71014 -0.14948,-0.19651 -0.48006,-0.21158 -0.69414,-0.30057 -0.84049,-0.34938 -1.77457,-0.50499 -2.58229,-0.0111 -0.41407,0.25315 -0.4959,1.122 -0.97388,1.24248 -0.4191,0.10567 -1.20947,-0.29375 -1.56617,-0.48742 -0.889,-0.48277 -0.81081,-1.67357 -0.0423,-2.21577 0.22483,-0.15862 0.55774,-0.0269 0.79087,-0.22013 0.20278,-0.16815 0.0715,-0.48332 -0.11434,-0.59894 -0.37418,-0.23274 -1.08907,-0.11239 -1.5232,-0.18347 -1.3666,-0.22382 -2.92874,-0.66298 -4.318,-0.43815 -0.553,0.0895 -1.09761,0.23614 -1.65083,0.3236 -0.15494,0.0245 -0.34755,0.14228 -0.24473,0.32817 0.0761,0.13766 0.27737,0.14422 0.4139,0.13131 0.43277,-0.041 0.88332,-0.10304 1.31233,-0.17814 0.6267,-0.10972 1.28825,0.0647 1.905,0.16811 0.88354,0.14817 1.80082,0.25908 2.667,0.48319 m 59.77467,5.29167 -0.0423,-0.46567 c -0.64389,0 -1.85462,-0.0844 -2.31182,-0.6005 -0.19389,-0.21924 -0.29168,-0.68491 -0.2104,-0.96583 0.0923,-0.31691 0.3446,-0.78825 0.12954,-1.10067 -0.64262,-0.93446 -1.66073,-1.59182 -2.64498,-2.09507 -1.05495,-0.53937 -1.89357,-0.92304 -3.09034,-0.95835 -0.95334,-0.0282 -1.83642,-0.011 -2.57852,0.69499 -0.27305,0.26014 -0.2341,0.81106 0.25019,0.6803 0.87715,-0.23682 1.73143,-0.66087 2.667,-0.69071 0.97494,-0.0311 1.60401,0.44835 2.413,0.88146 0.8073,0.43231 1.73524,0.80226 2.31098,1.57209 0.44323,0.59271 -0.76454,0.92321 -0.73999,1.48163 0.044,1.01625 1.04817,1.66878 1.98501,1.691 0.2722,0.007 0.49826,-0.14762 0.762,-0.16468 0.37804,-0.0245 0.71755,0.15329 1.10067,0.04 m -22.86,-4.02166 c -0.4843,0.21302 -0.79502,0.6634 -1.12014,1.05833 -0.13124,0.15913 -0.33867,0.30785 -0.4081,0.508 -0.0673,0.19465 0.10795,0.48446 0.26713,0.59207 0.19685,0.13293 0.39539,-0.0255 0.58377,-0.0974 0.37423,-0.14283 1.05283,-0.60833 1.43934,-0.58678 0.21759,0.0122 0.39497,0.27106 0.59266,0.35505 0.24765,0.10516 0.39413,-0.0191 0.635,-0.0192 0.19855,-8e-5 0.34417,0.10583 0.55034,0.0379 0.28871,-0.0953 0.4246,-0.38972 0.58843,-0.6201 0.10922,-0.15379 0.29803,-0.25844 0.38396,-0.42515 0.16087,-0.31166 -0.25019,-0.74198 -0.50673,-0.86309 -0.32808,-0.15511 -0.88011,0.0282 -1.143,0.24367 -0.1397,0.1146 -0.35221,0.44729 -0.55583,0.30179 -0.2739,-0.19592 -0.61511,-0.76843 -0.55203,-1.12005 0.0381,-0.21141 0.17484,-0.41982 0.22902,-0.635 0.0555,-0.22026 0.27813,-0.48184 0.1397,-0.70985 -0.18245,-0.30052 -0.71543,0.17636 -0.85555,0.33278 -0.41106,0.45831 -0.40259,1.08289 -0.26797,1.64707 m -58.84334,-0.33867 0.21167,0.889 c -0.39417,0.0732 -1.57213,-0.0719 -1.077,-0.71801 0.37342,-0.48735 0.93006,-0.37999 1.204,-0.93299 -1.17534,-0.44014 -2.973147,1.33291 -1.60803,2.20155 0.20273,0.12903 0.4097,0.10409 0.63436,0.14054 0.49293,0.08 1.21793,0.28308 1.59093,-0.18491 0.24643,-0.3092 0.21383,-1.2145 -0.16065,-1.43633 -0.21019,-0.12454 -0.57328,-6.7e-4 -0.79528,0.0412 m 15.57867,-0.70044 c -0.76856,0.10092 -1.84205,0.65506 -2.24887,1.33608 -0.1679,0.28101 -0.53874,1.34514 0.09,1.37079 0.16201,0.007 0.53975,-0.0803 0.67107,-0.17517 0.19748,-0.14262 0.25353,-0.45695 0.43679,-0.63322 0.46241,-0.44488 1.26772,-0.84019 1.57705,-1.41135 0.20337,-0.37559 -0.22318,-0.52693 -0.52608,-0.48713 m 1.94733,1.33544 c -0.76149,0.75938 -1.63537,1.47858 -2.62466,1.89865 -0.24808,0.10537 -0.80679,0.24156 -0.62362,0.63902 0.16972,0.36818 0.79613,0.15151 1.08928,0.0953 1.01351,-0.19431 2.12624,-0.28045 3.13267,0.0243 1.43345,0.43405 3.07501,1.18491 4.14867,2.25341 0.28545,0.2841 0.54385,0.59034 0.83947,0.86394 0.0755,0.0699 0.2377,0.27258 0.36085,0.18855 0.16163,-0.11024 -0.14106,-0.45873 -0.21053,-0.54454 -0.40339,-0.49817 -0.83096,-1.01176 -1.32846,-1.41969 -0.44877,-0.36796 -0.99289,-0.59389 -1.48162,-0.90081 -0.73127,-0.45914 -1.40949,-0.95542 -2.28605,-1.14575 -0.50055,-0.10871 -1.05283,-0.28905 -1.56633,-0.29913 -0.11697,-0.002 -0.47718,0.12247 -0.55368,0.0108 -0.0606,-0.0885 0.0726,-0.1949 0.13136,-0.24019 0.21506,-0.16561 0.50102,-0.33139 0.76099,-0.40784 0.0111,0.1405 -0.002,0.4544 0.11608,0.54914 0.22373,0.17916 1.06891,-0.0522 1.28092,-0.19498 0.27525,-0.18538 0.50474,-0.52765 0.84666,-0.56583 -0.008,-0.16197 0.0341,-0.44954 -0.17394,-0.50449 -0.21413,-0.0566 -0.45276,0.23826 -0.63039,0.32351 -0.33185,0.15935 -0.81906,0.28161 -1.18533,0.22331 0.29379,-0.19376 0.62196,-0.31919 0.889,-0.55262 0.14109,-0.12331 0.27999,-0.24976 0.42329,-0.3705 0.26361,-0.22199 0.46202,-0.93133 -0.0848,-0.97938 -0.56646,-0.0498 -1.01951,0.3432 -1.56616,0.40103 -0.29024,0.0307 -0.60071,-0.23673 -0.88896,-0.099 -0.33964,0.16226 -0.6598,0.7128 -0.25218,0.9762 0.381,0.24617 1.0047,-0.30569 1.43747,-0.22242 m 48.21767,0.635 c -0.0263,0.33325 -0.36703,0.79066 -0.26331,1.10063 0.12488,0.37283 0.53721,0.3884 0.85598,0.35081 0.67945,-0.0802 1.18702,-0.25641 1.82033,-0.5201 0.044,0.17034 0.0584,0.60054 0.26247,0.66268 0.14689,0.0448 0.28575,-0.19033 0.36195,-0.28168 0.20574,-0.24605 0.7167,-0.65571 0.48217,-1.01156 -0.22267,-0.33803 -0.60579,-0.26124 -0.89492,-0.0955 -0.4445,0.25485 -0.85979,0.48616 -1.35467,0.62903 -0.13716,0.0396 -0.35856,0.15748 -0.50123,0.10935 -0.21505,-0.0727 0.002,-0.36568 0.0601,-0.47803 0.16086,-0.31153 0.77004,-0.85754 0.74168,-1.18529 -0.0203,-0.23622 -0.24808,-0.37456 -0.4699,-0.30848 -0.59944,0.17843 -1.16332,0.39162 -1.73567,0.64711 -0.0292,-0.22894 0.24723,-0.43053 0.16341,-0.63318 -0.0931,-0.22598 -0.4318,-0.31281 -0.62908,-0.18796 -0.42121,0.26657 -0.81026,0.84573 -1.16078,1.2087 -0.1507,0.15612 -0.34967,0.37405 -0.10287,0.55469 0.3065,0.22424 0.70655,-0.10571 0.97113,-0.24807 0.35814,-0.19262 0.98933,-0.29579 1.39319,-0.31319 m -16.51,0.67734 c -0.2231,0.75823 -1.05749,1.33955 -1.651,1.79912 -1.39658,1.0812 -2.76225,1.99678 -4.40267,2.66501 -0.59139,0.24092 -1.20353,0.44988 -1.77715,0.73393 -0.17484,0.0864 -0.38777,0.3407 -0.30607,0.55301 0.0567,0.14765 0.22564,0.13605 0.34756,0.0878 0.45085,-0.17827 0.95927,-0.26827 1.397,-0.46063 1.20988,-0.53179 2.72415,-0.92664 4.064,-0.799 0.80814,0.077 1.55236,0.3738 2.32833,0.58547 -0.13547,0.28473 -0.4572,0.49458 -0.67691,0.71966 -0.27686,0.28414 -0.48429,0.62078 -0.72898,0.93134 -0.1215,0.15396 -0.4699,0.40716 -0.35094,0.62869 0.12869,0.24011 0.59986,-0.0614 0.78316,-0.11947 0.60198,-0.19083 1.18957,-0.21289 1.82034,-0.21289 0.25484,0 0.65786,0.10549 0.889,0.0247 0.27347,-0.0957 0.7294,-0.69033 0.97366,-0.63343 0.91525,0.2131 1.66794,1.2592 2.25044,1.92108 0.97917,1.11307 2.19414,2.31949 2.67081,3.76767 0.23961,0.72796 0.20109,1.48924 0.20109,2.24366 0.48048,-0.14499 0.26373,-1.07556 0.2159,-1.43933 -0.19304,-1.46719 -0.77682,-2.60998 -1.57353,-3.84856 -0.12658,-0.19622 -0.34163,-0.33037 -0.48895,-0.51177 -0.65871,-0.80886 -1.34239,-1.53107 -2.17509,-2.1645 -1.35086,-1.02752 -2.81009,-1.86318 -4.445,-2.34078 -0.49276,-0.14389 -1.04817,-0.32652 -1.56633,-0.33245 -0.41995,-0.005 -0.85387,0.0973 -1.27,0.13873 0.21039,-0.53911 1.08161,-0.93002 1.56633,-1.1927 0.8183,-0.44344 1.71535,-1.11569 2.37067,-1.77063 0.18923,-0.18911 0.7095,-0.42859 0.77216,-0.67814 0.0588,-0.23427 -0.0821,-0.46546 -0.22987,-0.6342 -0.51605,-0.59097 -1.10152,-0.32029 -1.76996,-0.1002 -0.20701,0.0681 -0.40047,0.24909 -0.63331,0.1593 -0.55668,-0.21476 -0.26839,-1.47883 -1.14469,-1.18673 -0.10541,0.035 -0.20193,0.0833 -0.29633,0.14156 -0.40217,0.24859 -1.0431,0.69097 -1.13073,1.19774 -0.16086,0.93298 1.35594,0.76712 1.85039,0.58297 0.74126,-0.27605 1.31361,-0.44932 2.11667,-0.45597 m 3.72533,-1.39945 c -0.83058,0.29989 -0.77004,1.08953 -0.20785,1.65112 0.38608,0.38549 1.13749,0.37122 1.64719,0.43223 0.19854,0.0237 0.43984,0.074 0.62695,-0.0283 0.21209,-0.1157 0.0326,-0.40556 -0.1198,-0.48506 -0.23537,-0.12289 -0.48006,0.0433 -0.71882,0.0173 -0.75184,-0.082 -0.86572,-0.75442 -0.90636,-1.33075 -0.0127,-0.18203 -0.13038,-0.32546 -0.32131,-0.25649 m -43.09533,0.0871 c -0.30057,0.0706 -0.9158,0.46858 -0.75755,0.84501 0.078,0.18563 0.27474,0.30294 0.41888,0.43218 0.40391,0.36212 1.03776,0.90733 1.56634,1.06007 0.24515,0.0708 1.00376,3.8e-4 0.83752,-0.43057 -0.0776,-0.20104 -0.38384,-0.33829 -0.54119,-0.47405 -0.56121,-0.48425 -1.15883,-0.74668 -1.524,-1.43264 m 27.47433,0.88899 c 0.0313,0.16527 0.23411,0.69224 0.13505,0.82114 -0.24046,0.312 -1.14427,-0.0516 -1.08585,-0.44014 0.11303,-0.75251 1.11633,-0.51722 1.28947,-1.18533 -0.79333,-0.1474 -1.21751,0.0554 -1.73228,0.67733 -0.16341,0.19749 -0.40174,0.44036 -0.36872,0.71967 0.12065,1.02197 1.68359,1.30683 2.482,0.97346 0.53044,-0.22162 0.56642,-1.29015 0.11769,-1.6251 -0.19008,-0.14169 -0.63246,-0.0104 -0.83736,0.059 m 38.56567,0.97367 c 8.5e-4,0.0992 0.006,0.19736 0.011,0.29638 0.044,0.79019 0.78443,-0.22149 0.94149,-0.41961 0.11388,-0.14381 0.38185,-0.27123 0.40555,-0.46944 0.0444,-0.37562 -0.85174,-0.70311 -1.14215,-0.66789 -0.25527,0.031 -0.42757,0.53391 -0.60071,0.70625 -0.27559,0.27402 -0.62145,0.27457 -0.96986,0.38498 0.0165,-0.20303 0.0754,-0.39489 0.1215,-0.59267 0.10922,-0.46965 -0.40471,-0.52371 -0.7548,-0.36534 -0.25104,0.11371 -0.19982,0.36551 -0.31073,0.57637 -0.10837,0.20545 -0.33274,0.29295 -0.53763,0.373 -0.0999,0.0391 -0.25739,0.11824 -0.36068,0.0481 -0.20193,-0.13724 0.14351,-0.38841 0.23368,-0.46994 0.22606,-0.2046 1.29116,-0.75688 0.94826,-1.16468 -0.18457,-0.21894 -0.54313,0.0695 -0.7349,0.14893 -0.23072,0.0955 -0.40429,0.30434 -0.59436,0.46199 -0.37635,0.31182 -1.05029,0.59698 -1.08374,1.15358 -0.0131,0.21056 0.12235,0.33756 0.2794,0.45318 0.52451,0.38561 0.93345,0.0556 1.43934,-0.21027 0.1198,-0.063 0.28067,-0.21446 0.42333,-0.19918 0.47583,0.051 0.78486,0.69346 1.35467,0.5795 0.39666,-0.0793 0.5952,-0.46317 0.93133,-0.62323 m -43.34933,-1.75036 c -0.57379,0.17873 -1.09779,1.17505 -0.50737,1.59576 0.57993,0.41321 1.06684,-0.13754 1.64872,-0.12319 0.23363,0.006 0.33269,0.26822 0.59347,0.13728 0.36068,-0.18089 0.52535,-1.58576 -0.0838,-1.54406 -0.58192,0.0398 -0.5442,1.27533 -1.2275,1.09499 -0.62751,-0.16556 -0.0596,-0.6278 0.0249,-0.89205 0.084,-0.26293 -0.2722,-0.32363 -0.44843,-0.26873 m 26.416,0.19046 c 0.17018,-0.002 0.46355,0.26463 0.34501,0.44154 -0.11641,0.1739 -0.64939,0.34785 -0.85217,0.34946 -0.21505,0.002 -0.21801,-0.17988 -0.12742,-0.3316 0.10033,-0.16785 0.42587,-0.45648 0.63458,-0.4594 m 1.82033,0.9249 -0.0423,-0.0423 c -4.3e-4,-0.13839 -0.0787,-0.28884 -0.0495,-0.42329 0.0466,-0.21002 0.51265,-0.59394 0.69511,-0.32017 0.12912,0.19406 -0.44238,0.70913 -0.60325,0.78579 m -14.13933,-0.635 c 0.0682,0.10782 0.13377,0.21624 0.17272,0.33867 0.22775,0.71014 -1.10363,0.55884 -0.64686,-0.035 0.0504,-0.0651 0.11303,-0.11964 0.1795,-0.16718 0.0927,-0.0664 0.18669,-0.10447 0.29464,-0.13652 m -5.03767,0.0723 c -0.48599,0.15837 -0.58843,0.6988 -0.2921,1.07069 0.42249,0.53027 1.18364,0.97553 1.85843,1.06067 0.15494,0.0196 0.39286,0.15214 0.54102,0.0773 0.1922,-0.0972 0.19728,-0.3896 0.0758,-0.53738 -0.16764,-0.20282 -0.45297,-0.26493 -0.65744,-0.42114 -0.4373,-0.33379 -0.7294,-0.67792 -1.04859,-1.10502 -0.10838,-0.14525 -0.30607,-0.20083 -0.4771,-0.14508 m -11.51467,2.1714 c -0.55774,-0.27876 -1.2882,0.62328 -1.73566,0.94361 -0.1684,0.12057 -0.44679,0.24842 -0.55995,0.42486 -0.087,0.13568 -0.017,0.33431 0.0703,0.45123 0.36661,0.49111 1.04534,0.69139 1.59029,0.89777 1.14178,0.43243 2.28241,0.25726 3.47134,0.20519 0.82888,-0.0363 1.65142,0.0173 2.45533,-0.22788 0.68114,-0.20778 1.33392,-0.38172 1.94733,-0.76112 0.2794,-0.17263 0.58674,-0.36593 0.42799,-0.74582 -0.061,-0.14538 -0.23325,-0.21379 -0.37422,-0.12832 -0.19939,0.12125 -0.32301,0.41724 -0.51943,0.56909 -0.33613,0.26005 -0.90043,0.41686 -1.31234,0.51786 -0.33104,0.0812 -0.63457,0.24689 -0.97366,0.29765 -1.22475,0.18326 -2.38515,0.0223 -3.59834,-0.14927 -0.67017,-0.0947 -1.56984,-0.22538 -2.01117,-0.82541 -0.26928,-0.36614 0.55042,-0.56304 0.78351,-0.5243 1.20281,0.1999 3.33603,1.01524 4.02166,-0.5218 0.0889,-0.19986 0.3937,-0.57392 0.31115,-0.79807 -0.0817,-0.22267 -0.73511,-0.15452 -0.8724,-0.0172 -0.10723,0.10731 -0.0624,0.29934 -0.10071,0.43425 -0.0664,0.23347 -0.20964,0.45475 -0.397,0.60668 -0.62848,0.50953 -1.38045,0.21214 -2.03137,-0.13174 -0.21522,-0.1137 -0.58052,-0.24697 -0.59267,-0.51727 m 21.082,4.61433 v 0.0423 c -0.48302,0.33965 -1.57056,0.29147 -2.159,0.29634 0.0677,-0.20528 0.29422,-0.30396 0.46567,-0.42232 0.18542,-0.12789 0.40598,-0.36762 0.635,-0.40217 0.30099,-0.0454 0.82211,0.31759 1.05833,0.48582"
       id="path2450"
       sodipodi:nodetypes="cccccccccccsccccssscsssssssscsssccsscscsccccssccsccscssscssscscscssccscccccccsscsscsccccccccsccscccccccssccccccssssccscccsccscssssccscscscccsccccsccscsccccccccssccccccsccccccsccccscccccscccsccccccccsssccccccscccccccccccsccscccccsccccccccscccccccccccccsssccsccscccccccccccccccccccscccccccsscsscccccsccsscccccscccccsc" />
  </g>
</svg>
