<?xml version="1.0" encoding="UTF-8" standalone="no"?>
<!-- Created with Inkscape (http://www.inkscape.org/) -->

<svg
   width="89.053024mm"
   height="36.579361mm"
   viewBox="0 0 89.053024 36.579361"
   version="1.1"
   id="svg2791"
   inkscape:version="1.2.2 (b0a8486541, 2022-12-01)"
   sodipodi:docname="name_zh_tl.svg"
   xmlns:inkscape="http://www.inkscape.org/namespaces/inkscape"
   xmlns:sodipodi="http://sodipodi.sourceforge.net/DTD/sodipodi-0.dtd"
   xmlns="http://www.w3.org/2000/svg"
   xmlns:svg="http://www.w3.org/2000/svg">
  <sodipodi:namedview
     id="namedview2793"
     pagecolor="#ffffff"
     bordercolor="#666666"
     borderopacity="1.0"
     inkscape:showpageshadow="2"
     inkscape:pageopacity="0.0"
     inkscape:pagecheckerboard="0"
     inkscape:deskcolor="#d1d1d1"
     inkscape:document-units="mm"
     showgrid="false"
     inkscape:zoom="256"
     inkscape:cx="35.095703"
     inkscape:cy="133.51758"
     inkscape:window-width="1920"
     inkscape:window-height="1039"
     inkscape:window-x="0"
     inkscape:window-y="0"
     inkscape:window-maximized="1"
     inkscape:current-layer="layer1" />
  <defs
     id="defs2788" />
  <g
     inkscape:label="Layer 1"
     inkscape:groupmode="layer"
     id="layer1"
     transform="translate(-12.752062,-94.853198)">
    <path
       style="fill:#bd8b35;stroke:none;stroke-width:0.0423333"
       d="m 75.52442,94.877945 c -1.09686,0.07066 -2.92523,0.516144 -3.33968,1.713911 -0.16552,0.477558 0.0936,0.908266 0.37592,1.27 0.61087,0.783662 1.89188,1.188297 2.87655,0.917875 0.1668,-0.04573 0.25358,-0.338116 0.0737,-0.426665 -0.18245,-0.08989 -0.46355,-0.0078 -0.66378,-0.04534 -0.75989,-0.142363 -2.04132,-0.496214 -1.82161,-1.5042 0.0889,-0.407281 0.63585,-0.705113 0.97494,-0.878646 0.98975,-0.506594 2.03454,-0.663689 3.13267,-0.456556 1.4787,0.278862 3.09541,1.058655 3.98822,2.308868 0.2993,0.418723 0.51477,1.002873 0.70231,1.481667 0.0474,0.121666 0.0745,0.512487 0.26077,0.488272 0.22691,-0.02946 0.0872,-0.628734 0.0864,-0.784605 -0.004,-0.763829 -0.69045,-1.702672 -1.19253,-2.242003 -1.48336,-1.594502 -3.37354,-1.976603 -5.4538,-1.842575 m -53.89033,5.693242 c -0.89442,-0.52006 -1.81369,-1.078778 -2.75167,-1.518918 -0.28727,-0.134831 -0.60173,-0.159639 -0.889,-0.28727 -0.44602,-0.198179 -0.92359,-0.614091 -1.397,-0.715454 -0.37787,-0.0809 -0.89501,0.458521 -1.00279,0.785343 -0.0946,0.28702 0.56244,0.43853 0.74879,0.511259 0.8796,0.343323 1.7366,0.75421 2.58233,1.17763 2.33282,1.16793 4.54275,2.50385 6.36867,4.38849 0.81022,0.83629 1.46969,1.50567 1.84396,2.64393 0.37041,1.12649 -0.7645,2.44411 -1.43502,3.26343 -0.19651,0.24011 -1.08483,0.73194 -0.81949,1.09042 0.20176,0.27263 0.62137,-0.16726 0.75595,-0.3324 0.5596,-0.68665 1.06502,-1.4395 1.51541,-2.20112 0.16531,-0.27961 0.38506,-0.61608 0.46765,-0.93133 0.36115,-1.37872 -0.38997,-2.69969 -1.11798,-3.81 -0.38422,-0.58598 -0.96071,-0.92634 -1.48315,-1.36085 -0.62509,-0.5199 -1.20235,-1.11286 -1.84548,-1.60579 -0.40305,-0.30891 -1.37824,-0.56812 -1.54118,-1.09737 m 27.813,-2.478034 c -0.69118,0.06053 -1.57925,0.07948 -2.20134,0.421339 -0.25078,0.137808 -0.67225,0.674387 -0.21086,0.845667 0.18834,0.06989 0.37546,-0.05745 0.54953,-0.110871 0.43807,-0.134492 0.89624,-0.357293 1.35467,-0.406399 0.34895,-0.03738 0.67483,0.06502 1.016,0.114088 0.77504,0.111421 1.51722,0.220937 2.24366,0.531622 0.85344,0.36504 1.69334,1.090928 2.37067,1.713948 0.21378,0.19639 0.67818,0.76522 1.00669,0.7054 0.27516,-0.0502 0.0978,-0.4478 0.007,-0.57476 -0.33993,-0.47591 -0.76708,-0.88362 -1.22555,-1.2482 -0.42841,-0.340907 -0.79078,-0.745486 -1.27,-1.019721 -0.67987,-0.389086 -1.41901,-0.49704 -2.159,-0.68401 -0.4641,-0.117259 -0.99648,-0.330593 -1.48166,-0.288103 m -9.86367,2.139364 c -0.42511,0.57358 -1.16319,1.54509 -0.94022,2.32834 0.11925,0.41885 0.58775,0.48688 0.94022,0.63564 0.86754,0.3661 1.90111,1.14444 2.87867,0.83879 0.69071,-0.2159 0.26276,-0.96787 0.48666,-1.43027 0.11765,-0.243 0.45885,-0.29896 0.69867,-0.34227 0.70815,-0.1278 1.60067,0.74494 2.04995,1.18301 0.13712,0.13368 0.43857,0.23266 0.54326,-0.002 0.0731,-0.16392 -0.01,-0.37262 -0.01,-0.54407 0,-0.21832 0.12006,-0.5171 -0.0267,-0.71014 -0.14948,-0.19652 -0.48006,-0.21159 -0.69414,-0.30057 -0.84049,-0.34938 -1.77457,-0.505 -2.58229,-0.0111 -0.41407,0.25315 -0.4959,1.122 -0.97388,1.24248 -0.4191,0.10567 -1.20947,-0.29375 -1.56617,-0.48742 -0.889,-0.48277 -0.81081,-1.67357 -0.0423,-2.21578 0.22483,-0.15862 0.55774,-0.0269 0.79087,-0.22013 0.20278,-0.16815 0.0715,-0.483318 -0.11434,-0.598931 -0.37418,-0.232748 -1.08907,-0.112395 -1.5232,-0.183472 -1.3666,-0.223817 -2.92874,-0.662982 -4.318,-0.43815 -0.553,0.08949 -1.09761,0.236135 -1.65083,0.323596 -0.15494,0.02451 -0.34755,0.142282 -0.24473,0.328168 0.0761,0.137668 0.27737,0.144229 0.4139,0.131318 0.43277,-0.04102 0.88332,-0.10304 1.31233,-0.178139 0.6267,-0.109728 1.28825,0.06473 1.905,0.168106 0.88354,0.148166 1.80082,0.259084 2.667,0.483194 m 59.77467,5.29167 -0.0423,-0.46567 c -0.64389,0 -1.85462,-0.0844 -2.31182,-0.6005 -0.19389,-0.21924 -0.29168,-0.68491 -0.2104,-0.96583 0.0923,-0.31691 0.3446,-0.78825 0.12954,-1.10067 -0.64262,-0.93447 -1.66073,-1.59182 -2.64498,-2.09508 -1.05495,-0.539367 -1.89357,-0.923034 -3.09034,-0.95834 -0.95334,-0.02815 -1.83642,-0.01096 -2.57852,0.69499 -0.27305,0.26013 -0.2341,0.81106 0.25019,0.68029 0.87715,-0.23681 1.73143,-0.66086 2.667,-0.69071 0.97494,-0.03107 1.60401,0.44835 2.413,0.88147 0.8073,0.4323 1.73524,0.80226 2.31098,1.57209 0.44323,0.59271 -0.76454,0.92321 -0.73999,1.48163 0.044,1.01625 1.04817,1.66878 1.98501,1.691 0.2722,0.007 0.49826,-0.14762 0.762,-0.16468 0.37804,-0.0245 0.71755,0.15329 1.10067,0.04 m -22.86,-4.02167 c -0.4843,0.21302 -0.79502,0.66341 -1.12014,1.05834 -0.13124,0.15913 -0.33867,0.30785 -0.4081,0.508 -0.0673,0.19465 0.10795,0.48446 0.26713,0.59207 0.19685,0.13293 0.39539,-0.0255 0.58377,-0.0974 0.37423,-0.14283 1.05283,-0.60833 1.43934,-0.58678 0.21759,0.0122 0.39497,0.27106 0.59266,0.35505 0.24765,0.10516 0.39413,-0.0191 0.635,-0.0192 0.19855,-8e-5 0.34417,0.10583 0.55034,0.0379 0.28871,-0.0953 0.4246,-0.38972 0.58843,-0.6201 0.10922,-0.15379 0.29803,-0.25844 0.38396,-0.42515 0.16087,-0.31166 -0.25019,-0.74198 -0.50673,-0.8631 -0.32808,-0.15511 -0.88011,0.0282 -1.143,0.24367 -0.1397,0.1146 -0.35221,0.4473 -0.55583,0.3018 -0.2739,-0.19592 -0.61511,-0.76844 -0.55203,-1.12006 0.0381,-0.21141 0.17484,-0.41982 0.22902,-0.635 0.0555,-0.22026 0.27813,-0.481835 0.1397,-0.709842 -0.18245,-0.300524 -0.71543,0.176361 -0.85555,0.332782 -0.41106,0.4583 -0.40259,1.08289 -0.26797,1.64706 m -58.84334,-0.33866 0.21167,0.889 c -0.39417,0.0732 -1.57213,-0.0719 -1.077,-0.71802 0.37342,-0.48734 0.93006,-0.37998 1.204,-0.93298 -1.17534,-0.440143 -2.97315,1.3329 -1.60803,2.20155 0.20273,0.12903 0.4097,0.10409 0.63436,0.14054 0.49293,0.08 1.21793,0.28308 1.59093,-0.18491 0.24643,-0.3092 0.21383,-1.21451 -0.16065,-1.43633 -0.21019,-0.12455 -0.57328,-6.8e-4 -0.79528,0.0412 m 15.57867,-0.70045 c -0.76856,0.10092 -1.84205,0.65507 -2.24887,1.33608 -0.1679,0.28102 -0.53874,1.34515 0.09,1.3708 0.16201,0.007 0.53975,-0.0803 0.67107,-0.17517 0.19748,-0.14262 0.25353,-0.45695 0.43679,-0.63322 0.46241,-0.44489 1.26772,-0.8402 1.57705,-1.41136 0.20337,-0.37558 -0.22318,-0.52692 -0.52608,-0.48713 m 1.94733,1.33545 c -0.76149,0.75938 -1.63537,1.47858 -2.62466,1.89865 -0.24808,0.10537 -0.80679,0.24156 -0.62362,0.63902 0.16972,0.36818 0.79613,0.15151 1.08928,0.0953 1.01351,-0.19431 2.12624,-0.28045 3.13267,0.0243 1.43345,0.43405 3.07501,1.18491 4.14867,2.25341 0.28545,0.2841 0.54385,0.59034 0.83947,0.86394 0.0755,0.0699 0.2377,0.27258 0.36085,0.18855 0.16163,-0.11024 -0.14106,-0.45873 -0.21053,-0.54454 -0.40339,-0.49817 -0.83096,-1.01176 -1.32846,-1.41969 -0.44877,-0.36796 -0.99289,-0.59389 -1.48162,-0.90081 -0.73127,-0.45914 -1.40949,-0.95542 -2.28605,-1.14575 -0.50055,-0.10871 -1.05283,-0.28905 -1.56633,-0.29913 -0.11697,-0.002 -0.47718,0.12247 -0.55368,0.0108 -0.0606,-0.0885 0.0726,-0.1949 0.13136,-0.24019 0.21506,-0.16561 0.50102,-0.33139 0.76099,-0.40784 0.0111,0.1405 -0.002,0.4544 0.11608,0.54914 0.22373,0.17916 1.06891,-0.0522 1.28092,-0.19498 0.27525,-0.18538 0.50474,-0.52765 0.84666,-0.56583 -0.008,-0.16197 0.0341,-0.44954 -0.17394,-0.50449 -0.21413,-0.0566 -0.45276,0.23826 -0.63039,0.32351 -0.33185,0.15935 -0.81906,0.28161 -1.18533,0.22331 0.29379,-0.19376 0.62196,-0.31919 0.889,-0.55262 0.14109,-0.12332 0.27999,-0.24977 0.42329,-0.3705 0.26361,-0.222 0.46202,-0.93134 -0.0848,-0.97938 -0.56646,-0.0498 -1.01951,0.34319 -1.56616,0.40102 -0.29024,0.0307 -0.60071,-0.23673 -0.88896,-0.099 -0.33964,0.16226 -0.6598,0.71281 -0.25218,0.97621 0.381,0.24617 1.0047,-0.30569 1.43747,-0.22242 m 48.21767,0.635 c -0.0263,0.33325 -0.36703,0.79066 -0.26331,1.10063 0.12488,0.37283 0.53721,0.3884 0.85598,0.35081 0.67945,-0.0802 1.18702,-0.25641 1.82033,-0.5201 0.044,0.17034 0.0584,0.60054 0.26247,0.66268 0.14689,0.0448 0.28575,-0.19033 0.36195,-0.28168 0.20574,-0.24605 0.7167,-0.65571 0.48217,-1.01156 -0.22267,-0.33803 -0.60579,-0.26124 -0.89492,-0.0955 -0.4445,0.25485 -0.85979,0.48616 -1.35467,0.62903 -0.13716,0.0396 -0.35856,0.15748 -0.50123,0.10935 -0.21505,-0.0727 0.002,-0.36568 0.0601,-0.47803 0.16086,-0.31153 0.77004,-0.85755 0.74168,-1.18529 -0.0203,-0.23622 -0.24808,-0.37457 -0.4699,-0.30849 -0.59944,0.17844 -1.16332,0.39163 -1.73567,0.64711 -0.0292,-0.22894 0.24723,-0.43053 0.16341,-0.63318 -0.0931,-0.22597 -0.4318,-0.3128 -0.62908,-0.18796 -0.42121,0.26657 -0.81026,0.84574 -1.16078,1.20871 -0.1507,0.15612 -0.34967,0.37405 -0.10287,0.55469 0.3065,0.22424 0.70655,-0.10571 0.97113,-0.24807 0.35814,-0.19262 0.98933,-0.29579 1.39319,-0.31319 m -16.51,0.67734 c -0.2231,0.75823 -1.05749,1.33955 -1.651,1.79912 -1.39658,1.0812 -2.76225,1.99678 -4.40267,2.66501 -0.59139,0.24092 -1.20353,0.44988 -1.77715,0.73393 -0.17484,0.0864 -0.38777,0.3407 -0.30607,0.55301 0.0567,0.14765 0.22564,0.13605 0.34756,0.0878 0.45085,-0.17827 0.95927,-0.26827 1.397,-0.46063 1.20988,-0.53179 2.72415,-0.92664 4.064,-0.799 0.80814,0.077 1.55236,0.3738 2.32833,0.58547 -0.13547,0.28473 -0.4572,0.49458 -0.67691,0.71966 -0.27686,0.28414 -0.48429,0.62078 -0.72898,0.93134 -0.1215,0.15396 -0.4699,0.40716 -0.35094,0.62869 0.12869,0.24011 0.59986,-0.0614 0.78316,-0.11947 0.60198,-0.19083 1.18957,-0.21289 1.82034,-0.21289 0.25484,0 0.65786,0.10549 0.889,0.0247 0.27347,-0.0957 0.7294,-0.69033 0.97366,-0.63343 0.91525,0.2131 1.66794,1.2592 2.25044,1.92108 0.97917,1.11307 2.19414,2.31949 2.67081,3.76767 0.23961,0.72796 0.20109,1.48924 0.20109,2.24366 0.48048,-0.14499 0.26373,-1.07556 0.2159,-1.43933 -0.19304,-1.46719 -0.77682,-2.60998 -1.57353,-3.84856 -0.12658,-0.19622 -0.34163,-0.33037 -0.48895,-0.51177 -0.65871,-0.80886 -1.34239,-1.53107 -2.17509,-2.1645 -1.35086,-1.02752 -2.81009,-1.86318 -4.445,-2.34078 -0.49276,-0.14389 -1.04817,-0.32652 -1.56633,-0.33245 -0.41995,-0.005 -0.85387,0.0973 -1.27,0.13873 0.21039,-0.53911 1.08161,-0.93002 1.56633,-1.1927 0.8183,-0.44344 1.71535,-1.11569 2.37067,-1.77063 0.18923,-0.18911 0.7095,-0.42859 0.77216,-0.67814 0.0588,-0.23427 -0.0821,-0.46546 -0.22987,-0.6342 -0.51605,-0.59097 -1.10152,-0.32029 -1.76996,-0.1002 -0.20701,0.0681 -0.40047,0.24909 -0.63331,0.1593 -0.55668,-0.21476 -0.26839,-1.47883 -1.14469,-1.18673 -0.10541,0.035 -0.20193,0.0833 -0.29633,0.14156 -0.40217,0.24858 -1.0431,0.69097 -1.13073,1.19774 -0.16086,0.93298 1.35594,0.76712 1.85039,0.58297 0.74126,-0.27605 1.31361,-0.44932 2.11667,-0.45597 m 3.72533,-1.39946 c -0.83058,0.29989 -0.77004,1.08954 -0.20785,1.65113 0.38608,0.38549 1.13749,0.37122 1.64719,0.43223 0.19854,0.0237 0.43984,0.074 0.62695,-0.0283 0.21209,-0.1157 0.0326,-0.40556 -0.1198,-0.48506 -0.23537,-0.12289 -0.48006,0.0433 -0.71882,0.0173 -0.75184,-0.082 -0.86572,-0.75442 -0.90636,-1.33075 -0.0127,-0.18204 -0.13038,-0.32546 -0.32131,-0.2565 m -43.09533,0.0871 c -0.30057,0.0706 -0.9158,0.46859 -0.75755,0.84502 0.078,0.18563 0.27474,0.30294 0.41888,0.43218 0.40391,0.36212 1.03776,0.90733 1.56634,1.06007 0.24515,0.0708 1.00376,3.8e-4 0.83752,-0.43057 -0.0776,-0.20104 -0.38384,-0.33829 -0.54119,-0.47405 -0.56121,-0.48425 -1.15883,-0.74668 -1.524,-1.43265 m 27.47433,0.889 c 0.0313,0.16527 0.23411,0.69224 0.13505,0.82114 -0.24046,0.312 -1.14427,-0.0516 -1.08585,-0.44014 0.11303,-0.75251 1.11633,-0.51722 1.28947,-1.18533 -0.79333,-0.14741 -1.21751,0.0554 -1.73228,0.67733 -0.16341,0.19749 -0.40174,0.44036 -0.36872,0.71967 0.12065,1.02197 1.68359,1.30683 2.482,0.97346 0.53044,-0.22162 0.56642,-1.29015 0.11769,-1.6251 -0.19008,-0.14169 -0.63246,-0.0104 -0.83736,0.059 m 38.56567,0.97367 c 8.5e-4,0.0992 0.006,0.19736 0.011,0.29638 0.044,0.79019 0.78443,-0.22149 0.94149,-0.41961 0.11388,-0.14381 0.38185,-0.27123 0.40555,-0.46944 0.0444,-0.37562 -0.85174,-0.70311 -1.14215,-0.66789 -0.25527,0.031 -0.42757,0.53391 -0.60071,0.70625 -0.27559,0.27402 -0.62145,0.27457 -0.96986,0.38498 0.0165,-0.20303 0.0754,-0.39489 0.1215,-0.59267 0.10922,-0.46965 -0.40471,-0.52371 -0.7548,-0.36534 -0.25104,0.11371 -0.19982,0.36551 -0.31073,0.57637 -0.10837,0.20545 -0.33274,0.29295 -0.53763,0.373 -0.0999,0.0391 -0.25739,0.11824 -0.36068,0.0481 -0.20193,-0.13724 0.14351,-0.38841 0.23368,-0.46994 0.22606,-0.2046 1.29116,-0.75688 0.94826,-1.16468 -0.18457,-0.21895 -0.54313,0.0695 -0.7349,0.14893 -0.23072,0.0955 -0.40429,0.30434 -0.59436,0.46199 -0.37635,0.31182 -1.05029,0.59698 -1.08374,1.15358 -0.0131,0.21056 0.12235,0.33756 0.2794,0.45318 0.52451,0.38561 0.93345,0.0556 1.43934,-0.21027 0.1198,-0.063 0.28067,-0.21446 0.42333,-0.19918 0.47583,0.051 0.78486,0.69346 1.35467,0.5795 0.39666,-0.0793 0.5952,-0.46317 0.93133,-0.62323 m -43.34933,-1.75036 c -0.57379,0.17873 -1.09779,1.17505 -0.50737,1.59576 0.57993,0.41321 1.06684,-0.13754 1.64872,-0.12319 0.23363,0.006 0.33269,0.26822 0.59347,0.13728 0.36068,-0.18089 0.52535,-1.58576 -0.0838,-1.54407 -0.58192,0.0398 -0.5442,1.27534 -1.2275,1.095 -0.62751,-0.16556 -0.0596,-0.6278 0.0249,-0.89205 0.084,-0.26293 -0.2722,-0.32364 -0.44843,-0.26873 m 26.416,0.19046 c 0.17018,-0.002 0.46355,0.26463 0.34501,0.44154 -0.11641,0.1739 -0.64939,0.34785 -0.85217,0.34946 -0.21505,0.002 -0.21801,-0.17988 -0.12742,-0.3316 0.10033,-0.16785 0.42587,-0.45648 0.63458,-0.4594 m 1.82033,0.9249 -0.0423,-0.0423 c -4.3e-4,-0.13839 -0.0787,-0.28884 -0.0495,-0.42329 0.0466,-0.21002 0.51265,-0.59394 0.69511,-0.32017 0.12912,0.19406 -0.44238,0.70913 -0.60325,0.78579 m -14.13933,-0.635 c 0.0682,0.10782 0.13377,0.21624 0.17272,0.33867 0.22775,0.71014 -1.10363,0.55884 -0.64686,-0.035 0.0504,-0.0651 0.11303,-0.11964 0.1795,-0.16718 0.0927,-0.0664 0.18669,-0.10447 0.29464,-0.13652 m -5.03767,0.0723 c -0.48599,0.15837 -0.58843,0.6988 -0.2921,1.07069 0.42249,0.53027 1.18364,0.97553 1.85843,1.06067 0.15494,0.0196 0.39286,0.15214 0.54102,0.0773 0.1922,-0.0972 0.19728,-0.3896 0.0758,-0.53738 -0.16764,-0.20282 -0.45297,-0.26493 -0.65744,-0.42114 -0.4373,-0.33379 -0.7294,-0.67792 -1.04859,-1.10502 -0.10838,-0.14525 -0.30607,-0.20083 -0.4771,-0.14508 m -11.51467,2.1714 c -0.55774,-0.27876 -1.2882,0.62328 -1.73566,0.94361 -0.1684,0.12057 -0.44679,0.24842 -0.55995,0.42486 -0.087,0.13568 -0.017,0.33431 0.0703,0.45123 0.36661,0.49111 1.04534,0.69139 1.59029,0.89777 1.14178,0.43243 2.28241,0.25726 3.47134,0.20519 0.82888,-0.0363 1.65142,0.0173 2.45533,-0.22788 0.68114,-0.20778 1.33392,-0.38172 1.94733,-0.76112 0.2794,-0.17263 0.58674,-0.36593 0.42799,-0.74582 -0.061,-0.14538 -0.23325,-0.21379 -0.37422,-0.12832 -0.19939,0.12125 -0.32301,0.41724 -0.51943,0.56909 -0.33613,0.26005 -0.90043,0.41686 -1.31234,0.51786 -0.33104,0.0812 -0.63457,0.24689 -0.97366,0.29765 -1.22475,0.18326 -2.38515,0.0223 -3.59834,-0.14927 -0.67017,-0.0947 -1.56984,-0.22538 -2.01117,-0.82541 -0.26928,-0.36614 0.55042,-0.56304 0.78351,-0.5243 1.20281,0.1999 3.33603,1.01524 4.02166,-0.5218 0.0889,-0.19986 0.3937,-0.57392 0.31115,-0.79807 -0.0817,-0.22267 -0.73511,-0.15452 -0.8724,-0.0172 -0.10723,0.10731 -0.0624,0.29934 -0.10071,0.43425 -0.0664,0.23347 -0.20964,0.45475 -0.397,0.60668 -0.62848,0.50953 -1.38045,0.21214 -2.03137,-0.13174 -0.21522,-0.1137 -0.58052,-0.24697 -0.59267,-0.51727 m 21.082,4.61433 v 0.0423 c -0.48302,0.33965 -1.57056,0.29147 -2.159,0.29634 0.0677,-0.20528 0.29422,-0.30396 0.46567,-0.42232 0.18542,-0.12789 0.40598,-0.36762 0.635,-0.40217 0.30099,-0.0454 0.82211,0.31759 1.05833,0.48582 m 24.13,5.715 c 0.17145,0.44522 0.28618,0.97163 0.40302,1.43933 0.066,0.26251 0.0978,0.55508 0.32088,0.73838 0.26162,0.21463 0.61595,0.20333 0.9271,0.27762 -0.18584,0.22521 -0.50757,0.24012 -0.69596,0.47011 -0.15578,0.19008 -0.12446,0.53878 -0.32639,0.67552 -0.26754,0.18148 -0.73998,0.20002 -1.05198,0.26932 -0.42079,0.0934 -0.81238,0.28922 -1.22767,0.38299 -0.5969,0.13492 -1.4406,-0.21158 -1.93929,0.24845 -0.39751,0.36644 -0.42545,1.07802 -0.65405,1.55194 -0.69172,1.43362 -2.07518,2.68919 -1.03462,4.318 0.12403,0.19381 0.15578,0.53709 0.37084,0.6433 0.7222,0.357 1.20184,-0.19058 1.86012,-0.34696 -0.0402,0.31923 0.0995,0.50626 0.12023,0.80433 0.0263,0.37884 -0.24384,0.9119 0.002,1.25777 0.22225,0.31233 0.67691,0.46435 1.02065,0.59139 0.5605,0.20731 1.08839,0.38308 1.56253,0.76535 0.50588,0.40796 0.74252,1.28181 1.40081,1.5044 0.29252,0.0989 0.68537,0.0174 0.97366,-0.0616 0.1922,-0.0527 0.38143,-0.12912 0.55034,-0.23504 0.5698,-0.35712 1.38387,-1.17885 1.60274,-1.83261 0.17737,-0.53086 0.0347,-1.65345 0.64135,-1.94551 0.23029,-0.11083 0.42079,0.13957 0.59224,0.25146 0.20743,0.13534 0.44535,0.16789 0.63077,0.34722 0.17483,0.16971 0.20955,0.43925 0.37719,0.60164 0.25146,0.24282 0.71882,-0.10605 0.86106,-0.31378 0.14774,-0.21611 0.20531,-0.50643 0.24214,-0.76136 0.21336,-1.48332 -1.00922,-2.25061 -2.32283,-2.46575 -0.37253,-0.0611 -1.34662,0.034 -1.56506,-0.33778 -0.0978,-0.16666 0.0165,-0.42502 0.0851,-0.58314 0.22437,-0.51519 0.71035,-0.85547 0.95335,-1.35466 0.14901,-0.30552 0.10922,-0.68885 0.18796,-1.016 0.48302,0.25446 0.84836,0.01 1.31233,0.16086 0.1977,0.0645 0.27136,0.22987 0.43434,0.33549 0.29295,0.19012 0.82889,0.34591 1.17433,0.24393 1.62263,-0.47938 1.09897,-2.66891 0.20997,-3.53047 -0.77131,-0.74761 -1.92109,-0.87685 -2.91931,-1.06215 0.10033,-0.31445 0.36661,-0.54762 0.56515,-0.80433 0.40683,-0.52561 0.82762,-1.05325 1.29752,-1.524 0.56684,-0.56773 1.28228,-1.17369 1.38896,-2.032 0.0952,-0.76449 -0.42207,-1.04618 -0.96563,-1.46689 -0.32173,-0.24909 -0.65701,-0.62696 -1.05833,-0.73749 -0.87884,-0.24202 -2.04047,0.67509 -2.50105,1.35772 -0.18966,0.28075 -0.11176,0.6148 0.25738,0.69964 0.34714,0.0798 0.8581,-0.22809 0.98425,0.31635 0.0639,0.27492 -0.19981,0.65363 -0.3175,0.889 -0.33358,0.66718 -0.69469,1.31941 -1.16078,1.905 -0.15028,0.18919 -0.40428,0.53848 -0.64643,0.60808 -0.14647,0.0421 -0.16764,-0.12476 -0.19092,-0.22712 -0.0821,-0.36538 -0.29252,-0.69541 -0.36703,-1.05829 -0.12615,-0.61239 0.53848,-1.29955 0.70612,-1.86267 0.12531,-0.42083 0.0292,-0.74252 -0.44704,-0.7603 -0.53679,-0.0201 -0.88858,0.65193 -1.27,0.95868 -0.41233,0.33121 -0.93345,0.25201 -1.35424,0.50808 -0.39963,0.24346 -0.58463,0.72826 -1.01643,0.92579 -0.28744,0.13149 -0.69596,0.28677 -1.016,0.21374 -0.49106,-0.11197 -0.85301,-0.5221 -1.397,-0.6002 -0.50546,-0.0726 -1.06468,0.0776 -1.22597,0.61688 -0.33867,1.13517 0.96181,1.59952 1.44526,2.413 0.22733,0.3832 0.20278,0.91813 0.58674,1.20019 0.32258,0.23703 0.85386,0.27915 1.18364,0.051 0.97494,-0.67462 0.61426,-1.76326 0.86868,-2.73287 0.0872,-0.33358 0.33486,-0.64736 0.57065,-0.889 m -43.688,-3.59833 c -0.22813,0.39082 -0.72305,-0.007 -0.91169,0.46571 -0.48958,1.22754 -0.0103,2.66577 -0.34709,3.93695 -0.0756,0.28533 -0.18804,0.5152 -0.43459,0.69271 -0.18851,0.13572 -0.49255,0.18817 -0.59881,0.41241 -0.25882,0.54614 -0.19058,1.38396 -0.71793,1.79413 -0.32419,0.25213 -1.28024,0.4069 -1.64655,0.21471 -0.63521,-0.33329 -1.04534,-1.09228 -1.8197,-0.43303 -0.49712,0.42325 -0.2123,1.43696 -0.2123,2.01807 0,0.37017 0.0546,0.67958 -0.33867,0.84667 0,-0.40225 0.0584,-0.95851 -0.16912,-1.31157 -0.20663,-0.32063 -0.7819,-0.4216 -1.01752,-0.0831 -0.4672,0.67107 -0.21726,1.65303 -0.35129,2.41067 -0.10481,0.59258 -0.50152,1.14618 -0.6568,1.73567 -0.097,0.36804 -0.18923,0.85759 0.16459,1.12124 0.24092,0.17953 0.77445,0.15773 1.0014,-0.0388 0.23033,-0.19943 0.26124,-0.43629 0.60541,-0.44747 0,0.77428 -0.2361,1.40742 -0.51114,2.11667 -0.14037,0.36199 -0.26674,0.98683 -0.0962,1.35403 0.22428,0.48307 0.92537,0.41745 1.19118,0.0429 0.53577,-0.75493 0.67369,-1.66899 0.91579,-2.53995 0.23009,-0.82762 0.57045,-1.63737 0.84282,-2.45534 0.13805,-0.41452 0.17458,-0.86046 0.30971,-1.26983 0.0396,-0.1201 0.14948,-0.29121 0.30001,-0.26297 0.20219,0.038 0.0315,0.40923 -6.7e-4,0.5168 -0.14978,0.49975 -0.36915,1.0436 -0.36915,1.56634 0,0.5403 0.14393,1.12314 -0.0317,1.651 -0.16501,0.49589 -0.69465,0.83096 -0.90221,1.31233 -0.0935,0.21696 -0.0397,0.52997 -0.0397,0.762 0,0.67331 0.003,1.83083 0.53501,2.34302 0.32305,0.31119 1.04708,0.0108 1.31555,-0.24028 0.52731,-0.49297 0.98222,-1.01867 1.57844,-1.43722 0.85738,-0.60189 1.8087,-0.89018 2.14427,-1.97785 0.1245,-0.40361 0.0447,-0.81378 -0.13788,-1.18534 -0.12763,-0.25976 -0.38819,-0.62602 -0.17911,-0.91766 0.24727,-0.34489 0.63098,0.58458 0.68009,0.74833 0.20315,0.67712 -0.0257,1.36885 -0.30019,1.98967 -0.23288,0.52679 -0.66743,1.04313 -0.78825,1.60866 -0.06,0.28076 0.0181,0.56473 0.0204,0.84667 0.65108,0.0877 1.21115,0.15325 1.72665,-0.35729 0.24646,-0.24406 0.51718,-1.25019 1.02332,-1.06545 0.16523,0.0603 0.25502,0.26873 0.34248,0.40674 0.24384,0.38367 0.42799,0.79062 0.65066,1.18533 0.3429,0.60672 0.71924,1.0936 1.2518,1.54365 0.13927,0.11777 0.24934,0.31199 0.42418,0.37816 0.26162,0.0987 0.64897,0.0323 0.93091,0.0679 0.14224,-0.38109 0.30522,-0.85886 0.19346,-1.27 -0.072,-0.26416 -0.35433,-0.50381 -0.51604,-0.71967 -0.31369,-0.41812 -0.58971,-0.87913 -0.8073,-1.35466 -0.1579,-0.3446 -0.34078,-0.73567 -0.43942,-1.10067 -0.0639,-0.2352 -0.0318,-0.49907 -0.14817,-0.71967 -0.17483,-0.33117 -0.63246,-0.56396 -0.72432,-0.93133 -0.10499,-0.41804 -0.0339,-0.88993 -0.0152,-1.31233 0.0334,-0.76234 0.0212,-1.57899 -0.12531,-2.32834 -0.0961,-0.49102 -0.26204,-1.05863 -0.67796,-1.37926 -0.77813,-0.60003 -0.86509,0.46016 -0.97304,0.9136 -0.46198,-0.35298 -0.66878,-0.80434 -0.79942,-1.35467 -0.0351,-0.14796 -0.14186,-0.37355 -0.0508,-0.51613 0.2587,-0.40513 1.05508,-0.49128 1.48522,-0.55706 0.43688,-0.0668 0.75735,0.57421 1.22767,0.59834 0.25188,0.013 0.46736,-0.15943 0.63331,-0.33012 0.54737,-0.56354 0.43476,-1.38091 0.11768,-2.03136 -0.30945,-0.63462 -1.15231,-0.94471 -1.80932,-0.60008 -0.30705,0.16104 -0.49039,0.47562 -0.80434,0.62869 -0.28037,0.1367 -1.18211,0.58734 -1.31051,0.0554 -0.0616,-0.25514 0.20485,-0.55698 0.37982,-0.7051 0.50194,-0.42507 1.39217,-0.41732 1.79269,-0.94708 0.28778,-0.38083 0.57183,-1.24528 0.13749,-1.61959 -0.28634,-0.24663 -0.74405,-0.19507 -0.9329,-0.58056 -0.1358,-0.27711 -0.005,-0.59524 -0.0282,-0.88836 -0.0552,-0.6861 -0.54453,-0.98865 -1.1814,-1.016 m -5.08,2.14028 c -0.87045,0.10067 -0.48154,0.88147 -0.79341,1.37275 -0.2043,0.32186 -0.6565,0.27809 -0.85395,0.56049 -0.24553,0.35107 -0.23418,1.33117 0.17031,1.57019 0.46757,0.27631 1.05838,0.19647 1.51939,0.49331 0.3476,0.22381 0.58356,1.01155 1.01604,0.96697 0.74083,-0.0764 1.0265,-0.74553 1.11845,-1.38899 0.14389,-1.00728 -0.35861,-2.68165 -1.24549,-3.22534 -0.26382,-0.16171 -0.60588,-0.38701 -0.93134,-0.34938 m -22.39433,2.80666 c -0.35314,0.14127 -0.63195,0.48387 -0.97367,0.66256 -0.50969,0.26653 -1.21949,0.41567 -1.778,0.5646 -0.76267,0.20337 -1.83468,0.12527 -2.44077,0.71272 -0.2587,0.25075 -0.19867,0.87918 0.072,1.09644 0.35763,0.2871 1.11307,0.25302 0.70815,0.94907 -0.43455,0.74689 -1.318,0.90801 -1.93764,1.41139 -0.51278,0.4166 -0.78426,1.08276 -1.31242,1.48709 -0.24189,0.18516 -0.55858,0.18444 -0.80259,0.34967 -0.46938,0.31776 -0.71064,1.17505 -0.52123,1.70485 0.0961,0.26869 0.36631,0.48175 0.56187,0.67733 0.4925,0.49255 1.20027,0.97583 1.51976,1.60867 0.33321,0.65989 0.41639,1.43315 0.8001,2.07433 0.16421,0.27436 0.30785,0.54741 0.64347,0.62273 0.79028,0.17729 1.31445,-0.19042 1.26606,-1.04606 -0.0141,-0.24901 -0.11057,-1.04128 0.34265,-0.98273 0.7841,0.10122 1.48497,0.95936 2.03577,1.43235 0.22157,0.19033 0.51244,0.25713 0.74024,0.43464 0.479,0.37329 1.31386,0.76208 1.92295,0.47379 0.36982,-0.17505 0.59918,-0.57273 0.93133,-0.80586 0.22361,-0.15693 0.48908,-0.22352 0.71967,-0.36995 0.59546,-0.37812 1.15921,-0.823 1.69333,-1.28291 0.33283,-0.2866 0.72077,-0.54957 1.00207,-0.88904 0.32555,-0.39281 0.50961,-0.86364 0.90357,-1.20951 0.65206,-0.57247 1.61184,-0.77207 1.79717,-1.75378 0.0502,-0.26615 -0.0695,-0.5939 -0.14787,-0.84667 -0.32402,-1.04563 -1.26149,-1.77486 -2.28494,-2.11285 -0.35348,-0.11676 -0.76979,0.002 -1.10067,-0.14847 -0.52324,-0.23787 -0.78989,-0.82901 -1.27063,-1.07543 -0.26569,-0.13619 -0.80764,-0.072 -1.10003,-0.0427 -0.5983,0.0599 -1.12328,0.34379 -1.5113,0.79709 -0.21912,0.25599 -0.38287,0.66133 -0.69067,0.82228 -0.26653,0.13937 -0.4285,-0.10845 -0.6767,-0.14711 -0.18533,-0.0289 -0.39179,0.0793 -0.55033,0.1624 -0.56105,0.294 -1.25481,1.46312 -1.68838,0.3901 -0.20824,-0.51541 0.88866,-0.98908 1.22271,-1.15333 1.12687,-0.55402 2.3274,-0.93273 3.429,-1.50275 0.39273,-0.2032 0.95373,-0.36441 1.12594,-0.81526 0.19723,-0.51625 -0.15282,-0.80645 -0.49094,-1.14295 -0.5497,-0.54703 -1.26268,-1.46529 -2.159,-1.10677 m 46.736,0.87254 c -0.51731,0.0978 -0.71628,0.55452 -0.61299,1.03852 0.16807,0.78799 0.93261,1.40199 0.56515,2.286 -0.1778,0.42659 -0.81534,0.76001 -1.26449,0.79485 -0.50758,0.0394 -1.15697,-0.12141 -1.40166,0.51748 -0.26331,0.68838 0.28363,1.68986 0.80899,2.09427 0.19727,0.15173 0.76539,0.21963 0.79629,0.48993 0.0461,0.40318 -0.32681,0.9434 -0.52874,1.26813 -0.60537,0.97134 -1.39573,1.80201 -2.01592,2.75167 -0.24214,0.3708 -0.55753,1.35247 0.22437,1.30332 0.64728,-0.0407 1.33308,-0.58869 1.86267,-0.9202 0.52578,-0.32902 1.14469,-0.54018 1.651,-0.88206 0.66336,-0.44801 1.20734,-1.13813 1.66285,-1.78706 0.33486,-0.47693 0.63712,-0.97591 0.92583,-1.48167 0.16849,-0.29497 0.31538,-0.65117 0.58716,-0.8666 0.88181,-0.70019 3.25036,-0.52261 3.16527,-2.1814 -0.0516,-1.01041 -0.90932,-1.70899 -1.85378,-1.87892 -0.33613,-0.0605 -0.85175,0.0818 -1.12522,-0.17479 -0.17484,-0.16383 -0.20955,-0.52049 -0.28617,-0.74029 -0.15367,-0.43755 -0.36407,-0.90237 -0.65278,-1.26818 -0.35645,-0.45144 -1.03505,-0.30996 -1.53416,-0.3288 -0.32724,-0.0124 -0.64305,-0.0967 -0.97367,-0.0342 m 29.591,2.35086 -0.55033,1.016 c -0.20786,-0.0952 -0.36957,-0.25934 -0.59267,-0.32931 -0.35814,-0.11231 -0.86529,10e-4 -1.05833,-0.39036 0.71458,-0.3167 1.44399,-0.58797 2.20133,-0.29633 m -8.21267,5.92666 c 0,-0.68757 -0.0808,-1.44327 0.0804,-2.11666 0.30014,-1.25413 1.44737,-2.13589 2.6289,-2.53988 0.41359,-0.14143 0.84201,-0.28126 1.27,-0.37219 0.11726,-0.0249 0.33316,-0.0972 0.43815,-0.008 0.18796,0.15964 -0.25316,0.38244 -0.35349,0.42795 -0.57107,0.25874 -1.31868,0.26657 -1.38938,1.05266 -0.0652,0.72428 1.42918,0.27309 1.60571,0.97532 0.0432,0.1709 -0.15494,0.49767 -0.20066,0.67568 -0.2811,1.09127 -1.25561,1.5651 -2.344,1.59766 -0.37677,0.0113 -0.71797,-0.15426 -1.10067,-0.0684 -0.26119,0.0586 -0.41021,0.25789 -0.635,0.37575 m -43.64503,-3.79146 c 0.69207,-0.1869 0.72098,0.64905 0.0841,0.80213 -0.46444,0.11163 -0.44929,-0.70354 -0.0841,-0.80213 m -20.5323,1.51816 c 0.63343,-0.0913 1.14507,0.38934 0.77766,1.0033 -0.51181,0.8553 -1.39759,1.55232 -2.13233,2.20836 -0.24917,0.22246 -0.61125,0.6165 -0.97349,0.62103 -0.54945,0.007 -0.2104,-0.82169 -0.0616,-1.05139 0.14673,-0.22657 0.36301,-0.39768 0.49331,-0.635 0.46609,-0.84904 0.7612,-1.98264 1.89649,-2.1463 m -3.89467,0.29578 c 0.80023,-0.0944 0.65033,0.72763 0.45703,1.21552 -0.22978,0.58005 -0.65883,1.43844 -1.14173,1.84493 -0.14393,0.1212 -0.3376,0.13978 -0.50063,0.22567 -0.16861,0.0889 -0.35306,0.29905 -0.55033,0.30768 -0.41093,0.018 -1.12158,-0.6667 -0.80484,-1.08991 0.10105,-0.135 0.29091,-0.1005 0.37558,0.0302 0.16861,0.26035 0.27847,0.7631 0.72178,0.4978 0.50927,-0.30476 0.68381,-0.95568 0.93497,-1.43476 0.12235,-0.23339 0.38329,-0.37652 0.22653,-0.67171 -0.167,-0.31449 -0.89988,0.0961 -0.80916,-0.42794 0.0654,-0.37779 0.78456,-0.4614 1.0908,-0.49751 m -5.50333,0.34092 c 0.71188,-0.0737 1.33126,0.91931 0.81051,1.49123 -0.12742,0.13995 -0.46101,0.15706 -0.64118,0.17479 -1.01858,0.10042 -1.29108,-1.54982 -0.16933,-1.66602 m 30.31067,0.40894 c 0.0858,0.35191 -0.20104,0.69621 -0.55034,0.71966 0.003,-0.38748 0.16231,-0.62636 0.55034,-0.71966 m 25.69633,1.12035 c -0.44365,0.08 -0.86868,0.41127 -0.73829,0.91165 0.0847,0.32583 0.38735,0.55507 0.59182,0.80433 0.38777,0.4732 0.84793,0.99966 1.15866,1.524 0.21675,0.36622 0.16764,0.9285 0.47202,1.21983 0.24934,0.23851 0.82931,0.55614 1.18279,0.50191 1.52442,-0.23389 1.90119,-2.07578 1.25688,-3.24574 -0.53764,-0.97562 -1.64381,-1.34933 -2.65388,-1.58111 -0.4136,-0.0949 -0.84286,-0.21196 -1.27,-0.13487 m -25.23067,0.78465 c -0.0776,0.69045 -0.76123,0.0184 0,0 m 47.20167,0.52031 c 0.53086,-0.056 0.33528,0.93786 -0.16933,0.98582 -0.25866,0.0246 -1.07993,-0.3374 -0.88604,-0.68999 0.12869,-0.23385 0.81449,-0.27043 1.05537,-0.29583"
       id="path323"
       sodipodi:nodetypes="cccccccccccsccccssscsssssssscsssccsscscsccccssccsccscssscssscscscssccscccccccsscsscsccccccccsccscccccccssccccccssssccscccsccscssssccscscscccsccccsccscsccccccccssccccccsccccccsccccscccccscccsccccccccsssccccccscccccccccccsccscccccsccccccccscccccccccccccsssccsccscccccccccccccccccccscccccccsscsscccccsccsscccccscccccsccccccccccccccccccssccssccccccccccccccccccscscscsccscccscsccccccccssssssscscscsscscssscccsscsccsssscsscsscccccccccccccccssscccssscccccccscssscsccsssscssccscscsccssssscsccscscssscscscsccccsccscssccccccscccccccsccccsssccccssccsccsscscccsscsscssssccsccccccccccscsccccscc" />
  </g>
</svg>
