<?xml version="1.0" encoding="UTF-8" standalone="no"?>
<!-- Created with Inkscape (http://www.inkscape.org/) -->

<svg
   width="94.291573mm"
   height="54.258087mm"
   viewBox="0 0 94.291573 54.258087"
   version="1.1"
   id="svg5"
   xml:space="preserve"
   inkscape:version="1.2.2 (b0a8486541, 2022-12-01)"
   sodipodi:docname="name_zh_en_tl.svg"
   xmlns:inkscape="http://www.inkscape.org/namespaces/inkscape"
   xmlns:sodipodi="http://sodipodi.sourceforge.net/DTD/sodipodi-0.dtd"
   xmlns="http://www.w3.org/2000/svg"
   xmlns:svg="http://www.w3.org/2000/svg"><sodipodi:namedview
     id="namedview7"
     pagecolor="#ffffff"
     bordercolor="#666666"
     borderopacity="1.0"
     inkscape:showpageshadow="2"
     inkscape:pageopacity="0.0"
     inkscape:pagecheckerboard="0"
     inkscape:deskcolor="#d1d1d1"
     inkscape:document-units="mm"
     showgrid="false"
     inkscape:zoom="191.56902"
     inkscape:cx="49.316428"
     inkscape:cy="134.62771"
     inkscape:window-width="1920"
     inkscape:window-height="1039"
     inkscape:window-x="0"
     inkscape:window-y="0"
     inkscape:window-maximized="1"
     inkscape:current-layer="layer1" /><defs
     id="defs2" /><g
     inkscape:label="Layer 1"
     inkscape:groupmode="layer"
     id="layer1"
     transform="translate(-54.053928,-36.784549)"><path
       style="fill:#bd8b35;stroke:none;stroke-width:0.0423333"
       d="m 120.17897,36.809296 c -1.09686,0.07066 -2.92523,0.516144 -3.33968,1.713911 -0.16552,0.477558 0.0936,0.908266 0.37592,1.27 0.61087,0.783662 1.89188,1.188297 2.87655,0.917875 0.1668,-0.04573 0.25358,-0.338116 0.0737,-0.426665 -0.18245,-0.08989 -0.46355,-0.0078 -0.66378,-0.04534 -0.75989,-0.142363 -2.04132,-0.496214 -1.82161,-1.5042 0.0889,-0.407281 0.63585,-0.705113 0.97494,-0.878646 0.98975,-0.506594 2.03454,-0.663689 3.13267,-0.456556 1.4787,0.278862 3.09541,1.058655 3.98822,2.308868 0.2993,0.418723 0.51477,1.002873 0.70231,1.481667 0.0474,0.121666 0.0745,0.512487 0.26077,0.488272 0.22691,-0.02946 0.0872,-0.628734 0.0864,-0.784605 -0.004,-0.763829 -0.69045,-1.702672 -1.19253,-2.242003 -1.48336,-1.594502 -3.37354,-1.976603 -5.4538,-1.842575 m -53.890324,5.693244 c -0.89442,-0.520065 -1.81369,-1.07878 -2.75167,-1.51892 -0.28727,-0.134831 -0.60173,-0.159639 -0.889,-0.28727 -0.44602,-0.198179 -0.92359,-0.614091 -1.397,-0.715454 -0.37787,-0.0809 -0.89501,0.458521 -1.00279,0.785343 -0.0946,0.28702 0.56244,0.43853 0.74879,0.511259 0.8796,0.343323 1.7366,0.754211 2.58233,1.177629 2.33282,1.167934 4.54275,2.503847 6.36867,4.388485 0.81022,0.836295 1.46969,1.505669 1.84396,2.643928 0.37041,1.12649 -0.7645,2.444115 -1.43502,3.263434 -0.19651,0.240115 -1.08483,0.731943 -0.81949,1.090422 0.20176,0.272627 0.62137,-0.167259 0.75595,-0.332401 0.5596,-0.686647 1.06502,-1.439503 1.51541,-2.201122 0.16531,-0.279612 0.38506,-0.616077 0.46765,-0.931333 0.36115,-1.378712 -0.38997,-2.699681 -1.11798,-3.81 -0.38422,-0.585978 -0.96071,-0.926338 -1.48315,-1.360847 -0.62509,-0.519896 -1.20235,-1.112859 -1.84548,-1.605788 -0.40305,-0.308907 -1.37824,-0.568114 -1.54118,-1.097365 m 27.812997,-2.478036 c -0.69118,0.06053 -1.57925,0.07948 -2.20134,0.421339 -0.25078,0.137808 -0.67225,0.674387 -0.21086,0.845667 0.18834,0.06989 0.37546,-0.05745 0.54953,-0.110871 0.43807,-0.134492 0.89624,-0.357293 1.35467,-0.406399 0.34895,-0.03738 0.67483,0.06502 1.016,0.114088 0.77504,0.111421 1.51722,0.220937 2.24366,0.531622 0.85344,0.36504 1.69334,1.09093 2.37067,1.713949 0.21378,0.196385 0.67818,0.765218 1.006687,0.705401 0.27516,-0.05021 0.0978,-0.447802 0.007,-0.57476 -0.339927,-0.475911 -0.767077,-0.883624 -1.225547,-1.248198 -0.42841,-0.340911 -0.79078,-0.74549 -1.27,-1.019725 -0.67987,-0.389086 -1.41901,-0.49704 -2.159,-0.68401 -0.4641,-0.117259 -0.99648,-0.330593 -1.48166,-0.288103 m -9.86367,2.139369 c -0.42511,0.573575 -1.16319,1.545082 -0.94022,2.328334 0.11925,0.418846 0.58775,0.486875 0.94022,0.635635 0.86754,0.366098 1.90111,1.144439 2.87867,0.838792 0.69071,-0.2159 0.26276,-0.967867 0.48666,-1.430274 0.11765,-0.242993 0.45885,-0.298958 0.69867,-0.342265 0.70815,-0.127804 1.60067,0.74494 2.04995,1.183005 0.13712,0.133689 0.43857,0.232664 0.54326,-0.0022 0.0731,-0.163914 -0.01,-0.372618 -0.01,-0.544068 0,-0.218313 0.12006,-0.517101 -0.0267,-0.710141 -0.14948,-0.196512 -0.48006,-0.211582 -0.69414,-0.300567 -0.84049,-0.349377 -1.77457,-0.504994 -2.58229,-0.01113 -0.41407,0.253154 -0.4959,1.122003 -0.97388,1.242484 -0.4191,0.105664 -1.20947,-0.293751 -1.56617,-0.487426 -0.889,-0.48277 -0.81081,-1.673564 -0.0423,-2.215769 0.22483,-0.158623 0.55774,-0.02688 0.79087,-0.220134 0.20278,-0.168148 0.0715,-0.483319 -0.11434,-0.598932 -0.37418,-0.232748 -1.08907,-0.112395 -1.5232,-0.183472 -1.3666,-0.223817 -2.92874,-0.662982 -4.318,-0.43815 -0.553,0.08949 -1.09761,0.236135 -1.65083,0.323596 -0.15494,0.02451 -0.34755,0.142282 -0.24473,0.328168 0.0761,0.137668 0.27737,0.144229 0.4139,0.131318 0.43277,-0.04102 0.88332,-0.10304 1.31233,-0.178139 0.6267,-0.109728 1.28825,0.06473 1.905,0.168106 0.88354,0.148166 1.80082,0.25908 2.667,0.483192 m 59.774667,5.291667 -0.0423,-0.465667 c -0.64389,0 -1.85462,-0.08437 -2.31182,-0.600498 -0.19389,-0.219244 -0.29168,-0.684911 -0.2104,-0.965835 0.0923,-0.316907 0.3446,-0.788247 0.12954,-1.100667 -0.64262,-0.934466 -1.66073,-1.591818 -2.64498,-2.095076 -1.05495,-0.539369 -1.89357,-0.923036 -3.09034,-0.958342 -0.95334,-0.02815 -1.83642,-0.01096 -2.57852,0.694986 -0.27305,0.260138 -0.2341,0.811064 0.25019,0.680297 0.87715,-0.236813 1.73143,-0.660866 2.667,-0.690711 0.97494,-0.03107 1.60401,0.448352 2.413,0.881465 0.8073,0.432308 1.73524,0.802259 2.31098,1.57209 0.44323,0.592709 -0.76454,0.923206 -0.73999,1.481625 0.044,1.016254 1.04817,1.66878 1.98501,1.691005 0.2722,0.0065 0.49826,-0.147617 0.762,-0.164677 0.37804,-0.02447 0.71755,0.153289 1.10067,0.04001 m -22.86,-4.021667 c -0.4843,0.213022 -0.79502,0.663406 -1.12014,1.058334 -0.13124,0.159131 -0.33867,0.307848 -0.4081,0.508 -0.0673,0.194648 0.10795,0.484462 0.26713,0.592074 0.19685,0.132926 0.39539,-0.02553 0.58377,-0.09741 0.37423,-0.142833 1.05283,-0.60833 1.43934,-0.586783 0.21759,0.01215 0.39497,0.271061 0.59266,0.35505 0.24765,0.105156 0.39413,-0.01909 0.635,-0.01918 0.19855,-8.5e-5 0.34417,0.105833 0.55034,0.03785 0.28871,-0.09525 0.4246,-0.389721 0.58843,-0.620099 0.10922,-0.153797 0.29803,-0.258445 0.38396,-0.425153 0.16087,-0.311658 -0.25019,-0.741977 -0.50673,-0.863092 -0.32808,-0.15511 -0.88011,0.02819 -1.143,0.24367 -0.1397,0.114597 -0.35221,0.447294 -0.55583,0.301795 -0.2739,-0.195919 -0.61511,-0.768435 -0.55203,-1.120056 0.0381,-0.211412 0.17484,-0.419819 0.22902,-0.635 0.0555,-0.22026 0.27813,-0.481838 0.1397,-0.709845 -0.18245,-0.300524 -0.71543,0.176361 -0.85555,0.332782 -0.41106,0.458301 -0.40259,1.082887 -0.26797,1.647063 m -58.843334,-0.338666 0.21167,0.889 c -0.39417,0.07319 -1.57213,-0.07192 -1.077,-0.718016 0.37342,-0.487341 0.93006,-0.379984 1.204,-0.932984 -1.17534,-0.44014 -2.97315,1.332907 -1.60803,2.201545 0.20273,0.129032 0.4097,0.104097 0.63436,0.140546 0.49293,0.07997 1.21793,0.283083 1.59093,-0.184912 0.24643,-0.309202 0.21383,-1.214501 -0.16065,-1.436327 -0.21019,-0.124545 -0.57328,-6.78e-4 -0.79528,0.04115 m 15.578667,-0.700448 c -0.76856,0.100923 -1.842047,0.655066 -2.248867,1.336083 -0.1679,0.281008 -0.53874,1.345141 0.09,1.370795 0.16201,0.0066 0.539747,-0.08035 0.671067,-0.175175 0.19748,-0.142621 0.25353,-0.456946 0.43679,-0.633222 0.46241,-0.444881 1.26772,-0.84019 1.57705,-1.411351 0.20337,-0.375581 -0.22318,-0.526923 -0.52608,-0.48713 m 1.94733,1.335448 c -0.76149,0.759375 -1.63537,1.478576 -2.62466,1.89865 -0.24808,0.105367 -0.80679,0.241554 -0.62362,0.639021 0.16972,0.368173 0.79613,0.151511 1.08928,0.09533 1.01351,-0.19431 2.12624,-0.280458 3.13267,0.0243 1.43345,0.434044 3.07501,1.18491 4.14867,2.253404 0.28545,0.284099 0.54385,0.590338 0.83947,0.863938 0.0755,0.06989 0.2377,0.272585 0.36085,0.188553 0.16163,-0.110236 -0.14106,-0.458724 -0.21053,-0.544534 -0.40339,-0.498178 -0.83096,-1.011766 -1.32846,-1.41969 -0.44877,-0.367962 -0.99289,-0.593895 -1.48162,-0.900811 -0.73127,-0.459148 -1.40949,-0.955421 -2.28605,-1.145752 -0.50055,-0.108712 -1.05283,-0.289052 -1.56633,-0.299127 -0.11697,-0.0023 -0.47718,0.12247 -0.55368,0.01075 -0.0606,-0.08852 0.0726,-0.194902 0.13136,-0.240199 0.21506,-0.165608 0.50102,-0.331385 0.76099,-0.407839 0.0111,0.140504 -0.002,0.454406 0.11608,0.549148 0.22373,0.179154 1.06891,-0.0522 1.28092,-0.194988 0.27525,-0.185377 0.50474,-0.527642 0.84666,-0.565827 -0.008,-0.161967 0.0341,-0.449538 -0.17394,-0.504486 -0.21413,-0.0566 -0.45276,0.238252 -0.63039,0.323511 -0.33185,0.159343 -0.81906,0.281601 -1.18533,0.223308 0.29379,-0.193759 0.62196,-0.319193 0.889,-0.552619 0.14109,-0.123317 0.27999,-0.249767 0.42329,-0.370501 0.26361,-0.221996 0.46202,-0.931334 -0.0848,-0.979382 -0.56646,-0.04983 -1.01951,0.343196 -1.56616,0.401024 -0.29024,0.03069 -0.60071,-0.236728 -0.88896,-0.09898 -0.33964,0.162264 -0.6598,0.712809 -0.25218,0.976207 0.381,0.246168 1.0047,-0.305689 1.43747,-0.222419 m 48.217667,0.635 c -0.0263,0.333248 -0.36703,0.790659 -0.26331,1.100624 0.12488,0.37283 0.53721,0.388408 0.85598,0.350816 0.67945,-0.08018 1.18702,-0.256413 1.82033,-0.520107 0.044,0.170349 0.0584,0.600541 0.26247,0.662686 0.14689,0.04475 0.28575,-0.190331 0.36195,-0.281686 0.20574,-0.246041 0.7167,-0.655701 0.48217,-1.011555 -0.22267,-0.338032 -0.60579,-0.261239 -0.89492,-0.09546 -0.4445,0.254847 -0.85979,0.486156 -1.35467,0.629031 -0.13716,0.03958 -0.35856,0.15748 -0.50123,0.109347 -0.21505,-0.07269 0.002,-0.365675 0.0601,-0.478028 0.16086,-0.311531 0.77004,-0.857546 0.74168,-1.185291 -0.0203,-0.23622 -0.24808,-0.374565 -0.4699,-0.308483 -0.59944,0.178435 -1.16332,0.391626 -1.73567,0.647108 -0.0292,-0.228939 0.24723,-0.43053 0.16341,-0.63318 -0.0931,-0.225975 -0.4318,-0.312801 -0.62908,-0.18796 -0.42121,0.266573 -0.81026,0.845735 -1.16078,1.208701 -0.1507,0.156126 -0.34967,0.374058 -0.10287,0.554694 0.3065,0.22424 0.70655,-0.105706 0.97113,-0.248073 0.35814,-0.192617 0.98933,-0.295783 1.39319,-0.313182 m -16.51,0.677333 c -0.2231,0.758232 -1.05749,1.339554 -1.651,1.799124 -1.39658,1.081194 -2.76225,1.996779 -4.40267,2.665011 -0.59139,0.240919 -1.20353,0.449876 -1.77715,0.733932 -0.17484,0.08644 -0.38777,0.340699 -0.30607,0.553001 0.0567,0.147658 0.22564,0.136059 0.34756,0.08776 0.45085,-0.178266 0.95927,-0.268267 1.397,-0.460629 1.20988,-0.531791 2.72415,-0.926634 4.064,-0.798999 0.80814,0.07696 1.55236,0.373803 2.32833,0.58547 -0.13547,0.284733 -0.4572,0.49458 -0.67691,0.719666 -0.27686,0.284141 -0.48429,0.620776 -0.72898,0.931333 -0.1215,0.153967 -0.4699,0.407162 -0.35094,0.628693 0.12869,0.240114 0.59986,-0.06138 0.78316,-0.119465 0.60198,-0.190839 1.18957,-0.212894 1.82034,-0.212894 0.25484,0 0.65786,0.105494 0.889,0.02468 0.27347,-0.09567 0.7294,-0.69033 0.97366,-0.633434 0.91525,0.213106 1.66794,1.259205 2.25044,1.921087 0.97917,1.11307 2.19414,2.319486 2.67081,3.767667 0.23961,0.727964 0.20109,1.489244 0.20109,2.243666 0.48048,-0.144991 0.26373,-1.075563 0.2159,-1.439333 -0.19304,-1.467189 -0.77682,-2.609977 -1.57353,-3.848566 -0.12658,-0.196215 -0.34163,-0.330369 -0.48895,-0.511767 -0.65871,-0.808863 -1.34239,-1.53107 -2.17509,-2.164504 -1.35086,-1.027514 -2.81009,-1.863174 -4.445,-2.340779 -0.49276,-0.143891 -1.04817,-0.326517 -1.56633,-0.332443 -0.41995,-0.0048 -0.85387,0.09728 -1.27,0.138726 0.21039,-0.539115 1.08161,-0.930021 1.56633,-1.192699 0.8183,-0.443442 1.71535,-1.115695 2.37067,-1.770634 0.18923,-0.189103 0.7095,-0.428583 0.77216,-0.678138 0.0588,-0.234273 -0.0821,-0.465455 -0.22987,-0.634196 -0.51605,-0.590973 -1.10152,-0.320294 -1.76996,-0.100203 -0.20701,0.06811 -0.40047,0.24909 -0.63331,0.159301 -0.55668,-0.214757 -0.26839,-1.478831 -1.14469,-1.186731 -0.10541,0.03505 -0.20193,0.08327 -0.29633,0.141563 -0.40217,0.248581 -1.0431,0.690965 -1.13073,1.197737 -0.16086,0.932984 1.35594,0.767122 1.85039,0.582972 0.74126,-0.276055 1.31361,-0.449326 2.11667,-0.455972 m 3.72533,-1.399455 c -0.83058,0.299889 -0.77004,1.089533 -0.20785,1.651127 0.38608,0.385487 1.13749,0.371221 1.64719,0.432223 0.19854,0.02375 0.43984,0.07404 0.62695,-0.02832 0.21209,-0.115697 0.0326,-0.405553 -0.1198,-0.485055 -0.23537,-0.122894 -0.48006,0.04331 -0.71882,0.01727 -0.75184,-0.08204 -0.86572,-0.754423 -0.90636,-1.330749 -0.0127,-0.182033 -0.13038,-0.325458 -0.32131,-0.256497 m -43.095324,0.08712 c -0.30057,0.07061 -0.9158,0.468587 -0.75755,0.845015 0.078,0.185632 0.27474,0.302938 0.41888,0.432181 0.40391,0.36212 1.03776,0.907331 1.56634,1.060069 0.24515,0.07082 1.00376,3.81e-4 0.83752,-0.430572 -0.0776,-0.201041 -0.38384,-0.338286 -0.54119,-0.474049 -0.56121,-0.484251 -1.15883,-0.746675 -1.524,-1.432644 m 27.474327,0.889 c 0.0313,0.165269 0.23411,0.692234 0.13505,0.821139 -0.24046,0.311997 -1.14427,-0.0516 -1.08585,-0.440139 0.11303,-0.752518 1.11633,-0.517229 1.28947,-1.185334 -0.79333,-0.147404 -1.21751,0.05537 -1.73228,0.677334 -0.16341,0.197485 -0.40174,0.440351 -0.36872,0.719666 0.12065,1.021969 1.68359,1.30683 2.481997,0.973455 0.53044,-0.221615 0.56642,-1.29015 0.11769,-1.625092 -0.19008,-0.141689 -0.632457,-0.01037 -0.837357,0.05897 m 38.565667,0.973666 c 8.5e-4,0.09919 0.006,0.197358 0.011,0.296376 0.044,0.790194 0.78443,-0.221488 0.94149,-0.419608 0.11388,-0.143806 0.38185,-0.27123 0.40555,-0.469434 0.0444,-0.375624 -0.85174,-0.703115 -1.14215,-0.667893 -0.25527,0.03099 -0.42757,0.533908 -0.60071,0.706247 -0.27559,0.274023 -0.62145,0.274574 -0.96986,0.384979 0.0165,-0.203031 0.0754,-0.394885 0.1215,-0.592667 0.10922,-0.469646 -0.40471,-0.523705 -0.7548,-0.365336 -0.25104,0.113707 -0.19982,0.365506 -0.31073,0.576368 -0.10837,0.205444 -0.33274,0.292947 -0.53763,0.372999 -0.0999,0.03907 -0.25739,0.118237 -0.36068,0.04809 -0.20193,-0.137245 0.14351,-0.388409 0.23368,-0.469943 0.22606,-0.204597 1.29116,-0.756877 0.94826,-1.164674 -0.18457,-0.218948 -0.54313,0.06951 -0.7349,0.148928 -0.23072,0.0955 -0.40429,0.304335 -0.59436,0.461984 -0.37635,0.311827 -1.05029,0.596985 -1.08374,1.153583 -0.0131,0.210566 0.12235,0.337566 0.2794,0.453179 0.52451,0.385614 0.93345,0.05563 1.43934,-0.21027 0.1198,-0.06299 0.28067,-0.214461 0.42333,-0.199178 0.47583,0.05097 0.78486,0.693462 1.35467,0.579501 0.39666,-0.07933 0.5952,-0.463169 0.93133,-0.623232 M 94.863233,43.84248 c -0.57379,0.178731 -1.09779,1.175046 -0.50737,1.595755 0.57993,0.413216 1.06684,-0.137541 1.64872,-0.12319 0.23363,0.0057 0.33269,0.268224 0.59347,0.137287 0.36068,-0.18089 0.52535,-1.585764 -0.0838,-1.544066 -0.58192,0.03984 -0.5442,1.275334 -1.2275,1.094994 -0.62751,-0.165566 -0.0596,-0.627803 0.0249,-0.892048 0.084,-0.262932 -0.2722,-0.323638 -0.44843,-0.268732 m 26.415997,0.190458 c 0.17018,-0.0024 0.46355,0.264625 0.34501,0.441536 -0.11641,0.173906 -0.64939,0.347853 -0.85217,0.349462 -0.21505,0.0017 -0.21801,-0.179874 -0.12742,-0.331597 0.10033,-0.167852 0.42587,-0.45648 0.63458,-0.459401 m 1.82033,0.924898 -0.0423,-0.04233 c -4.3e-4,-0.138388 -0.0787,-0.28884 -0.0495,-0.423291 0.0466,-0.210016 0.51265,-0.593937 0.69511,-0.320167 0.12912,0.194056 -0.44238,0.709126 -0.60325,0.785791 m -14.13933,-0.635 c 0.0682,0.107823 0.13377,0.216239 0.17272,0.338667 0.22775,0.710142 -1.10363,0.558842 -0.64686,-0.03497 0.0504,-0.06507 0.11303,-0.119634 0.1795,-0.167175 0.0927,-0.06638 0.18669,-0.104478 0.29464,-0.136525 m -5.03767,0.07226 c -0.48599,0.158369 -0.58843,0.698797 -0.2921,1.070695 0.42249,0.530267 1.18364,0.975529 1.85843,1.060662 0.15494,0.01956 0.39286,0.152146 0.54102,0.07726 0.1922,-0.09716 0.19728,-0.389594 0.0758,-0.537379 -0.16764,-0.202819 -0.45297,-0.264922 -0.65744,-0.421132 -0.4373,-0.333799 -0.7294,-0.677926 -1.04859,-1.105027 -0.10838,-0.145246 -0.30607,-0.20083 -0.4771,-0.145077 m -11.514667,2.171404 c -0.55774,-0.278765 -1.2882,0.623274 -1.73566,0.94361 -0.1684,0.120565 -0.44679,0.248412 -0.55995,0.424857 -0.087,0.135679 -0.017,0.334307 0.0703,0.451231 0.36661,0.491109 1.04534,0.691388 1.59029,0.897763 1.14178,0.432435 2.28241,0.25726 3.47134,0.20519 0.82888,-0.03628 1.65142,0.01731 2.45533,-0.22788 0.68114,-0.207772 1.33392,-0.38172 1.94733,-0.761111 0.2794,-0.172636 0.586737,-0.36593 0.427987,-0.745829 -0.061,-0.145373 -0.233247,-0.213783 -0.374217,-0.128312 -0.19939,0.121242 -0.32301,0.417237 -0.51943,0.569087 -0.33613,0.260053 -0.90043,0.416856 -1.31234,0.517863 -0.33104,0.0812 -0.63457,0.246888 -0.97366,0.297646 -1.22475,0.183261 -2.38515,0.02227 -3.59834,-0.149267 -0.67017,-0.09474 -1.56984,-0.225383 -2.01117,-0.825416 -0.26928,-0.366141 0.55042,-0.563033 0.78351,-0.524298 1.20281,0.199898 3.33603,1.015238 4.02166,-0.521801 0.0889,-0.199855 0.3937,-0.573913 0.31115,-0.798068 -0.0817,-0.222673 -0.73511,-0.154516 -0.8724,-0.01719 -0.10723,0.107315 -0.0624,0.299339 -0.10071,0.434255 -0.0664,0.233469 -0.20964,0.454745 -0.397,0.606679 -0.62848,0.509524 -1.38045,0.212133 -2.03137,-0.131741 -0.21522,-0.113707 -0.58052,-0.246973 -0.59267,-0.517271 m 21.081997,4.614333 v 0.04233 c -0.48302,0.339641 -1.57056,0.291465 -2.159,0.296334 0.0677,-0.205275 0.29422,-0.303954 0.46567,-0.422318 0.18542,-0.127889 0.40598,-0.367622 0.635,-0.402166 0.30099,-0.04538 0.82211,0.317584 1.05833,0.485817 m 24.13,5.715 c 0.17145,0.44522 0.28618,0.971635 0.40302,1.439333 0.066,0.262509 0.0978,0.555075 0.32088,0.738378 0.26162,0.21463 0.61595,0.203327 0.9271,0.277622 -0.18584,0.225213 -0.50757,0.240115 -0.69596,0.470112 -0.15578,0.190076 -0.12446,0.538776 -0.32639,0.675513 -0.26754,0.181483 -0.73998,0.200025 -1.05198,0.269324 -0.42079,0.09343 -0.81238,0.289222 -1.22767,0.38299 -0.5969,0.134916 -1.4406,-0.211582 -1.93929,0.248454 -0.39751,0.366438 -0.42545,1.078019 -0.65405,1.55194 -0.69172,1.433619 -2.07518,2.689183 -1.03462,4.318 0.12403,0.193802 0.15578,0.537083 0.37084,0.643298 0.7222,0.356997 1.20184,-0.190585 1.86012,-0.346964 -0.0402,0.319235 0.0995,0.506264 0.12023,0.804333 0.0263,0.378841 -0.24384,0.911902 0.002,1.257765 0.22225,0.312336 0.67691,0.464355 1.02065,0.591397 0.5605,0.207306 1.08839,0.383074 1.56253,0.765344 0.50588,0.407967 0.74252,1.281811 1.40081,1.5044 0.29252,0.09893 0.68537,0.01736 0.97366,-0.06159 0.1922,-0.05266 0.38143,-0.129117 0.55034,-0.235035 0.5698,-0.357124 1.38387,-1.178856 1.60274,-1.83261 0.17737,-0.53086 0.0347,-1.653455 0.64135,-1.945512 0.23029,-0.110829 0.42079,0.139572 0.59224,0.251459 0.20743,0.13534 0.44535,0.167894 0.63077,0.347218 0.17483,0.169715 0.20955,0.439251 0.37719,0.601642 0.25146,0.242824 0.71882,-0.106045 0.86106,-0.313775 0.14774,-0.216112 0.20531,-0.506434 0.24214,-0.761365 0.21336,-1.483317 -1.00922,-2.250609 -2.32283,-2.465747 -0.37253,-0.06105 -1.34662,0.03399 -1.56506,-0.337778 -0.0978,-0.166666 0.0165,-0.425026 0.0851,-0.583141 0.22437,-0.515197 0.71035,-0.855472 0.95335,-1.354667 0.14901,-0.30552 0.10922,-0.688848 0.18796,-1.016 0.48302,0.254466 0.84836,0.0096 1.31233,0.160867 0.1977,0.06452 0.27136,0.22987 0.43434,0.335491 0.29295,0.190119 0.82889,0.345906 1.17433,0.243925 1.62263,-0.479383 1.09897,-2.668905 0.20997,-3.530473 -0.77131,-0.747606 -1.92109,-0.87685 -2.91931,-1.062143 0.10033,-0.314452 0.36661,-0.547624 0.56515,-0.804333 0.40683,-0.525611 0.82762,-1.053254 1.29752,-1.524 0.56684,-0.567733 1.28228,-1.173692 1.38896,-2.032 0.0952,-0.764498 -0.42207,-1.046184 -0.96563,-1.466893 -0.32173,-0.249089 -0.65701,-0.626956 -1.05833,-0.737489 -0.87884,-0.242019 -2.04047,0.67509 -2.50105,1.357715 -0.18966,0.280755 -0.11176,0.614807 0.25738,0.699643 0.34714,0.0798 0.8581,-0.228092 0.98425,0.316357 0.0639,0.274913 -0.19981,0.653627 -0.3175,0.889 -0.33358,0.667173 -0.69469,1.319403 -1.16078,1.905 -0.15028,0.189188 -0.40428,0.53848 -0.64643,0.608076 -0.14647,0.04212 -0.16764,-0.124756 -0.19092,-0.227118 -0.0821,-0.365379 -0.29252,-0.69541 -0.36703,-1.058291 -0.12615,-0.612394 0.53848,-1.299549 0.70612,-1.862667 0.12531,-0.420836 0.0292,-0.742527 -0.44704,-0.760307 -0.53679,-0.02007 -0.88858,0.651934 -1.27,0.958681 -0.41233,0.331216 -0.93345,0.25201 -1.35424,0.508085 -0.39963,0.243459 -0.58463,0.72826 -1.01643,0.925787 -0.28744,0.131488 -0.69596,0.286766 -1.016,0.213741 -0.49106,-0.111971 -0.85301,-0.522097 -1.397,-0.600202 -0.50546,-0.07256 -1.06468,0.0776 -1.22597,0.616882 -0.33867,1.135168 0.96181,1.599522 1.44526,2.413 0.22733,0.383201 0.20278,0.918125 0.58674,1.200192 0.32258,0.237024 0.85386,0.279146 1.18364,0.05101 0.97494,-0.674624 0.61426,-1.763267 0.86868,-2.73287 0.0872,-0.333587 0.33486,-0.647361 0.57065,-0.889 M 93.931833,53.2975 c -0.22813,0.390821 -0.72305,-0.0072 -0.91169,0.465709 -0.48958,1.227539 -0.0103,2.665772 -0.34709,3.936957 -0.0756,0.285327 -0.18804,0.515197 -0.43459,0.692701 -0.18851,0.13572 -0.49255,0.188171 -0.59881,0.412411 -0.25882,0.546142 -0.19058,1.383961 -0.71793,1.794129 -0.32419,0.252137 -1.28024,0.406908 -1.64655,0.214714 -0.63521,-0.33329 -1.04534,-1.092284 -1.8197,-0.433027 -0.49712,0.423248 -0.2123,1.436962 -0.2123,2.018072 0,0.370163 0.0546,0.679577 -0.33867,0.846667 0,-0.402252 0.0584,-0.958512 -0.16912,-1.311572 -0.20663,-0.320632 -0.7819,-0.421597 -1.01752,-0.0831 -0.4672,0.671068 -0.21726,1.653032 -0.35129,2.410672 -0.10481,0.592582 -0.50152,1.146175 -0.6568,1.735666 -0.097,0.368046 -0.18923,0.857589 0.16459,1.121241 0.24092,0.179536 0.77445,0.157734 1.0014,-0.03878 0.23033,-0.199433 0.26124,-0.436288 0.60541,-0.447464 0,0.774277 -0.2361,1.407414 -0.51114,2.116667 -0.14037,0.361992 -0.26674,0.986832 -0.0962,1.354031 0.22428,0.483066 0.92537,0.417449 1.19118,0.04293 0.53577,-0.75493 0.67369,-1.668991 0.91579,-2.539957 0.23009,-0.827617 0.57045,-1.637369 0.84282,-2.455333 0.13805,-0.414528 0.17458,-0.860468 0.30971,-1.269831 0.0396,-0.1201 0.14948,-0.291211 0.30001,-0.262975 0.20219,0.03797 0.0315,0.409237 -6.7e-4,0.516806 -0.14978,0.499745 -0.36915,1.043601 -0.36915,1.566333 0,0.5403 0.14393,1.123146 -0.0317,1.651 -0.16501,0.495893 -0.69465,0.830961 -0.90221,1.312333 -0.0935,0.216958 -0.0397,0.529971 -0.0397,0.762 0,0.673312 0.003,1.830832 0.53501,2.343023 0.32305,0.311192 1.04708,0.01079 1.31555,-0.240284 0.52731,-0.492972 0.98222,-1.018667 1.57844,-1.437217 0.85738,-0.601895 1.8087,-0.890185 2.14427,-1.977855 0.1245,-0.403606 0.0447,-0.813774 -0.13788,-1.185333 -0.12763,-0.259758 -0.38819,-0.626026 -0.17911,-0.91766 0.24727,-0.34489 0.63098,0.584581 0.68009,0.748326 0.20315,0.677122 -0.0257,1.368849 -0.30019,1.989667 -0.23288,0.526796 -0.66743,1.043135 -0.78825,1.608666 -0.06,0.280755 0.0181,0.564727 0.0204,0.846667 0.65108,0.08767 1.21115,0.153247 1.72665,-0.357293 0.24646,-0.244052 0.51718,-1.250188 1.02332,-1.065446 0.16523,0.06028 0.25502,0.268732 0.34248,0.406739 0.24384,0.383667 0.42799,0.790617 0.65066,1.185333 0.3429,0.606722 0.71924,1.093597 1.2518,1.543643 0.13927,0.117771 0.24934,0.311997 0.42418,0.378164 0.26162,0.09872 0.64897,0.03226 0.93091,0.06786 0.14224,-0.381085 0.30522,-0.858859 0.19346,-1.27 -0.072,-0.26416 -0.35433,-0.503809 -0.51604,-0.719667 -0.31369,-0.418126 -0.58971,-0.879136 -0.8073,-1.354666 -0.1579,-0.344594 -0.34078,-0.735669 -0.43942,-1.100667 -0.0639,-0.235204 -0.0318,-0.499067 -0.14817,-0.719666 -0.17483,-0.331174 -0.63246,-0.563965 -0.72432,-0.931334 -0.10499,-0.418041 -0.0339,-0.889931 -0.0152,-1.312333 0.0334,-0.762339 0.0212,-1.578991 -0.12531,-2.328333 -0.0961,-0.491025 -0.26204,-1.05863 -0.67796,-1.379263 -0.77813,-0.600032 -0.86509,0.460164 -0.97304,0.913596 -0.46198,-0.352975 -0.66878,-0.804333 -0.79942,-1.354667 -0.0351,-0.147955 -0.14186,-0.373549 -0.0508,-0.516128 0.2587,-0.40513 1.05508,-0.491278 1.48522,-0.557064 0.43688,-0.06684 0.75735,0.574209 1.22767,0.598339 0.25188,0.01295 0.46736,-0.159427 0.63331,-0.330115 0.54737,-0.563541 0.43476,-1.380913 0.11768,-2.031365 -0.30945,-0.634619 -1.15231,-0.94471 -1.80932,-0.600075 -0.30705,0.161036 -0.49039,0.475615 -0.80434,0.628693 -0.28037,0.136694 -1.18211,0.587332 -1.31051,0.05541 -0.0616,-0.255143 0.20485,-0.55698 0.37982,-0.705104 0.50194,-0.425069 1.39217,-0.417322 1.79269,-0.947081 0.28778,-0.380831 0.57183,-1.245278 0.13749,-1.619589 -0.28634,-0.246634 -0.74405,-0.195072 -0.9329,-0.580559 -0.1358,-0.277114 -0.005,-0.595249 -0.0282,-0.888365 -0.0552,-0.686097 -0.54453,-0.988653 -1.1814,-1.016 m -5.08,2.140288 c -0.87045,0.100669 -0.48154,0.881465 -0.79341,1.372743 -0.2043,0.321861 -0.6565,0.278088 -0.85395,0.560494 -0.24553,0.35107 -0.23418,1.331171 0.17031,1.570185 0.46757,0.27631 1.05838,0.196469 1.51939,0.49331 0.3476,0.223817 0.58356,1.011555 1.01604,0.966978 0.74083,-0.07637 1.0265,-0.745532 1.11845,-1.388998 0.14389,-1.00728 -0.35861,-2.681648 -1.24549,-3.225335 -0.26382,-0.161713 -0.60588,-0.387011 -0.93134,-0.349377 m -22.394327,2.806658 c -0.35314,0.141266 -0.63195,0.48387 -0.97367,0.662559 -0.50969,0.266531 -1.21949,0.415671 -1.778,0.564599 -0.76267,0.20337 -1.83468,0.125265 -2.44077,0.712724 -0.2587,0.250741 -0.19867,0.879179 0.072,1.096434 0.35763,0.287104 1.11307,0.253026 0.70815,0.949071 -0.43455,0.746887 -1.318,0.908007 -1.93764,1.411393 -0.51278,0.416602 -0.78426,1.08276 -1.312424,1.487085 -0.24189,0.185166 -0.55858,0.184447 -0.80259,0.349674 -0.46938,0.317754 -0.71064,1.175046 -0.52123,1.704848 0.0961,0.268689 0.36631,0.481753 0.56187,0.677333 0.4925,0.492548 1.20027,0.975825 1.519764,1.608666 0.33321,0.659892 0.41639,1.433153 0.8001,2.074334 0.16421,0.274362 0.30785,0.547412 0.64347,0.622723 0.79028,0.177292 1.31445,-0.190415 1.26606,-1.046057 -0.0141,-0.249004 -0.11057,-1.041273 0.34265,-0.982726 0.7841,0.101219 1.48497,0.959358 2.03577,1.432349 0.22157,0.19033 0.51244,0.257132 0.74024,0.434636 0.479,0.373295 1.31386,0.762085 1.92295,0.473795 0.36982,-0.175049 0.59918,-0.572728 0.93133,-0.805858 0.22361,-0.156929 0.48908,-0.22352 0.71967,-0.369951 0.59546,-0.378121 1.15921,-0.823002 1.69333,-1.282911 0.33283,-0.286597 0.72077,-0.549572 1.00207,-0.889043 0.32555,-0.392811 0.50961,-0.863642 0.90357,-1.209505 0.65206,-0.572474 1.61184,-0.772075 1.79717,-1.753785 0.0502,-0.26615 -0.0695,-0.593895 -0.14787,-0.846667 -0.32402,-1.045633 -1.26149,-1.774867 -2.28494,-2.112857 -0.35348,-0.116755 -0.76979,0.0019 -1.10067,-0.148463 -0.52324,-0.237871 -0.78989,-0.829013 -1.27063,-1.075436 -0.26569,-0.136186 -0.80764,-0.07197 -1.10003,-0.04267 -0.5983,0.05986 -1.12328,0.343789 -1.5113,0.797095 -0.21912,0.255989 -0.38287,0.661331 -0.69067,0.822282 -0.26653,0.139362 -0.4285,-0.108458 -0.6767,-0.147108 -0.18533,-0.02887 -0.39179,0.07929 -0.55033,0.162391 -0.56105,0.294005 -1.25481,1.463124 -1.68838,0.390101 -0.20824,-0.515408 0.88866,-0.989076 1.22271,-1.153329 1.12687,-0.554016 2.3274,-0.93273 3.429,-1.502749 0.39273,-0.2032 0.95373,-0.364405 1.12594,-0.815255 0.19723,-0.516255 -0.15282,-0.80645 -0.49094,-1.142958 -0.5497,-0.547031 -1.26268,-1.465283 -2.159,-1.106762 m 46.735994,0.872532 c -0.51731,0.09779 -0.71628,0.554524 -0.61299,1.038521 0.16807,0.787993 0.93261,1.401996 0.56515,2.286 -0.1778,0.426593 -0.81534,0.760011 -1.26449,0.794851 -0.50758,0.03937 -1.15697,-0.121412 -1.40166,0.517483 -0.26331,0.688382 0.28363,1.689862 0.80899,2.094272 0.19727,0.151723 0.76539,0.219625 0.79629,0.489924 0.0461,0.403182 -0.32681,0.943398 -0.52874,1.268137 -0.60537,0.971338 -1.39573,1.802003 -2.01592,2.751666 -0.24214,0.370798 -0.55753,1.352466 0.22437,1.303317 0.64728,-0.04068 1.33308,-0.588688 1.86267,-0.9202 0.52578,-0.329015 1.14469,-0.540173 1.651,-0.882057 0.66336,-0.448014 1.20734,-1.138132 1.66285,-1.787059 0.33486,-0.476928 0.63712,-0.975911 0.92583,-1.481667 0.16849,-0.294979 0.31538,-0.651171 0.58716,-0.866606 0.88181,-0.700193 3.25036,-0.522605 3.16527,-2.181394 -0.0516,-1.010412 -0.90932,-1.708997 -1.85378,-1.878923 -0.33613,-0.06049 -0.85175,0.08183 -1.12522,-0.174794 -0.17484,-0.16383 -0.20955,-0.520488 -0.28617,-0.740283 -0.15367,-0.437557 -0.36407,-0.902377 -0.65278,-1.26818 -0.35645,-0.451442 -1.03505,-0.309964 -1.53416,-0.328802 -0.32724,-0.0124 -0.64305,-0.09669 -0.97367,-0.03421 m 29.591,2.350855 -0.55033,1.016 c -0.20786,-0.09517 -0.36957,-0.259334 -0.59267,-0.329311 -0.35814,-0.112311 -0.86529,0.0011 -1.05833,-0.390356 0.71458,-0.316696 1.44399,-0.587968 2.20133,-0.296333 m -8.21267,5.926666 c 0,-0.687578 -0.0808,-1.44327 0.0804,-2.116666 0.30014,-1.254125 1.44737,-2.135886 2.6289,-2.539873 0.41359,-0.141436 0.84201,-0.281263 1.27,-0.372195 0.11726,-0.02493 0.33316,-0.09724 0.43815,-0.0079 0.18796,0.159639 -0.25316,0.382439 -0.35349,0.427948 -0.57107,0.258741 -1.31868,0.266573 -1.38938,1.05266 -0.0652,0.724281 1.42918,0.273093 1.60571,0.975318 0.0432,0.1709 -0.15494,0.497671 -0.20066,0.675682 -0.2811,1.091269 -1.25561,1.565106 -2.344,1.59766 -0.37677,0.01126 -0.71797,-0.154262 -1.10067,-0.06841 -0.26119,0.05859 -0.41021,0.257894 -0.635,0.37575 M 90.926893,63.60301 c 0.69207,-0.186901 0.72098,0.649055 0.0841,0.802132 -0.46444,0.111633 -0.44929,-0.703537 -0.0841,-0.802132 m -20.532297,1.518158 c 0.63343,-0.09131 1.14507,0.38934 0.77766,1.0033 -0.51181,0.855303 -1.39759,1.552321 -2.13233,2.208361 -0.24917,0.222461 -0.61125,0.6165 -0.97349,0.62103 -0.54945,0.0069 -0.2104,-0.82169 -0.0616,-1.051391 0.14673,-0.226568 0.36301,-0.397679 0.49331,-0.635 0.46609,-0.849037 0.7612,-1.982639 1.89649,-2.1463 m -3.89467,0.295783 c 0.80023,-0.09436 0.65033,0.727626 0.45703,1.215517 -0.22978,0.580052 -0.65883,1.438445 -1.14173,1.844929 -0.14393,0.1212 -0.3376,0.139785 -0.50063,0.225679 -0.16861,0.08886 -0.35306,0.299043 -0.55033,0.307679 -0.41093,0.01799 -1.12158,-0.666708 -0.80484,-1.089914 0.10105,-0.135001 0.29091,-0.100499 0.37558,0.03023 0.16861,0.26035 0.27847,0.7631 0.72178,0.497798 0.50927,-0.304758 0.68381,-0.955675 0.93497,-1.434762 0.12235,-0.233383 0.38329,-0.376512 0.22653,-0.671703 -0.167,-0.314494 -0.89988,0.09605 -0.80916,-0.427947 0.0654,-0.377783 0.78456,-0.461391 1.0908,-0.497502 m -5.50333,0.340911 c 0.71188,-0.07374 1.33126,0.91931 0.81051,1.491234 -0.12742,0.139954 -0.46101,0.157056 -0.64118,0.174794 -1.01858,0.100415 -1.29108,-1.549823 -0.16933,-1.666028 m 30.310667,0.40894 c 0.0858,0.351917 -0.20104,0.696214 -0.55034,0.719666 0.003,-0.387477 0.16231,-0.626364 0.55034,-0.719666 m 25.696327,1.120351 c -0.44365,0.08001 -0.86868,0.411269 -0.73829,0.911649 0.0847,0.325839 0.38735,0.555074 0.59182,0.804333 0.38777,0.473202 0.84793,0.999659 1.15866,1.524 0.21675,0.366225 0.16764,0.928497 0.47202,1.219835 0.24934,0.238506 0.82931,0.556133 1.18279,0.501904 1.52442,-0.233892 1.90119,-2.075773 1.25688,-3.245739 -0.53764,-0.975614 -1.64381,-1.349333 -2.65388,-1.581108 -0.4136,-0.09495 -0.84286,-0.211963 -1.27,-0.134874 m -25.230667,0.784649 c -0.0776,0.690456 -0.76123,0.01842 0,0 m 47.201667,0.520318 c 0.53086,-0.05605 0.33528,0.937853 -0.16933,0.985817 -0.25866,0.0246 -1.07993,-0.337397 -0.88604,-0.689991 0.12869,-0.23385 0.81449,-0.270426 1.05537,-0.295826 M 64.298636,78.600698 c -0.91177,0.01973 -0.85492,1.36 0.0423,1.35238 0.86496,-0.0076 0.85171,-1.371684 -0.0423,-1.35238 m 2.11667,0.68944 0.0423,0.254 c 0.20735,-0.01651 0.47951,-0.136313 0.67551,-0.03471 0.2217,0.115147 0.27843,0.400473 0.29435,0.62738 0.0376,0.535517 0.0461,1.071033 0.0461,1.608667 v 4.191 c 0,0.367876 -0.19359,1.255183 0.0266,1.552363 0.19401,0.26205 0.69075,0.44535 0.98941,0.54991 1.16857,0.4081 2.3346,0.18881 3.25802,-0.63881 1.14143,-1.022773 1.34692,-2.95529 0.70777,-4.299797 -0.74554,-1.56845 -2.99826,-1.8161 -3.83879,-0.169333 h -0.0423 v -4.318 c -0.66912,-0.09542 -1.54212,0.43942 -2.159,0.677333 m 40.639994,-0.699685 c -0.88816,0.159893 -0.63289,1.498939 0.254,1.355005 0.86698,-0.140546 0.61595,-1.511638 -0.254,-1.355005 m 28.194,4.23e-4 c -0.91271,0.14986 -0.6422,1.531112 0.254,1.362202 0.85344,-0.160866 0.61383,-1.504696 -0.254,-1.362202 m -81.110672,0.445262 -0.08467,2.074334 0.296333,0.04233 c 0.0087,-0.2032 0.0486,-0.399627 0.113216,-0.592667 0.401634,-1.199303 1.759005,-0.973666 2.765455,-0.973666 0,2.44983 0.21508,5.015653 -0.0497,7.450666 -0.0431,0.396663 -0.31244,0.70061 -0.71232,0.75522 -0.10665,0.0144 -0.570387,0.001 -0.542891,0.17611 0.03497,0.22225 0.718791,0.12742 0.881551,0.127 h 2.28601 c 0.269164,0 0.649994,0.0969 0.677334,-0.254 -0.42286,-0.003 -0.986244,-0.0216 -1.186604,-0.465663 -0.30425,-0.67437 -0.12573,-1.6891 -0.12573,-2.413 v -5.376333 c 0.958514,0 2.269704,-0.22479 2.755734,0.846666 0.10135,0.22352 0.13462,0.478367 0.16527,0.719667 h 0.254 l -0.0847,-2.116667 h -7.408342 m 33.782009,0 c 0.0546,0.326814 0.51181,0.204894 0.762,0.289984 0.34239,0.116416 0.48412,0.436456 0.53222,0.76835 0.22716,1.568026 -0.0518,3.242733 0.0567,4.826 0.0385,0.562186 0.0245,1.12014 0.25239,1.651 0.94742,2.207256 4.83904,2.316476 6.18913,0.465666 0.50999,-0.698923 0.54725,-1.66624 0.54725,-2.497666 v -3.175 c 0,-0.709507 -0.14097,-1.791547 0.71966,-2.055707 0.19558,-0.06011 0.39032,-0.06096 0.59267,-0.06096 v -0.211667 h -3.21733 v 0.211667 c 0.35285,8.47e-4 0.78295,0.0059 1.05376,0.26289 0.24312,0.230717 0.25806,0.607907 0.25857,0.922443 v 1.862667 c 0,1.855047 0.4898,4.590626 -1.82033,5.24256 -0.36517,0.103293 -0.72267,0.138006 -1.10067,0.133773 -2.50778,-0.03006 -2.24367,-3.027256 -2.24367,-4.783666 v -1.143 c 0,-0.64516 -0.18813,-1.902037 0.42715,-2.32283 0.24934,-0.17018 0.59432,-0.174837 0.88519,-0.174837 v -0.211667 h -3.89467 m -7.83167,3.344334 0.97367,0.04233 v 3.302 c 0,0.561763 -0.0613,1.296246 0.16789,1.820333 0.59072,1.350853 2.33393,0.374653 2.58378,-0.677333 -0.46702,0.0055 -0.65117,0.681566 -1.18529,0.476673 -0.47888,-0.183727 -0.42338,-0.828886 -0.42338,-1.238673 v -3.683 h 1.43933 v -0.465667 h -1.05833 c -0.12471,-4.23e-4 -0.29976,0.02201 -0.37981,-0.09821 -0.19135,-0.286597 -10e-4,-1.082463 -10e-4,-1.425787 0,-0.125306 0.0458,-0.386503 -0.0672,-0.47625 -0.1784,-0.141393 -0.33012,0.37592 -0.3741,0.47625 -0.20562,0.46863 -0.52727,0.921597 -0.91335,1.257724 -0.25069,0.21844 -0.65396,0.362796 -0.762,0.68961 m 57.530997,0.04233 h 0.97367 c 0.0258,1.127337 0,2.258907 0,3.386667 0,0.54991 -0.0758,1.222586 0.16087,1.735666 0.57361,1.244173 2.42951,0.484713 2.54846,-0.677333 -0.4627,0.03471 -0.71797,0.77851 -1.26619,0.42291 -0.30776,-0.199814 -0.31623,-0.64516 -0.33866,-0.973243 -0.0614,-0.894504 -0.004,-1.812714 -0.004,-2.709334 0,-0.251036 -0.11854,-0.93091 0.0677,-1.1176 0.21421,-0.213783 1.07738,-0.06773 1.3716,-0.06773 v -0.465667 l -1.43933,-0.04233 c 0.12573,-0.457623 0.0428,-1.08458 0.0423,-1.566333 0,-0.117264 0.0288,-0.480907 -0.196,-0.395394 -0.14605,0.05588 -0.20024,0.309034 -0.25273,0.437727 -0.13843,0.33782 -0.33401,0.656167 -0.57404,0.931333 -0.26797,0.306917 -1.06384,0.70993 -1.0939,1.100667 m -9.18633,3.556 v 1.608666 c 0,0.132084 -0.0584,0.459744 0.0677,0.547374 0.1342,0.0931 0.49403,-0.13123 0.69427,-0.0864 1.31614,0.29337 3.14664,0.31835 3.37439,-1.43468 0.20574,-1.582843 -1.57184,-1.974427 -2.61239,-2.608157 -0.46694,-0.28448 -1.00626,-0.865293 -0.57616,-1.41351 0.61299,-0.77978 1.74668,-0.3683 2.16324,0.381 0.16552,0.298027 0.17272,0.85852 0.57192,0.889 v -2.074333 c -0.24934,-0.0127 -0.34502,0.198967 -0.57489,0.215053 -0.35094,0.02455 -0.71501,-0.20574 -1.07611,-0.21463 -0.44408,-0.01058 -0.88265,0.01228 -1.27,0.25908 -0.7946,0.507154 -1.0994,1.784774 -0.45678,2.534497 0.70062,0.817033 2.00872,0.888153 2.64541,1.778 0.38608,0.540173 0.0974,1.26746 -0.53763,1.4423 -0.72348,0.19939 -1.50622,-0.32089 -1.84785,-0.9343 -0.16171,-0.289983 -0.17865,-0.858943 -0.56515,-0.889 M 62.816836,82.761435 c 0.28592,-0.09102 0.6146,-0.18542 0.80053,0.127846 0.18643,0.314114 0.13081,0.792057 0.13081,1.142154 v 2.328333 c 0,0.419523 0.0945,0.989753 -0.25845,1.30048 -0.14304,0.12616 -0.58543,0.07874 -0.64274,0.23622 -0.0969,0.26628 0.43692,0.19897 0.56252,0.19897 h 1.73567 c 0.14279,0 0.49318,0.0631 0.59067,-0.0677 0.0657,-0.0881 0.003,-0.18754 -0.0889,-0.21506 -0.53983,-0.161714 -0.75112,-0.27305 -0.79426,-0.902547 -0.11586,-1.69037 -0.004,-3.42773 -0.004,-5.122333 -0.55702,4.23e-4 -1.09745,0.295063 -1.60866,0.499533 -0.24681,0.09864 -0.56807,0.154517 -0.42334,0.474134 m 16.213667,2.921 c -0.40695,1.412663 -1.945,1.885949 -3.047357,0.918633 -0.68348,-0.599863 -0.88964,-1.488017 -0.88964,-2.357967 h 4.190997 c -10e-4,-2.0447 -2.25057,-3.213523 -3.936997,-2.00025 -2.10769,1.515957 -1.54284,5.954187 1.396997,6.021497 0.96596,0.022 1.73634,-0.574044 2.18813,-1.39658 0.16548,-0.301413 0.57459,-1.017693 0.0979,-1.185333 m 25.738667,2.413003 0.0423,-0.254 c -0.34417,-0.1016 -0.6803,-0.0224 -0.86148,-0.423337 -0.16595,-0.3683 -0.0699,-0.916516 -0.0699,-1.312333 0,-1.006687 0.16171,-2.20091 -0.1287,-3.175 -0.24299,-0.814493 -0.92625,-1.276773 -1.7763,-1.123527 -0.25146,0.0453 -0.50165,0.156634 -0.71967,0.287867 -0.38481,0.230717 -0.66421,0.562187 -0.97367,0.877993 v -1.185333 c -0.580807,4.23e-4 -1.119287,0.28702 -1.650997,0.499533 -0.12911,0.05165 -0.48133,0.124884 -0.47625,0.306917 0.007,0.24511 0.34925,0.08763 0.47625,0.08128 0.19855,-0.0097 0.3501,0.118957 0.42291,0.297603 0.25358,0.621877 0.0851,1.581997 0.0851,2.243667 0,0.61976 0.24046,1.923626 -0.22098,2.407496 -0.17526,0.182884 -0.37084,0.115994 -0.57361,0.212514 -0.11303,0.0542 -0.12319,0.1795 -0.003,0.23326 0.18034,0.08 0.47625,0.0254 0.67056,0.0254 h 1.566337 c 0.14478,0 0.63119,0.0796 0.65743,-0.13081 0.0296,-0.23368 -0.39962,-0.15198 -0.53043,-0.19304 -0.24342,-0.07662 -0.37296,-0.284484 -0.4191,-0.52282 -0.16891,-0.865717 -0.004,-1.829647 -0.004,-2.709333 0,-0.309034 -0.0974,-0.82042 0.0436,-1.100667 0.25611,-0.509693 1.09728,-0.908897 1.64973,-0.838623 0.46905,0.05927 0.66336,0.51181 0.73617,0.92329 0.15748,0.891116 0.0682,1.849543 0.0682,2.751666 0,0.38608 0.0614,0.879687 -0.14266,1.22682 -0.15029,0.256967 -0.83101,0.248077 -0.85344,0.427997 -0.0313,0.24849 0.51646,0.16552 0.65743,0.16552 h 2.32834 m 0.80433,-5.588003 0.0847,0.254 c 0.24722,-0.05122 0.58123,-0.179494 0.77681,0.05207 0.23072,0.27305 0.19685,0.8382 0.19685,1.175596 0,1.027854 0.20363,2.305474 -0.0571,3.302 -0.12996,0.496577 -0.42883,0.36195 -0.77597,0.533407 -0.0749,0.0373 -0.10625,0.13292 -0.0538,0.2032 0.0965,0.12954 0.4191,0.0626 0.56049,0.0622 0.55923,-0.001 1.12184,0.005 1.68106,0.005 0.1397,4.2e-4 0.58843,0.0715 0.6151,-0.1342 0.0271,-0.20785 -0.36703,-0.16256 -0.4881,-0.22394 -0.25358,-0.128697 -0.34713,-0.391164 -0.3738,-0.657864 -0.17315,-1.726776 -0.007,-3.555576 -0.007,-5.291666 -0.70739,0.0021 -1.52485,0.42291 -2.159,0.719667 m 16.34067,3.175 c -0.16045,0.338666 -0.29888,0.69088 -0.56304,0.96647 -0.91736,0.956309 -2.32198,0.388619 -2.94682,-0.58547 -0.35856,-0.5588 -0.41868,-1.176444 -0.46948,-1.820334 h 4.23334 c -0.10245,-0.550756 -0.11049,-1.038013 -0.43858,-1.524 -0.89789,-1.330113 -2.94851,-1.175173 -3.96028,-0.08467 -1.40504,1.514686 -1.03632,5.219697 1.35086,5.575297 1.04055,0.15494 1.93886,-0.19643 2.53619,-1.087964 0.20362,-0.303954 0.7675,-1.227243 0.25781,-1.439333 m 1.016,-3.175 0.0847,0.254 c 0.29591,-0.07832 0.64474,-0.188384 0.84625,0.128693 0.18076,0.284903 0.12742,0.7747 0.12742,1.098973 v 2.413 c 0,0.346287 0.0703,0.792057 -0.12742,1.098973 -0.1977,0.306918 -0.56642,0.298028 -0.88858,0.298028 0.004,0.11557 -0.001,0.24468 0.13335,0.28278 0.26458,0.0745 0.6913,-0.008 0.96732,-0.025 0.44111,-0.0284 0.87418,0.0377 1.31233,0.0385 0.15833,4.2e-4 0.69808,0.0859 0.76835,-0.0974 0.0326,-0.0855 -0.0203,-0.16044 -0.10075,-0.18542 -0.40344,-0.126994 -0.73576,-0.124031 -0.8962,-0.606208 -0.127,-0.381 -0.0677,-0.831849 -0.0677,-1.227666 0,-0.687917 -0.0377,-1.387687 0.002,-2.074333 0.019,-0.32893 0.53552,-1.24968 0.92964,-1.188297 0.44492,0.06943 1.16078,0.917363 1.4478,0.003 0.20828,-0.664633 -0.50842,-1.030393 -1.0668,-0.90932 -0.58589,0.127 -1.03039,0.73533 -1.27,1.247987 h -0.0423 v -1.27 c -0.72433,0.0021 -1.49268,0.46101 -2.159,0.719667 m 10.83733,0 0.0847,0.254 c 0.2777,-0.0635 0.60494,-0.208704 0.80391,0.08932 0.20108,0.30099 0.12742,0.795867 0.12742,1.138343 v 2.328334 c 0,0.343746 0.069,0.777239 -0.0694,1.100666 -0.15621,0.364497 -0.47244,0.381007 -0.81957,0.381007 0.0131,0.40301 0.41148,0.29633 0.71967,0.29633 h 2.20133 v -0.29633 c -0.90847,0 -0.89747,-0.70655 -0.92964,-1.43934 -0.0665,-1.51765 -0.002,-3.052657 -0.002,-4.572 -0.68665,0.0059 -1.50072,0.4318 -2.11667,0.719667 m -24.34167,-0.550334 c 0.025,0.323004 0.28025,0.262467 0.508,0.404707 0.2176,0.136313 0.36449,0.340783 0.47498,0.56896 0.63458,1.311487 1.15951,2.711027 1.70096,4.064 0.14562,0.364066 0.27135,0.80137 0.47244,1.13665 0.0792,0.13251 0.25696,0.17103 0.37846,0.0656 0.27178,-0.2358 0.41317,-0.911864 0.5461,-1.244604 0.44704,-1.117599 0.89662,-2.234776 1.36228,-3.344333 0.28152,-0.670983 0.42037,-1.20269 1.16078,-1.439333 l -0.0423,-0.211667 h -1.98967 c 0.033,0.421217 0.63881,0.13589 0.6985,0.592667 0.0436,0.33655 -0.27093,0.836507 -0.3937,1.143 -0.36703,0.917363 -0.84878,1.84023 -1.10913,2.794 h -0.0847 c -0.24341,-0.889423 -0.71416,-1.775883 -1.07611,-2.624667 -0.15325,-0.358986 -0.44069,-0.826346 -0.4009,-1.227666 0.0478,-0.479637 0.65024,-0.28575 0.71501,-0.677334 h -2.921 m 32.21567,0.04233 c 0.0771,0.278976 0.30438,0.239606 0.50631,0.39878 0.19896,0.156633 0.35348,0.403013 0.48387,0.61722 0.64304,1.05664 1.09728,2.268643 1.62517,3.386666 0.18712,0.39624 0.63797,1.0033 0.65617,1.439331 0.008,0.18119 -0.1143,0.38693 -0.18161,0.55033 -0.19008,0.46101 -0.34671,1.02151 -0.76158,1.33689 -0.48471,0.3683 -1.09685,-0.29083 -1.65015,-0.005 -0.51562,0.26585 -0.28956,0.96393 0.12615,1.19041 0.83778,0.45636 1.80806,-0.3937 2.22928,-1.04055 0.41317,-0.635 0.64008,-1.41605 0.92032,-2.11667 0.53637,-1.340691 1.05199,-2.695357 1.62222,-4.021661 0.18542,-0.431376 0.30437,-0.971973 0.65066,-1.307676 0.0953,-0.09229 0.52409,-0.211667 0.47244,-0.37465 -0.047,-0.148167 -0.3611,-0.09567 -0.47625,-0.09567 h -1.48167 v 0.254 c 0.69893,0.0059 0.61722,0.507577 0.4208,1.016 -0.4009,1.03759 -0.76031,2.209377 -1.3098,3.175 -0.35348,-0.848783 -0.78443,-1.67513 -1.19591,-2.497666 -0.16891,-0.338244 -0.50038,-0.837777 -0.48091,-1.227667 0.0258,-0.52832 0.71332,-0.301413 0.74549,-0.719667 h -1.905 l -1.016,0.04233 m -63.753997,1.862666 h -2.793997 c 0.0572,-1.312333 1.809537,-2.326216 2.602097,-0.931333 0.15304,0.26924 0.18936,0.626957 0.1919,0.931333 m 42.883667,0 h -2.794 c 0.0233,-1.116753 1.29116,-2.13995 2.28557,-1.298363 0.40217,0.340783 0.44662,0.809413 0.50843,1.298363 M 69.632956,82.774911 c 0.78977,-0.13208 1.4627,0.324696 1.77622,1.044363 0.53116,1.219623 0.31522,3.66522 -1.31055,3.918374 -0.46415,0.0724 -1.39307,-0.248498 -1.54208,-0.745068 -0.18373,-0.612139 0.0181,-1.514686 0.0181,-2.157306 0,-0.380577 -0.13814,-1.097703 0.0435,-1.435523 0.16306,-0.30353 0.68584,-0.57023 1.01481,-0.62484 z"
       id="path323"
       sodipodi:nodetypes="cccccccccccccccccccccsccscccccccccsccscccccccscccccccscscccccscccsccccccccccccccccccccsccccccccsccccccccscccccccccccccccccccccccccccsccsccccsccccccccccccccccccscccccccccccccccccccccccccscccsccccccscsccccccccccccsccccccccccccccccccccccccccccccccccccccccsscccccscccccscccccccccccccccccccccscccccccccccccccccccsccccccccccccccccccccccccccccccccccccccccccccccccccccsccccccccscsccccccccssccccscsccccscscccccccsccsccsccsccccccccccccccccccccccccccccccccccccccccsccccccssccccccscccccccccccccccccscsccccccccccccsccscssccccccccccccccccccccscccccssccsccccccccccccscccscsccccccccccccccccccccscccccccccssccccccccccccsccccccccccsccsccccccccccccsscccccscsccssccccccscccscccccsccccccsccccsccccccccccsccccccccsccccccccssscssscccccccccccccccccscccccccccscccsscccscccsccsccccscccccccccccccccccccccccssccccccccscccccccccccssccsccccccccccccccccccccccccccccccccccccccscccccccccccccccccccccscc" /></g></svg>
