<?xml version="1.0" encoding="UTF-8" standalone="no"?>
<!-- Created with Inkscape (http://www.inkscape.org/) -->

<svg
   width="94.29158mm"
   height="38.718525mm"
   viewBox="0 0 94.29158 38.718525"
   version="1.1"
   id="svg2532"
   inkscape:version="1.2.2 (b0a8486541, 2022-12-01)"
   sodipodi:docname="name_zh_en.svg"
   xmlns:inkscape="http://www.inkscape.org/namespaces/inkscape"
   xmlns:sodipodi="http://sodipodi.sourceforge.net/DTD/sodipodi-0.dtd"
   xmlns="http://www.w3.org/2000/svg"
   xmlns:svg="http://www.w3.org/2000/svg">
  <sodipodi:namedview
     id="namedview2534"
     pagecolor="#ffffff"
     bordercolor="#666666"
     borderopacity="1.0"
     inkscape:showpageshadow="2"
     inkscape:pageopacity="0.0"
     inkscape:pagecheckerboard="0"
     inkscape:deskcolor="#d1d1d1"
     inkscape:document-units="mm"
     showgrid="false"
     inkscape:zoom="191.56902"
     inkscape:cx="47.296269"
     inkscape:cy="76.053528"
     inkscape:window-width="1920"
     inkscape:window-height="1039"
     inkscape:window-x="0"
     inkscape:window-y="0"
     inkscape:window-maximized="1"
     inkscape:current-layer="layer1" />
  <defs
     id="defs2529" />
  <g
     inkscape:label="Layer 1"
     inkscape:groupmode="layer"
     id="layer1"
     transform="translate(-53.975638,-58.780024)">
    <path
       style="fill:#bd8b35;stroke:none;stroke-width:0.0423333"
       d="m 137.54168,63.3524 c 0.17145,0.44522 0.28618,0.97163 0.40302,1.43933 0.066,0.26251 0.0978,0.55508 0.32088,0.73838 0.26162,0.21463 0.61595,0.20333 0.9271,0.27762 -0.18584,0.22521 -0.50757,0.24012 -0.69596,0.47011 -0.15578,0.19008 -0.12446,0.53878 -0.32639,0.67552 -0.26754,0.18148 -0.73998,0.20002 -1.05198,0.26932 -0.42079,0.0934 -0.81238,0.28922 -1.22767,0.38299 -0.5969,0.13492 -1.4406,-0.21158 -1.93929,0.24845 -0.39751,0.36644 -0.42545,1.07802 -0.65405,1.55194 -0.69172,1.43362 -2.07518,2.68919 -1.03462,4.318 0.12403,0.19381 0.15578,0.53709 0.37084,0.6433 0.7222,0.357 1.20184,-0.19058 1.86012,-0.34696 -0.0402,0.31923 0.0995,0.50626 0.12023,0.80433 0.0263,0.37884 -0.24384,0.9119 0.002,1.25777 0.22225,0.31233 0.67691,0.46435 1.02065,0.59139 0.5605,0.20731 1.08839,0.38308 1.56253,0.76535 0.50588,0.40796 0.74252,1.28181 1.40081,1.5044 0.29252,0.0989 0.68537,0.0174 0.97366,-0.0616 0.1922,-0.0527 0.38143,-0.12912 0.55034,-0.23504 0.5698,-0.35712 1.38387,-1.17885 1.60274,-1.83261 0.17737,-0.53086 0.0347,-1.65345 0.64135,-1.94551 0.23029,-0.11083 0.42079,0.13957 0.59224,0.25146 0.20743,0.13534 0.44535,0.16789 0.63077,0.34722 0.17483,0.16971 0.20955,0.43925 0.37719,0.60164 0.25146,0.24282 0.71882,-0.10605 0.86106,-0.31378 0.14774,-0.21611 0.20531,-0.50643 0.24214,-0.76136 0.21336,-1.48332 -1.00922,-2.25061 -2.32283,-2.46575 -0.37253,-0.0611 -1.34662,0.034 -1.56506,-0.33778 -0.0978,-0.16666 0.0165,-0.42502 0.0851,-0.58314 0.22437,-0.51519 0.71035,-0.85547 0.95335,-1.35466 0.14901,-0.30552 0.10922,-0.68885 0.18796,-1.016 0.48302,0.25446 0.84836,0.01 1.31233,0.16086 0.1977,0.0645 0.27136,0.22987 0.43434,0.33549 0.29295,0.19012 0.82889,0.34591 1.17433,0.24393 1.62263,-0.47938 1.09897,-2.66891 0.20997,-3.53047 -0.77131,-0.74761 -1.92109,-0.87685 -2.91931,-1.06215 0.10033,-0.31445 0.36661,-0.54762 0.56515,-0.80433 0.40683,-0.52561 0.82762,-1.05325 1.29752,-1.524 0.56684,-0.56773 1.28228,-1.17369 1.38896,-2.032 0.0952,-0.76449 -0.42207,-1.04618 -0.96563,-1.46689 -0.32173,-0.24909 -0.65701,-0.62696 -1.05833,-0.73749 -0.87884,-0.24202 -2.04047,0.67509 -2.50105,1.35772 -0.18966,0.28075 -0.11176,0.6148 0.25738,0.69964 0.34714,0.0798 0.8581,-0.22809 0.98425,0.31635 0.0639,0.27492 -0.19981,0.65363 -0.3175,0.889 -0.33358,0.66718 -0.69469,1.31941 -1.16078,1.905 -0.15028,0.18919 -0.40428,0.53848 -0.64643,0.60808 -0.14647,0.0421 -0.16764,-0.12476 -0.19092,-0.22712 -0.0821,-0.36538 -0.29252,-0.69541 -0.36703,-1.05829 -0.12615,-0.61239 0.53848,-1.29955 0.70612,-1.86267 0.12531,-0.42083 0.0292,-0.74252 -0.44704,-0.7603 -0.53679,-0.0201 -0.88858,0.65193 -1.27,0.95868 -0.41233,0.33121 -0.93345,0.25201 -1.35424,0.50808 -0.39963,0.24346 -0.58463,0.72826 -1.01643,0.92579 -0.28744,0.13149 -0.69596,0.28677 -1.016,0.21374 -0.49106,-0.11197 -0.85301,-0.5221 -1.397,-0.6002 -0.50546,-0.0726 -1.06468,0.0776 -1.22597,0.61688 -0.33867,1.13517 0.96181,1.59952 1.44526,2.413 0.22733,0.3832 0.20278,0.91813 0.58674,1.20019 0.32258,0.23703 0.85386,0.27915 1.18364,0.051 0.97494,-0.67462 0.61426,-1.76326 0.86868,-2.73287 0.0872,-0.33358 0.33486,-0.64736 0.57065,-0.889 M 93.853568,59.75405 c -0.22813,0.39082 -0.72305,-0.007 -0.91169,0.46571 -0.48958,1.22754 -0.0103,2.66577 -0.34709,3.93695 -0.0756,0.28533 -0.18804,0.5152 -0.43459,0.69271 -0.18851,0.13572 -0.49255,0.18817 -0.59881,0.41241 -0.25882,0.54614 -0.19058,1.38396 -0.71793,1.79413 -0.32419,0.25213 -1.28024,0.4069 -1.64655,0.21471 -0.63521,-0.33329 -1.04534,-1.09228 -1.8197,-0.43303 -0.49712,0.42325 -0.2123,1.43696 -0.2123,2.01807 0,0.37017 0.0546,0.67958 -0.33867,0.84667 0,-0.40225 0.0584,-0.95851 -0.16912,-1.31157 -0.20663,-0.32063 -0.7819,-0.4216 -1.01752,-0.0831 -0.4672,0.67107 -0.21726,1.65303 -0.35129,2.41067 -0.10481,0.59258 -0.50152,1.14618 -0.6568,1.73567 -0.097,0.36804 -0.18923,0.85759 0.16459,1.12124 0.24092,0.17953 0.77445,0.15773 1.0014,-0.0388 0.23033,-0.19943 0.26124,-0.43629 0.60541,-0.44747 0,0.77428 -0.2361,1.40742 -0.51114,2.11667 -0.14037,0.36199 -0.26674,0.98683 -0.0962,1.35403 0.22428,0.48307 0.92537,0.41745 1.19118,0.0429 0.53577,-0.75493 0.67369,-1.66899 0.91579,-2.53995 0.23009,-0.82762 0.57045,-1.63737 0.84282,-2.45534 0.13805,-0.41452 0.17458,-0.86046 0.30971,-1.26983 0.0396,-0.1201 0.14948,-0.29121 0.30001,-0.26297 0.20219,0.038 0.0315,0.40923 -6.7e-4,0.5168 -0.14978,0.49975 -0.36915,1.0436 -0.36915,1.56634 0,0.5403 0.14393,1.12314 -0.0317,1.651 -0.16501,0.49589 -0.69465,0.83096 -0.90221,1.31233 -0.0935,0.21696 -0.0397,0.52997 -0.0397,0.762 0,0.67331 0.003,1.83083 0.53501,2.34302 0.32305,0.31119 1.04708,0.0108 1.31555,-0.24028 0.52731,-0.49297 0.98222,-1.01867 1.57844,-1.43722 0.85738,-0.60189 1.8087,-0.89018 2.14427,-1.97785 0.1245,-0.40361 0.0447,-0.81378 -0.13788,-1.18534 -0.12763,-0.25976 -0.38819,-0.62602 -0.17911,-0.91766 0.24727,-0.34489 0.63098,0.58458 0.68009,0.74833 0.20315,0.67712 -0.0257,1.36885 -0.30019,1.98967 -0.23288,0.52679 -0.66743,1.04313 -0.78825,1.60866 -0.06,0.28076 0.0181,0.56473 0.0204,0.84667 0.65108,0.0877 1.21115,0.15325 1.72665,-0.35729 0.24646,-0.24406 0.51718,-1.25019 1.02332,-1.06545 0.16523,0.0603 0.25502,0.26873 0.34248,0.40674 0.24384,0.38367 0.42799,0.79062 0.65066,1.18533 0.3429,0.60672 0.71924,1.0936 1.2518,1.54365 0.13927,0.11777 0.24934,0.31199 0.42418,0.37816 0.26162,0.0987 0.64897,0.0323 0.93091,0.0679 0.14224,-0.38109 0.30522,-0.85886 0.19346,-1.27 -0.072,-0.26416 -0.35433,-0.50381 -0.51604,-0.71967 -0.31369,-0.41812 -0.58971,-0.87913 -0.8073,-1.35466 -0.1579,-0.3446 -0.34078,-0.73567 -0.43942,-1.10067 -0.0639,-0.2352 -0.0318,-0.49907 -0.14817,-0.71967 -0.17483,-0.33117 -0.63246,-0.56396 -0.72432,-0.93133 -0.10499,-0.41804 -0.0339,-0.88993 -0.0152,-1.31233 0.0334,-0.76234 0.0212,-1.57899 -0.12531,-2.32834 -0.0961,-0.49102 -0.26204,-1.05863 -0.67796,-1.37926 -0.77813,-0.60003 -0.86509,0.46016 -0.97304,0.9136 -0.46198,-0.35298 -0.66878,-0.80434 -0.79942,-1.35467 -0.0351,-0.14796 -0.14186,-0.37355 -0.0508,-0.51613 0.2587,-0.40513 1.05508,-0.49128 1.48522,-0.55706 0.43688,-0.0668 0.75735,0.57421 1.22767,0.59834 0.25188,0.013 0.46736,-0.15943 0.63331,-0.33012 0.54737,-0.56354 0.43476,-1.38091 0.11768,-2.03136 -0.30945,-0.63462 -1.15231,-0.94471 -1.80932,-0.60008 -0.30705,0.16104 -0.49039,0.47562 -0.80434,0.62869 -0.28037,0.1367 -1.18211,0.58734 -1.31051,0.0554 -0.0616,-0.25514 0.20485,-0.55698 0.37982,-0.7051 0.50194,-0.42507 1.39217,-0.41732 1.79269,-0.94708 0.28778,-0.38083 0.57183,-1.24528 0.13749,-1.61959 -0.28634,-0.24663 -0.74405,-0.19507 -0.9329,-0.58056 -0.1358,-0.27711 -0.005,-0.59524 -0.0282,-0.88836 -0.0552,-0.6861 -0.54453,-0.98865 -1.1814,-1.016 m -5.08,2.14028 c -0.87045,0.10067 -0.48154,0.88147 -0.79341,1.37275 -0.2043,0.32186 -0.6565,0.27809 -0.85395,0.56049 -0.24553,0.35107 -0.23418,1.33117 0.17031,1.57019 0.46757,0.27631 1.05838,0.19647 1.51939,0.49331 0.3476,0.22381 0.58356,1.01155 1.01604,0.96697 0.74083,-0.0764 1.0265,-0.74553 1.11845,-1.38899 0.14389,-1.00728 -0.35861,-2.68165 -1.24549,-3.22534 -0.26382,-0.16171 -0.60588,-0.38701 -0.93134,-0.34938 m -22.39433,2.80666 c -0.35314,0.14127 -0.63195,0.48387 -0.97367,0.66256 -0.50969,0.26653 -1.21949,0.41567 -1.778,0.5646 -0.76267,0.20337 -1.83468,0.12527 -2.44077,0.71272 -0.2587,0.25075 -0.19867,0.87918 0.072,1.09644 0.35763,0.2871 1.11307,0.25302 0.70815,0.94907 -0.43455,0.74689 -1.318,0.90801 -1.93764,1.41139 -0.51278,0.4166 -0.78426,1.08276 -1.31242,1.48709 -0.24189,0.18516 -0.55858,0.18444 -0.80259,0.34967 -0.46938,0.31776 -0.71064,1.17505 -0.52123,1.70485 0.0961,0.26869 0.36631,0.48175 0.56187,0.67733 0.4925,0.49255 1.20027,0.97583 1.51976,1.60867 0.33321,0.65989 0.41639,1.43315 0.8001,2.07433 0.16421,0.27436 0.30785,0.54741 0.64347,0.62273 0.79028,0.17729 1.31445,-0.19042 1.26606,-1.04606 -0.0141,-0.24901 -0.11057,-1.04128 0.34265,-0.98273 0.7841,0.10122 1.48497,0.95936 2.03577,1.43235 0.22157,0.19033 0.51244,0.25713 0.74024,0.43464 0.479,0.37329 1.31386,0.76208 1.92295,0.47379 0.36982,-0.17505 0.59918,-0.57273 0.93133,-0.80586 0.22361,-0.15693 0.48908,-0.22352 0.71967,-0.36995 0.59546,-0.37812 1.15921,-0.823 1.69333,-1.28291 0.33283,-0.2866 0.72077,-0.54957 1.00207,-0.88904 0.32555,-0.39281 0.50961,-0.86364 0.90357,-1.20951 0.65206,-0.57247 1.61184,-0.77207 1.79717,-1.75378 0.0502,-0.26615 -0.0695,-0.5939 -0.14787,-0.84667 -0.32402,-1.04563 -1.26149,-1.77486 -2.28494,-2.11285 -0.35348,-0.11676 -0.76979,0.002 -1.10067,-0.14847 -0.52324,-0.23787 -0.78989,-0.82901 -1.27063,-1.07543 -0.26569,-0.13619 -0.80764,-0.072 -1.10003,-0.0427 -0.5983,0.0599 -1.12328,0.34379 -1.5113,0.79709 -0.21912,0.25599 -0.38287,0.66133 -0.69067,0.82228 -0.26653,0.13937 -0.4285,-0.10845 -0.6767,-0.14711 -0.18533,-0.0289 -0.39179,0.0793 -0.55033,0.1624 -0.56105,0.294 -1.25481,1.46312 -1.68838,0.3901 -0.20824,-0.51541 0.88866,-0.98908 1.22271,-1.15333 1.12687,-0.55402 2.3274,-0.93273 3.429,-1.50275 0.39273,-0.2032 0.95373,-0.36441 1.12594,-0.81526 0.19723,-0.51625 -0.15282,-0.80645 -0.49094,-1.14295 -0.5497,-0.54703 -1.26268,-1.46529 -2.159,-1.10677 m 46.736002,0.87254 c -0.51731,0.0978 -0.71628,0.55452 -0.61299,1.03852 0.16807,0.78799 0.93261,1.40199 0.56515,2.286 -0.1778,0.42659 -0.81534,0.76001 -1.26449,0.79485 -0.50758,0.0394 -1.15697,-0.12141 -1.40166,0.51748 -0.26331,0.68838 0.28363,1.68986 0.80899,2.09427 0.19727,0.15173 0.76539,0.21963 0.79629,0.48993 0.0461,0.40318 -0.32681,0.9434 -0.52874,1.26813 -0.60537,0.97134 -1.39573,1.80201 -2.01592,2.75167 -0.24214,0.3708 -0.55753,1.35247 0.22437,1.30332 0.64728,-0.0407 1.33308,-0.58869 1.86267,-0.9202 0.52578,-0.32902 1.14469,-0.54018 1.651,-0.88206 0.66336,-0.44801 1.20734,-1.13813 1.66285,-1.78706 0.33486,-0.47693 0.63712,-0.97591 0.92583,-1.48167 0.16849,-0.29497 0.31538,-0.65117 0.58716,-0.8666 0.88181,-0.70019 3.25036,-0.52261 3.16527,-2.1814 -0.0516,-1.01041 -0.90932,-1.70899 -1.85378,-1.87892 -0.33613,-0.0605 -0.85175,0.0818 -1.12522,-0.17479 -0.17484,-0.16383 -0.20955,-0.52049 -0.28617,-0.74029 -0.15367,-0.43755 -0.36407,-0.90237 -0.65278,-1.26818 -0.35645,-0.45144 -1.03505,-0.30996 -1.53416,-0.3288 -0.32724,-0.0124 -0.64305,-0.0967 -0.97367,-0.0342 m 29.591,2.35086 -0.55033,1.016 c -0.20786,-0.0952 -0.36957,-0.25934 -0.59267,-0.32931 -0.35814,-0.11231 -0.86529,0.001 -1.05833,-0.39036 0.71458,-0.3167 1.44399,-0.58797 2.20133,-0.29633 M 134.4937,73.851 c 0,-0.68757 -0.0808,-1.44327 0.0804,-2.11666 0.30014,-1.25413 1.44737,-2.13589 2.6289,-2.53988 0.41359,-0.14143 0.84201,-0.28126 1.27,-0.37219 0.11726,-0.0249 0.33316,-0.0972 0.43815,-0.008 0.18796,0.15964 -0.25316,0.38244 -0.35349,0.42795 -0.57107,0.25874 -1.31868,0.26657 -1.38938,1.05266 -0.0652,0.72428 1.42918,0.27309 1.60571,0.97532 0.0432,0.1709 -0.15494,0.49767 -0.20066,0.67568 -0.2811,1.09127 -1.25561,1.5651 -2.344,1.59766 -0.37677,0.0113 -0.71797,-0.15426 -1.10067,-0.0684 -0.26119,0.0586 -0.41021,0.25789 -0.635,0.37575 M 90.848628,70.05943 c 0.69207,-0.1869 0.72098,0.64905 0.0841,0.80213 -0.46444,0.11163 -0.44929,-0.70354 -0.0841,-0.80213 m -20.5323,1.51816 c 0.63343,-0.0913 1.14507,0.38934 0.77766,1.0033 -0.51181,0.8553 -1.39759,1.55232 -2.13233,2.20836 -0.24917,0.22246 -0.61125,0.6165 -0.97349,0.62103 -0.54945,0.007 -0.2104,-0.82169 -0.0616,-1.05139 0.14673,-0.22657 0.36301,-0.39768 0.49331,-0.635 0.46609,-0.84904 0.7612,-1.98264 1.89649,-2.1463 m -3.89467,0.29578 c 0.80023,-0.0944 0.65033,0.72763 0.45703,1.21552 -0.22978,0.58005 -0.65883,1.43844 -1.14173,1.84493 -0.14393,0.1212 -0.3376,0.13978 -0.50063,0.22567 -0.16861,0.0889 -0.35306,0.29905 -0.55033,0.30768 -0.41093,0.018 -1.12158,-0.6667 -0.80484,-1.08991 0.10105,-0.135 0.29091,-0.1005 0.37558,0.0302 0.16861,0.26035 0.27847,0.7631 0.72178,0.4978 0.50927,-0.30476 0.68381,-0.95568 0.93497,-1.43476 0.12235,-0.23339 0.38329,-0.37652 0.22653,-0.67171 -0.167,-0.31449 -0.89988,0.0961 -0.80916,-0.42794 0.0654,-0.37779 0.78456,-0.4614 1.0908,-0.49751 m -5.50333,0.34092 c 0.71188,-0.0737 1.33126,0.91931 0.81051,1.49123 -0.12742,0.13995 -0.46101,0.15706 -0.64118,0.17479 -1.01858,0.10042 -1.29108,-1.54982 -0.16933,-1.66602 m 30.31067,0.40894 c 0.0858,0.35191 -0.20104,0.69621 -0.55034,0.71966 0.003,-0.38748 0.16231,-0.62636 0.55034,-0.71966 m 25.696332,1.12035 c -0.44365,0.08 -0.86868,0.41127 -0.73829,0.91165 0.0847,0.32583 0.38735,0.55507 0.59182,0.80433 0.38777,0.4732 0.84793,0.99966 1.15866,1.524 0.21675,0.36622 0.16764,0.9285 0.47202,1.21983 0.24934,0.23851 0.82931,0.55614 1.18279,0.50191 1.52442,-0.23389 1.90119,-2.07578 1.25688,-3.24574 -0.53764,-0.97562 -1.64381,-1.34933 -2.65388,-1.58111 -0.4136,-0.0949 -0.84286,-0.21196 -1.27,-0.13487 M 91.694698,74.5282 c -0.0776,0.69045 -0.76123,0.0184 0,0 m 47.201672,0.52031 c 0.53086,-0.056 0.33528,0.93786 -0.16933,0.98582 -0.25866,0.0246 -1.07993,-0.3374 -0.88604,-0.68999 0.12869,-0.23385 0.81449,-0.27043 1.05537,-0.29583 M 64.220368,85.05669 c -0.91177,0.0197 -0.85492,1.36 0.0423,1.35238 0.86496,-0.008 0.85171,-1.37169 -0.0423,-1.35238 m 2.11667,0.68944 0.0423,0.254 c 0.20735,-0.0165 0.47951,-0.13632 0.67551,-0.0347 0.2217,0.11514 0.27843,0.40047 0.29435,0.62738 0.0376,0.53551 0.0461,1.07103 0.0461,1.60866 v 4.190999 c 0,0.36788 -0.19359,1.25519 0.0266,1.55237 0.19401,0.26205 0.69075,0.44535 0.98941,0.54991 1.16857,0.4081 2.3346,0.18881 3.25802,-0.63881 1.14143,-1.02278 1.34692,-2.955289 0.70777,-4.299799 -0.74554,-1.56845 -2.99826,-1.8161 -3.83879,-0.16933 h -0.0423 v -4.318 c -0.66912,-0.0954 -1.54212,0.43942 -2.159,0.67733 m 40.640002,-0.69968 c -0.88816,0.15989 -0.63289,1.49893 0.254,1.355 0.86698,-0.14055 0.61595,-1.51164 -0.254,-1.355 m 28.194,4.2e-4 c -0.91271,0.14986 -0.6422,1.53111 0.254,1.3622 0.85344,-0.16087 0.61383,-1.5047 -0.254,-1.3622 m -81.110672,0.44526 -0.0847,2.07433 0.29634,0.0423 c 0.009,-0.2032 0.0486,-0.39962 0.11321,-0.59266 0.40164,-1.19931 1.75901,-0.97367 2.76546,-0.97367 0,2.44983 0.21508,5.01565 -0.0497,7.450669 -0.0431,0.39666 -0.31244,0.70061 -0.71232,0.75522 -0.10665,0.0144 -0.57039,0.001 -0.54289,0.17611 0.035,0.22225 0.71879,0.12742 0.88155,0.127 h 2.28601 c 0.26916,0 0.64999,0.0969 0.67733,-0.254 -0.42286,-0.003 -0.98624,-0.0216 -1.1866,-0.46567 -0.30425,-0.67437 -0.12573,-1.6891 -0.12573,-2.412999 v -5.37633 c 0.95851,0 2.2697,-0.22479 2.75573,0.84667 0.10135,0.22352 0.13462,0.47836 0.16527,0.71966 h 0.254 l -0.0847,-2.11666 h -7.40834 m 33.78201,0 c 0.0546,0.32681 0.51181,0.20489 0.762,0.28998 0.34239,0.11642 0.48412,0.43646 0.53222,0.76835 0.22716,1.56803 -0.0518,3.24273 0.0567,4.826 0.0385,0.562189 0.0245,1.120139 0.25239,1.650999 0.94742,2.20726 4.83904,2.31648 6.18913,0.46567 0.50999,-0.69893 0.54725,-1.66624 0.54725,-2.497669 v -3.175 c 0,-0.70951 -0.14097,-1.79155 0.71966,-2.05571 0.19558,-0.0601 0.39032,-0.061 0.59267,-0.061 v -0.21166 h -3.21733 v 0.21166 c 0.35285,8.5e-4 0.78295,0.006 1.05376,0.26289 0.24312,0.23072 0.25806,0.60791 0.25857,0.92245 v 1.86266 c 0,1.85505 0.4898,4.590629 -1.82033,5.242559 -0.36517,0.1033 -0.72267,0.13801 -1.10067,0.13378 -2.50778,-0.0301 -2.24367,-3.027259 -2.24367,-4.783669 v -1.143 c 0,-0.64516 -0.18813,-1.90204 0.42715,-2.32283 0.24934,-0.17018 0.59432,-0.17484 0.88519,-0.17484 v -0.21166 h -3.89467 m -7.83167,3.34433 0.97367,0.0423 v 3.301999 c 0,0.56176 -0.0613,1.29625 0.16789,1.82033 0.59072,1.35086 2.33393,0.37466 2.58378,-0.67733 -0.46702,0.005 -0.65117,0.68157 -1.18529,0.47667 -0.47888,-0.18372 -0.42338,-0.82888 -0.42338,-1.23867 V 88.8787 h 1.43933 v -0.46567 h -1.05833 c -0.12471,-4.2e-4 -0.29976,0.022 -0.37981,-0.0982 -0.19135,-0.28659 -0.001,-1.08246 -0.001,-1.42578 0,-0.12531 0.0458,-0.38651 -0.0672,-0.47625 -0.1784,-0.1414 -0.33012,0.37592 -0.3741,0.47625 -0.20562,0.46863 -0.52727,0.92159 -0.91335,1.25772 -0.25069,0.21844 -0.65396,0.3628 -0.762,0.68961 m 57.531002,0.0423 h 0.97367 c 0.0258,1.12734 0,2.25891 0,3.386669 0,0.54991 -0.0758,1.22258 0.16087,1.73566 0.57361,1.24418 2.42951,0.48472 2.54846,-0.67733 -0.4627,0.0347 -0.71797,0.77851 -1.26619,0.42291 -0.30776,-0.19981 -0.31623,-0.64516 -0.33866,-0.97324 -0.0614,-0.89451 -0.004,-1.812719 -0.004,-2.709339 0,-0.25103 -0.11854,-0.93091 0.0677,-1.1176 0.21421,-0.21378 1.07738,-0.0677 1.3716,-0.0677 v -0.46566 l -1.43933,-0.0423 c 0.12573,-0.45763 0.0428,-1.08458 0.0423,-1.56634 0,-0.11726 0.0288,-0.4809 -0.196,-0.39539 -0.14605,0.0559 -0.20024,0.30903 -0.25273,0.43773 -0.13843,0.33782 -0.33401,0.65616 -0.57404,0.93133 -0.26797,0.30692 -1.06384,0.70993 -1.0939,1.10067 m -9.18633,3.555999 v 1.60866 c 0,0.13209 -0.0584,0.45975 0.0677,0.54738 0.1342,0.0931 0.49403,-0.13123 0.69427,-0.0864 1.31614,0.29337 3.14664,0.31835 3.37439,-1.43468 0.20574,-1.582849 -1.57184,-1.974429 -2.61239,-2.608159 -0.46694,-0.28448 -1.00626,-0.86529 -0.57616,-1.41351 0.61299,-0.77978 1.74668,-0.3683 2.16324,0.381 0.16552,0.29803 0.17272,0.85852 0.57192,0.889 v -2.07433 c -0.24934,-0.0127 -0.34502,0.19896 -0.57489,0.21505 -0.35094,0.0246 -0.71501,-0.20574 -1.07611,-0.21463 -0.44408,-0.0106 -0.88265,0.0123 -1.27,0.25908 -0.7946,0.50715 -1.0994,1.78477 -0.45678,2.5345 0.70062,0.817029 2.00872,0.888149 2.64541,1.777999 0.38608,0.54017 0.0974,1.26746 -0.53763,1.4423 -0.72348,0.19939 -1.50622,-0.32089 -1.84785,-0.9343 -0.16171,-0.28999 -0.17865,-0.85895 -0.56515,-0.889 M 62.738548,89.21737 c 0.28592,-0.091 0.6146,-0.18542 0.80053,0.12785 0.18643,0.31411 0.13081,0.79206 0.13081,1.14215 v 2.328339 c 0,0.41952 0.0945,0.98975 -0.25845,1.30048 -0.14304,0.12616 -0.58543,0.0787 -0.64274,0.23622 -0.0969,0.26628 0.43692,0.19897 0.56252,0.19897 h 1.73567 c 0.14279,0 0.49318,0.0631 0.59067,-0.0677 0.0657,-0.0881 0.003,-0.18754 -0.0889,-0.21506 -0.53983,-0.16172 -0.75112,-0.27305 -0.79426,-0.90255 -0.11586,-1.690369 -0.004,-3.427729 -0.004,-5.122329 -0.55702,4.2e-4 -1.09745,0.29506 -1.60866,0.49953 -0.24681,0.0986 -0.56807,0.15452 -0.42334,0.47413 m 16.21367,2.920999 c -0.40695,1.41267 -1.945,1.88595 -3.04736,0.91864 -0.68348,-0.59987 -0.88964,-1.488019 -0.88964,-2.357969 h 4.191 c -0.001,-2.0447 -2.25057,-3.21352 -3.937,-2.00025 -2.10769,1.51596 -1.54284,5.954189 1.397,6.021499 0.96596,0.022 1.73634,-0.57405 2.18813,-1.39658 0.16548,-0.30142 0.57459,-1.0177 0.0979,-1.18534 m 25.738672,2.41301 0.0423,-0.254 c -0.34417,-0.1016 -0.6803,-0.0224 -0.86148,-0.42334 -0.16595,-0.3683 -0.0699,-0.91652 -0.0699,-1.31233 0,-1.006689 0.16171,-2.200909 -0.1287,-3.174999 -0.24299,-0.8145 -0.92625,-1.27678 -1.7763,-1.12353 -0.25146,0.0453 -0.50165,0.15663 -0.71967,0.28787 -0.38481,0.23071 -0.66421,0.56218 -0.97367,0.87799 v -1.18533 c -0.580812,4.2e-4 -1.119292,0.28702 -1.651002,0.49953 -0.12911,0.0517 -0.48133,0.12488 -0.47625,0.30692 0.007,0.24511 0.34925,0.0876 0.47625,0.0813 0.19855,-0.01 0.3501,0.11895 0.42291,0.2976 0.25358,0.62188 0.0851,1.582 0.0851,2.24367 0,0.619759 0.24046,1.923619 -0.22098,2.407489 -0.17526,0.18289 -0.37084,0.116 -0.57361,0.21252 -0.11303,0.0542 -0.12319,0.1795 -0.003,0.23326 0.18034,0.08 0.47625,0.0254 0.67056,0.0254 h 1.566342 c 0.14478,0 0.63119,0.0796 0.65743,-0.13081 0.0296,-0.23368 -0.39962,-0.15198 -0.53043,-0.19304 -0.24342,-0.0766 -0.37296,-0.28449 -0.4191,-0.52282 -0.16891,-0.86572 -0.004,-1.82965 -0.004,-2.709339 0,-0.30903 -0.0974,-0.82042 0.0436,-1.10066 0.25611,-0.5097 1.09728,-0.9089 1.64973,-0.83863 0.46905,0.0593 0.66336,0.51181 0.73617,0.92329 0.15748,0.89112 0.0682,1.849549 0.0682,2.751669 0,0.38608 0.0614,0.87969 -0.14266,1.22682 -0.15029,0.25697 -0.83101,0.24808 -0.85344,0.428 -0.0313,0.24849 0.51646,0.16552 0.65743,0.16552 h 2.32834 m 0.80433,-5.588009 0.0847,0.254 c 0.24722,-0.0512 0.58123,-0.17949 0.77681,0.0521 0.23072,0.27305 0.19685,0.8382 0.19685,1.1756 0,1.02785 0.20363,2.305469 -0.0571,3.301999 -0.12996,0.49658 -0.42883,0.36195 -0.77597,0.53341 -0.0749,0.0373 -0.10625,0.13292 -0.0538,0.2032 0.0965,0.12954 0.4191,0.0626 0.56049,0.0622 0.55923,-0.001 1.12184,0.005 1.68106,0.005 0.1397,4.2e-4 0.58843,0.0715 0.6151,-0.1342 0.0271,-0.20785 -0.36703,-0.16256 -0.4881,-0.22394 -0.25358,-0.1287 -0.34713,-0.39117 -0.3738,-0.65787 -0.17315,-1.72677 -0.007,-3.555569 -0.007,-5.291659 -0.70739,0.002 -1.52485,0.42291 -2.159,0.71966 m 16.34067,3.174999 c -0.16045,0.33867 -0.29888,0.69088 -0.56304,0.96647 -0.91736,0.95631 -2.32198,0.38862 -2.94682,-0.58547 -0.35856,-0.5588 -0.41868,-1.176439 -0.46948,-1.820329 h 4.23334 c -0.10245,-0.55076 -0.11049,-1.03801 -0.43858,-1.524 -0.89789,-1.33011 -2.94851,-1.17517 -3.96028,-0.0847 -1.40504,1.51469 -1.03632,5.219699 1.35086,5.575299 1.04055,0.15494 1.93886,-0.19643 2.53619,-1.08797 0.20362,-0.30395 0.7675,-1.22724 0.25781,-1.43933 m 1.016,-3.174999 0.0847,0.254 c 0.29591,-0.0783 0.64474,-0.18838 0.84625,0.12869 0.18076,0.28491 0.12742,0.7747 0.12742,1.09898 v 2.412999 c 0,0.34628 0.0703,0.79205 -0.12742,1.09897 -0.1977,0.30692 -0.56642,0.29803 -0.88858,0.29803 0.004,0.11557 -10e-4,0.24468 0.13335,0.28278 0.26458,0.0745 0.6913,-0.008 0.96732,-0.025 0.44111,-0.0284 0.87418,0.0377 1.31233,0.0385 0.15833,4.2e-4 0.69808,0.0859 0.76835,-0.0974 0.0326,-0.0855 -0.0203,-0.16044 -0.10075,-0.18542 -0.40344,-0.127 -0.73576,-0.12403 -0.8962,-0.60621 -0.127,-0.381 -0.0677,-0.83185 -0.0677,-1.22767 0,-0.687909 -0.0377,-1.387679 0.002,-2.074329 0.019,-0.32893 0.53552,-1.24968 0.92964,-1.1883 0.44492,0.0694 1.16078,0.91737 1.4478,0.003 0.20828,-0.66463 -0.50842,-1.03039 -1.0668,-0.90932 -0.58589,0.127 -1.03039,0.73533 -1.27,1.24799 h -0.0423 v -1.27 c -0.72433,0.002 -1.49268,0.46101 -2.159,0.71967 m 10.83733,0 0.0847,0.254 c 0.2777,-0.0635 0.60494,-0.20871 0.80391,0.0893 0.20108,0.30099 0.12742,0.79586 0.12742,1.13834 v 2.328329 c 0,0.34375 0.069,0.77724 -0.0694,1.10067 -0.15621,0.3645 -0.47244,0.38101 -0.81957,0.38101 0.0131,0.40301 0.41148,0.29633 0.71967,0.29633 h 2.20133 v -0.29633 c -0.90847,0 -0.89747,-0.70655 -0.92964,-1.43934 -0.0665,-1.517649 -0.002,-3.052659 -0.002,-4.571999 -0.68665,0.006 -1.50072,0.4318 -2.11667,0.71966 M 109.348,88.41249 c 0.025,0.323 0.28025,0.26247 0.508,0.40471 0.2176,0.13631 0.36449,0.34078 0.47498,0.56896 0.63458,1.31148 1.15951,2.711019 1.70096,4.063999 0.14562,0.36406 0.27135,0.80137 0.47244,1.13665 0.0792,0.13251 0.25696,0.17103 0.37846,0.0656 0.27178,-0.2358 0.41317,-0.91187 0.5461,-1.24461 0.44704,-1.1176 0.89662,-2.234769 1.36228,-3.344329 0.28152,-0.67098 0.42037,-1.20269 1.16078,-1.43933 l -0.0423,-0.21167 h -1.98967 c 0.033,0.42122 0.63881,0.13589 0.6985,0.59267 0.0436,0.33655 -0.27093,0.8365 -0.3937,1.143 -0.36703,0.91736 -0.84878,1.840229 -1.10913,2.793999 h -0.0847 c -0.24341,-0.88943 -0.71416,-1.775889 -1.07611,-2.624669 -0.15325,-0.35899 -0.44069,-0.82635 -0.4009,-1.22767 0.0478,-0.47963 0.65024,-0.28575 0.71501,-0.67733 h -2.921 m 32.21567,0.0423 c 0.0771,0.27898 0.30438,0.23961 0.50631,0.39878 0.19896,0.15663 0.35348,0.40301 0.48387,0.61722 0.64304,1.05664 1.09728,2.26864 1.62517,3.386669 0.18712,0.39624 0.63797,1.0033 0.65617,1.43933 0.008,0.18119 -0.1143,0.38693 -0.18161,0.55033 -0.19008,0.46101 -0.34671,1.02151 -0.76158,1.33689 -0.48471,0.3683 -1.09685,-0.29083 -1.65015,-0.005 -0.51562,0.26585 -0.28956,0.96393 0.12615,1.19041 0.83778,0.45636 1.80806,-0.3937 2.22928,-1.04055 0.41317,-0.635 0.64008,-1.41605 0.92032,-2.11667 0.53637,-1.34069 1.05199,-2.695359 1.62222,-4.021659 0.18542,-0.43138 0.30437,-0.97198 0.65066,-1.30768 0.0953,-0.0923 0.52409,-0.21167 0.47244,-0.37465 -0.047,-0.14817 -0.3611,-0.0957 -0.47625,-0.0957 H 146.305 v 0.254 c 0.69893,0.006 0.61722,0.50758 0.4208,1.016 -0.4009,1.03759 -0.76031,2.209379 -1.3098,3.174999 -0.35348,-0.84878 -0.78443,-1.675129 -1.19591,-2.497669 -0.16891,-0.33824 -0.50038,-0.83777 -0.48091,-1.22766 0.0258,-0.52832 0.71332,-0.30142 0.74549,-0.71967 h -1.905 l -1.016,0.0423 m -63.754002,1.86267 h -2.794 c 0.0572,-1.31234 1.80954,-2.32622 2.6021,-0.93134 0.15304,0.26924 0.18936,0.62696 0.1919,0.93134 m 42.883672,0 h -2.794 c 0.0233,-1.11676 1.29116,-2.13995 2.28557,-1.29837 0.40217,0.34079 0.44662,0.80942 0.50843,1.29837 m -51.138672,-1.0867 c 0.78977,-0.13208 1.4627,0.3247 1.77622,1.04436 0.53116,1.21963 0.31522,3.665219 -1.31055,3.918379 -0.46415,0.0724 -1.39307,-0.2485 -1.54208,-0.74507 -0.18373,-0.61214 0.0181,-1.51469 0.0181,-2.157309 0,-0.38057 -0.13814,-1.0977 0.0435,-1.43552 0.16306,-0.30353 0.68584,-0.57023 1.01481,-0.62484 z"
       id="path2444"
       sodipodi:nodetypes="cccccccccccccccccssccssccccccccccccccccccscscscsccscccscsccccccccssssssscscscsscscscscccsscsccssssccscsscccccccccccccccscscccssscccccccscssccsccssscccsccscscscccsssscsccscscssccscsccccccsccscssccccccscccccccsccccsscccccssccsccssccccccccsscssssccsccccccccccscsccccscccccccccssccccccccccccsccccccccccscsscccccccscsccsscccccccsccssccccccsccsscccccsccccccsccccsccccccccccsccccccccsccccccccssscsssccsccccccccccccccscccccccccscccsscccscccsccsccccsccccccccccccccccccsccccssscccccccssccscccccccssccsccccccccccsccccccccccccccccscccccccccssccsccccccccccccccccccscc" />
  </g>
</svg>
