<?xml version="1.0" encoding="UTF-8" standalone="no"?>
<!-- Created with Inkscape (http://www.inkscape.org/) -->

<svg
   width="89.053024mm"
   height="21.040016mm"
   viewBox="0 0 89.053024 21.040016"
   version="1.1"
   id="svg3309"
   inkscape:version="1.2.2 (b0a8486541, 2022-12-01)"
   sodipodi:docname="name_zh.svg"
   xmlns:inkscape="http://www.inkscape.org/namespaces/inkscape"
   xmlns:sodipodi="http://sodipodi.sourceforge.net/DTD/sodipodi-0.dtd"
   xmlns="http://www.w3.org/2000/svg"
   xmlns:svg="http://www.w3.org/2000/svg">
  <sodipodi:namedview
     id="namedview3311"
     pagecolor="#ffffff"
     bordercolor="#666666"
     borderopacity="1.0"
     inkscape:showpageshadow="2"
     inkscape:pageopacity="0.0"
     inkscape:pagecheckerboard="0"
     inkscape:deskcolor="#d1d1d1"
     inkscape:document-units="mm"
     showgrid="false"
     inkscape:zoom="5.986532"
     inkscape:cx="1.2528121"
     inkscape:cy="53.870922"
     inkscape:window-width="1920"
     inkscape:window-height="1039"
     inkscape:window-x="0"
     inkscape:window-y="0"
     inkscape:window-maximized="1"
     inkscape:current-layer="layer1" />
  <defs
     id="defs3306" />
  <g
     inkscape:label="Layer 1"
     inkscape:groupmode="layer"
     id="layer1"
     transform="translate(-113.16634,-101.20856)">
    <path
       style="fill:#bd8b35;stroke:none;stroke-width:0.0423333"
       d="m 193.37967,105.78094 c 0.17145,0.44522 0.28618,0.97163 0.40302,1.43933 0.066,0.26251 0.0978,0.55508 0.32088,0.73838 0.26162,0.21463 0.61595,0.20333 0.9271,0.27762 -0.18584,0.22521 -0.50757,0.24012 -0.69596,0.47011 -0.15578,0.19008 -0.12446,0.53878 -0.32639,0.67552 -0.26754,0.18148 -0.73998,0.20002 -1.05198,0.26932 -0.42079,0.0934 -0.81238,0.28922 -1.22767,0.38299 -0.5969,0.13492 -1.4406,-0.21158 -1.93929,0.24845 -0.39751,0.36644 -0.42545,1.07802 -0.65405,1.55194 -0.69172,1.43362 -2.07518,2.68919 -1.03462,4.318 0.12403,0.19381 0.15578,0.53709 0.37084,0.6433 0.7222,0.357 1.20184,-0.19058 1.86012,-0.34696 -0.0402,0.31923 0.0995,0.50626 0.12023,0.80433 0.0263,0.37884 -0.24384,0.9119 0.002,1.25777 0.22225,0.31233 0.67691,0.46435 1.02065,0.59139 0.5605,0.20731 1.08839,0.38308 1.56253,0.76535 0.50588,0.40796 0.74252,1.28181 1.40081,1.5044 0.29252,0.0989 0.68537,0.0174 0.97366,-0.0616 0.1922,-0.0527 0.38143,-0.12912 0.55034,-0.23504 0.5698,-0.35712 1.38387,-1.17885 1.60274,-1.83261 0.17737,-0.53086 0.0347,-1.65345 0.64135,-1.94551 0.23029,-0.11083 0.42079,0.13957 0.59224,0.25146 0.20743,0.13534 0.44535,0.16789 0.63077,0.34722 0.17483,0.16971 0.20955,0.43925 0.37719,0.60164 0.25146,0.24282 0.71882,-0.10605 0.86106,-0.31378 0.14774,-0.21611 0.20531,-0.50643 0.24214,-0.76136 0.21336,-1.48332 -1.00922,-2.25061 -2.32283,-2.46575 -0.37253,-0.0611 -1.34662,0.034 -1.56506,-0.33778 -0.0978,-0.16666 0.0165,-0.42502 0.0851,-0.58314 0.22437,-0.51519 0.71035,-0.85547 0.95335,-1.35466 0.14901,-0.30552 0.10922,-0.68885 0.18796,-1.016 0.48302,0.25446 0.84836,0.01 1.31233,0.16086 0.1977,0.0645 0.27136,0.22987 0.43434,0.33549 0.29295,0.19012 0.82889,0.34591 1.17433,0.24393 1.62263,-0.47938 1.09897,-2.66891 0.20997,-3.53047 -0.77131,-0.74761 -1.92109,-0.87685 -2.91931,-1.06215 0.10033,-0.31445 0.36661,-0.54762 0.56515,-0.80433 0.40683,-0.52561 0.82762,-1.05325 1.29752,-1.524 0.56684,-0.56773 1.28228,-1.17369 1.38896,-2.032 0.0952,-0.76449 -0.42207,-1.04618 -0.96563,-1.46689 -0.32173,-0.24909 -0.65701,-0.62696 -1.05833,-0.73749 -0.87884,-0.24202 -2.04047,0.67509 -2.50105,1.35772 -0.18966,0.28075 -0.11176,0.6148 0.25738,0.69964 0.34714,0.0798 0.8581,-0.22809 0.98425,0.31635 0.0639,0.27492 -0.19981,0.65363 -0.3175,0.889 -0.33358,0.66718 -0.69469,1.31941 -1.16078,1.905 -0.15028,0.18919 -0.40428,0.53848 -0.64643,0.60808 -0.14647,0.0421 -0.16764,-0.12476 -0.19092,-0.22712 -0.0821,-0.36538 -0.29252,-0.69541 -0.36703,-1.05829 -0.12615,-0.61239 0.53848,-1.29955 0.70612,-1.86267 0.12531,-0.42083 0.0292,-0.74252 -0.44704,-0.7603 -0.53679,-0.0201 -0.88858,0.65193 -1.27,0.95868 -0.41233,0.33121 -0.93345,0.25201 -1.35424,0.50808 -0.39963,0.24346 -0.58463,0.72826 -1.01643,0.92579 -0.28744,0.13149 -0.69596,0.28677 -1.016,0.21374 -0.49106,-0.11197 -0.85301,-0.5221 -1.397,-0.6002 -0.50546,-0.0726 -1.06468,0.0776 -1.22597,0.61688 -0.33867,1.13517 0.96181,1.59952 1.44526,2.413 0.22733,0.3832 0.20278,0.91813 0.58674,1.20019 0.32258,0.23703 0.85386,0.27915 1.18364,0.051 0.97494,-0.67462 0.61426,-1.76326 0.86868,-2.73287 0.0872,-0.33358 0.33486,-0.64736 0.57065,-0.889 m -43.688,-3.59833 c -0.22813,0.39082 -0.72305,-0.007 -0.91169,0.46571 -0.48958,1.22754 -0.0103,2.66577 -0.34709,3.93695 -0.0756,0.28533 -0.18804,0.5152 -0.43459,0.69271 -0.18851,0.13572 -0.49255,0.18817 -0.59881,0.41241 -0.25882,0.54614 -0.19058,1.38396 -0.71793,1.79413 -0.32419,0.25213 -1.28024,0.4069 -1.64655,0.21471 -0.63521,-0.33329 -1.04534,-1.09228 -1.8197,-0.43303 -0.49712,0.42325 -0.2123,1.43696 -0.2123,2.01807 0,0.37017 0.0546,0.67958 -0.33867,0.84667 0,-0.40225 0.0584,-0.95851 -0.16912,-1.31157 -0.20663,-0.32063 -0.7819,-0.4216 -1.01752,-0.0831 -0.4672,0.67107 -0.21726,1.65303 -0.35129,2.41067 -0.10481,0.59258 -0.50152,1.14618 -0.6568,1.73567 -0.097,0.36804 -0.18923,0.85759 0.16459,1.12124 0.24092,0.17953 0.77445,0.15773 1.0014,-0.0388 0.23033,-0.19943 0.26124,-0.43629 0.60541,-0.44747 0,0.77428 -0.2361,1.40742 -0.51114,2.11667 -0.14037,0.36199 -0.26674,0.98683 -0.0962,1.35403 0.22428,0.48307 0.92537,0.41745 1.19118,0.0429 0.53577,-0.75493 0.67369,-1.66899 0.91579,-2.53995 0.23009,-0.82762 0.57045,-1.63737 0.84282,-2.45534 0.13805,-0.41452 0.17458,-0.86046 0.30971,-1.26983 0.0396,-0.1201 0.14948,-0.29121 0.30001,-0.26297 0.20219,0.038 0.0315,0.40923 -6.7e-4,0.5168 -0.14978,0.49975 -0.36915,1.0436 -0.36915,1.56634 0,0.5403 0.14393,1.12314 -0.0317,1.651 -0.16501,0.49589 -0.69465,0.83096 -0.90221,1.31233 -0.0935,0.21696 -0.0397,0.52997 -0.0397,0.762 0,0.67331 0.003,1.83083 0.53501,2.34302 0.32305,0.31119 1.04708,0.0108 1.31555,-0.24028 0.52731,-0.49297 0.98222,-1.01867 1.57844,-1.43722 0.85738,-0.60189 1.8087,-0.89018 2.14427,-1.97785 0.1245,-0.40361 0.0447,-0.81378 -0.13788,-1.18534 -0.12763,-0.25976 -0.38819,-0.62602 -0.17911,-0.91766 0.24727,-0.34489 0.63098,0.58458 0.68009,0.74833 0.20315,0.67712 -0.0257,1.36885 -0.30019,1.98967 -0.23288,0.52679 -0.66743,1.04313 -0.78825,1.60866 -0.06,0.28076 0.0181,0.56473 0.0204,0.84667 0.65108,0.0877 1.21115,0.15325 1.72665,-0.35729 0.24646,-0.24406 0.51718,-1.25019 1.02332,-1.06545 0.16523,0.0603 0.25502,0.26873 0.34248,0.40674 0.24384,0.38367 0.42799,0.79062 0.65066,1.18533 0.3429,0.60672 0.71924,1.0936 1.2518,1.54365 0.13927,0.11777 0.24934,0.31199 0.42418,0.37816 0.26162,0.0987 0.64897,0.0323 0.93091,0.0679 0.14224,-0.38109 0.30522,-0.85886 0.19346,-1.27 -0.072,-0.26416 -0.35433,-0.50381 -0.51604,-0.71967 -0.31369,-0.41812 -0.58971,-0.87913 -0.8073,-1.35466 -0.1579,-0.3446 -0.34078,-0.73567 -0.43942,-1.10067 -0.0639,-0.2352 -0.0318,-0.49907 -0.14817,-0.71967 -0.17483,-0.33117 -0.63246,-0.56396 -0.72432,-0.93133 -0.10499,-0.41804 -0.0339,-0.88993 -0.0152,-1.31233 0.0334,-0.76234 0.0212,-1.57899 -0.12531,-2.32834 -0.0961,-0.49102 -0.26204,-1.05863 -0.67796,-1.37926 -0.77813,-0.60003 -0.86509,0.46016 -0.97304,0.9136 -0.46198,-0.35298 -0.66878,-0.80434 -0.79942,-1.35467 -0.0351,-0.14796 -0.14186,-0.37355 -0.0508,-0.51613 0.2587,-0.40513 1.05508,-0.49128 1.48522,-0.55706 0.43688,-0.0668 0.75735,0.57421 1.22767,0.59834 0.25188,0.013 0.46736,-0.15943 0.63331,-0.33012 0.54737,-0.56354 0.43476,-1.38091 0.11768,-2.03136 -0.30945,-0.63462 -1.15231,-0.94471 -1.80932,-0.60008 -0.30705,0.16104 -0.49039,0.47562 -0.80434,0.62869 -0.28037,0.1367 -1.18211,0.58734 -1.31051,0.0554 -0.0616,-0.25514 0.20485,-0.55698 0.37982,-0.7051 0.50194,-0.42507 1.39217,-0.41732 1.79269,-0.94708 0.28778,-0.38083 0.57183,-1.24528 0.13749,-1.61959 -0.28634,-0.24663 -0.74405,-0.19507 -0.9329,-0.58056 -0.1358,-0.27711 -0.005,-0.59524 -0.0282,-0.88836 -0.0552,-0.6861 -0.54453,-0.98865 -1.1814,-1.016 m -5.08,2.14028 c -0.87045,0.10067 -0.48154,0.88147 -0.79341,1.37275 -0.2043,0.32186 -0.6565,0.27809 -0.85395,0.56049 -0.24553,0.35107 -0.23418,1.33117 0.17031,1.57019 0.46757,0.27631 1.05838,0.19647 1.51939,0.49331 0.3476,0.22381 0.58356,1.01155 1.01604,0.96697 0.74083,-0.0764 1.0265,-0.74553 1.11845,-1.38899 0.14389,-1.00728 -0.35861,-2.68165 -1.24549,-3.22534 -0.26382,-0.16171 -0.60588,-0.38701 -0.93134,-0.34938 m -22.39433,2.80666 c -0.35314,0.14127 -0.63195,0.48387 -0.97367,0.66256 -0.50969,0.26653 -1.21949,0.41567 -1.778,0.5646 -0.76267,0.20337 -1.83468,0.12527 -2.44077,0.71272 -0.2587,0.25075 -0.19867,0.87918 0.072,1.09644 0.35763,0.2871 1.11307,0.25302 0.70815,0.94907 -0.43455,0.74689 -1.318,0.90801 -1.93764,1.41139 -0.51278,0.4166 -0.78426,1.08276 -1.31242,1.48709 -0.24189,0.18516 -0.55858,0.18444 -0.80259,0.34967 -0.46938,0.31776 -0.71064,1.17505 -0.52123,1.70485 0.0961,0.26869 0.36631,0.48175 0.56187,0.67733 0.4925,0.49255 1.20027,0.97583 1.51976,1.60867 0.33321,0.65989 0.41639,1.43315 0.8001,2.07433 0.16421,0.27436 0.30785,0.54741 0.64347,0.62273 0.79028,0.17729 1.31445,-0.19042 1.26606,-1.04606 -0.0141,-0.24901 -0.11057,-1.04128 0.34265,-0.98273 0.7841,0.10122 1.48497,0.95936 2.03577,1.43235 0.22157,0.19033 0.51244,0.25713 0.74024,0.43464 0.479,0.37329 1.31386,0.76208 1.92295,0.47379 0.36982,-0.17505 0.59918,-0.57273 0.93133,-0.80586 0.22361,-0.15693 0.48908,-0.22352 0.71967,-0.36995 0.59546,-0.37812 1.15921,-0.823 1.69333,-1.28291 0.33283,-0.2866 0.72077,-0.54957 1.00207,-0.88904 0.32555,-0.39281 0.50961,-0.86364 0.90357,-1.20951 0.65206,-0.57247 1.61184,-0.77207 1.79717,-1.75378 0.0502,-0.26615 -0.0695,-0.5939 -0.14787,-0.84667 -0.32402,-1.04563 -1.26149,-1.77486 -2.28494,-2.11285 -0.35348,-0.11676 -0.76979,0.002 -1.10067,-0.14847 -0.52324,-0.23787 -0.78989,-0.82901 -1.27063,-1.07543 -0.26569,-0.13619 -0.80764,-0.072 -1.10003,-0.0427 -0.5983,0.0599 -1.12328,0.34379 -1.5113,0.79709 -0.21912,0.25599 -0.38287,0.66133 -0.69067,0.82228 -0.26653,0.13937 -0.4285,-0.10845 -0.6767,-0.14711 -0.18533,-0.0289 -0.39179,0.0793 -0.55033,0.1624 -0.56105,0.294 -1.25481,1.46312 -1.68838,0.3901 -0.20824,-0.51541 0.88866,-0.98908 1.22271,-1.15333 1.12687,-0.55402 2.3274,-0.93273 3.429,-1.50275 0.39273,-0.2032 0.95373,-0.36441 1.12594,-0.81526 0.19723,-0.51625 -0.15282,-0.80645 -0.49094,-1.14295 -0.5497,-0.54703 -1.26268,-1.46529 -2.159,-1.10677 m 46.736,0.87254 c -0.51731,0.0978 -0.71628,0.55452 -0.61299,1.03852 0.16807,0.78799 0.93261,1.40199 0.56515,2.286 -0.1778,0.42659 -0.81534,0.76001 -1.26449,0.79485 -0.50758,0.0394 -1.15697,-0.12141 -1.40166,0.51748 -0.26331,0.68838 0.28363,1.68986 0.80899,2.09427 0.19727,0.15173 0.76539,0.21963 0.79629,0.48993 0.0461,0.40318 -0.32681,0.9434 -0.52874,1.26813 -0.60537,0.97134 -1.39573,1.80201 -2.01592,2.75167 -0.24214,0.3708 -0.55753,1.35247 0.22437,1.30332 0.64728,-0.0407 1.33308,-0.58869 1.86267,-0.9202 0.52578,-0.32902 1.14469,-0.54018 1.651,-0.88206 0.66336,-0.44801 1.20734,-1.13813 1.66285,-1.78706 0.33486,-0.47693 0.63712,-0.97591 0.92583,-1.48167 0.16849,-0.29497 0.31538,-0.65117 0.58716,-0.8666 0.88181,-0.70019 3.25036,-0.52261 3.16527,-2.1814 -0.0516,-1.01041 -0.90932,-1.70899 -1.85378,-1.87892 -0.33613,-0.0605 -0.85175,0.0818 -1.12522,-0.17479 -0.17484,-0.16383 -0.20955,-0.52049 -0.28617,-0.74029 -0.15367,-0.43755 -0.36407,-0.90237 -0.65278,-1.26818 -0.35645,-0.45144 -1.03505,-0.30996 -1.53416,-0.3288 -0.32724,-0.0124 -0.64305,-0.0967 -0.97367,-0.0342 m 29.591,2.35086 -0.55033,1.016 c -0.20786,-0.0952 -0.36957,-0.25934 -0.59267,-0.32931 -0.35814,-0.11231 -0.86529,0.001 -1.05833,-0.39036 0.71458,-0.3167 1.44399,-0.58797 2.20133,-0.29633 m -8.21267,5.92666 c 0,-0.68757 -0.0808,-1.44327 0.0804,-2.11666 0.30014,-1.25413 1.44737,-2.13589 2.6289,-2.53988 0.41359,-0.14143 0.84201,-0.28126 1.27,-0.37219 0.11726,-0.0249 0.33316,-0.0972 0.43815,-0.008 0.18796,0.15964 -0.25316,0.38244 -0.35349,0.42795 -0.57107,0.25874 -1.31868,0.26657 -1.38938,1.05266 -0.0652,0.72428 1.42918,0.27309 1.60571,0.97532 0.0432,0.1709 -0.15494,0.49767 -0.20066,0.67568 -0.2811,1.09127 -1.25561,1.5651 -2.344,1.59766 -0.37677,0.0113 -0.71797,-0.15426 -1.10067,-0.0684 -0.26119,0.0586 -0.41021,0.25789 -0.635,0.37575 m -43.64503,-3.79146 c 0.69207,-0.1869 0.72098,0.64905 0.0841,0.80213 -0.46444,0.11163 -0.44929,-0.70354 -0.0841,-0.80213 m -20.5323,1.51816 c 0.63343,-0.0913 1.14507,0.38934 0.77766,1.0033 -0.51181,0.8553 -1.39759,1.55232 -2.13233,2.20836 -0.24917,0.22246 -0.61125,0.6165 -0.97349,0.62103 -0.54945,0.007 -0.2104,-0.82169 -0.0616,-1.05139 0.14673,-0.22657 0.36301,-0.39768 0.49331,-0.635 0.46609,-0.84904 0.7612,-1.98264 1.89649,-2.1463 m -3.89467,0.29578 c 0.80023,-0.0944 0.65033,0.72763 0.45703,1.21552 -0.22978,0.58005 -0.65883,1.43844 -1.14173,1.84493 -0.14393,0.1212 -0.3376,0.13978 -0.50063,0.22567 -0.16861,0.0889 -0.35306,0.29905 -0.55033,0.30768 -0.41093,0.018 -1.12158,-0.6667 -0.80484,-1.08991 0.10105,-0.135 0.29091,-0.1005 0.37558,0.0302 0.16861,0.26035 0.27847,0.7631 0.72178,0.4978 0.50927,-0.30476 0.68381,-0.95568 0.93497,-1.43476 0.12235,-0.23339 0.38329,-0.37652 0.22653,-0.67171 -0.167,-0.31449 -0.89988,0.0961 -0.80916,-0.42794 0.0654,-0.37779 0.78456,-0.4614 1.0908,-0.49751 m -5.50333,0.34092 c 0.71188,-0.0737 1.33126,0.91931 0.81051,1.49123 -0.12742,0.13995 -0.46101,0.15706 -0.64118,0.17479 -1.01858,0.10042 -1.29108,-1.54982 -0.16933,-1.66602 m 30.31067,0.40894 c 0.0858,0.35191 -0.20104,0.69621 -0.55034,0.71966 0.003,-0.38748 0.16231,-0.62636 0.55034,-0.71966 m 25.69633,1.12035 c -0.44365,0.08 -0.86868,0.41127 -0.73829,0.91165 0.0847,0.32583 0.38735,0.55507 0.59182,0.80433 0.38777,0.4732 0.84793,0.99966 1.15866,1.524 0.21675,0.36622 0.16764,0.9285 0.47202,1.21983 0.24934,0.23851 0.82931,0.55614 1.18279,0.50191 1.52442,-0.23389 1.90119,-2.07578 1.25688,-3.24574 -0.53764,-0.97562 -1.64381,-1.34933 -2.65388,-1.58111 -0.4136,-0.0949 -0.84286,-0.21196 -1.27,-0.13487 m -25.23067,0.78465 c -0.0776,0.69045 -0.76123,0.0184 0,0 m 47.20167,0.52031 c 0.53086,-0.056 0.33528,0.93786 -0.16933,0.98582 -0.25866,0.0246 -1.07993,-0.3374 -0.88604,-0.68999 0.12869,-0.23385 0.81449,-0.27043 1.05537,-0.29583"
       id="path2448"
       sodipodi:nodetypes="cccccccccccccccccssccssccccccccccccccccccscscscsccscccscsccccccccssssssscscscsscscscscccsscsccssssccscsscccccccccccccccscscccssscccccccscssccsccssscccsccscscscccsssscsccscscssccscsccccccsccscssccccccscccccccsccccsscccccssccsccssccccccccsscssssccsccccccccccscsccccscc" />
  </g>
</svg>
