<?xml version="1.0" encoding="UTF-8" standalone="no"?>
<!-- Created with Inkscape (http://www.inkscape.org/) -->

<svg
   width="191.36763mm"
   height="102.03224mm"
   viewBox="0 0 191.36763 102.03224"
   version="1.1"
   id="svg2275"
   inkscape:version="1.2.2 (b0a8486541, 2022-12-01)"
   sodipodi:docname="zhong_zhang.svg"
   xmlns:inkscape="http://www.inkscape.org/namespaces/inkscape"
   xmlns:sodipodi="http://sodipodi.sourceforge.net/DTD/sodipodi-0.dtd"
   xmlns="http://www.w3.org/2000/svg"
   xmlns:svg="http://www.w3.org/2000/svg">
  <sodipodi:namedview
     id="namedview2277"
     pagecolor="#ffffff"
     bordercolor="#666666"
     borderopacity="1.0"
     inkscape:showpageshadow="2"
     inkscape:pageopacity="0.0"
     inkscape:pagecheckerboard="0"
     inkscape:deskcolor="#d1d1d1"
     inkscape:document-units="mm"
     showgrid="false"
     inkscape:zoom="0.7483165"
     inkscape:cx="352.7919"
     inkscape:cy="340.09674"
     inkscape:window-width="1920"
     inkscape:window-height="1039"
     inkscape:window-x="0"
     inkscape:window-y="0"
     inkscape:window-maximized="1"
     inkscape:current-layer="layer1" />
  <defs
     id="defs2272" />
  <g
     inkscape:label="Layer 1"
     inkscape:groupmode="layer"
     id="layer1"
     transform="translate(-11.772247,-58.808907)">
    <g
       id="g2368">
      <path
         style="fill:#bd8b35;stroke:none;stroke-width:0.0887482"
         d="m 179.93329,68.394556 c 0.35943,0.933362 0.59995,2.036956 0.8449,3.017458 0.13836,0.550337 0.20503,1.163689 0.67269,1.547958 0.54848,0.449954 1.29129,0.426261 1.9436,0.582013 -0.3896,0.472136 -1.06409,0.50339 -1.45903,0.985544 -0.32658,0.3985 -0.26091,1.129517 -0.68425,1.416188 -0.56087,0.380452 -1.55132,0.419323 -2.20539,0.564606 -0.88216,0.195809 -1.7031,0.606328 -2.57372,0.802912 -1.25137,0.282844 -3.02012,-0.443562 -4.06559,0.520854 -0.83335,0.768214 -0.89193,2.259991 -1.37116,3.253526 -1.45014,3.005487 -4.35046,5.63769 -2.16901,9.052375 0.26002,0.406308 0.32658,1.125966 0.77744,1.348628 1.51404,0.748434 2.51958,-0.399533 3.89961,-0.727372 -0.0842,0.669238 0.20859,1.061335 0.25205,1.686218 0.0551,0.794204 -0.51119,1.911731 0.005,2.636825 0.46591,0.654779 1.41908,0.97347 2.1397,1.239806 1.17505,0.434606 2.28173,0.803094 3.27573,1.604494 1.06053,0.855267 1.55664,2.687221 2.9367,3.153871 0.61325,0.20733 1.43683,0.0366 2.04121,-0.12914 0.40292,-0.11049 0.79963,-0.27069 1.15374,-0.49275 1.19455,-0.748674 2.90118,-2.471369 3.36002,-3.841928 0.37185,-1.112914 0.0729,-3.466342 1.34455,-4.078623 0.4828,-0.232345 0.88216,0.292605 1.2416,0.52717 0.43485,0.283724 0.93363,0.351973 1.32235,0.727917 0.36653,0.355782 0.43931,0.920857 0.79076,1.261298 0.52716,0.509056 1.50695,-0.222326 1.80514,-0.657811 0.30973,-0.453065 0.43043,-1.0617 0.50764,-1.596141 0.44729,-3.109679 -2.11576,-4.718241 -4.86965,-5.169266 -0.78098,-0.128097 -2.8231,0.07129 -3.28103,-0.708129 -0.20503,-0.349389 0.0346,-0.891027 0.17841,-1.222513 0.47036,-1.080052 1.48918,-1.793433 1.99862,-2.839944 0.31239,-0.640501 0.22896,-1.444121 0.39404,-2.129972 1.01262,0.533467 1.77852,0.02096 2.75122,0.337236 0.41445,0.135216 0.56887,0.481897 0.91055,0.703323 0.61415,0.398577 1.73771,0.725172 2.46189,0.511391 3.40173,-1.00499 2.30392,-5.595182 0.4402,-7.401373 -1.61701,-1.567317 -4.02743,-1.838256 -6.12012,-2.226726 0.21033,-0.659219 0.76857,-1.148044 1.1848,-1.686219 0.85288,-1.101909 1.73504,-2.208066 2.72014,-3.194951 1.18834,-1.190216 2.68821,-2.460566 2.91187,-4.259942 0.19956,-1.602706 -0.88484,-2.193244 -2.02438,-3.07523 -0.6745,-0.522202 -1.37738,-1.314378 -2.21871,-1.546093 -1.84243,-0.507379 -4.2777,1.41528 -5.24327,2.846358 -0.39761,0.588567 -0.2343,1.288885 0.53958,1.466743 0.72774,0.167302 1.79894,-0.478174 2.0634,0.663209 0.13396,0.576346 -0.41888,1.370284 -0.6656,1.863721 -0.69934,1.398695 -1.45638,2.76605 -2.4335,3.993692 -0.31505,0.396624 -0.84754,1.128894 -1.3552,1.274809 -0.30706,0.08823 -0.35144,-0.26156 -0.40024,-0.476154 -0.17212,-0.765994 -0.61326,-1.457884 -0.76946,-2.218633 -0.26447,-1.283823 1.12889,-2.724404 1.48034,-3.904946 0.26269,-0.882232 0.0612,-1.556637 -0.93719,-1.59392 -1.12535,-0.04221 -1.86284,1.366724 -2.66247,2.009808 -0.86442,0.694358 -1.9569,0.528319 -2.83906,1.065153 -0.8378,0.510394 -1.22564,1.526744 -2.13087,1.94085 -0.6026,0.275657 -1.45904,0.601199 -2.12997,0.448098 -1.02948,-0.234747 -1.78828,-1.09455 -2.9287,-1.258284 -1.05967,-0.1522 -2.23204,0.162691 -2.57017,1.293241 -0.70999,2.37981 2.01637,3.353288 3.02989,5.058683 0.47658,0.803353 0.42511,1.924803 1.23006,2.516117 0.67625,0.49691 1.79004,0.585217 2.4814,0.106918 2.0439,-1.414293 1.28776,-3.696543 1.82113,-5.729268 0.18281,-0.699334 0.70202,-1.357145 1.19633,-1.863722 M 88.345171,60.850886 c -0.47825,0.819325 -1.51582,-0.01465 -1.91128,0.97632 -1.02639,2.573447 -0.0215,5.588589 -0.72766,8.253529 -0.15848,0.598175 -0.39421,1.080081 -0.91108,1.452217 -0.3952,0.284528 -1.03261,0.39449 -1.25537,0.864588 -0.54259,1.144942 -0.39954,2.90137 -1.50508,3.761269 -0.679639,0.528567 -2.683939,0.853037 -3.451873,0.450127 -1.331673,-0.698731 -2.191483,-2.289895 -3.814867,-0.907823 -1.04218,0.887306 -0.445072,3.012483 -0.445072,4.230737 0,0.776032 0.114463,1.424685 -0.709999,1.774984 0,-0.843287 0.122419,-2.009454 -0.354556,-2.74961 -0.433179,-0.672185 -1.639192,-0.883861 -2.133142,-0.174212 -0.979461,1.406848 -0.455478,3.465451 -0.736455,5.053793 -0.219724,1.242293 -1.0514,2.402881 -1.376945,3.638695 -0.203337,0.771573 -0.396703,1.797884 0.345066,2.350604 0.50506,0.376365 1.623568,0.330671 2.099357,-0.08135 0.482858,-0.418088 0.547671,-0.914645 1.269185,-0.938081 0,1.623213 -0.494963,2.950548 -1.071557,4.437436 -0.294277,0.758894 -0.559205,2.068822 -0.201678,2.838626 0.470184,1.012721 1.939969,0.875151 2.497217,0.08995 1.123213,-1.582658 1.41235,-3.498916 1.91988,-5.324828 0.482376,-1.735042 1.195924,-3.432618 1.766916,-5.147439 0.289426,-0.869009 0.366004,-1.803893 0.649286,-2.662097 0.08304,-0.251791 0.313374,-0.610501 0.628956,-0.551305 0.423862,0.07961 0.06607,0.857918 -0.0019,1.08343 -0.314,1.047699 -0.773895,2.187838 -0.773895,3.283719 0,1.132694 0.301732,2.354584 -0.06645,3.461211 -0.345933,1.039594 -1.456281,1.742036 -1.891418,2.751199 -0.196018,0.454834 -0.08323,1.111047 -0.08323,1.597471 0,1.411548 0.0058,3.83821 1.121612,4.91197 0.677246,0.652394 2.19512,0.0226 2.757961,-0.50372 1.105458,-1.033489 2.059151,-2.13557 3.309081,-3.013028 1.79742,-1.261815 3.7918,-1.866201 4.4953,-4.146421 0.26101,-0.846138 0.0936,-1.706036 -0.28905,-2.484986 -0.26757,-0.544558 -0.81382,-1.312398 -0.3755,-1.923807 0.51838,-0.723028 1.3228,1.225535 1.42576,1.568818 0.42589,1.419538 -0.0539,2.869698 -0.62932,4.171206 -0.48822,1.104378 -1.39923,2.186842 -1.6525,3.372437 -0.1258,0.588584 0.0379,1.183918 0.0427,1.774982 1.36494,0.183849 2.53908,0.321279 3.61978,-0.749036 0.51669,-0.511648 1.08423,-2.62093 2.14533,-2.233627 0.34637,0.126404 0.53463,0.563362 0.71798,0.852693 0.51118,0.804339 0.89725,1.65747 1.36406,2.484959 0.71886,1.271944 1.50783,2.292654 2.62431,3.236164 0.29196,0.24688 0.52272,0.65406 0.88926,0.79277 0.54847,0.20692 1.36052,0.0678 1.95158,0.14235 0.29819,-0.79893 0.639869,-1.80053 0.405579,-2.66246 -0.150949,-0.553794 -0.742829,-1.056214 -1.081849,-1.508744 -0.65762,-0.876555 -1.23627,-1.843026 -1.69244,-2.83994 -0.33102,-0.722425 -0.71442,-1.542284 -0.92121,-2.307475 -0.13396,-0.493073 -0.0667,-1.046263 -0.31063,-1.508734 -0.36652,-0.694271 -1.32591,-1.182302 -1.51848,-1.952467 -0.2201,-0.876397 -0.071,-1.865673 -0.0318,-2.751209 0.0699,-1.598188 0.0444,-3.310235 -0.26271,-4.881188 -0.20147,-1.029392 -0.54934,-2.21934 -1.42129,-2.891525 -1.6313,-1.25792 -1.81361,0.964693 -2.03991,1.9153 -0.96851,-0.740004 -1.40205,-1.686237 -1.67593,-2.839964 -0.0736,-0.310184 -0.29739,-0.783123 -0.1065,-1.082033 0.54234,-0.849325 2.2119,-1.029929 3.11366,-1.167834 0.91588,-0.140049 1.58773,1.203786 2.57372,1.254378 0.52805,0.02718 0.97979,-0.334231 1.32769,-0.69207 1.14752,-1.181431 0.91143,-2.894988 0.24671,-4.258601 -0.64874,-1.330437 -2.41573,-1.980516 -3.79311,-1.258025 -0.64371,0.337608 -1.02807,0.997104 -1.68624,1.318006 -0.58777,0.286575 -2.47821,1.231315 -2.74738,0.116144 -0.12914,-0.534893 0.42946,-1.167671 0.79626,-1.478198 1.05228,-0.891134 2.91858,-0.874884 3.75824,-1.985493 0.6033,-0.798385 1.1988,-2.610632 0.28823,-3.395344 -0.60029,-0.517036 -1.55984,-0.40895 -1.95575,-1.217106 -0.28469,-0.58094 -0.0105,-1.247881 -0.0591,-1.862381 -0.11573,-1.43835 -1.14158,-2.072631 -2.47673,-2.129971 m -10.649854,4.486938 c -1.824822,0.211054 -1.009503,1.847941 -1.663322,2.877878 -0.4283,0.67475 -1.3763,0.582999 -1.790238,1.175021 -0.514733,0.735992 -0.49094,2.79071 0.357045,3.291794 0.980223,0.579266 2.218816,0.411886 3.185285,1.034186 0.72872,0.469208 1.223392,2.12064 2.130056,2.027185 1.553094,-0.160172 2.151978,-1.562944 2.344748,-2.911916 0.30165,-2.111693 -0.751802,-5.621891 -2.611075,-6.761695 -0.553081,-0.339007 -1.270188,-0.811333 -1.952499,-0.732453 m -46.948072,5.883968 c -0.74033,0.296164 -1.324829,1.014397 -2.041225,1.389011 -1.068524,0.558758 -2.556571,0.87142 -3.727442,1.183642 -1.598884,0.426346 -3.846274,0.262614 -5.116896,1.494169 -0.542347,0.525676 -0.416493,1.843138 0.150945,2.298594 0.749744,0.601888 2.333465,0.530442 1.484586,1.989663 -0.91101,1.565797 -2.763095,1.903568 -4.062124,2.958876 -1.075005,0.873371 -1.644147,2.269922 -2.751392,3.117582 -0.507106,0.388165 -1.171018,0.386661 -1.682569,0.733046 -0.984026,0.666166 -1.48981,2.463409 -1.092724,3.574092 0.201468,0.563295 0.767941,1.009957 1.177921,1.419978 1.032491,1.032598 2.516277,2.04576 3.186066,3.372464 0.698552,1.383405 0.872928,3.004482 1.677352,4.348667 0.34425,0.57518 0.645384,1.147614 1.348986,1.305524 1.656764,0.37168 2.755645,-0.39921 2.654197,-2.192989 -0.02956,-0.522041 -0.231796,-2.182974 0.718348,-2.060228 1.643809,0.212202 3.113128,2.011232 4.267836,3.002813 0.464512,0.39902 1.074294,0.53906 1.551866,0.911194 1.004186,0.78258 2.754406,1.59766 4.03131,0.99327 0.775305,-0.36698 1.25614,-1.200684 1.952478,-1.689434 0.468778,-0.32899 1.025315,-0.46859 1.508725,-0.77557 1.248339,-0.792698 2.430202,-1.725361 3.549948,-2.689528 0.697754,-0.600835 1.511041,-1.152129 2.100765,-1.863808 0.682492,-0.823495 1.06836,-1.810553 1.894267,-2.535637 1.367002,-1.20015 3.379106,-1.618601 3.767643,-3.676686 0.105235,-0.557955 -0.145704,-1.245059 -0.310011,-1.774975 -0.679275,-2.192085 -2.644624,-3.720858 -4.790202,-4.429436 -0.741046,-0.244775 -1.613807,0.0048 -2.307475,-0.311254 -1.096942,-0.498682 -1.655941,-1.737961 -2.663782,-2.254565 -0.556998,-0.285513 -1.693165,-0.150949 -2.306134,-0.08957 -1.254293,0.12558 -2.354881,0.72073 -3.16833,1.671041 -0.459371,0.536673 -0.802654,1.386436 -1.447939,1.723855 -0.55876,0.292173 -0.898321,-0.227351 -1.418649,-0.308404 -0.388528,-0.06058 -0.821362,0.16625 -1.153724,0.340461 -1.1762,0.616346 -2.630617,3.067324 -3.539566,0.817812 -0.43656,-1.080522 1.863014,-2.07353 2.563321,-2.417877 2.362401,-1.161459 4.879217,-1.955387 7.188643,-3.150397 0.823324,-0.425991 1.999425,-0.763955 2.360451,-1.709135 0.413475,-1.082273 -0.320375,-1.690668 -1.02922,-2.396107 -1.152398,-1.146808 -2.647112,-3.071889 -4.526182,-2.320258 m 97.978607,1.829203 c -1.08451,0.205035 -1.50163,1.162522 -1.28509,2.177187 0.35234,1.651959 1.95514,2.93917 1.18479,4.792432 -0.37274,0.894321 -1.70929,1.593299 -2.65092,1.666343 -1.06409,0.08258 -2.42548,-0.254518 -2.93846,1.084856 -0.55202,1.443144 0.59461,3.542676 1.69599,4.390488 0.41356,0.318087 1.60458,0.460442 1.66935,1.027106 0.0967,0.845227 -0.68512,1.977769 -1.10845,2.658537 -1.26912,2.036343 -2.92606,3.777777 -4.22623,5.768676 -0.50764,0.777352 -1.16884,2.83535 0.47038,2.73232 1.35697,-0.0853 2.79469,-1.234142 3.90494,-1.92913 1.10226,-0.689772 2.39976,-1.132453 3.4612,-1.849184 1.39067,-0.939211 2.53108,-2.386002 3.48602,-3.746439 0.70201,-0.999842 1.33567,-2.045923 1.94094,-3.106214 0.35323,-0.618377 0.66116,-1.365125 1.23095,-1.816755 1.84864,-1.467901 6.81413,-1.095622 6.63574,-4.573149 -0.10818,-2.118258 -1.90633,-3.582771 -3.88632,-3.939022 -0.70467,-0.126833 -1.78563,0.171494 -2.35893,-0.366432 -0.36654,-0.343456 -0.43931,-1.091162 -0.59994,-1.551969 -0.32216,-0.917286 -0.76325,-1.891749 -1.3685,-2.658642 -0.74727,-0.946407 -2.16991,-0.649802 -3.21624,-0.689305 -0.68604,-0.02603 -1.34811,-0.202729 -2.04122,-0.07178 m 62.03536,4.928414 -1.15375,2.129972 c -0.43575,-0.199581 -0.77476,-0.543687 -1.24248,-0.690368 -0.75082,-0.235455 -1.814,0.0019 -2.2187,-0.818367 1.49806,-0.663935 3.02722,-1.232636 4.61493,-0.621237 M 173.54374,90.40399 c 0,-1.441443 -0.16939,-3.025708 0.16856,-4.437427 0.62922,-2.629188 3.0343,-4.477733 5.5113,-5.324665 0.86705,-0.296498 1.76521,-0.589647 2.66245,-0.78027 0.24582,-0.05215 0.69845,-0.203772 0.91855,-0.01674 0.39405,0.33468 -0.53074,0.801755 -0.74106,0.897171 -1.19721,0.542424 -2.76452,0.558835 -2.91275,2.206823 -0.13668,1.518399 2.99618,0.57251 3.36626,2.044679 0.0905,0.358288 -0.32482,1.043334 -0.42067,1.416522 -0.5893,2.287761 -2.63229,3.281115 -4.91402,3.349374 -0.78987,0.02364 -1.50518,-0.323389 -2.30747,-0.143397 -0.54758,0.122852 -0.85998,0.540653 -1.33124,0.787734 M 82.045121,82.455349 c 1.45089,-0.391821 1.51149,1.360684 0.17633,1.681606 -0.973677,0.234018 -0.941918,-1.474927 -0.17633,-1.681606 m -43.044464,3.182702 c 1.32794,-0.191398 2.400557,0.816224 1.630305,2.103349 -1.072972,1.79308 -2.929937,3.25433 -4.470269,4.629667 -0.522366,0.466374 -1.281442,1.292445 -2.040851,1.301938 -1.151881,0.01473 -0.441093,-1.722601 -0.12914,-2.204153 0.30761,-0.474998 0.761019,-0.833707 1.034186,-1.331241 0.977124,-1.77994 1.595806,-4.156458 3.975855,-4.49956 m -8.164896,0.620089 c 1.677624,-0.197905 1.363374,1.525423 0.958138,2.54825 -0.481716,1.216034 -1.381193,3.015583 -2.393552,3.867759 -0.301743,0.254087 -0.707754,0.293035 -1.049536,0.473102 -0.353476,0.186365 -0.740163,0.626931 -1.153726,0.645028 -0.861486,0.0377 -2.351307,-1.397691 -1.687289,-2.284919 0.211849,-0.283016 0.609875,-0.21069 0.787382,0.06324 0.353475,0.545801 0.583792,1.599787 1.513155,1.043602 1.067648,-0.638912 1.433563,-2.00351 1.960092,-3.007868 0.256498,-0.489286 0.803535,-0.789344 0.474903,-1.408189 -0.350099,-0.659304 -1.886526,0.201465 -1.696344,-0.897142 0.13711,-0.792013 1.644774,-0.967297 2.286777,-1.043 m -11.537317,0.71472 c 1.492402,-0.154517 2.790891,1.927262 1.699174,3.126254 -0.26713,0.293397 -0.966472,0.329264 -1.344186,0.366432 -2.135379,0.210527 -2.706659,-3.249087 -0.354988,-3.492686 m 63.544091,0.857306 c 0.17988,0.737755 -0.42146,1.459556 -1.15373,1.508715 0.006,-0.812329 0.34026,-1.313116 1.15373,-1.508715 m 53.870469,2.348737 c -0.93009,0.167705 -1.82114,0.862195 -1.54779,1.911205 0.17758,0.683075 0.81207,1.16367 1.24072,1.686228 0.81294,0.992023 1.77761,2.095713 2.42905,3.194952 0.45439,0.767744 0.35143,1.946525 0.98954,2.557285 0.52272,0.500014 1.73859,1.165914 2.47964,1.052214 3.19584,-0.49033 3.9857,-4.351723 2.63495,-6.804451 -1.12712,-2.04533 -3.44613,-2.828778 -5.56366,-3.314685 -0.86708,-0.198958 -1.76699,-0.444366 -2.66245,-0.282748 M 83.818861,91.82372 c -0.1627,1.447481 -1.59588,0.03857 0,0 m 98.954799,1.090806 c 1.11291,-0.117407 0.7029,1.966152 -0.35499,2.066698 -0.54227,0.05158 -2.264,-0.707333 -1.85751,-1.446514 0.26979,-0.490251 1.70751,-0.56694 2.2125,-0.620184"
         id="path2448"
         sodipodi:nodetypes="cccccccccccccccccssccssccccccccccccccccccscscscsccscccscsccccccccssssssscscscsscscscscccsscsccssssccscsscccccccccccccccscscccssscccccccscssccsccssscccsccscscscccsssscsccscscssccscsccccccsccscssccccccscccccccsccccsscccccssccsccssccccccccsscssssccsccccccccccscsccccscc" />
      <path
         style="fill:#bd8b35;stroke:none;stroke-width:0.0960237"
         d="m 149.07887,109.42031 c -2.488,0.16037 -6.63529,1.17076 -7.57537,3.88766 -0.37545,1.08325 0.2123,2.06022 0.85268,2.88073 1.38562,1.77758 4.29137,2.69542 6.52487,2.08202 0.37837,-0.10365 0.57519,-0.76694 0.16717,-0.96781 -0.41383,-0.20391 -1.05148,-0.0182 -1.50564,-0.10275 -1.72367,-0.32292 -4.63031,-1.12555 -4.13193,-3.41197 0.2016,-0.92384 1.44227,-1.5994 2.21146,-1.99304 2.24502,-1.14909 4.61491,-1.50542 7.10579,-1.03559 3.35411,0.63253 7.0213,2.40133 9.04649,5.2372 0.67886,0.94978 1.16764,2.27481 1.59303,3.36085 0.10752,0.27598 0.169,1.16247 0.59151,1.10755 0.51467,-0.0669 0.1978,-1.42616 0.196,-1.77972 -0.009,-1.73259 -1.56617,-3.86216 -2.70504,-5.08552 -3.3647,-3.61679 -7.65221,-4.48354 -12.37084,-4.17952 M 26.839818,122.33438 c -2.028817,-1.17967 -4.113989,-2.44699 -6.241607,-3.44536 -0.651615,-0.30583 -1.364903,-0.36211 -2.016517,-0.65161 -1.011704,-0.44954 -2.09498,-1.39294 -3.168807,-1.62288 -0.857127,-0.1835 -2.030148,1.04006 -2.274632,1.78141 -0.21458,0.65104 1.275786,0.99471 1.698484,1.15966 1.995187,0.77878 3.939123,1.7108 5.857488,2.67121 5.291524,2.64924 10.304305,5.67948 14.446033,9.9544 1.837814,1.89696 3.333687,3.41531 4.182646,5.99722 0.840201,2.55522 -1.73411,5.54397 -3.255047,7.40241 -0.445751,0.54464 -2.46072,1.66026 -1.858851,2.4734 0.457653,0.61841 1.409455,-0.37939 1.714718,-0.75398 1.269336,-1.55752 2.415785,-3.26521 3.437399,-4.99279 0.374969,-0.63423 0.873432,-1.39745 1.060775,-2.11253 0.81919,-3.12734 -0.884577,-6.12369 -2.535917,-8.64221 -0.871524,-1.32917 -2.179174,-2.10121 -3.364224,-3.08681 -1.417885,-1.17928 -2.727281,-2.52429 -4.186093,-3.6424 -0.91424,-0.7007 -3.126253,-1.28865 -3.495848,-2.48914 m 63.088113,-5.62092 c -1.5678,0.13723 -3.5822,0.18033 -4.99329,0.95571 -0.56884,0.3126 -1.52486,1.52972 -0.47829,1.91823 0.42721,0.15856 0.85165,-0.13019 1.24649,-0.25148 0.99368,-0.30508 2.03294,-0.81046 3.0728,-0.92184 0.79152,-0.0848 1.53071,0.14745 2.30458,0.25877 1.75803,0.25276 3.4415,0.50116 5.08929,1.2059 1.93585,0.82801 3.840989,2.47455 5.377379,3.88774 0.48492,0.44544 1.53831,1.73572 2.28347,1.60005 0.62415,-0.11386 0.22184,-1.01576 0.016,-1.30372 -0.77107,-1.0795 -1.73998,-2.00433 -2.77992,-2.83128 -0.97176,-0.77329 -1.793719,-1.691 -2.880729,-2.31305 -1.54215,-0.88255 -3.21874,-1.12744 -4.89726,-1.55154 -1.05272,-0.26598 -2.26032,-0.74988 -3.36085,-0.65349 m -22.373729,4.85271 c -0.964275,1.30103 -2.638464,3.50471 -2.132704,5.28134 0.270498,0.95009 1.333193,1.1044 2.132704,1.44183 1.967835,0.83042 4.31228,2.59593 6.529674,1.90262 1.566732,-0.48972 0.596019,-2.19541 1.103886,-3.24428 0.266867,-0.55119 1.04081,-0.67812 1.584793,-0.77636 1.606292,-0.28989 3.630793,1.68974 4.649898,2.68341 0.311018,0.30323 0.994808,0.52774 1.232268,-0.004 0.16581,-0.37182 -0.0227,-0.84522 -0.0227,-1.23412 0,-0.49521 0.27233,-1.17293 -0.0606,-1.6108 -0.33906,-0.44575 -1.088916,-0.47993 -1.574517,-0.68179 -1.906478,-0.79249 -4.025244,-1.14546 -5.857395,-0.0251 -0.939228,0.57422 -1.124852,2.54503 -2.209043,2.81831 -0.950649,0.2397 -2.743446,-0.66631 -3.552543,-1.10561 -2.016516,-1.09506 -1.839161,-3.79615 -0.09596,-5.02603 0.509976,-0.35979 1.265115,-0.0611 1.79392,-0.49931 0.459968,-0.38142 0.162189,-1.09632 -0.259351,-1.35858 -0.848756,-0.52792 -2.470334,-0.25493 -3.455068,-0.41616 -3.099859,-0.5077 -6.643258,-1.50383 -9.79451,-0.99386 -1.254367,0.20302 -2.489697,0.53564 -3.744561,0.73402 -0.351457,0.0556 -0.788352,0.32274 -0.55513,0.74439 0.172625,0.31226 0.629159,0.32714 0.938853,0.29785 0.981647,-0.093 2.003633,-0.23372 2.976752,-0.40407 1.421541,-0.24888 2.922131,0.14675 4.321102,0.38132 2.004133,0.3361 4.084795,0.58767 6.049546,1.09602 m 135.586684,12.00308 -0.0961,-1.05629 c -1.46057,0 -4.20683,-0.19144 -5.24388,-1.3621 -0.43981,-0.49731 -0.66161,-1.55359 -0.47726,-2.19079 0.20937,-0.71885 0.78166,-1.78799 0.29385,-2.49666 -1.45765,-2.11962 -3.76705,-3.61071 -5.99959,-4.75223 -2.39298,-1.22345 -4.29519,-2.09373 -7.00983,-2.17382 -2.16246,-0.0639 -4.16553,-0.025 -5.84884,1.57644 -0.61937,0.59007 -0.53102,1.83973 0.5675,1.54312 1.98961,-0.53717 3.9274,-1.49905 6.04954,-1.56673 2.21145,-0.0705 3.63837,1.01699 5.47341,1.99942 1.83119,0.9806 3.93601,1.81976 5.24199,3.56596 1.00539,1.34444 -1.73423,2.09412 -1.67853,3.36078 0.0998,2.30515 2.37755,3.78528 4.50262,3.83568 0.61741,0.0159 1.1302,-0.33484 1.72841,-0.37355 0.85748,-0.0555 1.6276,0.34771 2.49666,0.0907 m -51.8532,-9.12237 c -1.09853,0.48318 -1.80334,1.50478 -2.54081,2.4006 -0.29769,0.36095 -0.76819,0.69829 -0.92568,1.15229 -0.15265,0.44152 0.24488,1.0989 0.60591,1.34299 0.44653,0.30152 0.89684,-0.0579 1.32419,-0.22093 0.84885,-0.32398 2.38812,-1.37988 3.26482,-1.33099 0.49359,0.0277 0.89592,0.61485 1.34435,0.80536 0.56173,0.23853 0.89398,-0.0433 1.44034,-0.0436 0.45039,-1.8e-4 0.78068,0.24006 1.24833,0.086 0.6549,-0.21617 0.96316,-0.88399 1.33478,-1.40657 0.24773,-0.34884 0.67601,-0.58621 0.87091,-0.96436 0.3649,-0.70694 -0.56749,-1.68303 -1.14941,-1.95775 -0.74419,-0.35183 -1.99634,0.0639 -2.59267,0.55272 -0.3169,0.25994 -0.79892,1.01458 -1.26078,0.68455 -0.62129,-0.4444 -1.39527,-1.74303 -1.25217,-2.54061 0.0866,-0.47954 0.39657,-0.95228 0.51946,-1.44036 0.12595,-0.49963 0.6309,-1.09296 0.31691,-1.61016 -0.41382,-0.68166 -1.62279,0.40004 -1.94064,0.75485 -0.93241,1.03958 -0.91322,2.45632 -0.60784,3.73605 m -133.474136,-0.76821 0.480127,2.01651 c -0.894086,0.16604 -3.566052,-0.16309 -2.442954,-1.62865 0.847028,-1.10546 2.109654,-0.86194 2.731033,-2.11631 -2.666021,-0.99836 -6.743959,3.02344 -3.647492,4.99377 0.459852,0.29268 0.929319,0.23611 1.438915,0.31879 1.118115,0.18146 2.762627,0.64211 3.608711,-0.41943 0.558969,-0.70136 0.485021,-2.75485 -0.364405,-3.25802 -0.476776,-0.2825 -1.300372,-0.002 -1.803935,0.0935 m 35.336982,-1.58891 c -1.743327,0.22892 -4.178314,1.48586 -5.101099,3.03062 -0.380852,0.63742 -1.222026,3.05118 0.204143,3.10936 0.367487,0.0158 1.224314,-0.18215 1.522185,-0.39733 0.447942,-0.32351 0.575078,-1.03651 0.990768,-1.43634 1.048884,-1.00912 2.875566,-1.9058 3.577211,-3.20136 0.461308,-0.85195 -0.50623,-1.19523 -1.193298,-1.10495 m 4.417114,3.02917 c -1.727277,1.7225 -3.7095,3.35386 -5.953502,4.3067 -0.562713,0.23901 -1.830035,0.54793 -1.414553,1.44948 0.384978,0.83515 1.805857,0.34368 2.470812,0.21618 2.298941,-0.44076 4.822934,-0.63615 7.105822,0.0551 3.251482,0.98455 6.975027,2.68773 9.410415,5.1114 0.647478,0.64442 1.233608,1.33906 1.904163,1.95967 0.17126,0.15855 0.539171,0.6183 0.81851,0.42769 0.366623,-0.25006 -0.319965,-1.04054 -0.47754,-1.23518 -0.914975,-1.13001 -1.884831,-2.29499 -3.013308,-3.2203 -1.017942,-0.83464 -2.252168,-1.34711 -3.36075,-2.0433 -1.658738,-1.04147 -3.197142,-2.16718 -5.185441,-2.5989 -1.135396,-0.24659 -2.388127,-0.65565 -3.552898,-0.67852 -0.265324,-0.004 -1.082387,0.2778 -1.255909,0.0245 -0.137455,-0.20074 0.164674,-0.44208 0.297967,-0.54481 0.487814,-0.37566 1.136452,-0.75169 1.726144,-0.9251 0.02515,0.31869 -0.0043,1.03071 0.263308,1.24561 0.507479,0.40639 2.424603,-0.11841 2.905503,-0.44228 0.624344,-0.4205 1.144903,-1.19686 1.920471,-1.28346 -0.01818,-0.36741 0.07732,-1.01969 -0.394541,-1.14434 -0.485712,-0.12838 -1.026998,0.54044 -1.429915,0.73381 -0.752729,0.36146 -1.857874,0.63879 -2.688679,0.50654 0.666403,-0.43951 1.410788,-0.72402 2.016518,-1.25351 0.320034,-0.2797 0.635096,-0.56653 0.960149,-0.8404 0.597946,-0.50354 1.047993,-2.11253 -0.192359,-2.22153 -1.284895,-0.11295 -2.312544,0.77849 -3.552513,0.90966 -0.65835,0.0696 -1.362587,-0.53698 -2.016424,-0.22456 -0.770406,0.36805 -1.496618,1.61684 -0.572014,2.21431 0.864215,0.55838 2.278953,-0.69339 3.260599,-0.50451 m 109.372005,1.44038 c -0.0595,0.75591 -0.83256,1.79346 -0.59726,2.49656 0.28323,0.84568 1.21853,0.881 1.9416,0.79574 1.54121,-0.18193 2.69252,-0.58162 4.12907,-1.17974 0.0998,0.38638 0.13245,1.3622 0.59534,1.50315 0.33319,0.10162 0.64816,-0.43172 0.821,-0.63893 0.46671,-0.55812 1.62569,-1.48735 1.09372,-2.29452 -0.50509,-0.76675 -1.37411,-0.59257 -2.02995,-0.21662 -1.00826,0.57807 -1.95025,1.10275 -3.07277,1.42683 -0.31114,0.0898 -0.81336,0.3572 -1.13696,0.24803 -0.48777,-0.16491 0.005,-0.82947 0.13632,-1.08431 0.36489,-0.70664 1.74668,-1.94515 1.68235,-2.68859 -0.046,-0.53581 -0.56271,-0.84961 -1.06586,-0.69973 -1.35971,0.40474 -2.63876,0.88832 -3.93703,1.46784 -0.0659,-0.5193 0.56081,-0.97657 0.37068,-1.43624 -0.21121,-0.51259 -0.97948,-0.70954 -1.42696,-0.42635 -0.95542,0.60466 -1.83792,1.91836 -2.63297,2.74169 -0.34185,0.35413 -0.79317,0.84846 -0.23336,1.2582 0.69525,0.50865 1.60266,-0.23978 2.20281,-0.56269 0.81237,-0.43692 2.24409,-0.67095 3.16016,-0.71041 m -37.44953,1.5364 c -0.50609,1.7199 -2.39874,3.0385 -3.74499,4.08094 -3.16786,2.45248 -6.2656,4.52929 -9.98656,6.04503 -1.34145,0.54648 -2.72997,1.02046 -4.03111,1.66477 -0.39659,0.19598 -0.87958,0.77281 -0.69426,1.25439 0.12862,0.33492 0.51182,0.30861 0.78837,0.19916 1.02266,-0.40437 2.17591,-0.60852 3.16881,-1.04484 2.74437,-1.20626 6.17918,-2.1019 9.21836,-1.81237 1.8331,0.17465 3.52121,0.84789 5.28138,1.32801 -0.30732,0.64586 -1.03709,1.12186 -1.53546,1.6324 -0.62803,0.64451 -1.09853,1.40812 -1.65356,2.11256 -0.27559,0.34923 -1.06587,0.92355 -0.79605,1.42606 0.29194,0.54463 1.36066,-0.13929 1.77644,-0.271 1.36546,-0.43286 2.69835,-0.48289 4.12912,-0.48289 0.57804,0 1.49222,0.23927 2.01651,0.0559 0.62029,-0.21708 1.6545,-1.56586 2.20855,-1.4368 2.07605,0.48336 3.78339,2.85622 5.10465,4.35757 2.22105,2.52476 4.97697,5.26129 6.05821,8.5462 0.54349,1.65121 0.4561,3.37803 0.4561,5.08928 1.08987,-0.32887 0.59823,-2.4397 0.48976,-3.26483 -0.43789,-3.32803 -1.76207,-5.92021 -3.56926,-8.72968 -0.28712,-0.44508 -0.77491,-0.74937 -1.10907,-1.16084 -1.49415,-1.83474 -3.04494,-3.47292 -4.93376,-4.90973 -3.06413,-2.33071 -6.37409,-4.22624 -10.08258,-5.30957 -1.11773,-0.32639 -2.37758,-0.74065 -3.55292,-0.7541 -0.95256,-0.0113 -1.93682,0.22071 -2.88072,0.31469 0.47723,-1.22287 2.45341,-2.10957 3.55289,-2.70541 1.85616,-1.00585 3.89096,-2.53071 5.37741,-4.01631 0.42923,-0.42896 1.60937,-0.97216 1.75146,-1.53822 0.13339,-0.5314 -0.1862,-1.0558 -0.5214,-1.43856 -1.17056,-1.34049 -2.49855,-0.72651 -4.0148,-0.22727 -0.46957,0.15446 -0.9084,0.56501 -1.43653,0.36133 -1.26273,-0.48714 -0.60881,-3.35442 -2.5965,-2.69185 -0.2391,0.0794 -0.45804,0.18895 -0.67217,0.3211 -0.91224,0.56387 -2.36607,1.56733 -2.56483,2.71682 -0.36488,2.11628 3.07567,1.74007 4.19723,1.32236 1.68139,-0.62617 2.97966,-1.01919 4.80128,-1.03428 m 8.45015,-3.17437 c -1.88401,0.68024 -1.7467,2.47138 -0.47148,3.74524 0.87574,0.87439 2.58016,0.84203 3.73632,0.98041 0.45031,0.0537 0.99768,0.16786 1.42213,-0.0642 0.48107,-0.26244 0.0739,-0.91993 -0.27176,-1.10026 -0.53393,-0.27875 -1.08894,0.0982 -1.63051,0.0393 -1.70539,-0.186 -1.96372,-1.71125 -2.05588,-3.01854 -0.0289,-0.41289 -0.29572,-0.73823 -0.72882,-0.58179 m -97.752976,0.1976 c -0.681779,0.16014 -2.077305,1.06287 -1.718345,1.91672 0.17693,0.42107 0.623185,0.68716 0.950146,0.98032 0.916184,0.82139 2.35394,2.0581 3.55292,2.40456 0.556076,0.16059 2.276825,8.6e-4 1.899739,-0.97667 -0.176014,-0.45601 -0.870663,-0.76733 -1.227578,-1.07528 -1.272992,-1.09842 -2.628566,-1.69369 -3.456882,-3.24965 m 62.319916,2.01649 c 0.071,0.37489 0.53103,1.57021 0.30633,1.86259 -0.54543,0.70771 -2.59554,-0.11704 -2.46303,-0.99837 0.25639,-1.70691 2.53217,-1.17321 2.9249,-2.68867 -1.7995,-0.33435 -2.76167,0.12566 -3.929319,1.53638 -0.37066,0.44797 -0.91126,0.99886 -0.83637,1.63242 0.27367,2.31813 3.818879,2.96428 5.629909,2.2081 1.2032,-0.5027 1.28482,-2.92644 0.26696,-3.68621 -0.43116,-0.3214 -1.43461,-0.0236 -1.89938,0.13383 m 87.47836,2.20857 c 0.002,0.22502 0.0135,0.44768 0.0249,0.67228 0.0998,1.79238 1.77932,-0.50241 2.13557,-0.9518 0.25832,-0.3262 0.86615,-0.61523 0.91989,-1.06483 0.10073,-0.85201 -1.93197,-1.59486 -2.59072,-1.51497 -0.579,0.0704 -0.96983,1.21106 -1.36258,1.60198 -0.62513,0.62156 -1.40964,0.62281 -2.19991,0.87325 0.0376,-0.46053 0.17101,-0.89573 0.27557,-1.34435 0.24775,-1.06531 -0.91798,-1.18793 -1.71209,-0.82869 -0.56944,0.25792 -0.45325,0.82908 -0.70483,1.30736 -0.2458,0.46604 -0.75476,0.66451 -1.21952,0.84608 -0.22659,0.0887 -0.58383,0.2682 -0.81812,0.10911 -0.45804,-0.3113 0.3255,-0.88103 0.53004,-1.06596 0.51277,-0.4641 2.92877,-1.71684 2.15095,-2.64184 -0.41864,-0.49663 -1.23198,0.15764 -1.66698,0.33781 -0.52334,0.21663 -0.91704,0.69034 -1.34818,1.04793 -0.85368,0.7073 -2.38238,1.35413 -2.45824,2.61667 -0.03,0.47761 0.27754,0.76568 0.63376,1.02794 1.18973,0.87467 2.11734,0.12612 3.26484,-0.47695 0.27174,-0.1429 0.63667,-0.48646 0.96026,-0.4518 1.0793,0.11568 1.78027,1.57297 3.07276,1.31448 0.89978,-0.17988 1.35011,-1.05061 2.11255,-1.41367 m -98.329039,-3.97034 c -1.30153,0.40541 -2.49011,2.66536 -1.15086,3.61965 1.31546,0.93729 2.41991,-0.31198 3.73978,-0.27943 0.52995,0.0136 0.75464,0.60841 1.34617,0.3114 0.81813,-0.41032 1.19165,-3.59698 -0.19008,-3.50239 -1.31997,0.0903 -1.23441,2.89283 -2.78433,2.48376 -1.42338,-0.37554 -0.1352,-1.42403 0.0565,-2.02343 0.19054,-0.59641 -0.61743,-0.73409 -1.01717,-0.60956 m 59.919339,0.43202 c 0.38599,-0.004 1.05144,0.60026 0.78256,1.00154 -0.26408,0.39446 -1.47301,0.78903 -1.93296,0.79268 -0.48778,0.004 -0.49452,-0.40803 -0.28905,-0.75217 0.22759,-0.38073 0.966,-1.03543 1.43945,-1.04205 m 4.129,2.09795 -0.096,-0.096 c -9.1e-4,-0.31391 -0.17854,-0.65517 -0.11231,-0.96014 0.10571,-0.4764 1.16287,-1.34724 1.57673,-0.72624 0.2929,0.44017 -1.00345,1.60851 -1.36835,1.78239 m -32.07202,-1.44036 c 0.15469,0.24457 0.30341,0.4905 0.39176,0.7682 0.51661,1.61082 -2.50335,1.26762 -1.46727,-0.0794 0.11433,-0.14767 0.25639,-0.27138 0.40716,-0.37922 0.21028,-0.15061 0.42348,-0.23696 0.66835,-0.30966 m -11.42693,0.164 c -1.10236,0.35923 -1.33472,1.58509 -0.66256,2.42864 0.95833,1.20281 2.68484,2.2128 4.21547,2.40592 0.35144,0.0445 0.89112,0.3451 1.22719,0.17533 0.43597,-0.22048 0.44749,-0.88372 0.17193,-1.21893 -0.38026,-0.46006 -1.02746,-0.60094 -1.49126,-0.95527 -0.99193,-0.75715 -1.6545,-1.53773 -2.37851,-2.50652 -0.24584,-0.32947 -0.69426,-0.45554 -1.08221,-0.32909 m -26.118679,4.92538 c -1.26512,-0.6323 -2.92202,1.41378 -3.93699,2.1404 -0.38198,0.27349 -1.01345,0.56348 -1.270133,0.9637 -0.197346,0.30776 -0.03854,0.75831 0.159462,1.02353 0.831581,1.11397 2.371141,1.56827 3.607251,2.0364 2.58989,0.98088 5.17718,0.58355 7.87402,0.46543 1.88015,-0.0823 3.74591,0.0392 5.56942,-0.51689 1.54503,-0.47132 3.025719,-0.86586 4.417119,-1.72645 0.63376,-0.39157 1.33089,-0.83004 0.9708,-1.69175 -0.13836,-0.32976 -0.52907,-0.48493 -0.84883,-0.29106 -0.45228,0.27503 -0.73268,0.94642 -1.17823,1.29087 -0.76244,0.58986 -2.042439,0.94556 -2.976769,1.17466 -0.75089,0.18418 -1.43939,0.56001 -2.20855,0.67515 -2.7781,0.41569 -5.41022,0.0506 -8.1621,-0.33858 -1.52014,-0.2148 -3.56086,-0.51123 -4.56193,-1.87228 -0.61081,-0.83051 1.24852,-1.27713 1.77723,-1.18927 2.72833,0.45344 7.5671,2.30287 9.12232,-1.18359 0.20165,-0.45334 0.89303,-1.30182 0.70578,-1.81026 -0.18532,-0.50508 -1.66745,-0.3505 -1.97886,-0.039 -0.24323,0.2434 -0.14154,0.67899 -0.22844,0.985 -0.15062,0.52958 -0.47552,1.03151 -0.90052,1.37613 -1.42557,1.15577 -3.13126,0.4812 -4.60774,-0.29883 -0.48818,-0.2579 -1.31679,-0.5602 -1.34436,-1.17332 m 47.820189,10.46667 v 0.096 c -1.0956,0.77043 -3.56249,0.66114 -4.89727,0.67218 0.15357,-0.46564 0.66741,-0.68947 1.05628,-0.95794 0.42062,-0.2901 0.92089,-0.83388 1.44037,-0.91224 0.68274,-0.10298 1.86481,0.72039 2.40062,1.10198"
         id="path2450"
         sodipodi:nodetypes="cccccccccccsccccssscsssssssscsssccsscscsccccssccsccscssscssscscscssccscccccccsscsscsccccccccsccscccccccssccccccssssccscccsccscssssccscscscccsccccsccscsccccccccssccccccsccccccsccccscccccscccsccccccccsssccccccscccccccccccsccscccccsccccccccscccccccccccccsssccsccscccccccccccccccccccscccccccsscsscccccsccsscccccscccccsc" />
    </g>
  </g>
</svg>
